%TF.GenerationSoftware,KiCad,Pcbnew,(6.0.0)*%
%TF.CreationDate,2023-11-18T00:08:50-03:00*%
%TF.ProjectId,LevelSensor_v2.0,4c657665-6c53-4656-9e73-6f725f76322e,rev?*%
%TF.SameCoordinates,Original*%
%TF.FileFunction,Legend,Top*%
%TF.FilePolarity,Positive*%
%FSLAX46Y46*%
G04 Gerber Fmt 4.6, Leading zero omitted, Abs format (unit mm)*
G04 Created by KiCad (PCBNEW (6.0.0)) date 2023-11-18 00:08:50*
%MOMM*%
%LPD*%
G01*
G04 APERTURE LIST*
%ADD10C,0.150000*%
%ADD11C,0.010000*%
%ADD12C,0.130000*%
%ADD13C,0.120000*%
%ADD14C,0.127000*%
%ADD15C,0.200000*%
G04 APERTURE END LIST*
D10*
X143261000Y-57627600D02*
X143261000Y-60167600D01*
X143464200Y-64485600D02*
X143261000Y-64485600D01*
X143261000Y-61945600D02*
X143261000Y-64485600D01*
X153132600Y-70231000D02*
X153386600Y-70231000D01*
X143464200Y-57627600D02*
X143261000Y-57627600D01*
X153132600Y-72644000D02*
X153132600Y-70231000D01*
X153132600Y-69977000D02*
X153386600Y-69977000D01*
X153132600Y-69977000D02*
X153132600Y-67564000D01*
X153132600Y-67564000D02*
X153386600Y-67564000D01*
X153132600Y-72644000D02*
X153386600Y-72644000D01*
D11*
X165778180Y-61389260D02*
X165529260Y-61389260D01*
D12*
X142906704Y-63277733D02*
X142525752Y-63544400D01*
X142906704Y-63734876D02*
X142106704Y-63734876D01*
X142106704Y-63430114D01*
X142144800Y-63353923D01*
X142182895Y-63315828D01*
X142259085Y-63277733D01*
X142373371Y-63277733D01*
X142449561Y-63315828D01*
X142487657Y-63353923D01*
X142525752Y-63430114D01*
X142525752Y-63734876D01*
X142868609Y-62972971D02*
X142906704Y-62858685D01*
X142906704Y-62668209D01*
X142868609Y-62592019D01*
X142830514Y-62553923D01*
X142754323Y-62515828D01*
X142678133Y-62515828D01*
X142601942Y-62553923D01*
X142563847Y-62592019D01*
X142525752Y-62668209D01*
X142487657Y-62820590D01*
X142449561Y-62896780D01*
X142411466Y-62934876D01*
X142335276Y-62972971D01*
X142259085Y-62972971D01*
X142182895Y-62934876D01*
X142144800Y-62896780D01*
X142106704Y-62820590D01*
X142106704Y-62630114D01*
X142144800Y-62515828D01*
X173101000Y-62111071D02*
X173062904Y-62187261D01*
X173062904Y-62301547D01*
X173101000Y-62415833D01*
X173177190Y-62492023D01*
X173253380Y-62530119D01*
X173405761Y-62568214D01*
X173520047Y-62568214D01*
X173672428Y-62530119D01*
X173748619Y-62492023D01*
X173824809Y-62415833D01*
X173862904Y-62301547D01*
X173862904Y-62225357D01*
X173824809Y-62111071D01*
X173786714Y-62072976D01*
X173520047Y-62072976D01*
X173520047Y-62225357D01*
X173862904Y-61730119D02*
X173062904Y-61730119D01*
X173862904Y-61272976D01*
X173062904Y-61272976D01*
X173862904Y-60892023D02*
X173062904Y-60892023D01*
X173062904Y-60701547D01*
X173101000Y-60587261D01*
X173177190Y-60511071D01*
X173253380Y-60472976D01*
X173405761Y-60434880D01*
X173520047Y-60434880D01*
X173672428Y-60472976D01*
X173748619Y-60511071D01*
X173824809Y-60587261D01*
X173862904Y-60701547D01*
X173862904Y-60892023D01*
X175638904Y-62796785D02*
X175638904Y-62339642D01*
X176438904Y-62568214D02*
X175638904Y-62568214D01*
X176438904Y-61615833D02*
X176057952Y-61882500D01*
X176438904Y-62072976D02*
X175638904Y-62072976D01*
X175638904Y-61768214D01*
X175677000Y-61692023D01*
X175715095Y-61653928D01*
X175791285Y-61615833D01*
X175905571Y-61615833D01*
X175981761Y-61653928D01*
X176019857Y-61692023D01*
X176057952Y-61768214D01*
X176057952Y-62072976D01*
X176438904Y-61272976D02*
X175638904Y-61272976D01*
X175677000Y-60472976D02*
X175638904Y-60549166D01*
X175638904Y-60663452D01*
X175677000Y-60777738D01*
X175753190Y-60853928D01*
X175829380Y-60892023D01*
X175981761Y-60930119D01*
X176096047Y-60930119D01*
X176248428Y-60892023D01*
X176324619Y-60853928D01*
X176400809Y-60777738D01*
X176438904Y-60663452D01*
X176438904Y-60587261D01*
X176400809Y-60472976D01*
X176362714Y-60434880D01*
X176096047Y-60434880D01*
X176096047Y-60587261D01*
X178253000Y-62111071D02*
X178214904Y-62187261D01*
X178214904Y-62301547D01*
X178253000Y-62415833D01*
X178329190Y-62492023D01*
X178405380Y-62530119D01*
X178557761Y-62568214D01*
X178672047Y-62568214D01*
X178824428Y-62530119D01*
X178900619Y-62492023D01*
X178976809Y-62415833D01*
X179014904Y-62301547D01*
X179014904Y-62225357D01*
X178976809Y-62111071D01*
X178938714Y-62072976D01*
X178672047Y-62072976D01*
X178672047Y-62225357D01*
X179014904Y-61730119D02*
X178214904Y-61730119D01*
X179014904Y-61272976D01*
X178214904Y-61272976D01*
X179014904Y-60892023D02*
X178214904Y-60892023D01*
X178214904Y-60701547D01*
X178253000Y-60587261D01*
X178329190Y-60511071D01*
X178405380Y-60472976D01*
X178557761Y-60434880D01*
X178672047Y-60434880D01*
X178824428Y-60472976D01*
X178900619Y-60511071D01*
X178976809Y-60587261D01*
X179014904Y-60701547D01*
X179014904Y-60892023D01*
X181552809Y-62644404D02*
X181590904Y-62530119D01*
X181590904Y-62339642D01*
X181552809Y-62263452D01*
X181514714Y-62225357D01*
X181438523Y-62187261D01*
X181362333Y-62187261D01*
X181286142Y-62225357D01*
X181248047Y-62263452D01*
X181209952Y-62339642D01*
X181171857Y-62492023D01*
X181133761Y-62568214D01*
X181095666Y-62606309D01*
X181019476Y-62644404D01*
X180943285Y-62644404D01*
X180867095Y-62606309D01*
X180829000Y-62568214D01*
X180790904Y-62492023D01*
X180790904Y-62301547D01*
X180829000Y-62187261D01*
X180790904Y-61920595D02*
X181590904Y-61730119D01*
X181019476Y-61577738D01*
X181590904Y-61425357D01*
X180790904Y-61234880D01*
X180790904Y-60777738D02*
X180790904Y-60625357D01*
X180829000Y-60549166D01*
X180905190Y-60472976D01*
X181057571Y-60434880D01*
X181324238Y-60434880D01*
X181476619Y-60472976D01*
X181552809Y-60549166D01*
X181590904Y-60625357D01*
X181590904Y-60777738D01*
X181552809Y-60853928D01*
X181476619Y-60930119D01*
X181324238Y-60968214D01*
X181057571Y-60968214D01*
X180905190Y-60930119D01*
X180829000Y-60853928D01*
X180790904Y-60777738D01*
X184128809Y-64053928D02*
X184166904Y-63939642D01*
X184166904Y-63749166D01*
X184128809Y-63672976D01*
X184090714Y-63634880D01*
X184014523Y-63596785D01*
X183938333Y-63596785D01*
X183862142Y-63634880D01*
X183824047Y-63672976D01*
X183785952Y-63749166D01*
X183747857Y-63901547D01*
X183709761Y-63977738D01*
X183671666Y-64015833D01*
X183595476Y-64053928D01*
X183519285Y-64053928D01*
X183443095Y-64015833D01*
X183405000Y-63977738D01*
X183366904Y-63901547D01*
X183366904Y-63711071D01*
X183405000Y-63596785D01*
X183366904Y-63330119D02*
X184166904Y-63139642D01*
X183595476Y-62987261D01*
X184166904Y-62834880D01*
X183366904Y-62644404D01*
X184090714Y-61882500D02*
X184128809Y-61920595D01*
X184166904Y-62034880D01*
X184166904Y-62111071D01*
X184128809Y-62225357D01*
X184052619Y-62301547D01*
X183976428Y-62339642D01*
X183824047Y-62377738D01*
X183709761Y-62377738D01*
X183557380Y-62339642D01*
X183481190Y-62301547D01*
X183405000Y-62225357D01*
X183366904Y-62111071D01*
X183366904Y-62034880D01*
X183405000Y-61920595D01*
X183443095Y-61882500D01*
X184166904Y-61158690D02*
X184166904Y-61539642D01*
X183366904Y-61539642D01*
X184166904Y-60892023D02*
X183366904Y-60892023D01*
X184166904Y-60434880D02*
X183709761Y-60777738D01*
X183366904Y-60434880D02*
X183824047Y-60892023D01*
X186704809Y-63825357D02*
X186742904Y-63711071D01*
X186742904Y-63520595D01*
X186704809Y-63444404D01*
X186666714Y-63406309D01*
X186590523Y-63368214D01*
X186514333Y-63368214D01*
X186438142Y-63406309D01*
X186400047Y-63444404D01*
X186361952Y-63520595D01*
X186323857Y-63672976D01*
X186285761Y-63749166D01*
X186247666Y-63787261D01*
X186171476Y-63825357D01*
X186095285Y-63825357D01*
X186019095Y-63787261D01*
X185981000Y-63749166D01*
X185942904Y-63672976D01*
X185942904Y-63482500D01*
X185981000Y-63368214D01*
X185942904Y-63101547D02*
X186742904Y-62911071D01*
X186171476Y-62758690D01*
X186742904Y-62606309D01*
X185942904Y-62415833D01*
X186742904Y-62111071D02*
X185942904Y-62111071D01*
X185942904Y-61920595D01*
X185981000Y-61806309D01*
X186057190Y-61730119D01*
X186133380Y-61692023D01*
X186285761Y-61653928D01*
X186400047Y-61653928D01*
X186552428Y-61692023D01*
X186628619Y-61730119D01*
X186704809Y-61806309D01*
X186742904Y-61920595D01*
X186742904Y-62111071D01*
X186742904Y-61311071D02*
X185942904Y-61311071D01*
X185942904Y-60777738D02*
X185942904Y-60625357D01*
X185981000Y-60549166D01*
X186057190Y-60472976D01*
X186209571Y-60434880D01*
X186476238Y-60434880D01*
X186628619Y-60472976D01*
X186704809Y-60549166D01*
X186742904Y-60625357D01*
X186742904Y-60777738D01*
X186704809Y-60853928D01*
X186628619Y-60930119D01*
X186476238Y-60968214D01*
X186209571Y-60968214D01*
X186057190Y-60930119D01*
X185981000Y-60853928D01*
X185942904Y-60777738D01*
X188518904Y-62492023D02*
X189318904Y-62225357D01*
X188518904Y-61958690D01*
X189242714Y-61234880D02*
X189280809Y-61272976D01*
X189318904Y-61387261D01*
X189318904Y-61463452D01*
X189280809Y-61577738D01*
X189204619Y-61653928D01*
X189128428Y-61692023D01*
X188976047Y-61730119D01*
X188861761Y-61730119D01*
X188709380Y-61692023D01*
X188633190Y-61653928D01*
X188557000Y-61577738D01*
X188518904Y-61463452D01*
X188518904Y-61387261D01*
X188557000Y-61272976D01*
X188595095Y-61234880D01*
X189242714Y-60434880D02*
X189280809Y-60472976D01*
X189318904Y-60587261D01*
X189318904Y-60663452D01*
X189280809Y-60777738D01*
X189204619Y-60853928D01*
X189128428Y-60892023D01*
X188976047Y-60930119D01*
X188861761Y-60930119D01*
X188709380Y-60892023D01*
X188633190Y-60853928D01*
X188557000Y-60777738D01*
X188518904Y-60663452D01*
X188518904Y-60587261D01*
X188557000Y-60472976D01*
X188595095Y-60434880D01*
X131839476Y-100437904D02*
X131572809Y-100056952D01*
X131382333Y-100437904D02*
X131382333Y-99637904D01*
X131687095Y-99637904D01*
X131763285Y-99676000D01*
X131801380Y-99714095D01*
X131839476Y-99790285D01*
X131839476Y-99904571D01*
X131801380Y-99980761D01*
X131763285Y-100018857D01*
X131687095Y-100056952D01*
X131382333Y-100056952D01*
X132144238Y-100399809D02*
X132258523Y-100437904D01*
X132448999Y-100437904D01*
X132525190Y-100399809D01*
X132563285Y-100361714D01*
X132601380Y-100285523D01*
X132601380Y-100209333D01*
X132563285Y-100133142D01*
X132525190Y-100095047D01*
X132448999Y-100056952D01*
X132296619Y-100018857D01*
X132220428Y-99980761D01*
X132182333Y-99942666D01*
X132144238Y-99866476D01*
X132144238Y-99790285D01*
X132182333Y-99714095D01*
X132220428Y-99676000D01*
X132296619Y-99637904D01*
X132487095Y-99637904D01*
X132601380Y-99676000D01*
X132829952Y-99637904D02*
X133287095Y-99637904D01*
X133058523Y-100437904D02*
X133058523Y-99637904D01*
X134582333Y-99676000D02*
X134506142Y-99637904D01*
X134391857Y-99637904D01*
X134277571Y-99676000D01*
X134201380Y-99752190D01*
X134163285Y-99828380D01*
X134125190Y-99980761D01*
X134125190Y-100095047D01*
X134163285Y-100247428D01*
X134201380Y-100323619D01*
X134277571Y-100399809D01*
X134391857Y-100437904D01*
X134468047Y-100437904D01*
X134582333Y-100399809D01*
X134620428Y-100361714D01*
X134620428Y-100095047D01*
X134468047Y-100095047D01*
X134963285Y-100437904D02*
X134963285Y-99637904D01*
X135420428Y-100437904D01*
X135420428Y-99637904D01*
X135801380Y-100437904D02*
X135801380Y-99637904D01*
X135991857Y-99637904D01*
X136106142Y-99676000D01*
X136182333Y-99752190D01*
X136220428Y-99828380D01*
X136258523Y-99980761D01*
X136258523Y-100095047D01*
X136220428Y-100247428D01*
X136182333Y-100323619D01*
X136106142Y-100399809D01*
X135991857Y-100437904D01*
X135801380Y-100437904D01*
X137553761Y-99904571D02*
X137553761Y-100437904D01*
X137210904Y-99904571D02*
X137210904Y-100323619D01*
X137249000Y-100399809D01*
X137325190Y-100437904D01*
X137439476Y-100437904D01*
X137515666Y-100399809D01*
X137553761Y-100361714D01*
X137820428Y-99637904D02*
X138277571Y-99637904D01*
X138049000Y-100437904D02*
X138049000Y-99637904D01*
X138468047Y-99637904D02*
X139001380Y-100437904D01*
X139001380Y-99637904D02*
X138468047Y-100437904D01*
X140258523Y-99904571D02*
X140258523Y-100437904D01*
X139915666Y-99904571D02*
X139915666Y-100323619D01*
X139953761Y-100399809D01*
X140029952Y-100437904D01*
X140144238Y-100437904D01*
X140220428Y-100399809D01*
X140258523Y-100361714D01*
X141096619Y-100437904D02*
X140829952Y-100056952D01*
X140639476Y-100437904D02*
X140639476Y-99637904D01*
X140944238Y-99637904D01*
X141020428Y-99676000D01*
X141058523Y-99714095D01*
X141096619Y-99790285D01*
X141096619Y-99904571D01*
X141058523Y-99980761D01*
X141020428Y-100018857D01*
X140944238Y-100056952D01*
X140639476Y-100056952D01*
X141363285Y-99637904D02*
X141896619Y-100437904D01*
X141896619Y-99637904D02*
X141363285Y-100437904D01*
X142696619Y-99637904D02*
X142963285Y-100437904D01*
X143229952Y-99637904D01*
X143496619Y-100437904D02*
X143496619Y-99637904D01*
X143687095Y-99637904D01*
X143801380Y-99676000D01*
X143877571Y-99752190D01*
X143915666Y-99828380D01*
X143953761Y-99980761D01*
X143953761Y-100095047D01*
X143915666Y-100247428D01*
X143877571Y-100323619D01*
X143801380Y-100399809D01*
X143687095Y-100437904D01*
X143496619Y-100437904D01*
X144296619Y-100437904D02*
X144296619Y-99637904D01*
X144487095Y-99637904D01*
X144601380Y-99676000D01*
X144677571Y-99752190D01*
X144715666Y-99828380D01*
X144753761Y-99980761D01*
X144753761Y-100095047D01*
X144715666Y-100247428D01*
X144677571Y-100323619D01*
X144601380Y-100399809D01*
X144487095Y-100437904D01*
X144296619Y-100437904D01*
X201193476Y-102216000D02*
X201117285Y-102177904D01*
X201003000Y-102177904D01*
X200888714Y-102216000D01*
X200812523Y-102292190D01*
X200774428Y-102368380D01*
X200736333Y-102520761D01*
X200736333Y-102635047D01*
X200774428Y-102787428D01*
X200812523Y-102863619D01*
X200888714Y-102939809D01*
X201003000Y-102977904D01*
X201079190Y-102977904D01*
X201193476Y-102939809D01*
X201231571Y-102901714D01*
X201231571Y-102635047D01*
X201079190Y-102635047D01*
X201574428Y-102977904D02*
X201574428Y-102177904D01*
X202031571Y-102977904D01*
X202031571Y-102177904D01*
X202412523Y-102977904D02*
X202412523Y-102177904D01*
X202603000Y-102177904D01*
X202717285Y-102216000D01*
X202793476Y-102292190D01*
X202831571Y-102368380D01*
X202869666Y-102520761D01*
X202869666Y-102635047D01*
X202831571Y-102787428D01*
X202793476Y-102863619D01*
X202717285Y-102939809D01*
X202603000Y-102977904D01*
X202412523Y-102977904D01*
X154184304Y-61144133D02*
X153803352Y-61410800D01*
X154184304Y-61601276D02*
X153384304Y-61601276D01*
X153384304Y-61296514D01*
X153422400Y-61220323D01*
X153460495Y-61182228D01*
X153536685Y-61144133D01*
X153650971Y-61144133D01*
X153727161Y-61182228D01*
X153765257Y-61220323D01*
X153803352Y-61296514D01*
X153803352Y-61601276D01*
X154146209Y-60839371D02*
X154184304Y-60725085D01*
X154184304Y-60534609D01*
X154146209Y-60458419D01*
X154108114Y-60420323D01*
X154031923Y-60382228D01*
X153955733Y-60382228D01*
X153879542Y-60420323D01*
X153841447Y-60458419D01*
X153803352Y-60534609D01*
X153765257Y-60686990D01*
X153727161Y-60763180D01*
X153689066Y-60801276D01*
X153612876Y-60839371D01*
X153536685Y-60839371D01*
X153460495Y-60801276D01*
X153422400Y-60763180D01*
X153384304Y-60686990D01*
X153384304Y-60496514D01*
X153422400Y-60382228D01*
X122180523Y-62045857D02*
X122294809Y-62083952D01*
X122332904Y-62122047D01*
X122371000Y-62198238D01*
X122371000Y-62312523D01*
X122332904Y-62388714D01*
X122294809Y-62426809D01*
X122218619Y-62464904D01*
X121913857Y-62464904D01*
X121913857Y-61664904D01*
X122180523Y-61664904D01*
X122256714Y-61703000D01*
X122294809Y-61741095D01*
X122332904Y-61817285D01*
X122332904Y-61893476D01*
X122294809Y-61969666D01*
X122256714Y-62007761D01*
X122180523Y-62045857D01*
X121913857Y-62045857D01*
X122675761Y-62236333D02*
X123056714Y-62236333D01*
X122599571Y-62464904D02*
X122866238Y-61664904D01*
X123132904Y-62464904D01*
X123285285Y-61664904D02*
X123742428Y-61664904D01*
X123513857Y-62464904D02*
X123513857Y-61664904D01*
X123894809Y-61664904D02*
X124351952Y-61664904D01*
X124123380Y-62464904D02*
X124123380Y-61664904D01*
X124618619Y-62160142D02*
X125228142Y-62160142D01*
X124923380Y-62464904D02*
X124923380Y-61855380D01*
X142952504Y-57689733D02*
X142571552Y-57956400D01*
X142952504Y-58146876D02*
X142152504Y-58146876D01*
X142152504Y-57842114D01*
X142190600Y-57765923D01*
X142228695Y-57727828D01*
X142304885Y-57689733D01*
X142419171Y-57689733D01*
X142495361Y-57727828D01*
X142533457Y-57765923D01*
X142571552Y-57842114D01*
X142571552Y-58146876D01*
X142914409Y-57384971D02*
X142952504Y-57270685D01*
X142952504Y-57080209D01*
X142914409Y-57004019D01*
X142876314Y-56965923D01*
X142800123Y-56927828D01*
X142723933Y-56927828D01*
X142647742Y-56965923D01*
X142609647Y-57004019D01*
X142571552Y-57080209D01*
X142533457Y-57232590D01*
X142495361Y-57308780D01*
X142457266Y-57346876D01*
X142381076Y-57384971D01*
X142304885Y-57384971D01*
X142228695Y-57346876D01*
X142190600Y-57308780D01*
X142152504Y-57232590D01*
X142152504Y-57042114D01*
X142190600Y-56927828D01*
X164001571Y-96589809D02*
X164115857Y-96627904D01*
X164306333Y-96627904D01*
X164382523Y-96589809D01*
X164420619Y-96551714D01*
X164458714Y-96475523D01*
X164458714Y-96399333D01*
X164420619Y-96323142D01*
X164382523Y-96285047D01*
X164306333Y-96246952D01*
X164153952Y-96208857D01*
X164077761Y-96170761D01*
X164039666Y-96132666D01*
X164001571Y-96056476D01*
X164001571Y-95980285D01*
X164039666Y-95904095D01*
X164077761Y-95866000D01*
X164153952Y-95827904D01*
X164344428Y-95827904D01*
X164458714Y-95866000D01*
X164801571Y-96627904D02*
X164801571Y-95827904D01*
X164992047Y-95827904D01*
X165106333Y-95866000D01*
X165182523Y-95942190D01*
X165220619Y-96018380D01*
X165258714Y-96170761D01*
X165258714Y-96285047D01*
X165220619Y-96437428D01*
X165182523Y-96513619D01*
X165106333Y-96589809D01*
X164992047Y-96627904D01*
X164801571Y-96627904D01*
X165563476Y-96399333D02*
X165944428Y-96399333D01*
X165487285Y-96627904D02*
X165753952Y-95827904D01*
X166020619Y-96627904D01*
X136472355Y-101454000D02*
X136396164Y-101415904D01*
X136281879Y-101415904D01*
X136167593Y-101454000D01*
X136091402Y-101530190D01*
X136053307Y-101606380D01*
X136015212Y-101758761D01*
X136015212Y-101873047D01*
X136053307Y-102025428D01*
X136091402Y-102101619D01*
X136167593Y-102177809D01*
X136281879Y-102215904D01*
X136358069Y-102215904D01*
X136472355Y-102177809D01*
X136510450Y-102139714D01*
X136510450Y-101873047D01*
X136358069Y-101873047D01*
X136853307Y-102215904D02*
X136853307Y-101415904D01*
X137310450Y-102215904D01*
X137310450Y-101415904D01*
X137691402Y-102215904D02*
X137691402Y-101415904D01*
X137881879Y-101415904D01*
X137996164Y-101454000D01*
X138072355Y-101530190D01*
X138110450Y-101606380D01*
X138148545Y-101758761D01*
X138148545Y-101873047D01*
X138110450Y-102025428D01*
X138072355Y-102101619D01*
X137996164Y-102177809D01*
X137881879Y-102215904D01*
X137691402Y-102215904D01*
X139100926Y-101796857D02*
X139367593Y-101796857D01*
X139481879Y-102215904D02*
X139100926Y-102215904D01*
X139100926Y-101415904D01*
X139481879Y-101415904D01*
X140281879Y-102139714D02*
X140243783Y-102177809D01*
X140129498Y-102215904D01*
X140053307Y-102215904D01*
X139939021Y-102177809D01*
X139862831Y-102101619D01*
X139824736Y-102025428D01*
X139786640Y-101873047D01*
X139786640Y-101758761D01*
X139824736Y-101606380D01*
X139862831Y-101530190D01*
X139939021Y-101454000D01*
X140053307Y-101415904D01*
X140129498Y-101415904D01*
X140243783Y-101454000D01*
X140281879Y-101492095D01*
X140624736Y-102215904D02*
X140624736Y-101415904D01*
X140624736Y-101796857D02*
X141081879Y-101796857D01*
X141081879Y-102215904D02*
X141081879Y-101415904D01*
X141615212Y-101415904D02*
X141767593Y-101415904D01*
X141843783Y-101454000D01*
X141919974Y-101530190D01*
X141958069Y-101682571D01*
X141958069Y-101949238D01*
X141919974Y-102101619D01*
X141843783Y-102177809D01*
X141767593Y-102215904D01*
X141615212Y-102215904D01*
X141539021Y-102177809D01*
X141462831Y-102101619D01*
X141424736Y-101949238D01*
X141424736Y-101682571D01*
X141462831Y-101530190D01*
X141539021Y-101454000D01*
X141615212Y-101415904D01*
X142796164Y-101415904D02*
X143253307Y-101415904D01*
X143024736Y-102215904D02*
X143024736Y-101415904D01*
X143977117Y-102215904D02*
X143710450Y-101834952D01*
X143519974Y-102215904D02*
X143519974Y-101415904D01*
X143824736Y-101415904D01*
X143900926Y-101454000D01*
X143939021Y-101492095D01*
X143977117Y-101568285D01*
X143977117Y-101682571D01*
X143939021Y-101758761D01*
X143900926Y-101796857D01*
X143824736Y-101834952D01*
X143519974Y-101834952D01*
X144319974Y-102215904D02*
X144319974Y-101415904D01*
X145119974Y-101454000D02*
X145043783Y-101415904D01*
X144929498Y-101415904D01*
X144815212Y-101454000D01*
X144739021Y-101530190D01*
X144700926Y-101606380D01*
X144662831Y-101758761D01*
X144662831Y-101873047D01*
X144700926Y-102025428D01*
X144739021Y-102101619D01*
X144815212Y-102177809D01*
X144929498Y-102215904D01*
X145005688Y-102215904D01*
X145119974Y-102177809D01*
X145158069Y-102139714D01*
X145158069Y-101873047D01*
X145005688Y-101873047D01*
X145996164Y-101415904D02*
X146262831Y-102215904D01*
X146529498Y-101415904D01*
X146796164Y-102215904D02*
X146796164Y-101415904D01*
X146986640Y-101415904D01*
X147100926Y-101454000D01*
X147177117Y-101530190D01*
X147215212Y-101606380D01*
X147253307Y-101758761D01*
X147253307Y-101873047D01*
X147215212Y-102025428D01*
X147177117Y-102101619D01*
X147100926Y-102177809D01*
X146986640Y-102215904D01*
X146796164Y-102215904D01*
X147596164Y-102215904D02*
X147596164Y-101415904D01*
X147786640Y-101415904D01*
X147900926Y-101454000D01*
X147977117Y-101530190D01*
X148015212Y-101606380D01*
X148053307Y-101758761D01*
X148053307Y-101873047D01*
X148015212Y-102025428D01*
X147977117Y-102101619D01*
X147900926Y-102177809D01*
X147786640Y-102215904D01*
X147596164Y-102215904D01*
X164319047Y-95357904D02*
X164319047Y-94557904D01*
X164661904Y-94634095D02*
X164700000Y-94596000D01*
X164776190Y-94557904D01*
X164966666Y-94557904D01*
X165042857Y-94596000D01*
X165080952Y-94634095D01*
X165119047Y-94710285D01*
X165119047Y-94786476D01*
X165080952Y-94900761D01*
X164623809Y-95357904D01*
X165119047Y-95357904D01*
X165919047Y-95281714D02*
X165880952Y-95319809D01*
X165766666Y-95357904D01*
X165690476Y-95357904D01*
X165576190Y-95319809D01*
X165500000Y-95243619D01*
X165461904Y-95167428D01*
X165423809Y-95015047D01*
X165423809Y-94900761D01*
X165461904Y-94748380D01*
X165500000Y-94672190D01*
X165576190Y-94596000D01*
X165690476Y-94557904D01*
X165766666Y-94557904D01*
X165880952Y-94596000D01*
X165919047Y-94634095D01*
D10*
X193856552Y-80681580D02*
X193856552Y-81395866D01*
X193808933Y-81538723D01*
X193713695Y-81633961D01*
X193570838Y-81681580D01*
X193475600Y-81681580D01*
X194808933Y-81681580D02*
X194332742Y-81681580D01*
X194332742Y-80681580D01*
X195713695Y-81586342D02*
X195666076Y-81633961D01*
X195523219Y-81681580D01*
X195427980Y-81681580D01*
X195285123Y-81633961D01*
X195189885Y-81538723D01*
X195142266Y-81443485D01*
X195094647Y-81253009D01*
X195094647Y-81110152D01*
X195142266Y-80919676D01*
X195189885Y-80824438D01*
X195285123Y-80729200D01*
X195427980Y-80681580D01*
X195523219Y-80681580D01*
X195666076Y-80729200D01*
X195713695Y-80776819D01*
X196427980Y-80681580D02*
X196427980Y-81395866D01*
X196380361Y-81538723D01*
X196285123Y-81633961D01*
X196142266Y-81681580D01*
X196047028Y-81681580D01*
X197380361Y-81681580D02*
X196904171Y-81681580D01*
X196904171Y-80681580D01*
X198285123Y-81586342D02*
X198237504Y-81633961D01*
X198094647Y-81681580D01*
X197999409Y-81681580D01*
X197856552Y-81633961D01*
X197761314Y-81538723D01*
X197713695Y-81443485D01*
X197666076Y-81253009D01*
X197666076Y-81110152D01*
X197713695Y-80919676D01*
X197761314Y-80824438D01*
X197856552Y-80729200D01*
X197999409Y-80681580D01*
X198094647Y-80681580D01*
X198237504Y-80729200D01*
X198285123Y-80776819D01*
X198999409Y-80681580D02*
X198999409Y-81395866D01*
X198951790Y-81538723D01*
X198856552Y-81633961D01*
X198713695Y-81681580D01*
X198618457Y-81681580D01*
X199951790Y-81681580D02*
X199475600Y-81681580D01*
X199475600Y-80681580D01*
X200856552Y-81586342D02*
X200808933Y-81633961D01*
X200666076Y-81681580D01*
X200570838Y-81681580D01*
X200427980Y-81633961D01*
X200332742Y-81538723D01*
X200285123Y-81443485D01*
X200237504Y-81253009D01*
X200237504Y-81110152D01*
X200285123Y-80919676D01*
X200332742Y-80824438D01*
X200427980Y-80729200D01*
X200570838Y-80681580D01*
X200666076Y-80681580D01*
X200808933Y-80729200D01*
X200856552Y-80776819D01*
X201570838Y-80681580D02*
X201570838Y-81395866D01*
X201523219Y-81538723D01*
X201427980Y-81633961D01*
X201285123Y-81681580D01*
X201189885Y-81681580D01*
X202523219Y-81681580D02*
X202047028Y-81681580D01*
X202047028Y-80681580D01*
X203427980Y-81586342D02*
X203380361Y-81633961D01*
X203237504Y-81681580D01*
X203142266Y-81681580D01*
X202999409Y-81633961D01*
X202904171Y-81538723D01*
X202856552Y-81443485D01*
X202808933Y-81253009D01*
X202808933Y-81110152D01*
X202856552Y-80919676D01*
X202904171Y-80824438D01*
X202999409Y-80729200D01*
X203142266Y-80681580D01*
X203237504Y-80681580D01*
X203380361Y-80729200D01*
X203427980Y-80776819D01*
D12*
X142906704Y-60109019D02*
X142106704Y-60109019D01*
X142906704Y-59651876D01*
X142106704Y-59651876D01*
X142106704Y-59118542D02*
X142106704Y-58966161D01*
X142144800Y-58889971D01*
X142220990Y-58813780D01*
X142373371Y-58775685D01*
X142640038Y-58775685D01*
X142792419Y-58813780D01*
X142868609Y-58889971D01*
X142906704Y-58966161D01*
X142906704Y-59118542D01*
X142868609Y-59194733D01*
X142792419Y-59270923D01*
X142640038Y-59309019D01*
X142373371Y-59309019D01*
X142220990Y-59270923D01*
X142144800Y-59194733D01*
X142106704Y-59118542D01*
X208515000Y-99599142D02*
X208476904Y-99675333D01*
X208476904Y-99789619D01*
X208515000Y-99903904D01*
X208591190Y-99980095D01*
X208667380Y-100018190D01*
X208819761Y-100056285D01*
X208934047Y-100056285D01*
X209086428Y-100018190D01*
X209162619Y-99980095D01*
X209238809Y-99903904D01*
X209276904Y-99789619D01*
X209276904Y-99713428D01*
X209238809Y-99599142D01*
X209200714Y-99561047D01*
X208934047Y-99561047D01*
X208934047Y-99713428D01*
X209276904Y-99218190D02*
X208476904Y-99218190D01*
X209276904Y-98761047D01*
X208476904Y-98761047D01*
X209276904Y-98380095D02*
X208476904Y-98380095D01*
X208476904Y-98189619D01*
X208515000Y-98075333D01*
X208591190Y-97999142D01*
X208667380Y-97961047D01*
X208819761Y-97922952D01*
X208934047Y-97922952D01*
X209086428Y-97961047D01*
X209162619Y-97999142D01*
X209238809Y-98075333D01*
X209276904Y-98189619D01*
X209276904Y-98380095D01*
X208476904Y-97084857D02*
X209276904Y-96818190D01*
X208476904Y-96551523D01*
X208857857Y-96018190D02*
X208895952Y-95903904D01*
X208934047Y-95865809D01*
X209010238Y-95827714D01*
X209124523Y-95827714D01*
X209200714Y-95865809D01*
X209238809Y-95903904D01*
X209276904Y-95980095D01*
X209276904Y-96284857D01*
X208476904Y-96284857D01*
X208476904Y-96018190D01*
X208515000Y-95942000D01*
X208553095Y-95903904D01*
X208629285Y-95865809D01*
X208705476Y-95865809D01*
X208781666Y-95903904D01*
X208819761Y-95942000D01*
X208857857Y-96018190D01*
X208857857Y-96284857D01*
X208476904Y-95484857D02*
X209124523Y-95484857D01*
X209200714Y-95446761D01*
X209238809Y-95408666D01*
X209276904Y-95332476D01*
X209276904Y-95180095D01*
X209238809Y-95103904D01*
X209200714Y-95065809D01*
X209124523Y-95027714D01*
X208476904Y-95027714D01*
X209238809Y-94684857D02*
X209276904Y-94570571D01*
X209276904Y-94380095D01*
X209238809Y-94303904D01*
X209200714Y-94265809D01*
X209124523Y-94227714D01*
X209048333Y-94227714D01*
X208972142Y-94265809D01*
X208934047Y-94303904D01*
X208895952Y-94380095D01*
X208857857Y-94532476D01*
X208819761Y-94608666D01*
X208781666Y-94646761D01*
X208705476Y-94684857D01*
X208629285Y-94684857D01*
X208553095Y-94646761D01*
X208515000Y-94608666D01*
X208476904Y-94532476D01*
X208476904Y-94342000D01*
X208515000Y-94227714D01*
X209276904Y-93275333D02*
X208476904Y-93275333D01*
X208476904Y-93084857D01*
X208515000Y-92970571D01*
X208591190Y-92894380D01*
X208667380Y-92856285D01*
X208819761Y-92818190D01*
X208934047Y-92818190D01*
X209086428Y-92856285D01*
X209162619Y-92894380D01*
X209238809Y-92970571D01*
X209276904Y-93084857D01*
X209276904Y-93275333D01*
X208972142Y-92475333D02*
X208972142Y-91865809D01*
X209276904Y-92170571D02*
X208667380Y-92170571D01*
X209276904Y-90875333D02*
X208476904Y-90875333D01*
X208476904Y-90684857D01*
X208515000Y-90570571D01*
X208591190Y-90494380D01*
X208667380Y-90456285D01*
X208819761Y-90418190D01*
X208934047Y-90418190D01*
X209086428Y-90456285D01*
X209162619Y-90494380D01*
X209238809Y-90570571D01*
X209276904Y-90684857D01*
X209276904Y-90875333D01*
X208972142Y-90075333D02*
X208972142Y-89465809D01*
X152012704Y-69792723D02*
X152660323Y-69792723D01*
X152736514Y-69754628D01*
X152774609Y-69716533D01*
X152812704Y-69640342D01*
X152812704Y-69487961D01*
X152774609Y-69411771D01*
X152736514Y-69373676D01*
X152660323Y-69335580D01*
X152012704Y-69335580D01*
X152774609Y-68992723D02*
X152812704Y-68878438D01*
X152812704Y-68687961D01*
X152774609Y-68611771D01*
X152736514Y-68573676D01*
X152660323Y-68535580D01*
X152584133Y-68535580D01*
X152507942Y-68573676D01*
X152469847Y-68611771D01*
X152431752Y-68687961D01*
X152393657Y-68840342D01*
X152355561Y-68916533D01*
X152317466Y-68954628D01*
X152241276Y-68992723D01*
X152165085Y-68992723D01*
X152088895Y-68954628D01*
X152050800Y-68916533D01*
X152012704Y-68840342D01*
X152012704Y-68649866D01*
X152050800Y-68535580D01*
X152393657Y-67926057D02*
X152431752Y-67811771D01*
X152469847Y-67773676D01*
X152546038Y-67735580D01*
X152660323Y-67735580D01*
X152736514Y-67773676D01*
X152774609Y-67811771D01*
X152812704Y-67887961D01*
X152812704Y-68192723D01*
X152012704Y-68192723D01*
X152012704Y-67926057D01*
X152050800Y-67849866D01*
X152088895Y-67811771D01*
X152165085Y-67773676D01*
X152241276Y-67773676D01*
X152317466Y-67811771D01*
X152355561Y-67849866D01*
X152393657Y-67926057D01*
X152393657Y-68192723D01*
X122842642Y-77793857D02*
X122956928Y-77831952D01*
X122995023Y-77870047D01*
X123033119Y-77946238D01*
X123033119Y-78060523D01*
X122995023Y-78136714D01*
X122956928Y-78174809D01*
X122880738Y-78212904D01*
X122575976Y-78212904D01*
X122575976Y-77412904D01*
X122842642Y-77412904D01*
X122918833Y-77451000D01*
X122956928Y-77489095D01*
X122995023Y-77565285D01*
X122995023Y-77641476D01*
X122956928Y-77717666D01*
X122918833Y-77755761D01*
X122842642Y-77793857D01*
X122575976Y-77793857D01*
X123528357Y-77412904D02*
X123680738Y-77412904D01*
X123756928Y-77451000D01*
X123833119Y-77527190D01*
X123871214Y-77679571D01*
X123871214Y-77946238D01*
X123833119Y-78098619D01*
X123756928Y-78174809D01*
X123680738Y-78212904D01*
X123528357Y-78212904D01*
X123452166Y-78174809D01*
X123375976Y-78098619D01*
X123337880Y-77946238D01*
X123337880Y-77679571D01*
X123375976Y-77527190D01*
X123452166Y-77451000D01*
X123528357Y-77412904D01*
X124366452Y-77412904D02*
X124518833Y-77412904D01*
X124595023Y-77451000D01*
X124671214Y-77527190D01*
X124709309Y-77679571D01*
X124709309Y-77946238D01*
X124671214Y-78098619D01*
X124595023Y-78174809D01*
X124518833Y-78212904D01*
X124366452Y-78212904D01*
X124290261Y-78174809D01*
X124214071Y-78098619D01*
X124175976Y-77946238D01*
X124175976Y-77679571D01*
X124214071Y-77527190D01*
X124290261Y-77451000D01*
X124366452Y-77412904D01*
X124937880Y-77412904D02*
X125395023Y-77412904D01*
X125166452Y-78212904D02*
X125166452Y-77412904D01*
X152393657Y-72421638D02*
X152431752Y-72307352D01*
X152469847Y-72269257D01*
X152546038Y-72231161D01*
X152660323Y-72231161D01*
X152736514Y-72269257D01*
X152774609Y-72307352D01*
X152812704Y-72383542D01*
X152812704Y-72688304D01*
X152012704Y-72688304D01*
X152012704Y-72421638D01*
X152050800Y-72345447D01*
X152088895Y-72307352D01*
X152165085Y-72269257D01*
X152241276Y-72269257D01*
X152317466Y-72307352D01*
X152355561Y-72345447D01*
X152393657Y-72421638D01*
X152393657Y-72688304D01*
X152584133Y-71926400D02*
X152584133Y-71545447D01*
X152812704Y-72002590D02*
X152012704Y-71735923D01*
X152812704Y-71469257D01*
X152012704Y-71316876D02*
X152012704Y-70859733D01*
X152812704Y-71088304D02*
X152012704Y-71088304D01*
X152012704Y-70707352D02*
X152012704Y-70250209D01*
X152812704Y-70478780D02*
X152012704Y-70478780D01*
X189433333Y-102177904D02*
X189700000Y-102977904D01*
X189966666Y-102177904D01*
X190690476Y-102901714D02*
X190652380Y-102939809D01*
X190538095Y-102977904D01*
X190461904Y-102977904D01*
X190347619Y-102939809D01*
X190271428Y-102863619D01*
X190233333Y-102787428D01*
X190195238Y-102635047D01*
X190195238Y-102520761D01*
X190233333Y-102368380D01*
X190271428Y-102292190D01*
X190347619Y-102216000D01*
X190461904Y-102177904D01*
X190538095Y-102177904D01*
X190652380Y-102216000D01*
X190690476Y-102254095D01*
X191490476Y-102901714D02*
X191452380Y-102939809D01*
X191338095Y-102977904D01*
X191261904Y-102977904D01*
X191147619Y-102939809D01*
X191071428Y-102863619D01*
X191033333Y-102787428D01*
X190995238Y-102635047D01*
X190995238Y-102520761D01*
X191033333Y-102368380D01*
X191071428Y-102292190D01*
X191147619Y-102216000D01*
X191261904Y-102177904D01*
X191338095Y-102177904D01*
X191452380Y-102216000D01*
X191490476Y-102254095D01*
X123033119Y-84435904D02*
X122766452Y-84054952D01*
X122575976Y-84435904D02*
X122575976Y-83635904D01*
X122880738Y-83635904D01*
X122956928Y-83674000D01*
X122995023Y-83712095D01*
X123033119Y-83788285D01*
X123033119Y-83902571D01*
X122995023Y-83978761D01*
X122956928Y-84016857D01*
X122880738Y-84054952D01*
X122575976Y-84054952D01*
X123337880Y-84397809D02*
X123452166Y-84435904D01*
X123642642Y-84435904D01*
X123718833Y-84397809D01*
X123756928Y-84359714D01*
X123795023Y-84283523D01*
X123795023Y-84207333D01*
X123756928Y-84131142D01*
X123718833Y-84093047D01*
X123642642Y-84054952D01*
X123490261Y-84016857D01*
X123414071Y-83978761D01*
X123375976Y-83940666D01*
X123337880Y-83864476D01*
X123337880Y-83788285D01*
X123375976Y-83712095D01*
X123414071Y-83674000D01*
X123490261Y-83635904D01*
X123680738Y-83635904D01*
X123795023Y-83674000D01*
X124023595Y-83635904D02*
X124480738Y-83635904D01*
X124252166Y-84435904D02*
X124252166Y-83635904D01*
X156146619Y-96589809D02*
X156260904Y-96627904D01*
X156451380Y-96627904D01*
X156527571Y-96589809D01*
X156565666Y-96551714D01*
X156603761Y-96475523D01*
X156603761Y-96399333D01*
X156565666Y-96323142D01*
X156527571Y-96285047D01*
X156451380Y-96246952D01*
X156299000Y-96208857D01*
X156222809Y-96170761D01*
X156184714Y-96132666D01*
X156146619Y-96056476D01*
X156146619Y-95980285D01*
X156184714Y-95904095D01*
X156222809Y-95866000D01*
X156299000Y-95827904D01*
X156489476Y-95827904D01*
X156603761Y-95866000D01*
X157403761Y-96551714D02*
X157365666Y-96589809D01*
X157251380Y-96627904D01*
X157175190Y-96627904D01*
X157060904Y-96589809D01*
X156984714Y-96513619D01*
X156946619Y-96437428D01*
X156908523Y-96285047D01*
X156908523Y-96170761D01*
X156946619Y-96018380D01*
X156984714Y-95942190D01*
X157060904Y-95866000D01*
X157175190Y-95827904D01*
X157251380Y-95827904D01*
X157365666Y-95866000D01*
X157403761Y-95904095D01*
X158127571Y-96627904D02*
X157746619Y-96627904D01*
X157746619Y-95827904D01*
X155200304Y-61867942D02*
X154819352Y-62134609D01*
X155200304Y-62325085D02*
X154400304Y-62325085D01*
X154400304Y-62020323D01*
X154438400Y-61944133D01*
X154476495Y-61906038D01*
X154552685Y-61867942D01*
X154666971Y-61867942D01*
X154743161Y-61906038D01*
X154781257Y-61944133D01*
X154819352Y-62020323D01*
X154819352Y-62325085D01*
X154781257Y-61525085D02*
X154781257Y-61258419D01*
X155200304Y-61144133D02*
X155200304Y-61525085D01*
X154400304Y-61525085D01*
X154400304Y-61144133D01*
X154971733Y-60839371D02*
X154971733Y-60458419D01*
X155200304Y-60915561D02*
X154400304Y-60648895D01*
X155200304Y-60382228D01*
X155200304Y-60115561D02*
X154400304Y-60115561D01*
X154400304Y-59925085D01*
X154438400Y-59810800D01*
X154514590Y-59734609D01*
X154590780Y-59696514D01*
X154743161Y-59658419D01*
X154857447Y-59658419D01*
X155009828Y-59696514D01*
X155086019Y-59734609D01*
X155162209Y-59810800D01*
X155200304Y-59925085D01*
X155200304Y-60115561D01*
X122180523Y-73729857D02*
X122294809Y-73767952D01*
X122332904Y-73806047D01*
X122371000Y-73882238D01*
X122371000Y-73996523D01*
X122332904Y-74072714D01*
X122294809Y-74110809D01*
X122218619Y-74148904D01*
X121913857Y-74148904D01*
X121913857Y-73348904D01*
X122180523Y-73348904D01*
X122256714Y-73387000D01*
X122294809Y-73425095D01*
X122332904Y-73501285D01*
X122332904Y-73577476D01*
X122294809Y-73653666D01*
X122256714Y-73691761D01*
X122180523Y-73729857D01*
X121913857Y-73729857D01*
X122675761Y-73920333D02*
X123056714Y-73920333D01*
X122599571Y-74148904D02*
X122866238Y-73348904D01*
X123132904Y-74148904D01*
X123285285Y-73348904D02*
X123742428Y-73348904D01*
X123513857Y-74148904D02*
X123513857Y-73348904D01*
X123894809Y-73348904D02*
X124351952Y-73348904D01*
X124123380Y-74148904D02*
X124123380Y-73348904D01*
X124618619Y-73844142D02*
X125228142Y-73844142D01*
D10*
%TO.C,Q9*%
X140112761Y-64809619D02*
X140017523Y-64762000D01*
X139922285Y-64666761D01*
X139779428Y-64523904D01*
X139684190Y-64476285D01*
X139588952Y-64476285D01*
X139636571Y-64714380D02*
X139541333Y-64666761D01*
X139446095Y-64571523D01*
X139398476Y-64381047D01*
X139398476Y-64047714D01*
X139446095Y-63857238D01*
X139541333Y-63762000D01*
X139636571Y-63714380D01*
X139827047Y-63714380D01*
X139922285Y-63762000D01*
X140017523Y-63857238D01*
X140065142Y-64047714D01*
X140065142Y-64381047D01*
X140017523Y-64571523D01*
X139922285Y-64666761D01*
X139827047Y-64714380D01*
X139636571Y-64714380D01*
X140541333Y-64714380D02*
X140731809Y-64714380D01*
X140827047Y-64666761D01*
X140874666Y-64619142D01*
X140969904Y-64476285D01*
X141017523Y-64285809D01*
X141017523Y-63904857D01*
X140969904Y-63809619D01*
X140922285Y-63762000D01*
X140827047Y-63714380D01*
X140636571Y-63714380D01*
X140541333Y-63762000D01*
X140493714Y-63809619D01*
X140446095Y-63904857D01*
X140446095Y-64142952D01*
X140493714Y-64238190D01*
X140541333Y-64285809D01*
X140636571Y-64333428D01*
X140827047Y-64333428D01*
X140922285Y-64285809D01*
X140969904Y-64238190D01*
X141017523Y-64142952D01*
%TO.C,D1*%
X126261904Y-98623380D02*
X126261904Y-97623380D01*
X126500000Y-97623380D01*
X126642857Y-97671000D01*
X126738095Y-97766238D01*
X126785714Y-97861476D01*
X126833333Y-98051952D01*
X126833333Y-98194809D01*
X126785714Y-98385285D01*
X126738095Y-98480523D01*
X126642857Y-98575761D01*
X126500000Y-98623380D01*
X126261904Y-98623380D01*
X127785714Y-98623380D02*
X127214285Y-98623380D01*
X127500000Y-98623380D02*
X127500000Y-97623380D01*
X127404761Y-97766238D01*
X127309523Y-97861476D01*
X127214285Y-97909095D01*
%TO.C,D8*%
X185799504Y-87841180D02*
X185799504Y-86841180D01*
X186037600Y-86841180D01*
X186180457Y-86888800D01*
X186275695Y-86984038D01*
X186323314Y-87079276D01*
X186370933Y-87269752D01*
X186370933Y-87412609D01*
X186323314Y-87603085D01*
X186275695Y-87698323D01*
X186180457Y-87793561D01*
X186037600Y-87841180D01*
X185799504Y-87841180D01*
X186942361Y-87269752D02*
X186847123Y-87222133D01*
X186799504Y-87174514D01*
X186751885Y-87079276D01*
X186751885Y-87031657D01*
X186799504Y-86936419D01*
X186847123Y-86888800D01*
X186942361Y-86841180D01*
X187132838Y-86841180D01*
X187228076Y-86888800D01*
X187275695Y-86936419D01*
X187323314Y-87031657D01*
X187323314Y-87079276D01*
X187275695Y-87174514D01*
X187228076Y-87222133D01*
X187132838Y-87269752D01*
X186942361Y-87269752D01*
X186847123Y-87317371D01*
X186799504Y-87364990D01*
X186751885Y-87460228D01*
X186751885Y-87650704D01*
X186799504Y-87745942D01*
X186847123Y-87793561D01*
X186942361Y-87841180D01*
X187132838Y-87841180D01*
X187228076Y-87793561D01*
X187275695Y-87745942D01*
X187323314Y-87650704D01*
X187323314Y-87460228D01*
X187275695Y-87364990D01*
X187228076Y-87317371D01*
X187132838Y-87269752D01*
%TO.C,SW3*%
X122491666Y-76858761D02*
X122634523Y-76906380D01*
X122872619Y-76906380D01*
X122967857Y-76858761D01*
X123015476Y-76811142D01*
X123063095Y-76715904D01*
X123063095Y-76620666D01*
X123015476Y-76525428D01*
X122967857Y-76477809D01*
X122872619Y-76430190D01*
X122682142Y-76382571D01*
X122586904Y-76334952D01*
X122539285Y-76287333D01*
X122491666Y-76192095D01*
X122491666Y-76096857D01*
X122539285Y-76001619D01*
X122586904Y-75954000D01*
X122682142Y-75906380D01*
X122920238Y-75906380D01*
X123063095Y-75954000D01*
X123396428Y-75906380D02*
X123634523Y-76906380D01*
X123825000Y-76192095D01*
X124015476Y-76906380D01*
X124253571Y-75906380D01*
X124539285Y-75906380D02*
X125158333Y-75906380D01*
X124825000Y-76287333D01*
X124967857Y-76287333D01*
X125063095Y-76334952D01*
X125110714Y-76382571D01*
X125158333Y-76477809D01*
X125158333Y-76715904D01*
X125110714Y-76811142D01*
X125063095Y-76858761D01*
X124967857Y-76906380D01*
X124682142Y-76906380D01*
X124586904Y-76858761D01*
X124539285Y-76811142D01*
%TO.C,R9*%
X162520333Y-105811580D02*
X162187000Y-105335390D01*
X161948904Y-105811580D02*
X161948904Y-104811580D01*
X162329857Y-104811580D01*
X162425095Y-104859200D01*
X162472714Y-104906819D01*
X162520333Y-105002057D01*
X162520333Y-105144914D01*
X162472714Y-105240152D01*
X162425095Y-105287771D01*
X162329857Y-105335390D01*
X161948904Y-105335390D01*
X162996523Y-105811580D02*
X163187000Y-105811580D01*
X163282238Y-105763961D01*
X163329857Y-105716342D01*
X163425095Y-105573485D01*
X163472714Y-105383009D01*
X163472714Y-105002057D01*
X163425095Y-104906819D01*
X163377476Y-104859200D01*
X163282238Y-104811580D01*
X163091761Y-104811580D01*
X162996523Y-104859200D01*
X162948904Y-104906819D01*
X162901285Y-105002057D01*
X162901285Y-105240152D01*
X162948904Y-105335390D01*
X162996523Y-105383009D01*
X163091761Y-105430628D01*
X163282238Y-105430628D01*
X163377476Y-105383009D01*
X163425095Y-105335390D01*
X163472714Y-105240152D01*
%TO.C,R32*%
X173400980Y-76512657D02*
X172924790Y-76845990D01*
X173400980Y-77084085D02*
X172400980Y-77084085D01*
X172400980Y-76703133D01*
X172448600Y-76607895D01*
X172496219Y-76560276D01*
X172591457Y-76512657D01*
X172734314Y-76512657D01*
X172829552Y-76560276D01*
X172877171Y-76607895D01*
X172924790Y-76703133D01*
X172924790Y-77084085D01*
X172400980Y-76179323D02*
X172400980Y-75560276D01*
X172781933Y-75893609D01*
X172781933Y-75750752D01*
X172829552Y-75655514D01*
X172877171Y-75607895D01*
X172972409Y-75560276D01*
X173210504Y-75560276D01*
X173305742Y-75607895D01*
X173353361Y-75655514D01*
X173400980Y-75750752D01*
X173400980Y-76036466D01*
X173353361Y-76131704D01*
X173305742Y-76179323D01*
X172496219Y-75179323D02*
X172448600Y-75131704D01*
X172400980Y-75036466D01*
X172400980Y-74798371D01*
X172448600Y-74703133D01*
X172496219Y-74655514D01*
X172591457Y-74607895D01*
X172686695Y-74607895D01*
X172829552Y-74655514D01*
X173400980Y-75226942D01*
X173400980Y-74607895D01*
%TO.C,R11*%
X150741142Y-99004380D02*
X150407809Y-98528190D01*
X150169714Y-99004380D02*
X150169714Y-98004380D01*
X150550666Y-98004380D01*
X150645904Y-98052000D01*
X150693523Y-98099619D01*
X150741142Y-98194857D01*
X150741142Y-98337714D01*
X150693523Y-98432952D01*
X150645904Y-98480571D01*
X150550666Y-98528190D01*
X150169714Y-98528190D01*
X151693523Y-99004380D02*
X151122095Y-99004380D01*
X151407809Y-99004380D02*
X151407809Y-98004380D01*
X151312571Y-98147238D01*
X151217333Y-98242476D01*
X151122095Y-98290095D01*
X152645904Y-99004380D02*
X152074476Y-99004380D01*
X152360190Y-99004380D02*
X152360190Y-98004380D01*
X152264952Y-98147238D01*
X152169714Y-98242476D01*
X152074476Y-98290095D01*
%TO.C,R27*%
X187952142Y-72207380D02*
X187618809Y-71731190D01*
X187380714Y-72207380D02*
X187380714Y-71207380D01*
X187761666Y-71207380D01*
X187856904Y-71255000D01*
X187904523Y-71302619D01*
X187952142Y-71397857D01*
X187952142Y-71540714D01*
X187904523Y-71635952D01*
X187856904Y-71683571D01*
X187761666Y-71731190D01*
X187380714Y-71731190D01*
X188333095Y-71302619D02*
X188380714Y-71255000D01*
X188475952Y-71207380D01*
X188714047Y-71207380D01*
X188809285Y-71255000D01*
X188856904Y-71302619D01*
X188904523Y-71397857D01*
X188904523Y-71493095D01*
X188856904Y-71635952D01*
X188285476Y-72207380D01*
X188904523Y-72207380D01*
X189237857Y-71207380D02*
X189904523Y-71207380D01*
X189475952Y-72207380D01*
%TO.C,Q3*%
X138588761Y-81370419D02*
X138493523Y-81322800D01*
X138398285Y-81227561D01*
X138255428Y-81084704D01*
X138160190Y-81037085D01*
X138064952Y-81037085D01*
X138112571Y-81275180D02*
X138017333Y-81227561D01*
X137922095Y-81132323D01*
X137874476Y-80941847D01*
X137874476Y-80608514D01*
X137922095Y-80418038D01*
X138017333Y-80322800D01*
X138112571Y-80275180D01*
X138303047Y-80275180D01*
X138398285Y-80322800D01*
X138493523Y-80418038D01*
X138541142Y-80608514D01*
X138541142Y-80941847D01*
X138493523Y-81132323D01*
X138398285Y-81227561D01*
X138303047Y-81275180D01*
X138112571Y-81275180D01*
X138874476Y-80275180D02*
X139493523Y-80275180D01*
X139160190Y-80656133D01*
X139303047Y-80656133D01*
X139398285Y-80703752D01*
X139445904Y-80751371D01*
X139493523Y-80846609D01*
X139493523Y-81084704D01*
X139445904Y-81179942D01*
X139398285Y-81227561D01*
X139303047Y-81275180D01*
X139017333Y-81275180D01*
X138922095Y-81227561D01*
X138874476Y-81179942D01*
%TO.C,J2*%
X127174666Y-61047380D02*
X127174666Y-61761666D01*
X127127047Y-61904523D01*
X127031809Y-61999761D01*
X126888952Y-62047380D01*
X126793714Y-62047380D01*
X127603238Y-61142619D02*
X127650857Y-61095000D01*
X127746095Y-61047380D01*
X127984190Y-61047380D01*
X128079428Y-61095000D01*
X128127047Y-61142619D01*
X128174666Y-61237857D01*
X128174666Y-61333095D01*
X128127047Y-61475952D01*
X127555619Y-62047380D01*
X128174666Y-62047380D01*
%TO.C,R25*%
X197937380Y-93352857D02*
X197461190Y-93686190D01*
X197937380Y-93924285D02*
X196937380Y-93924285D01*
X196937380Y-93543333D01*
X196985000Y-93448095D01*
X197032619Y-93400476D01*
X197127857Y-93352857D01*
X197270714Y-93352857D01*
X197365952Y-93400476D01*
X197413571Y-93448095D01*
X197461190Y-93543333D01*
X197461190Y-93924285D01*
X197032619Y-92971904D02*
X196985000Y-92924285D01*
X196937380Y-92829047D01*
X196937380Y-92590952D01*
X196985000Y-92495714D01*
X197032619Y-92448095D01*
X197127857Y-92400476D01*
X197223095Y-92400476D01*
X197365952Y-92448095D01*
X197937380Y-93019523D01*
X197937380Y-92400476D01*
X196937380Y-91495714D02*
X196937380Y-91971904D01*
X197413571Y-92019523D01*
X197365952Y-91971904D01*
X197318333Y-91876666D01*
X197318333Y-91638571D01*
X197365952Y-91543333D01*
X197413571Y-91495714D01*
X197508809Y-91448095D01*
X197746904Y-91448095D01*
X197842142Y-91495714D01*
X197889761Y-91543333D01*
X197937380Y-91638571D01*
X197937380Y-91876666D01*
X197889761Y-91971904D01*
X197842142Y-92019523D01*
%TO.C,R4*%
X135724333Y-75128380D02*
X135391000Y-74652190D01*
X135152904Y-75128380D02*
X135152904Y-74128380D01*
X135533857Y-74128380D01*
X135629095Y-74176000D01*
X135676714Y-74223619D01*
X135724333Y-74318857D01*
X135724333Y-74461714D01*
X135676714Y-74556952D01*
X135629095Y-74604571D01*
X135533857Y-74652190D01*
X135152904Y-74652190D01*
X136581476Y-74461714D02*
X136581476Y-75128380D01*
X136343380Y-74080761D02*
X136105285Y-74795047D01*
X136724333Y-74795047D01*
%TO.C,D2*%
X157199104Y-72689980D02*
X157199104Y-71689980D01*
X157437200Y-71689980D01*
X157580057Y-71737600D01*
X157675295Y-71832838D01*
X157722914Y-71928076D01*
X157770533Y-72118552D01*
X157770533Y-72261409D01*
X157722914Y-72451885D01*
X157675295Y-72547123D01*
X157580057Y-72642361D01*
X157437200Y-72689980D01*
X157199104Y-72689980D01*
X158151485Y-71785219D02*
X158199104Y-71737600D01*
X158294342Y-71689980D01*
X158532438Y-71689980D01*
X158627676Y-71737600D01*
X158675295Y-71785219D01*
X158722914Y-71880457D01*
X158722914Y-71975695D01*
X158675295Y-72118552D01*
X158103866Y-72689980D01*
X158722914Y-72689980D01*
%TO.C,C30*%
X197172342Y-69394342D02*
X197124723Y-69441961D01*
X196981866Y-69489580D01*
X196886628Y-69489580D01*
X196743771Y-69441961D01*
X196648533Y-69346723D01*
X196600914Y-69251485D01*
X196553295Y-69061009D01*
X196553295Y-68918152D01*
X196600914Y-68727676D01*
X196648533Y-68632438D01*
X196743771Y-68537200D01*
X196886628Y-68489580D01*
X196981866Y-68489580D01*
X197124723Y-68537200D01*
X197172342Y-68584819D01*
X197505676Y-68489580D02*
X198124723Y-68489580D01*
X197791390Y-68870533D01*
X197934247Y-68870533D01*
X198029485Y-68918152D01*
X198077104Y-68965771D01*
X198124723Y-69061009D01*
X198124723Y-69299104D01*
X198077104Y-69394342D01*
X198029485Y-69441961D01*
X197934247Y-69489580D01*
X197648533Y-69489580D01*
X197553295Y-69441961D01*
X197505676Y-69394342D01*
X198743771Y-68489580D02*
X198839009Y-68489580D01*
X198934247Y-68537200D01*
X198981866Y-68584819D01*
X199029485Y-68680057D01*
X199077104Y-68870533D01*
X199077104Y-69108628D01*
X199029485Y-69299104D01*
X198981866Y-69394342D01*
X198934247Y-69441961D01*
X198839009Y-69489580D01*
X198743771Y-69489580D01*
X198648533Y-69441961D01*
X198600914Y-69394342D01*
X198553295Y-69299104D01*
X198505676Y-69108628D01*
X198505676Y-68870533D01*
X198553295Y-68680057D01*
X198600914Y-68584819D01*
X198648533Y-68537200D01*
X198743771Y-68489580D01*
%TO.C,J4*%
X186356666Y-101941380D02*
X186356666Y-102655666D01*
X186309047Y-102798523D01*
X186213809Y-102893761D01*
X186070952Y-102941380D01*
X185975714Y-102941380D01*
X187261428Y-102274714D02*
X187261428Y-102941380D01*
X187023333Y-101893761D02*
X186785238Y-102608047D01*
X187404285Y-102608047D01*
%TO.C,R3*%
X133247333Y-90308380D02*
X132914000Y-89832190D01*
X132675904Y-90308380D02*
X132675904Y-89308380D01*
X133056857Y-89308380D01*
X133152095Y-89356000D01*
X133199714Y-89403619D01*
X133247333Y-89498857D01*
X133247333Y-89641714D01*
X133199714Y-89736952D01*
X133152095Y-89784571D01*
X133056857Y-89832190D01*
X132675904Y-89832190D01*
X133580666Y-89308380D02*
X134199714Y-89308380D01*
X133866380Y-89689333D01*
X134009238Y-89689333D01*
X134104476Y-89736952D01*
X134152095Y-89784571D01*
X134199714Y-89879809D01*
X134199714Y-90117904D01*
X134152095Y-90213142D01*
X134104476Y-90260761D01*
X134009238Y-90308380D01*
X133723523Y-90308380D01*
X133628285Y-90260761D01*
X133580666Y-90213142D01*
%TO.C,R18*%
X158742142Y-98877380D02*
X158408809Y-98401190D01*
X158170714Y-98877380D02*
X158170714Y-97877380D01*
X158551666Y-97877380D01*
X158646904Y-97925000D01*
X158694523Y-97972619D01*
X158742142Y-98067857D01*
X158742142Y-98210714D01*
X158694523Y-98305952D01*
X158646904Y-98353571D01*
X158551666Y-98401190D01*
X158170714Y-98401190D01*
X159694523Y-98877380D02*
X159123095Y-98877380D01*
X159408809Y-98877380D02*
X159408809Y-97877380D01*
X159313571Y-98020238D01*
X159218333Y-98115476D01*
X159123095Y-98163095D01*
X160265952Y-98305952D02*
X160170714Y-98258333D01*
X160123095Y-98210714D01*
X160075476Y-98115476D01*
X160075476Y-98067857D01*
X160123095Y-97972619D01*
X160170714Y-97925000D01*
X160265952Y-97877380D01*
X160456428Y-97877380D01*
X160551666Y-97925000D01*
X160599285Y-97972619D01*
X160646904Y-98067857D01*
X160646904Y-98115476D01*
X160599285Y-98210714D01*
X160551666Y-98258333D01*
X160456428Y-98305952D01*
X160265952Y-98305952D01*
X160170714Y-98353571D01*
X160123095Y-98401190D01*
X160075476Y-98496428D01*
X160075476Y-98686904D01*
X160123095Y-98782142D01*
X160170714Y-98829761D01*
X160265952Y-98877380D01*
X160456428Y-98877380D01*
X160551666Y-98829761D01*
X160599285Y-98782142D01*
X160646904Y-98686904D01*
X160646904Y-98496428D01*
X160599285Y-98401190D01*
X160551666Y-98353571D01*
X160456428Y-98305952D01*
%TO.C,J13*%
X210264476Y-87971380D02*
X210264476Y-88685666D01*
X210216857Y-88828523D01*
X210121619Y-88923761D01*
X209978761Y-88971380D01*
X209883523Y-88971380D01*
X211264476Y-88971380D02*
X210693047Y-88971380D01*
X210978761Y-88971380D02*
X210978761Y-87971380D01*
X210883523Y-88114238D01*
X210788285Y-88209476D01*
X210693047Y-88257095D01*
X211597809Y-87971380D02*
X212216857Y-87971380D01*
X211883523Y-88352333D01*
X212026380Y-88352333D01*
X212121619Y-88399952D01*
X212169238Y-88447571D01*
X212216857Y-88542809D01*
X212216857Y-88780904D01*
X212169238Y-88876142D01*
X212121619Y-88923761D01*
X212026380Y-88971380D01*
X211740666Y-88971380D01*
X211645428Y-88923761D01*
X211597809Y-88876142D01*
%TO.C,U3*%
X160909095Y-77176380D02*
X160909095Y-77985904D01*
X160956714Y-78081142D01*
X161004333Y-78128761D01*
X161099571Y-78176380D01*
X161290047Y-78176380D01*
X161385285Y-78128761D01*
X161432904Y-78081142D01*
X161480523Y-77985904D01*
X161480523Y-77176380D01*
X161861476Y-77176380D02*
X162480523Y-77176380D01*
X162147190Y-77557333D01*
X162290047Y-77557333D01*
X162385285Y-77604952D01*
X162432904Y-77652571D01*
X162480523Y-77747809D01*
X162480523Y-77985904D01*
X162432904Y-78081142D01*
X162385285Y-78128761D01*
X162290047Y-78176380D01*
X162004333Y-78176380D01*
X161909095Y-78128761D01*
X161861476Y-78081142D01*
%TO.C,Q4*%
X182657761Y-83224619D02*
X182562523Y-83177000D01*
X182467285Y-83081761D01*
X182324428Y-82938904D01*
X182229190Y-82891285D01*
X182133952Y-82891285D01*
X182181571Y-83129380D02*
X182086333Y-83081761D01*
X181991095Y-82986523D01*
X181943476Y-82796047D01*
X181943476Y-82462714D01*
X181991095Y-82272238D01*
X182086333Y-82177000D01*
X182181571Y-82129380D01*
X182372047Y-82129380D01*
X182467285Y-82177000D01*
X182562523Y-82272238D01*
X182610142Y-82462714D01*
X182610142Y-82796047D01*
X182562523Y-82986523D01*
X182467285Y-83081761D01*
X182372047Y-83129380D01*
X182181571Y-83129380D01*
X183467285Y-82462714D02*
X183467285Y-83129380D01*
X183229190Y-82081761D02*
X182991095Y-82796047D01*
X183610142Y-82796047D01*
%TO.C,R36*%
X188413380Y-79892457D02*
X187937190Y-80225790D01*
X188413380Y-80463885D02*
X187413380Y-80463885D01*
X187413380Y-80082933D01*
X187461000Y-79987695D01*
X187508619Y-79940076D01*
X187603857Y-79892457D01*
X187746714Y-79892457D01*
X187841952Y-79940076D01*
X187889571Y-79987695D01*
X187937190Y-80082933D01*
X187937190Y-80463885D01*
X187413380Y-79559123D02*
X187413380Y-78940076D01*
X187794333Y-79273409D01*
X187794333Y-79130552D01*
X187841952Y-79035314D01*
X187889571Y-78987695D01*
X187984809Y-78940076D01*
X188222904Y-78940076D01*
X188318142Y-78987695D01*
X188365761Y-79035314D01*
X188413380Y-79130552D01*
X188413380Y-79416266D01*
X188365761Y-79511504D01*
X188318142Y-79559123D01*
X187413380Y-78082933D02*
X187413380Y-78273409D01*
X187461000Y-78368647D01*
X187508619Y-78416266D01*
X187651476Y-78511504D01*
X187841952Y-78559123D01*
X188222904Y-78559123D01*
X188318142Y-78511504D01*
X188365761Y-78463885D01*
X188413380Y-78368647D01*
X188413380Y-78178171D01*
X188365761Y-78082933D01*
X188318142Y-78035314D01*
X188222904Y-77987695D01*
X187984809Y-77987695D01*
X187889571Y-78035314D01*
X187841952Y-78082933D01*
X187794333Y-78178171D01*
X187794333Y-78368647D01*
X187841952Y-78463885D01*
X187889571Y-78511504D01*
X187984809Y-78559123D01*
%TO.C,C2*%
X171791333Y-67667142D02*
X171743714Y-67714761D01*
X171600857Y-67762380D01*
X171505619Y-67762380D01*
X171362761Y-67714761D01*
X171267523Y-67619523D01*
X171219904Y-67524285D01*
X171172285Y-67333809D01*
X171172285Y-67190952D01*
X171219904Y-67000476D01*
X171267523Y-66905238D01*
X171362761Y-66810000D01*
X171505619Y-66762380D01*
X171600857Y-66762380D01*
X171743714Y-66810000D01*
X171791333Y-66857619D01*
X172172285Y-66857619D02*
X172219904Y-66810000D01*
X172315142Y-66762380D01*
X172553238Y-66762380D01*
X172648476Y-66810000D01*
X172696095Y-66857619D01*
X172743714Y-66952857D01*
X172743714Y-67048095D01*
X172696095Y-67190952D01*
X172124666Y-67762380D01*
X172743714Y-67762380D01*
%TO.C,J10*%
X134417536Y-103439980D02*
X134417536Y-104154266D01*
X134369917Y-104297123D01*
X134274679Y-104392361D01*
X134131821Y-104439980D01*
X134036583Y-104439980D01*
X135417536Y-104439980D02*
X134846107Y-104439980D01*
X135131821Y-104439980D02*
X135131821Y-103439980D01*
X135036583Y-103582838D01*
X134941345Y-103678076D01*
X134846107Y-103725695D01*
X136036583Y-103439980D02*
X136131821Y-103439980D01*
X136227060Y-103487600D01*
X136274679Y-103535219D01*
X136322298Y-103630457D01*
X136369917Y-103820933D01*
X136369917Y-104059028D01*
X136322298Y-104249504D01*
X136274679Y-104344742D01*
X136227060Y-104392361D01*
X136131821Y-104439980D01*
X136036583Y-104439980D01*
X135941345Y-104392361D01*
X135893726Y-104344742D01*
X135846107Y-104249504D01*
X135798488Y-104059028D01*
X135798488Y-103820933D01*
X135846107Y-103630457D01*
X135893726Y-103535219D01*
X135941345Y-103487600D01*
X136036583Y-103439980D01*
%TO.C,J3*%
X169643466Y-59777380D02*
X169643466Y-60491666D01*
X169595847Y-60634523D01*
X169500609Y-60729761D01*
X169357752Y-60777380D01*
X169262514Y-60777380D01*
X170024419Y-59777380D02*
X170643466Y-59777380D01*
X170310133Y-60158333D01*
X170452990Y-60158333D01*
X170548228Y-60205952D01*
X170595847Y-60253571D01*
X170643466Y-60348809D01*
X170643466Y-60586904D01*
X170595847Y-60682142D01*
X170548228Y-60729761D01*
X170452990Y-60777380D01*
X170167276Y-60777380D01*
X170072038Y-60729761D01*
X170024419Y-60682142D01*
%TO.C,Q2*%
X180371761Y-64301619D02*
X180276523Y-64254000D01*
X180181285Y-64158761D01*
X180038428Y-64015904D01*
X179943190Y-63968285D01*
X179847952Y-63968285D01*
X179895571Y-64206380D02*
X179800333Y-64158761D01*
X179705095Y-64063523D01*
X179657476Y-63873047D01*
X179657476Y-63539714D01*
X179705095Y-63349238D01*
X179800333Y-63254000D01*
X179895571Y-63206380D01*
X180086047Y-63206380D01*
X180181285Y-63254000D01*
X180276523Y-63349238D01*
X180324142Y-63539714D01*
X180324142Y-63873047D01*
X180276523Y-64063523D01*
X180181285Y-64158761D01*
X180086047Y-64206380D01*
X179895571Y-64206380D01*
X180705095Y-63301619D02*
X180752714Y-63254000D01*
X180847952Y-63206380D01*
X181086047Y-63206380D01*
X181181285Y-63254000D01*
X181228904Y-63301619D01*
X181276523Y-63396857D01*
X181276523Y-63492095D01*
X181228904Y-63634952D01*
X180657476Y-64206380D01*
X181276523Y-64206380D01*
%TO.C,J7*%
X152117466Y-66000380D02*
X152117466Y-66714666D01*
X152069847Y-66857523D01*
X151974609Y-66952761D01*
X151831752Y-67000380D01*
X151736514Y-67000380D01*
X152498419Y-66000380D02*
X153165085Y-66000380D01*
X152736514Y-67000380D01*
%TO.C,C31*%
X188187842Y-91884857D02*
X188235461Y-91932476D01*
X188283080Y-92075333D01*
X188283080Y-92170571D01*
X188235461Y-92313428D01*
X188140223Y-92408666D01*
X188044985Y-92456285D01*
X187854509Y-92503904D01*
X187711652Y-92503904D01*
X187521176Y-92456285D01*
X187425938Y-92408666D01*
X187330700Y-92313428D01*
X187283080Y-92170571D01*
X187283080Y-92075333D01*
X187330700Y-91932476D01*
X187378319Y-91884857D01*
X187283080Y-91551523D02*
X187283080Y-90932476D01*
X187664033Y-91265809D01*
X187664033Y-91122952D01*
X187711652Y-91027714D01*
X187759271Y-90980095D01*
X187854509Y-90932476D01*
X188092604Y-90932476D01*
X188187842Y-90980095D01*
X188235461Y-91027714D01*
X188283080Y-91122952D01*
X188283080Y-91408666D01*
X188235461Y-91503904D01*
X188187842Y-91551523D01*
X188283080Y-89980095D02*
X188283080Y-90551523D01*
X188283080Y-90265809D02*
X187283080Y-90265809D01*
X187425938Y-90361047D01*
X187521176Y-90456285D01*
X187568795Y-90551523D01*
%TO.C,C37*%
X209542142Y-66905142D02*
X209494523Y-66952761D01*
X209351666Y-67000380D01*
X209256428Y-67000380D01*
X209113571Y-66952761D01*
X209018333Y-66857523D01*
X208970714Y-66762285D01*
X208923095Y-66571809D01*
X208923095Y-66428952D01*
X208970714Y-66238476D01*
X209018333Y-66143238D01*
X209113571Y-66048000D01*
X209256428Y-66000380D01*
X209351666Y-66000380D01*
X209494523Y-66048000D01*
X209542142Y-66095619D01*
X209875476Y-66000380D02*
X210494523Y-66000380D01*
X210161190Y-66381333D01*
X210304047Y-66381333D01*
X210399285Y-66428952D01*
X210446904Y-66476571D01*
X210494523Y-66571809D01*
X210494523Y-66809904D01*
X210446904Y-66905142D01*
X210399285Y-66952761D01*
X210304047Y-67000380D01*
X210018333Y-67000380D01*
X209923095Y-66952761D01*
X209875476Y-66905142D01*
X210827857Y-66000380D02*
X211494523Y-66000380D01*
X211065952Y-67000380D01*
%TO.C,U1*%
X145344395Y-73442580D02*
X145344395Y-74252104D01*
X145392014Y-74347342D01*
X145439633Y-74394961D01*
X145534871Y-74442580D01*
X145725347Y-74442580D01*
X145820585Y-74394961D01*
X145868204Y-74347342D01*
X145915823Y-74252104D01*
X145915823Y-73442580D01*
X146915823Y-74442580D02*
X146344395Y-74442580D01*
X146630109Y-74442580D02*
X146630109Y-73442580D01*
X146534871Y-73585438D01*
X146439633Y-73680676D01*
X146344395Y-73728295D01*
%TO.C,Q5*%
X174341761Y-74080619D02*
X174246523Y-74033000D01*
X174151285Y-73937761D01*
X174008428Y-73794904D01*
X173913190Y-73747285D01*
X173817952Y-73747285D01*
X173865571Y-73985380D02*
X173770333Y-73937761D01*
X173675095Y-73842523D01*
X173627476Y-73652047D01*
X173627476Y-73318714D01*
X173675095Y-73128238D01*
X173770333Y-73033000D01*
X173865571Y-72985380D01*
X174056047Y-72985380D01*
X174151285Y-73033000D01*
X174246523Y-73128238D01*
X174294142Y-73318714D01*
X174294142Y-73652047D01*
X174246523Y-73842523D01*
X174151285Y-73937761D01*
X174056047Y-73985380D01*
X173865571Y-73985380D01*
X175198904Y-72985380D02*
X174722714Y-72985380D01*
X174675095Y-73461571D01*
X174722714Y-73413952D01*
X174817952Y-73366333D01*
X175056047Y-73366333D01*
X175151285Y-73413952D01*
X175198904Y-73461571D01*
X175246523Y-73556809D01*
X175246523Y-73794904D01*
X175198904Y-73890142D01*
X175151285Y-73937761D01*
X175056047Y-73985380D01*
X174817952Y-73985380D01*
X174722714Y-73937761D01*
X174675095Y-73890142D01*
%TO.C,R22*%
X196159380Y-93352857D02*
X195683190Y-93686190D01*
X196159380Y-93924285D02*
X195159380Y-93924285D01*
X195159380Y-93543333D01*
X195207000Y-93448095D01*
X195254619Y-93400476D01*
X195349857Y-93352857D01*
X195492714Y-93352857D01*
X195587952Y-93400476D01*
X195635571Y-93448095D01*
X195683190Y-93543333D01*
X195683190Y-93924285D01*
X195254619Y-92971904D02*
X195207000Y-92924285D01*
X195159380Y-92829047D01*
X195159380Y-92590952D01*
X195207000Y-92495714D01*
X195254619Y-92448095D01*
X195349857Y-92400476D01*
X195445095Y-92400476D01*
X195587952Y-92448095D01*
X196159380Y-93019523D01*
X196159380Y-92400476D01*
X195254619Y-92019523D02*
X195207000Y-91971904D01*
X195159380Y-91876666D01*
X195159380Y-91638571D01*
X195207000Y-91543333D01*
X195254619Y-91495714D01*
X195349857Y-91448095D01*
X195445095Y-91448095D01*
X195587952Y-91495714D01*
X196159380Y-92067142D01*
X196159380Y-91448095D01*
%TO.C,C20*%
X157583142Y-105113057D02*
X157630761Y-105160676D01*
X157678380Y-105303533D01*
X157678380Y-105398771D01*
X157630761Y-105541628D01*
X157535523Y-105636866D01*
X157440285Y-105684485D01*
X157249809Y-105732104D01*
X157106952Y-105732104D01*
X156916476Y-105684485D01*
X156821238Y-105636866D01*
X156726000Y-105541628D01*
X156678380Y-105398771D01*
X156678380Y-105303533D01*
X156726000Y-105160676D01*
X156773619Y-105113057D01*
X156773619Y-104732104D02*
X156726000Y-104684485D01*
X156678380Y-104589247D01*
X156678380Y-104351152D01*
X156726000Y-104255914D01*
X156773619Y-104208295D01*
X156868857Y-104160676D01*
X156964095Y-104160676D01*
X157106952Y-104208295D01*
X157678380Y-104779723D01*
X157678380Y-104160676D01*
X156678380Y-103541628D02*
X156678380Y-103446390D01*
X156726000Y-103351152D01*
X156773619Y-103303533D01*
X156868857Y-103255914D01*
X157059333Y-103208295D01*
X157297428Y-103208295D01*
X157487904Y-103255914D01*
X157583142Y-103303533D01*
X157630761Y-103351152D01*
X157678380Y-103446390D01*
X157678380Y-103541628D01*
X157630761Y-103636866D01*
X157583142Y-103684485D01*
X157487904Y-103732104D01*
X157297428Y-103779723D01*
X157059333Y-103779723D01*
X156868857Y-103732104D01*
X156773619Y-103684485D01*
X156726000Y-103636866D01*
X156678380Y-103541628D01*
%TO.C,C26*%
X196572142Y-99321857D02*
X196619761Y-99369476D01*
X196667380Y-99512333D01*
X196667380Y-99607571D01*
X196619761Y-99750428D01*
X196524523Y-99845666D01*
X196429285Y-99893285D01*
X196238809Y-99940904D01*
X196095952Y-99940904D01*
X195905476Y-99893285D01*
X195810238Y-99845666D01*
X195715000Y-99750428D01*
X195667380Y-99607571D01*
X195667380Y-99512333D01*
X195715000Y-99369476D01*
X195762619Y-99321857D01*
X195762619Y-98940904D02*
X195715000Y-98893285D01*
X195667380Y-98798047D01*
X195667380Y-98559952D01*
X195715000Y-98464714D01*
X195762619Y-98417095D01*
X195857857Y-98369476D01*
X195953095Y-98369476D01*
X196095952Y-98417095D01*
X196667380Y-98988523D01*
X196667380Y-98369476D01*
X195667380Y-97512333D02*
X195667380Y-97702809D01*
X195715000Y-97798047D01*
X195762619Y-97845666D01*
X195905476Y-97940904D01*
X196095952Y-97988523D01*
X196476904Y-97988523D01*
X196572142Y-97940904D01*
X196619761Y-97893285D01*
X196667380Y-97798047D01*
X196667380Y-97607571D01*
X196619761Y-97512333D01*
X196572142Y-97464714D01*
X196476904Y-97417095D01*
X196238809Y-97417095D01*
X196143571Y-97464714D01*
X196095952Y-97512333D01*
X196048333Y-97607571D01*
X196048333Y-97798047D01*
X196095952Y-97893285D01*
X196143571Y-97940904D01*
X196238809Y-97988523D01*
%TO.C,C7*%
X149505942Y-74334666D02*
X149553561Y-74382285D01*
X149601180Y-74525142D01*
X149601180Y-74620380D01*
X149553561Y-74763238D01*
X149458323Y-74858476D01*
X149363085Y-74906095D01*
X149172609Y-74953714D01*
X149029752Y-74953714D01*
X148839276Y-74906095D01*
X148744038Y-74858476D01*
X148648800Y-74763238D01*
X148601180Y-74620380D01*
X148601180Y-74525142D01*
X148648800Y-74382285D01*
X148696419Y-74334666D01*
X148601180Y-74001333D02*
X148601180Y-73334666D01*
X149601180Y-73763238D01*
%TO.C,C16*%
X149369542Y-79401942D02*
X149321923Y-79449561D01*
X149179066Y-79497180D01*
X149083828Y-79497180D01*
X148940971Y-79449561D01*
X148845733Y-79354323D01*
X148798114Y-79259085D01*
X148750495Y-79068609D01*
X148750495Y-78925752D01*
X148798114Y-78735276D01*
X148845733Y-78640038D01*
X148940971Y-78544800D01*
X149083828Y-78497180D01*
X149179066Y-78497180D01*
X149321923Y-78544800D01*
X149369542Y-78592419D01*
X150321923Y-79497180D02*
X149750495Y-79497180D01*
X150036209Y-79497180D02*
X150036209Y-78497180D01*
X149940971Y-78640038D01*
X149845733Y-78735276D01*
X149750495Y-78782895D01*
X151179066Y-78497180D02*
X150988590Y-78497180D01*
X150893352Y-78544800D01*
X150845733Y-78592419D01*
X150750495Y-78735276D01*
X150702876Y-78925752D01*
X150702876Y-79306704D01*
X150750495Y-79401942D01*
X150798114Y-79449561D01*
X150893352Y-79497180D01*
X151083828Y-79497180D01*
X151179066Y-79449561D01*
X151226685Y-79401942D01*
X151274304Y-79306704D01*
X151274304Y-79068609D01*
X151226685Y-78973371D01*
X151179066Y-78925752D01*
X151083828Y-78878133D01*
X150893352Y-78878133D01*
X150798114Y-78925752D01*
X150750495Y-78973371D01*
X150702876Y-79068609D01*
%TO.C,C21*%
X152468342Y-106338942D02*
X152420723Y-106386561D01*
X152277866Y-106434180D01*
X152182628Y-106434180D01*
X152039771Y-106386561D01*
X151944533Y-106291323D01*
X151896914Y-106196085D01*
X151849295Y-106005609D01*
X151849295Y-105862752D01*
X151896914Y-105672276D01*
X151944533Y-105577038D01*
X152039771Y-105481800D01*
X152182628Y-105434180D01*
X152277866Y-105434180D01*
X152420723Y-105481800D01*
X152468342Y-105529419D01*
X152849295Y-105529419D02*
X152896914Y-105481800D01*
X152992152Y-105434180D01*
X153230247Y-105434180D01*
X153325485Y-105481800D01*
X153373104Y-105529419D01*
X153420723Y-105624657D01*
X153420723Y-105719895D01*
X153373104Y-105862752D01*
X152801676Y-106434180D01*
X153420723Y-106434180D01*
X154373104Y-106434180D02*
X153801676Y-106434180D01*
X154087390Y-106434180D02*
X154087390Y-105434180D01*
X153992152Y-105577038D01*
X153896914Y-105672276D01*
X153801676Y-105719895D01*
%TO.C,C23*%
X194413142Y-97213657D02*
X194460761Y-97261276D01*
X194508380Y-97404133D01*
X194508380Y-97499371D01*
X194460761Y-97642228D01*
X194365523Y-97737466D01*
X194270285Y-97785085D01*
X194079809Y-97832704D01*
X193936952Y-97832704D01*
X193746476Y-97785085D01*
X193651238Y-97737466D01*
X193556000Y-97642228D01*
X193508380Y-97499371D01*
X193508380Y-97404133D01*
X193556000Y-97261276D01*
X193603619Y-97213657D01*
X193603619Y-96832704D02*
X193556000Y-96785085D01*
X193508380Y-96689847D01*
X193508380Y-96451752D01*
X193556000Y-96356514D01*
X193603619Y-96308895D01*
X193698857Y-96261276D01*
X193794095Y-96261276D01*
X193936952Y-96308895D01*
X194508380Y-96880323D01*
X194508380Y-96261276D01*
X193508380Y-95927942D02*
X193508380Y-95308895D01*
X193889333Y-95642228D01*
X193889333Y-95499371D01*
X193936952Y-95404133D01*
X193984571Y-95356514D01*
X194079809Y-95308895D01*
X194317904Y-95308895D01*
X194413142Y-95356514D01*
X194460761Y-95404133D01*
X194508380Y-95499371D01*
X194508380Y-95785085D01*
X194460761Y-95880323D01*
X194413142Y-95927942D01*
%TO.C,C39*%
X197172342Y-70765942D02*
X197124723Y-70813561D01*
X196981866Y-70861180D01*
X196886628Y-70861180D01*
X196743771Y-70813561D01*
X196648533Y-70718323D01*
X196600914Y-70623085D01*
X196553295Y-70432609D01*
X196553295Y-70289752D01*
X196600914Y-70099276D01*
X196648533Y-70004038D01*
X196743771Y-69908800D01*
X196886628Y-69861180D01*
X196981866Y-69861180D01*
X197124723Y-69908800D01*
X197172342Y-69956419D01*
X197505676Y-69861180D02*
X198124723Y-69861180D01*
X197791390Y-70242133D01*
X197934247Y-70242133D01*
X198029485Y-70289752D01*
X198077104Y-70337371D01*
X198124723Y-70432609D01*
X198124723Y-70670704D01*
X198077104Y-70765942D01*
X198029485Y-70813561D01*
X197934247Y-70861180D01*
X197648533Y-70861180D01*
X197553295Y-70813561D01*
X197505676Y-70765942D01*
X198600914Y-70861180D02*
X198791390Y-70861180D01*
X198886628Y-70813561D01*
X198934247Y-70765942D01*
X199029485Y-70623085D01*
X199077104Y-70432609D01*
X199077104Y-70051657D01*
X199029485Y-69956419D01*
X198981866Y-69908800D01*
X198886628Y-69861180D01*
X198696152Y-69861180D01*
X198600914Y-69908800D01*
X198553295Y-69956419D01*
X198505676Y-70051657D01*
X198505676Y-70289752D01*
X198553295Y-70384990D01*
X198600914Y-70432609D01*
X198696152Y-70480228D01*
X198886628Y-70480228D01*
X198981866Y-70432609D01*
X199029485Y-70384990D01*
X199077104Y-70289752D01*
%TO.C,R1*%
X150150533Y-66111380D02*
X149817200Y-65635190D01*
X149579104Y-66111380D02*
X149579104Y-65111380D01*
X149960057Y-65111380D01*
X150055295Y-65159000D01*
X150102914Y-65206619D01*
X150150533Y-65301857D01*
X150150533Y-65444714D01*
X150102914Y-65539952D01*
X150055295Y-65587571D01*
X149960057Y-65635190D01*
X149579104Y-65635190D01*
X151102914Y-66111380D02*
X150531485Y-66111380D01*
X150817200Y-66111380D02*
X150817200Y-65111380D01*
X150721961Y-65254238D01*
X150626723Y-65349476D01*
X150531485Y-65397095D01*
%TO.C,R14*%
X140787380Y-90430857D02*
X140311190Y-90764190D01*
X140787380Y-91002285D02*
X139787380Y-91002285D01*
X139787380Y-90621333D01*
X139835000Y-90526095D01*
X139882619Y-90478476D01*
X139977857Y-90430857D01*
X140120714Y-90430857D01*
X140215952Y-90478476D01*
X140263571Y-90526095D01*
X140311190Y-90621333D01*
X140311190Y-91002285D01*
X140787380Y-89478476D02*
X140787380Y-90049904D01*
X140787380Y-89764190D02*
X139787380Y-89764190D01*
X139930238Y-89859428D01*
X140025476Y-89954666D01*
X140073095Y-90049904D01*
X140120714Y-88621333D02*
X140787380Y-88621333D01*
X139739761Y-88859428D02*
X140454047Y-89097523D01*
X140454047Y-88478476D01*
%TO.C,R30*%
X181983142Y-70429380D02*
X181649809Y-69953190D01*
X181411714Y-70429380D02*
X181411714Y-69429380D01*
X181792666Y-69429380D01*
X181887904Y-69477000D01*
X181935523Y-69524619D01*
X181983142Y-69619857D01*
X181983142Y-69762714D01*
X181935523Y-69857952D01*
X181887904Y-69905571D01*
X181792666Y-69953190D01*
X181411714Y-69953190D01*
X182316476Y-69429380D02*
X182935523Y-69429380D01*
X182602190Y-69810333D01*
X182745047Y-69810333D01*
X182840285Y-69857952D01*
X182887904Y-69905571D01*
X182935523Y-70000809D01*
X182935523Y-70238904D01*
X182887904Y-70334142D01*
X182840285Y-70381761D01*
X182745047Y-70429380D01*
X182459333Y-70429380D01*
X182364095Y-70381761D01*
X182316476Y-70334142D01*
X183554571Y-69429380D02*
X183649809Y-69429380D01*
X183745047Y-69477000D01*
X183792666Y-69524619D01*
X183840285Y-69619857D01*
X183887904Y-69810333D01*
X183887904Y-70048428D01*
X183840285Y-70238904D01*
X183792666Y-70334142D01*
X183745047Y-70381761D01*
X183649809Y-70429380D01*
X183554571Y-70429380D01*
X183459333Y-70381761D01*
X183411714Y-70334142D01*
X183364095Y-70238904D01*
X183316476Y-70048428D01*
X183316476Y-69810333D01*
X183364095Y-69619857D01*
X183411714Y-69524619D01*
X183459333Y-69477000D01*
X183554571Y-69429380D01*
%TO.C,Q7*%
X186341761Y-77765219D02*
X186246523Y-77717600D01*
X186151285Y-77622361D01*
X186008428Y-77479504D01*
X185913190Y-77431885D01*
X185817952Y-77431885D01*
X185865571Y-77669980D02*
X185770333Y-77622361D01*
X185675095Y-77527123D01*
X185627476Y-77336647D01*
X185627476Y-77003314D01*
X185675095Y-76812838D01*
X185770333Y-76717600D01*
X185865571Y-76669980D01*
X186056047Y-76669980D01*
X186151285Y-76717600D01*
X186246523Y-76812838D01*
X186294142Y-77003314D01*
X186294142Y-77336647D01*
X186246523Y-77527123D01*
X186151285Y-77622361D01*
X186056047Y-77669980D01*
X185865571Y-77669980D01*
X186627476Y-76669980D02*
X187294142Y-76669980D01*
X186865571Y-77669980D01*
%TO.C,R16*%
X136901180Y-87803457D02*
X136424990Y-88136790D01*
X136901180Y-88374885D02*
X135901180Y-88374885D01*
X135901180Y-87993933D01*
X135948800Y-87898695D01*
X135996419Y-87851076D01*
X136091657Y-87803457D01*
X136234514Y-87803457D01*
X136329752Y-87851076D01*
X136377371Y-87898695D01*
X136424990Y-87993933D01*
X136424990Y-88374885D01*
X136901180Y-86851076D02*
X136901180Y-87422504D01*
X136901180Y-87136790D02*
X135901180Y-87136790D01*
X136044038Y-87232028D01*
X136139276Y-87327266D01*
X136186895Y-87422504D01*
X135901180Y-85993933D02*
X135901180Y-86184409D01*
X135948800Y-86279647D01*
X135996419Y-86327266D01*
X136139276Y-86422504D01*
X136329752Y-86470123D01*
X136710704Y-86470123D01*
X136805942Y-86422504D01*
X136853561Y-86374885D01*
X136901180Y-86279647D01*
X136901180Y-86089171D01*
X136853561Y-85993933D01*
X136805942Y-85946314D01*
X136710704Y-85898695D01*
X136472609Y-85898695D01*
X136377371Y-85946314D01*
X136329752Y-85993933D01*
X136282133Y-86089171D01*
X136282133Y-86279647D01*
X136329752Y-86374885D01*
X136377371Y-86422504D01*
X136472609Y-86470123D01*
%TO.C,R7*%
X158329333Y-77414380D02*
X157996000Y-76938190D01*
X157757904Y-77414380D02*
X157757904Y-76414380D01*
X158138857Y-76414380D01*
X158234095Y-76462000D01*
X158281714Y-76509619D01*
X158329333Y-76604857D01*
X158329333Y-76747714D01*
X158281714Y-76842952D01*
X158234095Y-76890571D01*
X158138857Y-76938190D01*
X157757904Y-76938190D01*
X158662666Y-76414380D02*
X159329333Y-76414380D01*
X158900761Y-77414380D01*
%TO.C,R28*%
X176519842Y-89771580D02*
X176186509Y-89295390D01*
X175948414Y-89771580D02*
X175948414Y-88771580D01*
X176329366Y-88771580D01*
X176424604Y-88819200D01*
X176472223Y-88866819D01*
X176519842Y-88962057D01*
X176519842Y-89104914D01*
X176472223Y-89200152D01*
X176424604Y-89247771D01*
X176329366Y-89295390D01*
X175948414Y-89295390D01*
X176900795Y-88866819D02*
X176948414Y-88819200D01*
X177043652Y-88771580D01*
X177281747Y-88771580D01*
X177376985Y-88819200D01*
X177424604Y-88866819D01*
X177472223Y-88962057D01*
X177472223Y-89057295D01*
X177424604Y-89200152D01*
X176853176Y-89771580D01*
X177472223Y-89771580D01*
X178043652Y-89200152D02*
X177948414Y-89152533D01*
X177900795Y-89104914D01*
X177853176Y-89009676D01*
X177853176Y-88962057D01*
X177900795Y-88866819D01*
X177948414Y-88819200D01*
X178043652Y-88771580D01*
X178234128Y-88771580D01*
X178329366Y-88819200D01*
X178376985Y-88866819D01*
X178424604Y-88962057D01*
X178424604Y-89009676D01*
X178376985Y-89104914D01*
X178329366Y-89152533D01*
X178234128Y-89200152D01*
X178043652Y-89200152D01*
X177948414Y-89247771D01*
X177900795Y-89295390D01*
X177853176Y-89390628D01*
X177853176Y-89581104D01*
X177900795Y-89676342D01*
X177948414Y-89723961D01*
X178043652Y-89771580D01*
X178234128Y-89771580D01*
X178329366Y-89723961D01*
X178376985Y-89676342D01*
X178424604Y-89581104D01*
X178424604Y-89390628D01*
X178376985Y-89295390D01*
X178329366Y-89247771D01*
X178234128Y-89200152D01*
%TO.C,R15*%
X142743380Y-88780857D02*
X142267190Y-89114190D01*
X142743380Y-89352285D02*
X141743380Y-89352285D01*
X141743380Y-88971333D01*
X141791000Y-88876095D01*
X141838619Y-88828476D01*
X141933857Y-88780857D01*
X142076714Y-88780857D01*
X142171952Y-88828476D01*
X142219571Y-88876095D01*
X142267190Y-88971333D01*
X142267190Y-89352285D01*
X142743380Y-87828476D02*
X142743380Y-88399904D01*
X142743380Y-88114190D02*
X141743380Y-88114190D01*
X141886238Y-88209428D01*
X141981476Y-88304666D01*
X142029095Y-88399904D01*
X141743380Y-86923714D02*
X141743380Y-87399904D01*
X142219571Y-87447523D01*
X142171952Y-87399904D01*
X142124333Y-87304666D01*
X142124333Y-87066571D01*
X142171952Y-86971333D01*
X142219571Y-86923714D01*
X142314809Y-86876095D01*
X142552904Y-86876095D01*
X142648142Y-86923714D01*
X142695761Y-86971333D01*
X142743380Y-87066571D01*
X142743380Y-87304666D01*
X142695761Y-87399904D01*
X142648142Y-87447523D01*
%TO.C,SW2*%
X122491666Y-83081761D02*
X122634523Y-83129380D01*
X122872619Y-83129380D01*
X122967857Y-83081761D01*
X123015476Y-83034142D01*
X123063095Y-82938904D01*
X123063095Y-82843666D01*
X123015476Y-82748428D01*
X122967857Y-82700809D01*
X122872619Y-82653190D01*
X122682142Y-82605571D01*
X122586904Y-82557952D01*
X122539285Y-82510333D01*
X122491666Y-82415095D01*
X122491666Y-82319857D01*
X122539285Y-82224619D01*
X122586904Y-82177000D01*
X122682142Y-82129380D01*
X122920238Y-82129380D01*
X123063095Y-82177000D01*
X123396428Y-82129380D02*
X123634523Y-83129380D01*
X123825000Y-82415095D01*
X124015476Y-83129380D01*
X124253571Y-82129380D01*
X124586904Y-82224619D02*
X124634523Y-82177000D01*
X124729761Y-82129380D01*
X124967857Y-82129380D01*
X125063095Y-82177000D01*
X125110714Y-82224619D01*
X125158333Y-82319857D01*
X125158333Y-82415095D01*
X125110714Y-82557952D01*
X124539285Y-83129380D01*
X125158333Y-83129380D01*
%TO.C,J12*%
X170386476Y-91781380D02*
X170386476Y-92495666D01*
X170338857Y-92638523D01*
X170243619Y-92733761D01*
X170100761Y-92781380D01*
X170005523Y-92781380D01*
X171386476Y-92781380D02*
X170815047Y-92781380D01*
X171100761Y-92781380D02*
X171100761Y-91781380D01*
X171005523Y-91924238D01*
X170910285Y-92019476D01*
X170815047Y-92067095D01*
X171767428Y-91876619D02*
X171815047Y-91829000D01*
X171910285Y-91781380D01*
X172148380Y-91781380D01*
X172243619Y-91829000D01*
X172291238Y-91876619D01*
X172338857Y-91971857D01*
X172338857Y-92067095D01*
X172291238Y-92209952D01*
X171719809Y-92781380D01*
X172338857Y-92781380D01*
%TO.C,J5*%
X144726066Y-65187580D02*
X144726066Y-65901866D01*
X144678447Y-66044723D01*
X144583209Y-66139961D01*
X144440352Y-66187580D01*
X144345114Y-66187580D01*
X145678447Y-65187580D02*
X145202257Y-65187580D01*
X145154638Y-65663771D01*
X145202257Y-65616152D01*
X145297495Y-65568533D01*
X145535590Y-65568533D01*
X145630828Y-65616152D01*
X145678447Y-65663771D01*
X145726066Y-65759009D01*
X145726066Y-65997104D01*
X145678447Y-66092342D01*
X145630828Y-66139961D01*
X145535590Y-66187580D01*
X145297495Y-66187580D01*
X145202257Y-66139961D01*
X145154638Y-66092342D01*
%TO.C,R2*%
X126833333Y-96845380D02*
X126500000Y-96369190D01*
X126261904Y-96845380D02*
X126261904Y-95845380D01*
X126642857Y-95845380D01*
X126738095Y-95893000D01*
X126785714Y-95940619D01*
X126833333Y-96035857D01*
X126833333Y-96178714D01*
X126785714Y-96273952D01*
X126738095Y-96321571D01*
X126642857Y-96369190D01*
X126261904Y-96369190D01*
X127214285Y-95940619D02*
X127261904Y-95893000D01*
X127357142Y-95845380D01*
X127595238Y-95845380D01*
X127690476Y-95893000D01*
X127738095Y-95940619D01*
X127785714Y-96035857D01*
X127785714Y-96131095D01*
X127738095Y-96273952D01*
X127166666Y-96845380D01*
X127785714Y-96845380D01*
%TO.C,R20*%
X185159142Y-67381380D02*
X184825809Y-66905190D01*
X184587714Y-67381380D02*
X184587714Y-66381380D01*
X184968666Y-66381380D01*
X185063904Y-66429000D01*
X185111523Y-66476619D01*
X185159142Y-66571857D01*
X185159142Y-66714714D01*
X185111523Y-66809952D01*
X185063904Y-66857571D01*
X184968666Y-66905190D01*
X184587714Y-66905190D01*
X185540095Y-66476619D02*
X185587714Y-66429000D01*
X185682952Y-66381380D01*
X185921047Y-66381380D01*
X186016285Y-66429000D01*
X186063904Y-66476619D01*
X186111523Y-66571857D01*
X186111523Y-66667095D01*
X186063904Y-66809952D01*
X185492476Y-67381380D01*
X186111523Y-67381380D01*
X186730571Y-66381380D02*
X186825809Y-66381380D01*
X186921047Y-66429000D01*
X186968666Y-66476619D01*
X187016285Y-66571857D01*
X187063904Y-66762333D01*
X187063904Y-67000428D01*
X187016285Y-67190904D01*
X186968666Y-67286142D01*
X186921047Y-67333761D01*
X186825809Y-67381380D01*
X186730571Y-67381380D01*
X186635333Y-67333761D01*
X186587714Y-67286142D01*
X186540095Y-67190904D01*
X186492476Y-67000428D01*
X186492476Y-66762333D01*
X186540095Y-66571857D01*
X186587714Y-66476619D01*
X186635333Y-66429000D01*
X186730571Y-66381380D01*
%TO.C,D3*%
X176807904Y-64714380D02*
X176807904Y-63714380D01*
X177046000Y-63714380D01*
X177188857Y-63762000D01*
X177284095Y-63857238D01*
X177331714Y-63952476D01*
X177379333Y-64142952D01*
X177379333Y-64285809D01*
X177331714Y-64476285D01*
X177284095Y-64571523D01*
X177188857Y-64666761D01*
X177046000Y-64714380D01*
X176807904Y-64714380D01*
X177712666Y-63714380D02*
X178331714Y-63714380D01*
X177998380Y-64095333D01*
X178141238Y-64095333D01*
X178236476Y-64142952D01*
X178284095Y-64190571D01*
X178331714Y-64285809D01*
X178331714Y-64523904D01*
X178284095Y-64619142D01*
X178236476Y-64666761D01*
X178141238Y-64714380D01*
X177855523Y-64714380D01*
X177760285Y-64666761D01*
X177712666Y-64619142D01*
%TO.C,C3*%
X168997333Y-65127142D02*
X168949714Y-65174761D01*
X168806857Y-65222380D01*
X168711619Y-65222380D01*
X168568761Y-65174761D01*
X168473523Y-65079523D01*
X168425904Y-64984285D01*
X168378285Y-64793809D01*
X168378285Y-64650952D01*
X168425904Y-64460476D01*
X168473523Y-64365238D01*
X168568761Y-64270000D01*
X168711619Y-64222380D01*
X168806857Y-64222380D01*
X168949714Y-64270000D01*
X168997333Y-64317619D01*
X169330666Y-64222380D02*
X169949714Y-64222380D01*
X169616380Y-64603333D01*
X169759238Y-64603333D01*
X169854476Y-64650952D01*
X169902095Y-64698571D01*
X169949714Y-64793809D01*
X169949714Y-65031904D01*
X169902095Y-65127142D01*
X169854476Y-65174761D01*
X169759238Y-65222380D01*
X169473523Y-65222380D01*
X169378285Y-65174761D01*
X169330666Y-65127142D01*
%TO.C,C29*%
X196461142Y-67971942D02*
X196413523Y-68019561D01*
X196270666Y-68067180D01*
X196175428Y-68067180D01*
X196032571Y-68019561D01*
X195937333Y-67924323D01*
X195889714Y-67829085D01*
X195842095Y-67638609D01*
X195842095Y-67495752D01*
X195889714Y-67305276D01*
X195937333Y-67210038D01*
X196032571Y-67114800D01*
X196175428Y-67067180D01*
X196270666Y-67067180D01*
X196413523Y-67114800D01*
X196461142Y-67162419D01*
X196842095Y-67162419D02*
X196889714Y-67114800D01*
X196984952Y-67067180D01*
X197223047Y-67067180D01*
X197318285Y-67114800D01*
X197365904Y-67162419D01*
X197413523Y-67257657D01*
X197413523Y-67352895D01*
X197365904Y-67495752D01*
X196794476Y-68067180D01*
X197413523Y-68067180D01*
X197889714Y-68067180D02*
X198080190Y-68067180D01*
X198175428Y-68019561D01*
X198223047Y-67971942D01*
X198318285Y-67829085D01*
X198365904Y-67638609D01*
X198365904Y-67257657D01*
X198318285Y-67162419D01*
X198270666Y-67114800D01*
X198175428Y-67067180D01*
X197984952Y-67067180D01*
X197889714Y-67114800D01*
X197842095Y-67162419D01*
X197794476Y-67257657D01*
X197794476Y-67495752D01*
X197842095Y-67590990D01*
X197889714Y-67638609D01*
X197984952Y-67686228D01*
X198175428Y-67686228D01*
X198270666Y-67638609D01*
X198318285Y-67590990D01*
X198365904Y-67495752D01*
%TO.C,C38*%
X209542142Y-70003942D02*
X209494523Y-70051561D01*
X209351666Y-70099180D01*
X209256428Y-70099180D01*
X209113571Y-70051561D01*
X209018333Y-69956323D01*
X208970714Y-69861085D01*
X208923095Y-69670609D01*
X208923095Y-69527752D01*
X208970714Y-69337276D01*
X209018333Y-69242038D01*
X209113571Y-69146800D01*
X209256428Y-69099180D01*
X209351666Y-69099180D01*
X209494523Y-69146800D01*
X209542142Y-69194419D01*
X209875476Y-69099180D02*
X210494523Y-69099180D01*
X210161190Y-69480133D01*
X210304047Y-69480133D01*
X210399285Y-69527752D01*
X210446904Y-69575371D01*
X210494523Y-69670609D01*
X210494523Y-69908704D01*
X210446904Y-70003942D01*
X210399285Y-70051561D01*
X210304047Y-70099180D01*
X210018333Y-70099180D01*
X209923095Y-70051561D01*
X209875476Y-70003942D01*
X211065952Y-69527752D02*
X210970714Y-69480133D01*
X210923095Y-69432514D01*
X210875476Y-69337276D01*
X210875476Y-69289657D01*
X210923095Y-69194419D01*
X210970714Y-69146800D01*
X211065952Y-69099180D01*
X211256428Y-69099180D01*
X211351666Y-69146800D01*
X211399285Y-69194419D01*
X211446904Y-69289657D01*
X211446904Y-69337276D01*
X211399285Y-69432514D01*
X211351666Y-69480133D01*
X211256428Y-69527752D01*
X211065952Y-69527752D01*
X210970714Y-69575371D01*
X210923095Y-69622990D01*
X210875476Y-69718228D01*
X210875476Y-69908704D01*
X210923095Y-70003942D01*
X210970714Y-70051561D01*
X211065952Y-70099180D01*
X211256428Y-70099180D01*
X211351666Y-70051561D01*
X211399285Y-70003942D01*
X211446904Y-69908704D01*
X211446904Y-69718228D01*
X211399285Y-69622990D01*
X211351666Y-69575371D01*
X211256428Y-69527752D01*
%TO.C,Q6*%
X182413261Y-72650319D02*
X182318023Y-72602700D01*
X182222785Y-72507461D01*
X182079928Y-72364604D01*
X181984690Y-72316985D01*
X181889452Y-72316985D01*
X181937071Y-72555080D02*
X181841833Y-72507461D01*
X181746595Y-72412223D01*
X181698976Y-72221747D01*
X181698976Y-71888414D01*
X181746595Y-71697938D01*
X181841833Y-71602700D01*
X181937071Y-71555080D01*
X182127547Y-71555080D01*
X182222785Y-71602700D01*
X182318023Y-71697938D01*
X182365642Y-71888414D01*
X182365642Y-72221747D01*
X182318023Y-72412223D01*
X182222785Y-72507461D01*
X182127547Y-72555080D01*
X181937071Y-72555080D01*
X183222785Y-71555080D02*
X183032309Y-71555080D01*
X182937071Y-71602700D01*
X182889452Y-71650319D01*
X182794214Y-71793176D01*
X182746595Y-71983652D01*
X182746595Y-72364604D01*
X182794214Y-72459842D01*
X182841833Y-72507461D01*
X182937071Y-72555080D01*
X183127547Y-72555080D01*
X183222785Y-72507461D01*
X183270404Y-72459842D01*
X183318023Y-72364604D01*
X183318023Y-72126509D01*
X183270404Y-72031271D01*
X183222785Y-71983652D01*
X183127547Y-71936033D01*
X182937071Y-71936033D01*
X182841833Y-71983652D01*
X182794214Y-72031271D01*
X182746595Y-72126509D01*
%TO.C,U2*%
X165227095Y-75703180D02*
X165227095Y-76512704D01*
X165274714Y-76607942D01*
X165322333Y-76655561D01*
X165417571Y-76703180D01*
X165608047Y-76703180D01*
X165703285Y-76655561D01*
X165750904Y-76607942D01*
X165798523Y-76512704D01*
X165798523Y-75703180D01*
X166227095Y-75798419D02*
X166274714Y-75750800D01*
X166369952Y-75703180D01*
X166608047Y-75703180D01*
X166703285Y-75750800D01*
X166750904Y-75798419D01*
X166798523Y-75893657D01*
X166798523Y-75988895D01*
X166750904Y-76131752D01*
X166179476Y-76703180D01*
X166798523Y-76703180D01*
%TO.C,U6*%
X165989095Y-98639380D02*
X165989095Y-99448904D01*
X166036714Y-99544142D01*
X166084333Y-99591761D01*
X166179571Y-99639380D01*
X166370047Y-99639380D01*
X166465285Y-99591761D01*
X166512904Y-99544142D01*
X166560523Y-99448904D01*
X166560523Y-98639380D01*
X167465285Y-98639380D02*
X167274809Y-98639380D01*
X167179571Y-98687000D01*
X167131952Y-98734619D01*
X167036714Y-98877476D01*
X166989095Y-99067952D01*
X166989095Y-99448904D01*
X167036714Y-99544142D01*
X167084333Y-99591761D01*
X167179571Y-99639380D01*
X167370047Y-99639380D01*
X167465285Y-99591761D01*
X167512904Y-99544142D01*
X167560523Y-99448904D01*
X167560523Y-99210809D01*
X167512904Y-99115571D01*
X167465285Y-99067952D01*
X167370047Y-99020333D01*
X167179571Y-99020333D01*
X167084333Y-99067952D01*
X167036714Y-99115571D01*
X166989095Y-99210809D01*
%TO.C,C27*%
X192244742Y-61190142D02*
X192197123Y-61237761D01*
X192054266Y-61285380D01*
X191959028Y-61285380D01*
X191816171Y-61237761D01*
X191720933Y-61142523D01*
X191673314Y-61047285D01*
X191625695Y-60856809D01*
X191625695Y-60713952D01*
X191673314Y-60523476D01*
X191720933Y-60428238D01*
X191816171Y-60333000D01*
X191959028Y-60285380D01*
X192054266Y-60285380D01*
X192197123Y-60333000D01*
X192244742Y-60380619D01*
X192625695Y-60380619D02*
X192673314Y-60333000D01*
X192768552Y-60285380D01*
X193006647Y-60285380D01*
X193101885Y-60333000D01*
X193149504Y-60380619D01*
X193197123Y-60475857D01*
X193197123Y-60571095D01*
X193149504Y-60713952D01*
X192578076Y-61285380D01*
X193197123Y-61285380D01*
X193530457Y-60285380D02*
X194197123Y-60285380D01*
X193768552Y-61285380D01*
%TO.C,R12*%
X176268142Y-86558380D02*
X175934809Y-86082190D01*
X175696714Y-86558380D02*
X175696714Y-85558380D01*
X176077666Y-85558380D01*
X176172904Y-85606000D01*
X176220523Y-85653619D01*
X176268142Y-85748857D01*
X176268142Y-85891714D01*
X176220523Y-85986952D01*
X176172904Y-86034571D01*
X176077666Y-86082190D01*
X175696714Y-86082190D01*
X177220523Y-86558380D02*
X176649095Y-86558380D01*
X176934809Y-86558380D02*
X176934809Y-85558380D01*
X176839571Y-85701238D01*
X176744333Y-85796476D01*
X176649095Y-85844095D01*
X177601476Y-85653619D02*
X177649095Y-85606000D01*
X177744333Y-85558380D01*
X177982428Y-85558380D01*
X178077666Y-85606000D01*
X178125285Y-85653619D01*
X178172904Y-85748857D01*
X178172904Y-85844095D01*
X178125285Y-85986952D01*
X177553857Y-86558380D01*
X178172904Y-86558380D01*
%TO.C,C34*%
X188571142Y-86621857D02*
X188618761Y-86669476D01*
X188666380Y-86812333D01*
X188666380Y-86907571D01*
X188618761Y-87050428D01*
X188523523Y-87145666D01*
X188428285Y-87193285D01*
X188237809Y-87240904D01*
X188094952Y-87240904D01*
X187904476Y-87193285D01*
X187809238Y-87145666D01*
X187714000Y-87050428D01*
X187666380Y-86907571D01*
X187666380Y-86812333D01*
X187714000Y-86669476D01*
X187761619Y-86621857D01*
X187666380Y-86288523D02*
X187666380Y-85669476D01*
X188047333Y-86002809D01*
X188047333Y-85859952D01*
X188094952Y-85764714D01*
X188142571Y-85717095D01*
X188237809Y-85669476D01*
X188475904Y-85669476D01*
X188571142Y-85717095D01*
X188618761Y-85764714D01*
X188666380Y-85859952D01*
X188666380Y-86145666D01*
X188618761Y-86240904D01*
X188571142Y-86288523D01*
X187999714Y-84812333D02*
X188666380Y-84812333D01*
X187618761Y-85050428D02*
X188333047Y-85288523D01*
X188333047Y-84669476D01*
%TO.C,Y1*%
X146539009Y-78970190D02*
X146539009Y-79446380D01*
X146205676Y-78446380D02*
X146539009Y-78970190D01*
X146872342Y-78446380D01*
X147729485Y-79446380D02*
X147158057Y-79446380D01*
X147443771Y-79446380D02*
X147443771Y-78446380D01*
X147348533Y-78589238D01*
X147253295Y-78684476D01*
X147158057Y-78732095D01*
%TO.C,R24*%
X199334380Y-93352857D02*
X198858190Y-93686190D01*
X199334380Y-93924285D02*
X198334380Y-93924285D01*
X198334380Y-93543333D01*
X198382000Y-93448095D01*
X198429619Y-93400476D01*
X198524857Y-93352857D01*
X198667714Y-93352857D01*
X198762952Y-93400476D01*
X198810571Y-93448095D01*
X198858190Y-93543333D01*
X198858190Y-93924285D01*
X198429619Y-92971904D02*
X198382000Y-92924285D01*
X198334380Y-92829047D01*
X198334380Y-92590952D01*
X198382000Y-92495714D01*
X198429619Y-92448095D01*
X198524857Y-92400476D01*
X198620095Y-92400476D01*
X198762952Y-92448095D01*
X199334380Y-93019523D01*
X199334380Y-92400476D01*
X198667714Y-91543333D02*
X199334380Y-91543333D01*
X198286761Y-91781428D02*
X199001047Y-92019523D01*
X199001047Y-91400476D01*
%TO.C,L2*%
X148407380Y-89142866D02*
X148407380Y-89619057D01*
X147407380Y-89619057D01*
X147502619Y-88857152D02*
X147455000Y-88809533D01*
X147407380Y-88714295D01*
X147407380Y-88476200D01*
X147455000Y-88380961D01*
X147502619Y-88333342D01*
X147597857Y-88285723D01*
X147693095Y-88285723D01*
X147835952Y-88333342D01*
X148407380Y-88904771D01*
X148407380Y-88285723D01*
%TO.C,C13*%
X149709142Y-90000057D02*
X149756761Y-90047676D01*
X149804380Y-90190533D01*
X149804380Y-90285771D01*
X149756761Y-90428628D01*
X149661523Y-90523866D01*
X149566285Y-90571485D01*
X149375809Y-90619104D01*
X149232952Y-90619104D01*
X149042476Y-90571485D01*
X148947238Y-90523866D01*
X148852000Y-90428628D01*
X148804380Y-90285771D01*
X148804380Y-90190533D01*
X148852000Y-90047676D01*
X148899619Y-90000057D01*
X149804380Y-89047676D02*
X149804380Y-89619104D01*
X149804380Y-89333390D02*
X148804380Y-89333390D01*
X148947238Y-89428628D01*
X149042476Y-89523866D01*
X149090095Y-89619104D01*
X148804380Y-88714342D02*
X148804380Y-88095295D01*
X149185333Y-88428628D01*
X149185333Y-88285771D01*
X149232952Y-88190533D01*
X149280571Y-88142914D01*
X149375809Y-88095295D01*
X149613904Y-88095295D01*
X149709142Y-88142914D01*
X149756761Y-88190533D01*
X149804380Y-88285771D01*
X149804380Y-88571485D01*
X149756761Y-88666723D01*
X149709142Y-88714342D01*
%TO.C,SW1*%
X132296066Y-59054361D02*
X132438923Y-59101980D01*
X132677019Y-59101980D01*
X132772257Y-59054361D01*
X132819876Y-59006742D01*
X132867495Y-58911504D01*
X132867495Y-58816266D01*
X132819876Y-58721028D01*
X132772257Y-58673409D01*
X132677019Y-58625790D01*
X132486542Y-58578171D01*
X132391304Y-58530552D01*
X132343685Y-58482933D01*
X132296066Y-58387695D01*
X132296066Y-58292457D01*
X132343685Y-58197219D01*
X132391304Y-58149600D01*
X132486542Y-58101980D01*
X132724638Y-58101980D01*
X132867495Y-58149600D01*
X133200828Y-58101980D02*
X133438923Y-59101980D01*
X133629400Y-58387695D01*
X133819876Y-59101980D01*
X134057971Y-58101980D01*
X134962733Y-59101980D02*
X134391304Y-59101980D01*
X134677019Y-59101980D02*
X134677019Y-58101980D01*
X134581780Y-58244838D01*
X134486542Y-58340076D01*
X134391304Y-58387695D01*
%TO.C,R33*%
X179824142Y-81605380D02*
X179490809Y-81129190D01*
X179252714Y-81605380D02*
X179252714Y-80605380D01*
X179633666Y-80605380D01*
X179728904Y-80653000D01*
X179776523Y-80700619D01*
X179824142Y-80795857D01*
X179824142Y-80938714D01*
X179776523Y-81033952D01*
X179728904Y-81081571D01*
X179633666Y-81129190D01*
X179252714Y-81129190D01*
X180157476Y-80605380D02*
X180776523Y-80605380D01*
X180443190Y-80986333D01*
X180586047Y-80986333D01*
X180681285Y-81033952D01*
X180728904Y-81081571D01*
X180776523Y-81176809D01*
X180776523Y-81414904D01*
X180728904Y-81510142D01*
X180681285Y-81557761D01*
X180586047Y-81605380D01*
X180300333Y-81605380D01*
X180205095Y-81557761D01*
X180157476Y-81510142D01*
X181109857Y-80605380D02*
X181728904Y-80605380D01*
X181395571Y-80986333D01*
X181538428Y-80986333D01*
X181633666Y-81033952D01*
X181681285Y-81081571D01*
X181728904Y-81176809D01*
X181728904Y-81414904D01*
X181681285Y-81510142D01*
X181633666Y-81557761D01*
X181538428Y-81605380D01*
X181252714Y-81605380D01*
X181157476Y-81557761D01*
X181109857Y-81510142D01*
%TO.C,R34*%
X179887480Y-74980757D02*
X179411290Y-75314090D01*
X179887480Y-75552185D02*
X178887480Y-75552185D01*
X178887480Y-75171233D01*
X178935100Y-75075995D01*
X178982719Y-75028376D01*
X179077957Y-74980757D01*
X179220814Y-74980757D01*
X179316052Y-75028376D01*
X179363671Y-75075995D01*
X179411290Y-75171233D01*
X179411290Y-75552185D01*
X178887480Y-74647423D02*
X178887480Y-74028376D01*
X179268433Y-74361709D01*
X179268433Y-74218852D01*
X179316052Y-74123614D01*
X179363671Y-74075995D01*
X179458909Y-74028376D01*
X179697004Y-74028376D01*
X179792242Y-74075995D01*
X179839861Y-74123614D01*
X179887480Y-74218852D01*
X179887480Y-74504566D01*
X179839861Y-74599804D01*
X179792242Y-74647423D01*
X179220814Y-73171233D02*
X179887480Y-73171233D01*
X178839861Y-73409328D02*
X179554147Y-73647423D01*
X179554147Y-73028376D01*
%TO.C,R21*%
X182999142Y-68905380D02*
X182665809Y-68429190D01*
X182427714Y-68905380D02*
X182427714Y-67905380D01*
X182808666Y-67905380D01*
X182903904Y-67953000D01*
X182951523Y-68000619D01*
X182999142Y-68095857D01*
X182999142Y-68238714D01*
X182951523Y-68333952D01*
X182903904Y-68381571D01*
X182808666Y-68429190D01*
X182427714Y-68429190D01*
X183380095Y-68000619D02*
X183427714Y-67953000D01*
X183522952Y-67905380D01*
X183761047Y-67905380D01*
X183856285Y-67953000D01*
X183903904Y-68000619D01*
X183951523Y-68095857D01*
X183951523Y-68191095D01*
X183903904Y-68333952D01*
X183332476Y-68905380D01*
X183951523Y-68905380D01*
X184903904Y-68905380D02*
X184332476Y-68905380D01*
X184618190Y-68905380D02*
X184618190Y-67905380D01*
X184522952Y-68048238D01*
X184427714Y-68143476D01*
X184332476Y-68191095D01*
%TO.C,R13*%
X176268142Y-84526380D02*
X175934809Y-84050190D01*
X175696714Y-84526380D02*
X175696714Y-83526380D01*
X176077666Y-83526380D01*
X176172904Y-83574000D01*
X176220523Y-83621619D01*
X176268142Y-83716857D01*
X176268142Y-83859714D01*
X176220523Y-83954952D01*
X176172904Y-84002571D01*
X176077666Y-84050190D01*
X175696714Y-84050190D01*
X177220523Y-84526380D02*
X176649095Y-84526380D01*
X176934809Y-84526380D02*
X176934809Y-83526380D01*
X176839571Y-83669238D01*
X176744333Y-83764476D01*
X176649095Y-83812095D01*
X177553857Y-83526380D02*
X178172904Y-83526380D01*
X177839571Y-83907333D01*
X177982428Y-83907333D01*
X178077666Y-83954952D01*
X178125285Y-84002571D01*
X178172904Y-84097809D01*
X178172904Y-84335904D01*
X178125285Y-84431142D01*
X178077666Y-84478761D01*
X177982428Y-84526380D01*
X177696714Y-84526380D01*
X177601476Y-84478761D01*
X177553857Y-84431142D01*
%TO.C,C10*%
X126053142Y-90467142D02*
X126005523Y-90514761D01*
X125862666Y-90562380D01*
X125767428Y-90562380D01*
X125624571Y-90514761D01*
X125529333Y-90419523D01*
X125481714Y-90324285D01*
X125434095Y-90133809D01*
X125434095Y-89990952D01*
X125481714Y-89800476D01*
X125529333Y-89705238D01*
X125624571Y-89610000D01*
X125767428Y-89562380D01*
X125862666Y-89562380D01*
X126005523Y-89610000D01*
X126053142Y-89657619D01*
X127005523Y-90562380D02*
X126434095Y-90562380D01*
X126719809Y-90562380D02*
X126719809Y-89562380D01*
X126624571Y-89705238D01*
X126529333Y-89800476D01*
X126434095Y-89848095D01*
X127624571Y-89562380D02*
X127719809Y-89562380D01*
X127815047Y-89610000D01*
X127862666Y-89657619D01*
X127910285Y-89752857D01*
X127957904Y-89943333D01*
X127957904Y-90181428D01*
X127910285Y-90371904D01*
X127862666Y-90467142D01*
X127815047Y-90514761D01*
X127719809Y-90562380D01*
X127624571Y-90562380D01*
X127529333Y-90514761D01*
X127481714Y-90467142D01*
X127434095Y-90371904D01*
X127386476Y-90181428D01*
X127386476Y-89943333D01*
X127434095Y-89752857D01*
X127481714Y-89657619D01*
X127529333Y-89610000D01*
X127624571Y-89562380D01*
%TO.C,U7*%
X191236695Y-70445380D02*
X191236695Y-71254904D01*
X191284314Y-71350142D01*
X191331933Y-71397761D01*
X191427171Y-71445380D01*
X191617647Y-71445380D01*
X191712885Y-71397761D01*
X191760504Y-71350142D01*
X191808123Y-71254904D01*
X191808123Y-70445380D01*
X192189076Y-70445380D02*
X192855742Y-70445380D01*
X192427171Y-71445380D01*
%TO.C,C32*%
X199864742Y-61190142D02*
X199817123Y-61237761D01*
X199674266Y-61285380D01*
X199579028Y-61285380D01*
X199436171Y-61237761D01*
X199340933Y-61142523D01*
X199293314Y-61047285D01*
X199245695Y-60856809D01*
X199245695Y-60713952D01*
X199293314Y-60523476D01*
X199340933Y-60428238D01*
X199436171Y-60333000D01*
X199579028Y-60285380D01*
X199674266Y-60285380D01*
X199817123Y-60333000D01*
X199864742Y-60380619D01*
X200198076Y-60285380D02*
X200817123Y-60285380D01*
X200483790Y-60666333D01*
X200626647Y-60666333D01*
X200721885Y-60713952D01*
X200769504Y-60761571D01*
X200817123Y-60856809D01*
X200817123Y-61094904D01*
X200769504Y-61190142D01*
X200721885Y-61237761D01*
X200626647Y-61285380D01*
X200340933Y-61285380D01*
X200245695Y-61237761D01*
X200198076Y-61190142D01*
X201198076Y-60380619D02*
X201245695Y-60333000D01*
X201340933Y-60285380D01*
X201579028Y-60285380D01*
X201674266Y-60333000D01*
X201721885Y-60380619D01*
X201769504Y-60475857D01*
X201769504Y-60571095D01*
X201721885Y-60713952D01*
X201150457Y-61285380D01*
X201769504Y-61285380D01*
%TO.C,C28*%
X196054742Y-61190142D02*
X196007123Y-61237761D01*
X195864266Y-61285380D01*
X195769028Y-61285380D01*
X195626171Y-61237761D01*
X195530933Y-61142523D01*
X195483314Y-61047285D01*
X195435695Y-60856809D01*
X195435695Y-60713952D01*
X195483314Y-60523476D01*
X195530933Y-60428238D01*
X195626171Y-60333000D01*
X195769028Y-60285380D01*
X195864266Y-60285380D01*
X196007123Y-60333000D01*
X196054742Y-60380619D01*
X196435695Y-60380619D02*
X196483314Y-60333000D01*
X196578552Y-60285380D01*
X196816647Y-60285380D01*
X196911885Y-60333000D01*
X196959504Y-60380619D01*
X197007123Y-60475857D01*
X197007123Y-60571095D01*
X196959504Y-60713952D01*
X196388076Y-61285380D01*
X197007123Y-61285380D01*
X197578552Y-60713952D02*
X197483314Y-60666333D01*
X197435695Y-60618714D01*
X197388076Y-60523476D01*
X197388076Y-60475857D01*
X197435695Y-60380619D01*
X197483314Y-60333000D01*
X197578552Y-60285380D01*
X197769028Y-60285380D01*
X197864266Y-60333000D01*
X197911885Y-60380619D01*
X197959504Y-60475857D01*
X197959504Y-60523476D01*
X197911885Y-60618714D01*
X197864266Y-60666333D01*
X197769028Y-60713952D01*
X197578552Y-60713952D01*
X197483314Y-60761571D01*
X197435695Y-60809190D01*
X197388076Y-60904428D01*
X197388076Y-61094904D01*
X197435695Y-61190142D01*
X197483314Y-61237761D01*
X197578552Y-61285380D01*
X197769028Y-61285380D01*
X197864266Y-61237761D01*
X197911885Y-61190142D01*
X197959504Y-61094904D01*
X197959504Y-60904428D01*
X197911885Y-60809190D01*
X197864266Y-60761571D01*
X197769028Y-60713952D01*
%TO.C,C14*%
X154043142Y-75795142D02*
X153995523Y-75842761D01*
X153852666Y-75890380D01*
X153757428Y-75890380D01*
X153614571Y-75842761D01*
X153519333Y-75747523D01*
X153471714Y-75652285D01*
X153424095Y-75461809D01*
X153424095Y-75318952D01*
X153471714Y-75128476D01*
X153519333Y-75033238D01*
X153614571Y-74938000D01*
X153757428Y-74890380D01*
X153852666Y-74890380D01*
X153995523Y-74938000D01*
X154043142Y-74985619D01*
X154995523Y-75890380D02*
X154424095Y-75890380D01*
X154709809Y-75890380D02*
X154709809Y-74890380D01*
X154614571Y-75033238D01*
X154519333Y-75128476D01*
X154424095Y-75176095D01*
X155852666Y-75223714D02*
X155852666Y-75890380D01*
X155614571Y-74842761D02*
X155376476Y-75557047D01*
X155995523Y-75557047D01*
%TO.C,R37*%
X126865142Y-94737180D02*
X126531809Y-94260990D01*
X126293714Y-94737180D02*
X126293714Y-93737180D01*
X126674666Y-93737180D01*
X126769904Y-93784800D01*
X126817523Y-93832419D01*
X126865142Y-93927657D01*
X126865142Y-94070514D01*
X126817523Y-94165752D01*
X126769904Y-94213371D01*
X126674666Y-94260990D01*
X126293714Y-94260990D01*
X127198476Y-93737180D02*
X127817523Y-93737180D01*
X127484190Y-94118133D01*
X127627047Y-94118133D01*
X127722285Y-94165752D01*
X127769904Y-94213371D01*
X127817523Y-94308609D01*
X127817523Y-94546704D01*
X127769904Y-94641942D01*
X127722285Y-94689561D01*
X127627047Y-94737180D01*
X127341333Y-94737180D01*
X127246095Y-94689561D01*
X127198476Y-94641942D01*
X128150857Y-93737180D02*
X128817523Y-93737180D01*
X128388952Y-94737180D01*
%TO.C,Q8*%
X182733961Y-88393619D02*
X182638723Y-88346000D01*
X182543485Y-88250761D01*
X182400628Y-88107904D01*
X182305390Y-88060285D01*
X182210152Y-88060285D01*
X182257771Y-88298380D02*
X182162533Y-88250761D01*
X182067295Y-88155523D01*
X182019676Y-87965047D01*
X182019676Y-87631714D01*
X182067295Y-87441238D01*
X182162533Y-87346000D01*
X182257771Y-87298380D01*
X182448247Y-87298380D01*
X182543485Y-87346000D01*
X182638723Y-87441238D01*
X182686342Y-87631714D01*
X182686342Y-87965047D01*
X182638723Y-88155523D01*
X182543485Y-88250761D01*
X182448247Y-88298380D01*
X182257771Y-88298380D01*
X183257771Y-87726952D02*
X183162533Y-87679333D01*
X183114914Y-87631714D01*
X183067295Y-87536476D01*
X183067295Y-87488857D01*
X183114914Y-87393619D01*
X183162533Y-87346000D01*
X183257771Y-87298380D01*
X183448247Y-87298380D01*
X183543485Y-87346000D01*
X183591104Y-87393619D01*
X183638723Y-87488857D01*
X183638723Y-87536476D01*
X183591104Y-87631714D01*
X183543485Y-87679333D01*
X183448247Y-87726952D01*
X183257771Y-87726952D01*
X183162533Y-87774571D01*
X183114914Y-87822190D01*
X183067295Y-87917428D01*
X183067295Y-88107904D01*
X183114914Y-88203142D01*
X183162533Y-88250761D01*
X183257771Y-88298380D01*
X183448247Y-88298380D01*
X183543485Y-88250761D01*
X183591104Y-88203142D01*
X183638723Y-88107904D01*
X183638723Y-87917428D01*
X183591104Y-87822190D01*
X183543485Y-87774571D01*
X183448247Y-87726952D01*
%TO.C,C4*%
X158446742Y-66663866D02*
X158494361Y-66711485D01*
X158541980Y-66854342D01*
X158541980Y-66949580D01*
X158494361Y-67092438D01*
X158399123Y-67187676D01*
X158303885Y-67235295D01*
X158113409Y-67282914D01*
X157970552Y-67282914D01*
X157780076Y-67235295D01*
X157684838Y-67187676D01*
X157589600Y-67092438D01*
X157541980Y-66949580D01*
X157541980Y-66854342D01*
X157589600Y-66711485D01*
X157637219Y-66663866D01*
X157875314Y-65806723D02*
X158541980Y-65806723D01*
X157494361Y-66044819D02*
X158208647Y-66282914D01*
X158208647Y-65663866D01*
%TO.C,C6*%
X162459942Y-66511466D02*
X162507561Y-66559085D01*
X162555180Y-66701942D01*
X162555180Y-66797180D01*
X162507561Y-66940038D01*
X162412323Y-67035276D01*
X162317085Y-67082895D01*
X162126609Y-67130514D01*
X161983752Y-67130514D01*
X161793276Y-67082895D01*
X161698038Y-67035276D01*
X161602800Y-66940038D01*
X161555180Y-66797180D01*
X161555180Y-66701942D01*
X161602800Y-66559085D01*
X161650419Y-66511466D01*
X161555180Y-65654323D02*
X161555180Y-65844800D01*
X161602800Y-65940038D01*
X161650419Y-65987657D01*
X161793276Y-66082895D01*
X161983752Y-66130514D01*
X162364704Y-66130514D01*
X162459942Y-66082895D01*
X162507561Y-66035276D01*
X162555180Y-65940038D01*
X162555180Y-65749561D01*
X162507561Y-65654323D01*
X162459942Y-65606704D01*
X162364704Y-65559085D01*
X162126609Y-65559085D01*
X162031371Y-65606704D01*
X161983752Y-65654323D01*
X161936133Y-65749561D01*
X161936133Y-65940038D01*
X161983752Y-66035276D01*
X162031371Y-66082895D01*
X162126609Y-66130514D01*
%TO.C,U5*%
X166909295Y-62342780D02*
X166909295Y-63152304D01*
X166956914Y-63247542D01*
X167004533Y-63295161D01*
X167099771Y-63342780D01*
X167290247Y-63342780D01*
X167385485Y-63295161D01*
X167433104Y-63247542D01*
X167480723Y-63152304D01*
X167480723Y-62342780D01*
X168433104Y-62342780D02*
X167956914Y-62342780D01*
X167909295Y-62818971D01*
X167956914Y-62771352D01*
X168052152Y-62723733D01*
X168290247Y-62723733D01*
X168385485Y-62771352D01*
X168433104Y-62818971D01*
X168480723Y-62914209D01*
X168480723Y-63152304D01*
X168433104Y-63247542D01*
X168385485Y-63295161D01*
X168290247Y-63342780D01*
X168052152Y-63342780D01*
X167956914Y-63295161D01*
X167909295Y-63247542D01*
%TO.C,C1*%
X146391333Y-68327542D02*
X146343714Y-68375161D01*
X146200857Y-68422780D01*
X146105619Y-68422780D01*
X145962761Y-68375161D01*
X145867523Y-68279923D01*
X145819904Y-68184685D01*
X145772285Y-67994209D01*
X145772285Y-67851352D01*
X145819904Y-67660876D01*
X145867523Y-67565638D01*
X145962761Y-67470400D01*
X146105619Y-67422780D01*
X146200857Y-67422780D01*
X146343714Y-67470400D01*
X146391333Y-67518019D01*
X147343714Y-68422780D02*
X146772285Y-68422780D01*
X147058000Y-68422780D02*
X147058000Y-67422780D01*
X146962761Y-67565638D01*
X146867523Y-67660876D01*
X146772285Y-67708495D01*
%TO.C,R8*%
X150457133Y-84145380D02*
X150123800Y-83669190D01*
X149885704Y-84145380D02*
X149885704Y-83145380D01*
X150266657Y-83145380D01*
X150361895Y-83193000D01*
X150409514Y-83240619D01*
X150457133Y-83335857D01*
X150457133Y-83478714D01*
X150409514Y-83573952D01*
X150361895Y-83621571D01*
X150266657Y-83669190D01*
X149885704Y-83669190D01*
X151028561Y-83573952D02*
X150933323Y-83526333D01*
X150885704Y-83478714D01*
X150838085Y-83383476D01*
X150838085Y-83335857D01*
X150885704Y-83240619D01*
X150933323Y-83193000D01*
X151028561Y-83145380D01*
X151219038Y-83145380D01*
X151314276Y-83193000D01*
X151361895Y-83240619D01*
X151409514Y-83335857D01*
X151409514Y-83383476D01*
X151361895Y-83478714D01*
X151314276Y-83526333D01*
X151219038Y-83573952D01*
X151028561Y-83573952D01*
X150933323Y-83621571D01*
X150885704Y-83669190D01*
X150838085Y-83764428D01*
X150838085Y-83954904D01*
X150885704Y-84050142D01*
X150933323Y-84097761D01*
X151028561Y-84145380D01*
X151219038Y-84145380D01*
X151314276Y-84097761D01*
X151361895Y-84050142D01*
X151409514Y-83954904D01*
X151409514Y-83764428D01*
X151361895Y-83669190D01*
X151314276Y-83621571D01*
X151219038Y-83573952D01*
%TO.C,R5*%
X126452333Y-88784380D02*
X126119000Y-88308190D01*
X125880904Y-88784380D02*
X125880904Y-87784380D01*
X126261857Y-87784380D01*
X126357095Y-87832000D01*
X126404714Y-87879619D01*
X126452333Y-87974857D01*
X126452333Y-88117714D01*
X126404714Y-88212952D01*
X126357095Y-88260571D01*
X126261857Y-88308190D01*
X125880904Y-88308190D01*
X127357095Y-87784380D02*
X126880904Y-87784380D01*
X126833285Y-88260571D01*
X126880904Y-88212952D01*
X126976142Y-88165333D01*
X127214238Y-88165333D01*
X127309476Y-88212952D01*
X127357095Y-88260571D01*
X127404714Y-88355809D01*
X127404714Y-88593904D01*
X127357095Y-88689142D01*
X127309476Y-88736761D01*
X127214238Y-88784380D01*
X126976142Y-88784380D01*
X126880904Y-88736761D01*
X126833285Y-88689142D01*
%TO.C,R26*%
X188396480Y-75128857D02*
X187920290Y-75462190D01*
X188396480Y-75700285D02*
X187396480Y-75700285D01*
X187396480Y-75319333D01*
X187444100Y-75224095D01*
X187491719Y-75176476D01*
X187586957Y-75128857D01*
X187729814Y-75128857D01*
X187825052Y-75176476D01*
X187872671Y-75224095D01*
X187920290Y-75319333D01*
X187920290Y-75700285D01*
X187491719Y-74747904D02*
X187444100Y-74700285D01*
X187396480Y-74605047D01*
X187396480Y-74366952D01*
X187444100Y-74271714D01*
X187491719Y-74224095D01*
X187586957Y-74176476D01*
X187682195Y-74176476D01*
X187825052Y-74224095D01*
X188396480Y-74795523D01*
X188396480Y-74176476D01*
X187396480Y-73319333D02*
X187396480Y-73509809D01*
X187444100Y-73605047D01*
X187491719Y-73652666D01*
X187634576Y-73747904D01*
X187825052Y-73795523D01*
X188206004Y-73795523D01*
X188301242Y-73747904D01*
X188348861Y-73700285D01*
X188396480Y-73605047D01*
X188396480Y-73414571D01*
X188348861Y-73319333D01*
X188301242Y-73271714D01*
X188206004Y-73224095D01*
X187967909Y-73224095D01*
X187872671Y-73271714D01*
X187825052Y-73319333D01*
X187777433Y-73414571D01*
X187777433Y-73605047D01*
X187825052Y-73700285D01*
X187872671Y-73747904D01*
X187967909Y-73795523D01*
%TO.C,C9*%
X155706142Y-94222666D02*
X155753761Y-94270285D01*
X155801380Y-94413142D01*
X155801380Y-94508380D01*
X155753761Y-94651238D01*
X155658523Y-94746476D01*
X155563285Y-94794095D01*
X155372809Y-94841714D01*
X155229952Y-94841714D01*
X155039476Y-94794095D01*
X154944238Y-94746476D01*
X154849000Y-94651238D01*
X154801380Y-94508380D01*
X154801380Y-94413142D01*
X154849000Y-94270285D01*
X154896619Y-94222666D01*
X155801380Y-93746476D02*
X155801380Y-93556000D01*
X155753761Y-93460761D01*
X155706142Y-93413142D01*
X155563285Y-93317904D01*
X155372809Y-93270285D01*
X154991857Y-93270285D01*
X154896619Y-93317904D01*
X154849000Y-93365523D01*
X154801380Y-93460761D01*
X154801380Y-93651238D01*
X154849000Y-93746476D01*
X154896619Y-93794095D01*
X154991857Y-93841714D01*
X155229952Y-93841714D01*
X155325190Y-93794095D01*
X155372809Y-93746476D01*
X155420428Y-93651238D01*
X155420428Y-93460761D01*
X155372809Y-93365523D01*
X155325190Y-93317904D01*
X155229952Y-93270285D01*
%TO.C,R29*%
X176519842Y-91676580D02*
X176186509Y-91200390D01*
X175948414Y-91676580D02*
X175948414Y-90676580D01*
X176329366Y-90676580D01*
X176424604Y-90724200D01*
X176472223Y-90771819D01*
X176519842Y-90867057D01*
X176519842Y-91009914D01*
X176472223Y-91105152D01*
X176424604Y-91152771D01*
X176329366Y-91200390D01*
X175948414Y-91200390D01*
X176900795Y-90771819D02*
X176948414Y-90724200D01*
X177043652Y-90676580D01*
X177281747Y-90676580D01*
X177376985Y-90724200D01*
X177424604Y-90771819D01*
X177472223Y-90867057D01*
X177472223Y-90962295D01*
X177424604Y-91105152D01*
X176853176Y-91676580D01*
X177472223Y-91676580D01*
X177948414Y-91676580D02*
X178138890Y-91676580D01*
X178234128Y-91628961D01*
X178281747Y-91581342D01*
X178376985Y-91438485D01*
X178424604Y-91248009D01*
X178424604Y-90867057D01*
X178376985Y-90771819D01*
X178329366Y-90724200D01*
X178234128Y-90676580D01*
X178043652Y-90676580D01*
X177948414Y-90724200D01*
X177900795Y-90771819D01*
X177853176Y-90867057D01*
X177853176Y-91105152D01*
X177900795Y-91200390D01*
X177948414Y-91248009D01*
X178043652Y-91295628D01*
X178234128Y-91295628D01*
X178329366Y-91248009D01*
X178376985Y-91200390D01*
X178424604Y-91105152D01*
%TO.C,U4*%
X162953095Y-101001580D02*
X162953095Y-101811104D01*
X163000714Y-101906342D01*
X163048333Y-101953961D01*
X163143571Y-102001580D01*
X163334047Y-102001580D01*
X163429285Y-101953961D01*
X163476904Y-101906342D01*
X163524523Y-101811104D01*
X163524523Y-101001580D01*
X164429285Y-101334914D02*
X164429285Y-102001580D01*
X164191190Y-100953961D02*
X163953095Y-101668247D01*
X164572142Y-101668247D01*
%TO.C,C8*%
X149388533Y-77979542D02*
X149340914Y-78027161D01*
X149198057Y-78074780D01*
X149102819Y-78074780D01*
X148959961Y-78027161D01*
X148864723Y-77931923D01*
X148817104Y-77836685D01*
X148769485Y-77646209D01*
X148769485Y-77503352D01*
X148817104Y-77312876D01*
X148864723Y-77217638D01*
X148959961Y-77122400D01*
X149102819Y-77074780D01*
X149198057Y-77074780D01*
X149340914Y-77122400D01*
X149388533Y-77170019D01*
X149959961Y-77503352D02*
X149864723Y-77455733D01*
X149817104Y-77408114D01*
X149769485Y-77312876D01*
X149769485Y-77265257D01*
X149817104Y-77170019D01*
X149864723Y-77122400D01*
X149959961Y-77074780D01*
X150150438Y-77074780D01*
X150245676Y-77122400D01*
X150293295Y-77170019D01*
X150340914Y-77265257D01*
X150340914Y-77312876D01*
X150293295Y-77408114D01*
X150245676Y-77455733D01*
X150150438Y-77503352D01*
X149959961Y-77503352D01*
X149864723Y-77550971D01*
X149817104Y-77598590D01*
X149769485Y-77693828D01*
X149769485Y-77884304D01*
X149817104Y-77979542D01*
X149864723Y-78027161D01*
X149959961Y-78074780D01*
X150150438Y-78074780D01*
X150245676Y-78027161D01*
X150293295Y-77979542D01*
X150340914Y-77884304D01*
X150340914Y-77693828D01*
X150293295Y-77598590D01*
X150245676Y-77550971D01*
X150150438Y-77503352D01*
%TO.C,C11*%
X136628142Y-78112857D02*
X136675761Y-78160476D01*
X136723380Y-78303333D01*
X136723380Y-78398571D01*
X136675761Y-78541428D01*
X136580523Y-78636666D01*
X136485285Y-78684285D01*
X136294809Y-78731904D01*
X136151952Y-78731904D01*
X135961476Y-78684285D01*
X135866238Y-78636666D01*
X135771000Y-78541428D01*
X135723380Y-78398571D01*
X135723380Y-78303333D01*
X135771000Y-78160476D01*
X135818619Y-78112857D01*
X136723380Y-77160476D02*
X136723380Y-77731904D01*
X136723380Y-77446190D02*
X135723380Y-77446190D01*
X135866238Y-77541428D01*
X135961476Y-77636666D01*
X136009095Y-77731904D01*
X136723380Y-76208095D02*
X136723380Y-76779523D01*
X136723380Y-76493809D02*
X135723380Y-76493809D01*
X135866238Y-76589047D01*
X135961476Y-76684285D01*
X136009095Y-76779523D01*
%TO.C,R23*%
X174569380Y-65920857D02*
X174093190Y-66254190D01*
X174569380Y-66492285D02*
X173569380Y-66492285D01*
X173569380Y-66111333D01*
X173617000Y-66016095D01*
X173664619Y-65968476D01*
X173759857Y-65920857D01*
X173902714Y-65920857D01*
X173997952Y-65968476D01*
X174045571Y-66016095D01*
X174093190Y-66111333D01*
X174093190Y-66492285D01*
X173664619Y-65539904D02*
X173617000Y-65492285D01*
X173569380Y-65397047D01*
X173569380Y-65158952D01*
X173617000Y-65063714D01*
X173664619Y-65016095D01*
X173759857Y-64968476D01*
X173855095Y-64968476D01*
X173997952Y-65016095D01*
X174569380Y-65587523D01*
X174569380Y-64968476D01*
X173569380Y-64635142D02*
X173569380Y-64016095D01*
X173950333Y-64349428D01*
X173950333Y-64206571D01*
X173997952Y-64111333D01*
X174045571Y-64063714D01*
X174140809Y-64016095D01*
X174378904Y-64016095D01*
X174474142Y-64063714D01*
X174521761Y-64111333D01*
X174569380Y-64206571D01*
X174569380Y-64492285D01*
X174521761Y-64587523D01*
X174474142Y-64635142D01*
%TO.C,J8*%
X159051666Y-62190380D02*
X159051666Y-62904666D01*
X159004047Y-63047523D01*
X158908809Y-63142761D01*
X158765952Y-63190380D01*
X158670714Y-63190380D01*
X159670714Y-62618952D02*
X159575476Y-62571333D01*
X159527857Y-62523714D01*
X159480238Y-62428476D01*
X159480238Y-62380857D01*
X159527857Y-62285619D01*
X159575476Y-62238000D01*
X159670714Y-62190380D01*
X159861190Y-62190380D01*
X159956428Y-62238000D01*
X160004047Y-62285619D01*
X160051666Y-62380857D01*
X160051666Y-62428476D01*
X160004047Y-62523714D01*
X159956428Y-62571333D01*
X159861190Y-62618952D01*
X159670714Y-62618952D01*
X159575476Y-62666571D01*
X159527857Y-62714190D01*
X159480238Y-62809428D01*
X159480238Y-62999904D01*
X159527857Y-63095142D01*
X159575476Y-63142761D01*
X159670714Y-63190380D01*
X159861190Y-63190380D01*
X159956428Y-63142761D01*
X160004047Y-63095142D01*
X160051666Y-62999904D01*
X160051666Y-62809428D01*
X160004047Y-62714190D01*
X159956428Y-62666571D01*
X159861190Y-62618952D01*
%TO.C,D6*%
X187348904Y-83383380D02*
X187348904Y-82383380D01*
X187587000Y-82383380D01*
X187729857Y-82431000D01*
X187825095Y-82526238D01*
X187872714Y-82621476D01*
X187920333Y-82811952D01*
X187920333Y-82954809D01*
X187872714Y-83145285D01*
X187825095Y-83240523D01*
X187729857Y-83335761D01*
X187587000Y-83383380D01*
X187348904Y-83383380D01*
X188777476Y-82383380D02*
X188587000Y-82383380D01*
X188491761Y-82431000D01*
X188444142Y-82478619D01*
X188348904Y-82621476D01*
X188301285Y-82811952D01*
X188301285Y-83192904D01*
X188348904Y-83288142D01*
X188396523Y-83335761D01*
X188491761Y-83383380D01*
X188682238Y-83383380D01*
X188777476Y-83335761D01*
X188825095Y-83288142D01*
X188872714Y-83192904D01*
X188872714Y-82954809D01*
X188825095Y-82859571D01*
X188777476Y-82811952D01*
X188682238Y-82764333D01*
X188491761Y-82764333D01*
X188396523Y-82811952D01*
X188348904Y-82859571D01*
X188301285Y-82954809D01*
%TO.C,C5*%
X151283942Y-74334666D02*
X151331561Y-74382285D01*
X151379180Y-74525142D01*
X151379180Y-74620380D01*
X151331561Y-74763238D01*
X151236323Y-74858476D01*
X151141085Y-74906095D01*
X150950609Y-74953714D01*
X150807752Y-74953714D01*
X150617276Y-74906095D01*
X150522038Y-74858476D01*
X150426800Y-74763238D01*
X150379180Y-74620380D01*
X150379180Y-74525142D01*
X150426800Y-74382285D01*
X150474419Y-74334666D01*
X150379180Y-73429904D02*
X150379180Y-73906095D01*
X150855371Y-73953714D01*
X150807752Y-73906095D01*
X150760133Y-73810857D01*
X150760133Y-73572761D01*
X150807752Y-73477523D01*
X150855371Y-73429904D01*
X150950609Y-73382285D01*
X151188704Y-73382285D01*
X151283942Y-73429904D01*
X151331561Y-73477523D01*
X151379180Y-73572761D01*
X151379180Y-73810857D01*
X151331561Y-73906095D01*
X151283942Y-73953714D01*
%TO.C,D4*%
X193114704Y-69895980D02*
X193114704Y-68895980D01*
X193352800Y-68895980D01*
X193495657Y-68943600D01*
X193590895Y-69038838D01*
X193638514Y-69134076D01*
X193686133Y-69324552D01*
X193686133Y-69467409D01*
X193638514Y-69657885D01*
X193590895Y-69753123D01*
X193495657Y-69848361D01*
X193352800Y-69895980D01*
X193114704Y-69895980D01*
X194543276Y-69229314D02*
X194543276Y-69895980D01*
X194305180Y-68848361D02*
X194067085Y-69562647D01*
X194686133Y-69562647D01*
%TO.C,R35*%
X179903380Y-79001857D02*
X179427190Y-79335190D01*
X179903380Y-79573285D02*
X178903380Y-79573285D01*
X178903380Y-79192333D01*
X178951000Y-79097095D01*
X178998619Y-79049476D01*
X179093857Y-79001857D01*
X179236714Y-79001857D01*
X179331952Y-79049476D01*
X179379571Y-79097095D01*
X179427190Y-79192333D01*
X179427190Y-79573285D01*
X178903380Y-78668523D02*
X178903380Y-78049476D01*
X179284333Y-78382809D01*
X179284333Y-78239952D01*
X179331952Y-78144714D01*
X179379571Y-78097095D01*
X179474809Y-78049476D01*
X179712904Y-78049476D01*
X179808142Y-78097095D01*
X179855761Y-78144714D01*
X179903380Y-78239952D01*
X179903380Y-78525666D01*
X179855761Y-78620904D01*
X179808142Y-78668523D01*
X178903380Y-77144714D02*
X178903380Y-77620904D01*
X179379571Y-77668523D01*
X179331952Y-77620904D01*
X179284333Y-77525666D01*
X179284333Y-77287571D01*
X179331952Y-77192333D01*
X179379571Y-77144714D01*
X179474809Y-77097095D01*
X179712904Y-77097095D01*
X179808142Y-77144714D01*
X179855761Y-77192333D01*
X179903380Y-77287571D01*
X179903380Y-77525666D01*
X179855761Y-77620904D01*
X179808142Y-77668523D01*
%TO.C,Q1*%
X155403561Y-105754419D02*
X155308323Y-105706800D01*
X155213085Y-105611561D01*
X155070228Y-105468704D01*
X154974990Y-105421085D01*
X154879752Y-105421085D01*
X154927371Y-105659180D02*
X154832133Y-105611561D01*
X154736895Y-105516323D01*
X154689276Y-105325847D01*
X154689276Y-104992514D01*
X154736895Y-104802038D01*
X154832133Y-104706800D01*
X154927371Y-104659180D01*
X155117847Y-104659180D01*
X155213085Y-104706800D01*
X155308323Y-104802038D01*
X155355942Y-104992514D01*
X155355942Y-105325847D01*
X155308323Y-105516323D01*
X155213085Y-105611561D01*
X155117847Y-105659180D01*
X154927371Y-105659180D01*
X156308323Y-105659180D02*
X155736895Y-105659180D01*
X156022609Y-105659180D02*
X156022609Y-104659180D01*
X155927371Y-104802038D01*
X155832133Y-104897276D01*
X155736895Y-104944895D01*
%TO.C,R31*%
X178808142Y-72207380D02*
X178474809Y-71731190D01*
X178236714Y-72207380D02*
X178236714Y-71207380D01*
X178617666Y-71207380D01*
X178712904Y-71255000D01*
X178760523Y-71302619D01*
X178808142Y-71397857D01*
X178808142Y-71540714D01*
X178760523Y-71635952D01*
X178712904Y-71683571D01*
X178617666Y-71731190D01*
X178236714Y-71731190D01*
X179141476Y-71207380D02*
X179760523Y-71207380D01*
X179427190Y-71588333D01*
X179570047Y-71588333D01*
X179665285Y-71635952D01*
X179712904Y-71683571D01*
X179760523Y-71778809D01*
X179760523Y-72016904D01*
X179712904Y-72112142D01*
X179665285Y-72159761D01*
X179570047Y-72207380D01*
X179284333Y-72207380D01*
X179189095Y-72159761D01*
X179141476Y-72112142D01*
X180712904Y-72207380D02*
X180141476Y-72207380D01*
X180427190Y-72207380D02*
X180427190Y-71207380D01*
X180331952Y-71350238D01*
X180236714Y-71445476D01*
X180141476Y-71493095D01*
%TO.C,C24*%
X199112142Y-100464857D02*
X199159761Y-100512476D01*
X199207380Y-100655333D01*
X199207380Y-100750571D01*
X199159761Y-100893428D01*
X199064523Y-100988666D01*
X198969285Y-101036285D01*
X198778809Y-101083904D01*
X198635952Y-101083904D01*
X198445476Y-101036285D01*
X198350238Y-100988666D01*
X198255000Y-100893428D01*
X198207380Y-100750571D01*
X198207380Y-100655333D01*
X198255000Y-100512476D01*
X198302619Y-100464857D01*
X198302619Y-100083904D02*
X198255000Y-100036285D01*
X198207380Y-99941047D01*
X198207380Y-99702952D01*
X198255000Y-99607714D01*
X198302619Y-99560095D01*
X198397857Y-99512476D01*
X198493095Y-99512476D01*
X198635952Y-99560095D01*
X199207380Y-100131523D01*
X199207380Y-99512476D01*
X198540714Y-98655333D02*
X199207380Y-98655333D01*
X198159761Y-98893428D02*
X198874047Y-99131523D01*
X198874047Y-98512476D01*
%TO.C,L1*%
X139888933Y-72181980D02*
X139412742Y-72181980D01*
X139412742Y-71181980D01*
X140746076Y-72181980D02*
X140174647Y-72181980D01*
X140460361Y-72181980D02*
X140460361Y-71181980D01*
X140365123Y-71324838D01*
X140269885Y-71420076D01*
X140174647Y-71467695D01*
%TO.C,C12*%
X159758142Y-93194142D02*
X159710523Y-93241761D01*
X159567666Y-93289380D01*
X159472428Y-93289380D01*
X159329571Y-93241761D01*
X159234333Y-93146523D01*
X159186714Y-93051285D01*
X159139095Y-92860809D01*
X159139095Y-92717952D01*
X159186714Y-92527476D01*
X159234333Y-92432238D01*
X159329571Y-92337000D01*
X159472428Y-92289380D01*
X159567666Y-92289380D01*
X159710523Y-92337000D01*
X159758142Y-92384619D01*
X160710523Y-93289380D02*
X160139095Y-93289380D01*
X160424809Y-93289380D02*
X160424809Y-92289380D01*
X160329571Y-92432238D01*
X160234333Y-92527476D01*
X160139095Y-92575095D01*
X161091476Y-92384619D02*
X161139095Y-92337000D01*
X161234333Y-92289380D01*
X161472428Y-92289380D01*
X161567666Y-92337000D01*
X161615285Y-92384619D01*
X161662904Y-92479857D01*
X161662904Y-92575095D01*
X161615285Y-92717952D01*
X161043857Y-93289380D01*
X161662904Y-93289380D01*
%TO.C,C25*%
X167378142Y-105005142D02*
X167330523Y-105052761D01*
X167187666Y-105100380D01*
X167092428Y-105100380D01*
X166949571Y-105052761D01*
X166854333Y-104957523D01*
X166806714Y-104862285D01*
X166759095Y-104671809D01*
X166759095Y-104528952D01*
X166806714Y-104338476D01*
X166854333Y-104243238D01*
X166949571Y-104148000D01*
X167092428Y-104100380D01*
X167187666Y-104100380D01*
X167330523Y-104148000D01*
X167378142Y-104195619D01*
X167759095Y-104195619D02*
X167806714Y-104148000D01*
X167901952Y-104100380D01*
X168140047Y-104100380D01*
X168235285Y-104148000D01*
X168282904Y-104195619D01*
X168330523Y-104290857D01*
X168330523Y-104386095D01*
X168282904Y-104528952D01*
X167711476Y-105100380D01*
X168330523Y-105100380D01*
X169235285Y-104100380D02*
X168759095Y-104100380D01*
X168711476Y-104576571D01*
X168759095Y-104528952D01*
X168854333Y-104481333D01*
X169092428Y-104481333D01*
X169187666Y-104528952D01*
X169235285Y-104576571D01*
X169282904Y-104671809D01*
X169282904Y-104909904D01*
X169235285Y-105005142D01*
X169187666Y-105052761D01*
X169092428Y-105100380D01*
X168854333Y-105100380D01*
X168759095Y-105052761D01*
X168711476Y-105005142D01*
%TO.C,R19*%
X162298142Y-98877380D02*
X161964809Y-98401190D01*
X161726714Y-98877380D02*
X161726714Y-97877380D01*
X162107666Y-97877380D01*
X162202904Y-97925000D01*
X162250523Y-97972619D01*
X162298142Y-98067857D01*
X162298142Y-98210714D01*
X162250523Y-98305952D01*
X162202904Y-98353571D01*
X162107666Y-98401190D01*
X161726714Y-98401190D01*
X163250523Y-98877380D02*
X162679095Y-98877380D01*
X162964809Y-98877380D02*
X162964809Y-97877380D01*
X162869571Y-98020238D01*
X162774333Y-98115476D01*
X162679095Y-98163095D01*
X163726714Y-98877380D02*
X163917190Y-98877380D01*
X164012428Y-98829761D01*
X164060047Y-98782142D01*
X164155285Y-98639285D01*
X164202904Y-98448809D01*
X164202904Y-98067857D01*
X164155285Y-97972619D01*
X164107666Y-97925000D01*
X164012428Y-97877380D01*
X163821952Y-97877380D01*
X163726714Y-97925000D01*
X163679095Y-97972619D01*
X163631476Y-98067857D01*
X163631476Y-98305952D01*
X163679095Y-98401190D01*
X163726714Y-98448809D01*
X163821952Y-98496428D01*
X164012428Y-98496428D01*
X164107666Y-98448809D01*
X164155285Y-98401190D01*
X164202904Y-98305952D01*
%TO.C,R6*%
X130643333Y-73731380D02*
X130310000Y-73255190D01*
X130071904Y-73731380D02*
X130071904Y-72731380D01*
X130452857Y-72731380D01*
X130548095Y-72779000D01*
X130595714Y-72826619D01*
X130643333Y-72921857D01*
X130643333Y-73064714D01*
X130595714Y-73159952D01*
X130548095Y-73207571D01*
X130452857Y-73255190D01*
X130071904Y-73255190D01*
X131500476Y-72731380D02*
X131310000Y-72731380D01*
X131214761Y-72779000D01*
X131167142Y-72826619D01*
X131071904Y-72969476D01*
X131024285Y-73159952D01*
X131024285Y-73540904D01*
X131071904Y-73636142D01*
X131119523Y-73683761D01*
X131214761Y-73731380D01*
X131405238Y-73731380D01*
X131500476Y-73683761D01*
X131548095Y-73636142D01*
X131595714Y-73540904D01*
X131595714Y-73302809D01*
X131548095Y-73207571D01*
X131500476Y-73159952D01*
X131405238Y-73112333D01*
X131214761Y-73112333D01*
X131119523Y-73159952D01*
X131071904Y-73207571D01*
X131024285Y-73302809D01*
%TO.C,J15*%
X145367476Y-96734380D02*
X145367476Y-97448666D01*
X145319857Y-97591523D01*
X145224619Y-97686761D01*
X145081761Y-97734380D01*
X144986523Y-97734380D01*
X146367476Y-97734380D02*
X145796047Y-97734380D01*
X146081761Y-97734380D02*
X146081761Y-96734380D01*
X145986523Y-96877238D01*
X145891285Y-96972476D01*
X145796047Y-97020095D01*
X147272238Y-96734380D02*
X146796047Y-96734380D01*
X146748428Y-97210571D01*
X146796047Y-97162952D01*
X146891285Y-97115333D01*
X147129380Y-97115333D01*
X147224619Y-97162952D01*
X147272238Y-97210571D01*
X147319857Y-97305809D01*
X147319857Y-97543904D01*
X147272238Y-97639142D01*
X147224619Y-97686761D01*
X147129380Y-97734380D01*
X146891285Y-97734380D01*
X146796047Y-97686761D01*
X146748428Y-97639142D01*
%TO.C,C15*%
X151131542Y-89949257D02*
X151179161Y-89996876D01*
X151226780Y-90139733D01*
X151226780Y-90234971D01*
X151179161Y-90377828D01*
X151083923Y-90473066D01*
X150988685Y-90520685D01*
X150798209Y-90568304D01*
X150655352Y-90568304D01*
X150464876Y-90520685D01*
X150369638Y-90473066D01*
X150274400Y-90377828D01*
X150226780Y-90234971D01*
X150226780Y-90139733D01*
X150274400Y-89996876D01*
X150322019Y-89949257D01*
X151226780Y-88996876D02*
X151226780Y-89568304D01*
X151226780Y-89282590D02*
X150226780Y-89282590D01*
X150369638Y-89377828D01*
X150464876Y-89473066D01*
X150512495Y-89568304D01*
X150226780Y-88092114D02*
X150226780Y-88568304D01*
X150702971Y-88615923D01*
X150655352Y-88568304D01*
X150607733Y-88473066D01*
X150607733Y-88234971D01*
X150655352Y-88139733D01*
X150702971Y-88092114D01*
X150798209Y-88044495D01*
X151036304Y-88044495D01*
X151131542Y-88092114D01*
X151179161Y-88139733D01*
X151226780Y-88234971D01*
X151226780Y-88473066D01*
X151179161Y-88568304D01*
X151131542Y-88615923D01*
%TO.C,C19*%
X144010142Y-85320142D02*
X143962523Y-85367761D01*
X143819666Y-85415380D01*
X143724428Y-85415380D01*
X143581571Y-85367761D01*
X143486333Y-85272523D01*
X143438714Y-85177285D01*
X143391095Y-84986809D01*
X143391095Y-84843952D01*
X143438714Y-84653476D01*
X143486333Y-84558238D01*
X143581571Y-84463000D01*
X143724428Y-84415380D01*
X143819666Y-84415380D01*
X143962523Y-84463000D01*
X144010142Y-84510619D01*
X144962523Y-85415380D02*
X144391095Y-85415380D01*
X144676809Y-85415380D02*
X144676809Y-84415380D01*
X144581571Y-84558238D01*
X144486333Y-84653476D01*
X144391095Y-84701095D01*
X145438714Y-85415380D02*
X145629190Y-85415380D01*
X145724428Y-85367761D01*
X145772047Y-85320142D01*
X145867285Y-85177285D01*
X145914904Y-84986809D01*
X145914904Y-84605857D01*
X145867285Y-84510619D01*
X145819666Y-84463000D01*
X145724428Y-84415380D01*
X145533952Y-84415380D01*
X145438714Y-84463000D01*
X145391095Y-84510619D01*
X145343476Y-84605857D01*
X145343476Y-84843952D01*
X145391095Y-84939190D01*
X145438714Y-84986809D01*
X145533952Y-85034428D01*
X145724428Y-85034428D01*
X145819666Y-84986809D01*
X145867285Y-84939190D01*
X145914904Y-84843952D01*
%TO.C,J1*%
X197659666Y-101941380D02*
X197659666Y-102655666D01*
X197612047Y-102798523D01*
X197516809Y-102893761D01*
X197373952Y-102941380D01*
X197278714Y-102941380D01*
X198659666Y-102941380D02*
X198088238Y-102941380D01*
X198373952Y-102941380D02*
X198373952Y-101941380D01*
X198278714Y-102084238D01*
X198183476Y-102179476D01*
X198088238Y-102227095D01*
%TO.C,J9*%
X190631380Y-59007333D02*
X191345666Y-59007333D01*
X191488523Y-59054952D01*
X191583761Y-59150190D01*
X191631380Y-59293047D01*
X191631380Y-59388285D01*
X191631380Y-58483523D02*
X191631380Y-58293047D01*
X191583761Y-58197809D01*
X191536142Y-58150190D01*
X191393285Y-58054952D01*
X191202809Y-58007333D01*
X190821857Y-58007333D01*
X190726619Y-58054952D01*
X190679000Y-58102571D01*
X190631380Y-58197809D01*
X190631380Y-58388285D01*
X190679000Y-58483523D01*
X190726619Y-58531142D01*
X190821857Y-58578761D01*
X191059952Y-58578761D01*
X191155190Y-58531142D01*
X191202809Y-58483523D01*
X191250428Y-58388285D01*
X191250428Y-58197809D01*
X191202809Y-58102571D01*
X191155190Y-58054952D01*
X191059952Y-58007333D01*
%TO.C,J11*%
X164544476Y-93178380D02*
X164544476Y-93892666D01*
X164496857Y-94035523D01*
X164401619Y-94130761D01*
X164258761Y-94178380D01*
X164163523Y-94178380D01*
X165544476Y-94178380D02*
X164973047Y-94178380D01*
X165258761Y-94178380D02*
X165258761Y-93178380D01*
X165163523Y-93321238D01*
X165068285Y-93416476D01*
X164973047Y-93464095D01*
X166496857Y-94178380D02*
X165925428Y-94178380D01*
X166211142Y-94178380D02*
X166211142Y-93178380D01*
X166115904Y-93321238D01*
X166020666Y-93416476D01*
X165925428Y-93464095D01*
%TO.C,R10*%
X152646142Y-97099380D02*
X152312809Y-96623190D01*
X152074714Y-97099380D02*
X152074714Y-96099380D01*
X152455666Y-96099380D01*
X152550904Y-96147000D01*
X152598523Y-96194619D01*
X152646142Y-96289857D01*
X152646142Y-96432714D01*
X152598523Y-96527952D01*
X152550904Y-96575571D01*
X152455666Y-96623190D01*
X152074714Y-96623190D01*
X153598523Y-97099380D02*
X153027095Y-97099380D01*
X153312809Y-97099380D02*
X153312809Y-96099380D01*
X153217571Y-96242238D01*
X153122333Y-96337476D01*
X153027095Y-96385095D01*
X154217571Y-96099380D02*
X154312809Y-96099380D01*
X154408047Y-96147000D01*
X154455666Y-96194619D01*
X154503285Y-96289857D01*
X154550904Y-96480333D01*
X154550904Y-96718428D01*
X154503285Y-96908904D01*
X154455666Y-97004142D01*
X154408047Y-97051761D01*
X154312809Y-97099380D01*
X154217571Y-97099380D01*
X154122333Y-97051761D01*
X154074714Y-97004142D01*
X154027095Y-96908904D01*
X153979476Y-96718428D01*
X153979476Y-96480333D01*
X154027095Y-96289857D01*
X154074714Y-96194619D01*
X154122333Y-96147000D01*
X154217571Y-96099380D01*
%TO.C,C18*%
X165473142Y-79272342D02*
X165425523Y-79319961D01*
X165282666Y-79367580D01*
X165187428Y-79367580D01*
X165044571Y-79319961D01*
X164949333Y-79224723D01*
X164901714Y-79129485D01*
X164854095Y-78939009D01*
X164854095Y-78796152D01*
X164901714Y-78605676D01*
X164949333Y-78510438D01*
X165044571Y-78415200D01*
X165187428Y-78367580D01*
X165282666Y-78367580D01*
X165425523Y-78415200D01*
X165473142Y-78462819D01*
X166425523Y-79367580D02*
X165854095Y-79367580D01*
X166139809Y-79367580D02*
X166139809Y-78367580D01*
X166044571Y-78510438D01*
X165949333Y-78605676D01*
X165854095Y-78653295D01*
X166996952Y-78796152D02*
X166901714Y-78748533D01*
X166854095Y-78700914D01*
X166806476Y-78605676D01*
X166806476Y-78558057D01*
X166854095Y-78462819D01*
X166901714Y-78415200D01*
X166996952Y-78367580D01*
X167187428Y-78367580D01*
X167282666Y-78415200D01*
X167330285Y-78462819D01*
X167377904Y-78558057D01*
X167377904Y-78605676D01*
X167330285Y-78700914D01*
X167282666Y-78748533D01*
X167187428Y-78796152D01*
X166996952Y-78796152D01*
X166901714Y-78843771D01*
X166854095Y-78891390D01*
X166806476Y-78986628D01*
X166806476Y-79177104D01*
X166854095Y-79272342D01*
X166901714Y-79319961D01*
X166996952Y-79367580D01*
X167187428Y-79367580D01*
X167282666Y-79319961D01*
X167330285Y-79272342D01*
X167377904Y-79177104D01*
X167377904Y-78986628D01*
X167330285Y-78891390D01*
X167282666Y-78843771D01*
X167187428Y-78796152D01*
%TO.C,C17*%
X151334742Y-82227657D02*
X151382361Y-82275276D01*
X151429980Y-82418133D01*
X151429980Y-82513371D01*
X151382361Y-82656228D01*
X151287123Y-82751466D01*
X151191885Y-82799085D01*
X151001409Y-82846704D01*
X150858552Y-82846704D01*
X150668076Y-82799085D01*
X150572838Y-82751466D01*
X150477600Y-82656228D01*
X150429980Y-82513371D01*
X150429980Y-82418133D01*
X150477600Y-82275276D01*
X150525219Y-82227657D01*
X151429980Y-81275276D02*
X151429980Y-81846704D01*
X151429980Y-81560990D02*
X150429980Y-81560990D01*
X150572838Y-81656228D01*
X150668076Y-81751466D01*
X150715695Y-81846704D01*
X150429980Y-80941942D02*
X150429980Y-80275276D01*
X151429980Y-80703847D01*
%TO.C,R17*%
X138933180Y-87193857D02*
X138456990Y-87527190D01*
X138933180Y-87765285D02*
X137933180Y-87765285D01*
X137933180Y-87384333D01*
X137980800Y-87289095D01*
X138028419Y-87241476D01*
X138123657Y-87193857D01*
X138266514Y-87193857D01*
X138361752Y-87241476D01*
X138409371Y-87289095D01*
X138456990Y-87384333D01*
X138456990Y-87765285D01*
X138933180Y-86241476D02*
X138933180Y-86812904D01*
X138933180Y-86527190D02*
X137933180Y-86527190D01*
X138076038Y-86622428D01*
X138171276Y-86717666D01*
X138218895Y-86812904D01*
X137933180Y-85908142D02*
X137933180Y-85241476D01*
X138933180Y-85670047D01*
%TO.C,D7*%
X170839904Y-70607380D02*
X170839904Y-69607380D01*
X171078000Y-69607380D01*
X171220857Y-69655000D01*
X171316095Y-69750238D01*
X171363714Y-69845476D01*
X171411333Y-70035952D01*
X171411333Y-70178809D01*
X171363714Y-70369285D01*
X171316095Y-70464523D01*
X171220857Y-70559761D01*
X171078000Y-70607380D01*
X170839904Y-70607380D01*
X171744666Y-69607380D02*
X172411333Y-69607380D01*
X171982761Y-70607380D01*
%TO.C,J14*%
X210361476Y-71969380D02*
X210361476Y-72683666D01*
X210313857Y-72826523D01*
X210218619Y-72921761D01*
X210075761Y-72969380D01*
X209980523Y-72969380D01*
X211361476Y-72969380D02*
X210790047Y-72969380D01*
X211075761Y-72969380D02*
X211075761Y-71969380D01*
X210980523Y-72112238D01*
X210885285Y-72207476D01*
X210790047Y-72255095D01*
X212218619Y-72302714D02*
X212218619Y-72969380D01*
X211980523Y-71921761D02*
X211742428Y-72636047D01*
X212361476Y-72636047D01*
D13*
%TO.C,Q9*%
X140846000Y-63322000D02*
X138796000Y-63322000D01*
X140096000Y-60122000D02*
X138796000Y-60122000D01*
%TO.C,D1*%
X123304500Y-98906000D02*
X125589500Y-98906000D01*
X125589500Y-98906000D02*
X125589500Y-97436000D01*
X125589500Y-97436000D02*
X123304500Y-97436000D01*
%TO.C,D8*%
X187010700Y-88306200D02*
X187010700Y-89256200D01*
X186110700Y-88306200D02*
X186110700Y-89256200D01*
D14*
%TO.C,SW3*%
X127854000Y-80833000D02*
X128254000Y-81233000D01*
X128254000Y-75933000D02*
X130954000Y-75933000D01*
X131354000Y-76333000D02*
X130954000Y-75933000D01*
X128254000Y-81233000D02*
X130954000Y-81233000D01*
X127854000Y-76333000D02*
X128254000Y-75933000D01*
X131354000Y-80833000D02*
X130954000Y-81233000D01*
D15*
X125704000Y-76733000D02*
G75*
G03*
X125704000Y-76733000I-100000J0D01*
G01*
D13*
%TO.C,R9*%
X160321258Y-104836700D02*
X159846742Y-104836700D01*
X160321258Y-105881700D02*
X159846742Y-105881700D01*
%TO.C,R32*%
X172099500Y-75644742D02*
X172099500Y-76119258D01*
X171054500Y-75644742D02*
X171054500Y-76119258D01*
%TO.C,R11*%
X154605258Y-99232500D02*
X154130742Y-99232500D01*
X154605258Y-100277500D02*
X154130742Y-100277500D01*
%TO.C,R27*%
X185357842Y-71249400D02*
X185832358Y-71249400D01*
X185357842Y-72294400D02*
X185832358Y-72294400D01*
%TO.C,Q3*%
X139397500Y-81752000D02*
X138747500Y-81752000D01*
X139397500Y-84872000D02*
X141072500Y-84872000D01*
X139397500Y-84872000D02*
X138747500Y-84872000D01*
X139397500Y-81752000D02*
X140047500Y-81752000D01*
%TO.C,J2*%
X121603000Y-73005000D02*
X129603000Y-73005000D01*
X129603000Y-73005000D02*
X129603000Y-62805000D01*
X129603000Y-62805000D02*
X121603000Y-62805000D01*
X121603000Y-62805000D02*
X121603000Y-73005000D01*
%TO.C,R25*%
X197105000Y-95094359D02*
X197105000Y-95401641D01*
X197865000Y-95094359D02*
X197865000Y-95401641D01*
%TO.C,R4*%
X133651258Y-74093500D02*
X133176742Y-74093500D01*
X133651258Y-75138500D02*
X133176742Y-75138500D01*
%TO.C,D2*%
X159397500Y-72925000D02*
X157112500Y-72925000D01*
X157112500Y-72925000D02*
X157112500Y-74395000D01*
X157112500Y-74395000D02*
X159397500Y-74395000D01*
%TO.C,C30*%
X201138964Y-69295600D02*
X201354636Y-69295600D01*
X201138964Y-68575600D02*
X201354636Y-68575600D01*
%TO.C,J4*%
X185360000Y-106105000D02*
X185360000Y-104775000D01*
X186690000Y-106105000D02*
X185360000Y-106105000D01*
X187960000Y-106105000D02*
X187960000Y-103445000D01*
X187960000Y-106105000D02*
X195640000Y-106105000D01*
X195640000Y-106105000D02*
X195640000Y-103445000D01*
X187960000Y-103445000D02*
X195640000Y-103445000D01*
%TO.C,R3*%
X133651258Y-87809500D02*
X133176742Y-87809500D01*
X133651258Y-88854500D02*
X133176742Y-88854500D01*
%TO.C,R18*%
X159686258Y-99248700D02*
X159211742Y-99248700D01*
X159686258Y-100293700D02*
X159211742Y-100293700D01*
%TO.C,J13*%
X212404000Y-89602000D02*
X209744000Y-89602000D01*
X212404000Y-97282000D02*
X209744000Y-97282000D01*
X212404000Y-97282000D02*
X212404000Y-89602000D01*
X209744000Y-97282000D02*
X209744000Y-89602000D01*
X212404000Y-98552000D02*
X212404000Y-99882000D01*
X212404000Y-99882000D02*
X211074000Y-99882000D01*
%TO.C,U3*%
X162707000Y-90200000D02*
X163657000Y-90200000D01*
X163657000Y-90200000D02*
X163657000Y-89250000D01*
X154387000Y-79980000D02*
X153437000Y-79980000D01*
X153437000Y-90200000D02*
X153437000Y-89250000D01*
X153437000Y-79980000D02*
X153437000Y-80930000D01*
X163657000Y-79980000D02*
X163657000Y-80930000D01*
X153437000Y-80930000D02*
X152097000Y-80930000D01*
X162707000Y-79980000D02*
X163657000Y-79980000D01*
X154387000Y-90200000D02*
X153437000Y-90200000D01*
%TO.C,Q4*%
X183817500Y-83530000D02*
X182142500Y-83530000D01*
X183817500Y-86650000D02*
X184467500Y-86650000D01*
X183817500Y-86650000D02*
X183167500Y-86650000D01*
X183817500Y-83530000D02*
X184467500Y-83530000D01*
%TO.C,R36*%
X186959500Y-79962742D02*
X186959500Y-80437258D01*
X185914500Y-79962742D02*
X185914500Y-80437258D01*
%TO.C,C2*%
X169290420Y-66819420D02*
X169571580Y-66819420D01*
X169290420Y-67839420D02*
X169571580Y-67839420D01*
%TO.C,J10*%
X139494260Y-102657600D02*
X147174260Y-102657600D01*
X139494260Y-105317600D02*
X139494260Y-102657600D01*
X138224260Y-105317600D02*
X136894260Y-105317600D01*
X136894260Y-105317600D02*
X136894260Y-103987600D01*
X139494260Y-105317600D02*
X147174260Y-105317600D01*
X147174260Y-105317600D02*
X147174260Y-102657600D01*
%TO.C,J3*%
X167028600Y-61677200D02*
X168528600Y-61677200D01*
X161728600Y-61277200D02*
X161728600Y-56777200D01*
X163628600Y-61677200D02*
X162128600Y-61677200D01*
X168928600Y-61277200D02*
X168928600Y-56777200D01*
X161728600Y-61277200D02*
G75*
G03*
X162128600Y-61677200I399999J-1D01*
G01*
X168528600Y-61677200D02*
G75*
G03*
X168928600Y-61277200I1J399999D01*
G01*
%TO.C,Q2*%
X178846000Y-66342500D02*
X178846000Y-65692500D01*
X181966000Y-66342500D02*
X181966000Y-66992500D01*
X178846000Y-66342500D02*
X178846000Y-66992500D01*
X181966000Y-66342500D02*
X181966000Y-64667500D01*
%TO.C,J7*%
X156266000Y-72644000D02*
X156266000Y-73974000D01*
X156266000Y-71374000D02*
X156266000Y-66234000D01*
X156266000Y-71374000D02*
X153606000Y-71374000D01*
X156266000Y-73974000D02*
X154936000Y-73974000D01*
X153606000Y-71374000D02*
X153606000Y-66234000D01*
X156266000Y-66234000D02*
X153606000Y-66234000D01*
%TO.C,C31*%
X186200700Y-90598164D02*
X186200700Y-90813836D01*
X186920700Y-90598164D02*
X186920700Y-90813836D01*
%TO.C,C37*%
X202531500Y-65038000D02*
X202531500Y-68058000D01*
X202531500Y-68058000D02*
X206741500Y-68058000D01*
X206741500Y-65038000D02*
X202531500Y-65038000D01*
%TO.C,U1*%
X146106300Y-73127000D02*
X146906300Y-73127000D01*
X146106300Y-73127000D02*
X145306300Y-73127000D01*
X146106300Y-70007000D02*
X144306300Y-70007000D01*
X146106300Y-70007000D02*
X146906300Y-70007000D01*
%TO.C,Q5*%
X172816000Y-70914500D02*
X172816000Y-71564500D01*
X175936000Y-70914500D02*
X175936000Y-69239500D01*
X175936000Y-70914500D02*
X175936000Y-71564500D01*
X172816000Y-70914500D02*
X172816000Y-70264500D01*
%TO.C,R22*%
X195858641Y-94235000D02*
X195551359Y-94235000D01*
X195858641Y-94995000D02*
X195551359Y-94995000D01*
%TO.C,C20*%
X159133000Y-102665620D02*
X159133000Y-102946780D01*
X158113000Y-102665620D02*
X158113000Y-102946780D01*
%TO.C,C26*%
X195855000Y-96130164D02*
X195855000Y-96345836D01*
X196575000Y-96130164D02*
X196575000Y-96345836D01*
%TO.C,C7*%
X149658800Y-71755580D02*
X149658800Y-71474420D01*
X148638800Y-71755580D02*
X148638800Y-71474420D01*
%TO.C,C16*%
X152535836Y-78634000D02*
X152320164Y-78634000D01*
X152535836Y-79354000D02*
X152320164Y-79354000D01*
%TO.C,C21*%
X151386000Y-104496780D02*
X151386000Y-104215620D01*
X150366000Y-104496780D02*
X150366000Y-104215620D01*
%TO.C,C23*%
X193696000Y-94242836D02*
X193696000Y-94027164D01*
X194416000Y-94242836D02*
X194416000Y-94027164D01*
%TO.C,C39*%
X201138964Y-69845600D02*
X201354636Y-69845600D01*
X201138964Y-70565600D02*
X201354636Y-70565600D01*
%TO.C,R1*%
X149318400Y-58884536D02*
X149318400Y-63238664D01*
X152738400Y-58884536D02*
X152738400Y-63238664D01*
%TO.C,R14*%
X140857500Y-86914258D02*
X140857500Y-86439742D01*
X139812500Y-86914258D02*
X139812500Y-86439742D01*
%TO.C,R30*%
X179879258Y-69454500D02*
X179404742Y-69454500D01*
X179879258Y-70499500D02*
X179404742Y-70499500D01*
%TO.C,Q7*%
X182043000Y-77693000D02*
X182043000Y-79743000D01*
X185243000Y-77693000D02*
X185243000Y-78993000D01*
%TO.C,R16*%
X136971300Y-84412858D02*
X136971300Y-83938342D01*
X135926300Y-84412858D02*
X135926300Y-83938342D01*
%TO.C,R7*%
X158797258Y-74915500D02*
X158322742Y-74915500D01*
X158797258Y-75960500D02*
X158322742Y-75960500D01*
%TO.C,R28*%
X179910442Y-88796700D02*
X180384958Y-88796700D01*
X179910442Y-89841700D02*
X180384958Y-89841700D01*
%TO.C,R15*%
X141768500Y-84789742D02*
X141768500Y-85264258D01*
X142813500Y-84789742D02*
X142813500Y-85264258D01*
D14*
%TO.C,SW2*%
X128254000Y-81775000D02*
X130954000Y-81775000D01*
X131354000Y-82175000D02*
X130954000Y-81775000D01*
X128254000Y-87075000D02*
X130954000Y-87075000D01*
X127854000Y-82175000D02*
X128254000Y-81775000D01*
X131354000Y-86675000D02*
X130954000Y-87075000D01*
X127854000Y-86675000D02*
X128254000Y-87075000D01*
D15*
X125704000Y-82575000D02*
G75*
G03*
X125704000Y-82575000I-100000J0D01*
G01*
D13*
%TO.C,J12*%
X173311000Y-93314000D02*
X169911000Y-93314000D01*
X182111000Y-93314000D02*
X175411000Y-93314000D01*
X169911000Y-93314000D02*
X169911000Y-95314000D01*
X173311000Y-105314000D02*
X169911000Y-105314000D01*
X182111000Y-105314000D02*
X175411000Y-105314000D01*
X169911000Y-105314000D02*
X169911000Y-103314000D01*
X184211000Y-105164000D02*
X184211000Y-93464000D01*
%TO.C,J5*%
X146389400Y-57191600D02*
X143729400Y-57191600D01*
X143729400Y-64931600D02*
X143729400Y-61821600D01*
X143729400Y-57761600D02*
X143729400Y-57191600D01*
X146389400Y-64931600D02*
X146389400Y-64361600D01*
X146389400Y-64931600D02*
X143729400Y-64931600D01*
X146389400Y-62841600D02*
X146389400Y-59281600D01*
X146389400Y-64361600D02*
X147909400Y-64361600D01*
X143729400Y-60301600D02*
X143729400Y-57191600D01*
%TO.C,R2*%
X124379258Y-96915500D02*
X123904742Y-96915500D01*
X124379258Y-95870500D02*
X123904742Y-95870500D01*
%TO.C,R20*%
X186102258Y-64882500D02*
X185627742Y-64882500D01*
X186102258Y-65927500D02*
X185627742Y-65927500D01*
%TO.C,D3*%
X178281000Y-68007500D02*
X178281000Y-65722500D01*
X176811000Y-68007500D02*
X178281000Y-68007500D01*
X176811000Y-65722500D02*
X176811000Y-68007500D01*
%TO.C,C3*%
X169056164Y-66287000D02*
X169271836Y-66287000D01*
X169056164Y-65567000D02*
X169271836Y-65567000D01*
%TO.C,C29*%
X194813600Y-68101036D02*
X194813600Y-67885364D01*
X195533600Y-68101036D02*
X195533600Y-67885364D01*
%TO.C,C38*%
X205691052Y-70556800D02*
X204268548Y-70556800D01*
X205691052Y-68736800D02*
X204268548Y-68736800D01*
%TO.C,Q6*%
X182026100Y-75104900D02*
X182026100Y-73804900D01*
X185226100Y-75104900D02*
X185226100Y-73054900D01*
%TO.C,U2*%
X169606000Y-75433000D02*
X163596000Y-75433000D01*
X163596000Y-68613000D02*
X163596000Y-69873000D01*
X167356000Y-68613000D02*
X163596000Y-68613000D01*
X163596000Y-75433000D02*
X163596000Y-74173000D01*
%TO.C,U6*%
X167911000Y-102239000D02*
X167911000Y-100839000D01*
X165591000Y-100839000D02*
X165591000Y-102739000D01*
%TO.C,C27*%
X191377600Y-62244500D02*
X191377600Y-66454500D01*
X194397600Y-66454500D02*
X194397600Y-62244500D01*
X191377600Y-66454500D02*
X194397600Y-66454500D01*
%TO.C,R12*%
X179785742Y-85512900D02*
X180260258Y-85512900D01*
X179785742Y-86557900D02*
X180260258Y-86557900D01*
%TO.C,C34*%
X186923000Y-85462164D02*
X186923000Y-85677836D01*
X186203000Y-85462164D02*
X186203000Y-85677836D01*
%TO.C,Y1*%
X148689000Y-79796000D02*
X144689000Y-79796000D01*
X148689000Y-83096000D02*
X148689000Y-79796000D01*
%TO.C,R24*%
X198375000Y-95098359D02*
X198375000Y-95405641D01*
X199135000Y-95098359D02*
X199135000Y-95405641D01*
%TO.C,L2*%
X147419600Y-86324121D02*
X147419600Y-86649679D01*
X148439600Y-86324121D02*
X148439600Y-86649679D01*
%TO.C,C13*%
X149712000Y-87003836D02*
X149712000Y-86788164D01*
X148992000Y-87003836D02*
X148992000Y-86788164D01*
%TO.C,SW1*%
X137004000Y-59565600D02*
X130204000Y-59565600D01*
X130204000Y-59565600D02*
X130204000Y-72465600D01*
X130204000Y-72465600D02*
X137004000Y-72465600D01*
X137004000Y-72465600D02*
X137004000Y-59565600D01*
%TO.C,R33*%
X183816258Y-80503500D02*
X183341742Y-80503500D01*
X183816258Y-81548500D02*
X183341742Y-81548500D01*
%TO.C,R34*%
X180309600Y-74524358D02*
X180309600Y-74049842D01*
X181354600Y-74524358D02*
X181354600Y-74049842D01*
%TO.C,R21*%
X183783500Y-65992742D02*
X183783500Y-66467258D01*
X182738500Y-65992742D02*
X182738500Y-66467258D01*
%TO.C,R13*%
X180260258Y-83582500D02*
X179785742Y-83582500D01*
X180260258Y-84627500D02*
X179785742Y-84627500D01*
%TO.C,C10*%
X130125580Y-89600000D02*
X129844420Y-89600000D01*
X130125580Y-90620000D02*
X129844420Y-90620000D01*
%TO.C,U7*%
X206562600Y-72292200D02*
X203602600Y-72292200D01*
X190642600Y-90112200D02*
X190642600Y-87802200D01*
X190752600Y-72292200D02*
X193602600Y-72292200D01*
X190642600Y-90112200D02*
X193602600Y-90112200D01*
X206562600Y-90112200D02*
X203602600Y-90112200D01*
X206562600Y-90112200D02*
X206562600Y-87802200D01*
X206562600Y-72292200D02*
X206562600Y-74602200D01*
%TO.C,C32*%
X198997600Y-62244500D02*
X198997600Y-66454500D01*
X202017600Y-66454500D02*
X202017600Y-62244500D01*
X198997600Y-66454500D02*
X202017600Y-66454500D01*
%TO.C,C28*%
X198207600Y-66454500D02*
X198207600Y-62244500D01*
X195187600Y-66454500D02*
X198207600Y-66454500D01*
X195187600Y-62244500D02*
X195187600Y-66454500D01*
%TO.C,C14*%
X154377000Y-77097836D02*
X154377000Y-76882164D01*
X155097000Y-77097836D02*
X155097000Y-76882164D01*
%TO.C,R37*%
X125718000Y-93984800D02*
X125718000Y-94584800D01*
X123618000Y-93284800D02*
X125018000Y-93284800D01*
X122918000Y-94584800D02*
X122918000Y-93984800D01*
X125018000Y-95284800D02*
X123618000Y-95284800D01*
X125018000Y-95284800D02*
G75*
G03*
X125718000Y-94584800I1J699999D01*
G01*
X125718000Y-93984800D02*
G75*
G03*
X125018000Y-93284800I-699999J1D01*
G01*
X123618000Y-93284800D02*
G75*
G03*
X122918000Y-93984800I-1J-699999D01*
G01*
X122918000Y-94584800D02*
G75*
G03*
X123618000Y-95284800I699999J-1D01*
G01*
%TO.C,Q8*%
X183845200Y-88638000D02*
X182170200Y-88638000D01*
X183845200Y-91758000D02*
X183195200Y-91758000D01*
X183845200Y-91758000D02*
X184495200Y-91758000D01*
X183845200Y-88638000D02*
X184495200Y-88638000D01*
%TO.C,C4*%
X159618000Y-66551636D02*
X159618000Y-66335964D01*
X158898000Y-66551636D02*
X158898000Y-66335964D01*
%TO.C,C6*%
X160145000Y-66472380D02*
X160145000Y-66191220D01*
X161165000Y-66472380D02*
X161165000Y-66191220D01*
%TO.C,U5*%
X166558400Y-65278000D02*
X166558400Y-63478000D01*
X163438400Y-65278000D02*
X163438400Y-66078000D01*
X166558400Y-65278000D02*
X166558400Y-66078000D01*
X163438400Y-65278000D02*
X163438400Y-64478000D01*
%TO.C,C1*%
X144270000Y-67842820D02*
X144270000Y-68123980D01*
X145290000Y-67842820D02*
X145290000Y-68123980D01*
%TO.C,R8*%
X148487159Y-83440000D02*
X148794441Y-83440000D01*
X148487159Y-84200000D02*
X148794441Y-84200000D01*
%TO.C,R5*%
X130222258Y-88854500D02*
X129747742Y-88854500D01*
X130222258Y-87809500D02*
X129747742Y-87809500D01*
%TO.C,R26*%
X185897600Y-74786258D02*
X185897600Y-74311742D01*
X186942600Y-74786258D02*
X186942600Y-74311742D01*
%TO.C,C9*%
X155456836Y-92223000D02*
X155241164Y-92223000D01*
X155456836Y-92943000D02*
X155241164Y-92943000D01*
%TO.C,R29*%
X180384958Y-91746700D02*
X179910442Y-91746700D01*
X180384958Y-90701700D02*
X179910442Y-90701700D01*
%TO.C,U4*%
X159753000Y-101915200D02*
X159753000Y-103215200D01*
X162573000Y-101475200D02*
X162573000Y-103215200D01*
%TO.C,C8*%
X152273580Y-77061600D02*
X151992420Y-77061600D01*
X152273580Y-78081600D02*
X151992420Y-78081600D01*
%TO.C,C11*%
X134237000Y-77342420D02*
X134237000Y-77623580D01*
X135257000Y-77342420D02*
X135257000Y-77623580D01*
%TO.C,R23*%
X176036500Y-66247742D02*
X176036500Y-66722258D01*
X174991500Y-66247742D02*
X174991500Y-66722258D01*
%TO.C,J8*%
X155638000Y-59281600D02*
X155638000Y-62841600D01*
X155638000Y-57761600D02*
X154118000Y-57761600D01*
X158298000Y-57191600D02*
X158298000Y-60301600D01*
X158298000Y-61821600D02*
X158298000Y-64931600D01*
X158298000Y-64361600D02*
X158298000Y-64931600D01*
X155638000Y-64931600D02*
X158298000Y-64931600D01*
X155638000Y-57191600D02*
X158298000Y-57191600D01*
X155638000Y-57191600D02*
X155638000Y-57761600D01*
%TO.C,D6*%
X186113000Y-83122000D02*
X186113000Y-84072000D01*
X187013000Y-83122000D02*
X187013000Y-84072000D01*
%TO.C,C5*%
X150416800Y-71755580D02*
X150416800Y-71474420D01*
X151436800Y-71755580D02*
X151436800Y-71474420D01*
%TO.C,D4*%
X193402800Y-68490600D02*
X193402800Y-67540600D01*
X194302800Y-68490600D02*
X194302800Y-67540600D01*
%TO.C,R35*%
X181370500Y-78596258D02*
X181370500Y-78121742D01*
X180325500Y-78596258D02*
X180325500Y-78121742D01*
%TO.C,Q1*%
X156053000Y-102597500D02*
X156053000Y-103247500D01*
X156053000Y-102597500D02*
X156053000Y-100922500D01*
X152933000Y-102597500D02*
X152933000Y-103247500D01*
X152933000Y-102597500D02*
X152933000Y-101947500D01*
%TO.C,R31*%
X176643500Y-70564742D02*
X176643500Y-71039258D01*
X177688500Y-70564742D02*
X177688500Y-71039258D01*
%TO.C,C24*%
X199115000Y-97273164D02*
X199115000Y-97488836D01*
X198395000Y-97273164D02*
X198395000Y-97488836D01*
%TO.C,L1*%
X139378000Y-67505600D02*
X139378000Y-69905600D01*
X143578000Y-67505600D02*
X143578000Y-69905600D01*
%TO.C,C12*%
X162717000Y-93082164D02*
X162717000Y-93297836D01*
X161997000Y-93082164D02*
X161997000Y-93297836D01*
%TO.C,C25*%
X168423000Y-102861164D02*
X168423000Y-103076836D01*
X169143000Y-102861164D02*
X169143000Y-103076836D01*
%TO.C,R19*%
X162639742Y-100293700D02*
X163114258Y-100293700D01*
X162639742Y-99248700D02*
X163114258Y-99248700D01*
%TO.C,R6*%
X129663458Y-74093500D02*
X129188942Y-74093500D01*
X129663458Y-75138500D02*
X129188942Y-75138500D01*
%TO.C,J15*%
X141859000Y-99120000D02*
X131639000Y-99120000D01*
X144459000Y-96460000D02*
X144459000Y-97790000D01*
X131639000Y-96460000D02*
X131639000Y-99120000D01*
X141859000Y-96460000D02*
X131639000Y-96460000D01*
X141859000Y-96460000D02*
X141859000Y-99120000D01*
X143129000Y-96460000D02*
X144459000Y-96460000D01*
%TO.C,C15*%
X150414400Y-87003836D02*
X150414400Y-86788164D01*
X151134400Y-87003836D02*
X151134400Y-86788164D01*
%TO.C,C19*%
X146665836Y-83460000D02*
X146450164Y-83460000D01*
X146665836Y-84180000D02*
X146450164Y-84180000D01*
%TO.C,J1*%
X196663000Y-106105000D02*
X196663000Y-104775000D01*
X197993000Y-106105000D02*
X196663000Y-106105000D01*
X199263000Y-103445000D02*
X206943000Y-103445000D01*
X199263000Y-106105000D02*
X206943000Y-106105000D01*
X199263000Y-106105000D02*
X199263000Y-103445000D01*
X206943000Y-106105000D02*
X206943000Y-103445000D01*
%TO.C,J9*%
X187579000Y-60004000D02*
X172279000Y-60004000D01*
X187579000Y-57344000D02*
X172279000Y-57344000D01*
X188849000Y-57344000D02*
X190179000Y-57344000D01*
X190179000Y-57344000D02*
X190179000Y-58674000D01*
X187579000Y-57344000D02*
X187579000Y-60004000D01*
X172279000Y-57344000D02*
X172279000Y-60004000D01*
%TO.C,J11*%
X158441000Y-94936000D02*
X158441000Y-97596000D01*
X162311000Y-94936000D02*
X163641000Y-94936000D01*
X161041000Y-97596000D02*
X158441000Y-97596000D01*
X161041000Y-94936000D02*
X158441000Y-94936000D01*
X161041000Y-94936000D02*
X161041000Y-97596000D01*
X163641000Y-94936000D02*
X163641000Y-96266000D01*
%TO.C,R10*%
X156384258Y-98499500D02*
X155909742Y-98499500D01*
X156384258Y-97454500D02*
X155909742Y-97454500D01*
%TO.C,C18*%
X166476000Y-80625836D02*
X166476000Y-80410164D01*
X165756000Y-80625836D02*
X165756000Y-80410164D01*
%TO.C,C17*%
X150118400Y-80991764D02*
X150118400Y-81207436D01*
X149398400Y-80991764D02*
X149398400Y-81207436D01*
%TO.C,R17*%
X137958300Y-89899258D02*
X137958300Y-89424742D01*
X139003300Y-89899258D02*
X139003300Y-89424742D01*
%TO.C,D7*%
X170842000Y-71057500D02*
X170842000Y-73342500D01*
X172312000Y-73342500D02*
X172312000Y-71057500D01*
X172312000Y-71057500D02*
X170842000Y-71057500D01*
%TO.C,J14*%
X209972000Y-77650800D02*
X209772000Y-77650800D01*
X209972000Y-74850800D02*
X209772000Y-74850800D01*
X209772000Y-74850800D02*
X209772000Y-75650800D01*
X209772000Y-77650800D02*
X209772000Y-76850800D01*
%TD*%
M02*
