M48
; DRILL file {KiCad (6.0.0)} date Sat Nov 18 00:08:47 2023
; FORMAT={-:-/ absolute / metric / decimal}
; #@! TF.CreationDate,2023-11-18T00:08:47-03:00
; #@! TF.GenerationSoftware,Kicad,Pcbnew,(6.0.0)
; #@! TF.FileFunction,Plated,1,4,PTH
FMAT,2
METRIC
; #@! TA.AperFunction,Plated,PTH,ViaDrill
T1C0.300
; #@! TA.AperFunction,Plated,PTH,ViaDrill
T2C0.400
; #@! TA.AperFunction,Plated,PTH,ViaDrill
T3C0.500
; #@! TA.AperFunction,Plated,PTH,ComponentDrill
T4C1.000
; #@! TA.AperFunction,Plated,PTH,ComponentDrill
T5C1.300
%
G90
G05
T1
X122.428Y-68.326
X122.428Y-71.755
X123.063Y-67.691
X123.063Y-68.961
X123.063Y-71.12
X123.063Y-72.39
X123.698Y-68.326
X123.698Y-71.755
X127.343Y-74.625
X127.635Y-71.755
X127.889Y-59.309
X128.08Y-88.341
X128.27Y-71.12
X128.27Y-72.39
X128.524Y-58.674
X128.524Y-59.944
X128.905Y-71.755
X129.159Y-59.309
X130.937Y-102.743
X131.572Y-102.108
X131.572Y-103.378
X131.928Y-94.488
X132.207Y-102.743
X132.563Y-93.853
X132.563Y-95.123
X133.198Y-94.488
X134.176Y-81.28
X134.811Y-80.645
X134.811Y-81.915
X135.192Y-88.341
X135.446Y-81.28
X137.414Y-76.835
X138.049Y-76.2
X138.049Y-77.47
X138.43Y-85.979
X138.684Y-76.835
X141.58Y-71.907
X141.58Y-73.584
X142.062Y-72.746
X142.113Y-77.216
X142.545Y-71.907
X142.545Y-73.584
X142.748Y-76.581
X142.748Y-77.851
X142.799Y-92.202
X143.027Y-72.746
X143.383Y-77.216
X143.434Y-91.567
X143.434Y-92.837
X143.51Y-71.907
X143.51Y-73.584
X144.069Y-92.202
X147.066Y-60.96
X147.066Y-98.958
X147.701Y-60.325
X147.701Y-61.595
X148.336Y-60.96
X149.098Y-67.92
X149.352Y-85.446
X149.657Y-82.601
X149.708Y-99.974
X149.708Y-100.94
X149.708Y-101.905
X149.733Y-67.285
X149.733Y-68.555
X150.368Y-67.92
X150.546Y-99.492
X150.546Y-100.457
X150.546Y-101.422
X150.774Y-85.446
X151.282Y-76.302
X151.384Y-99.974
X151.384Y-100.94
X151.384Y-101.905
X151.486Y-84.531
X151.587Y-80.162
X152.222Y-99.492
X152.222Y-100.457
X152.222Y-101.422
X152.908Y-76.479
X153.213Y-104.953
X155.346Y-95.504
X155.829Y-93.345
X155.905Y-77.47
X156.515Y-100.127
X156.714Y-70.307
X157.023Y-101.143
X157.023Y-102.21
X157.048Y-83.312
X157.048Y-86.182
X157.099Y-88.392
X157.197Y-69.469
X157.197Y-71.145
X157.679Y-70.307
X157.683Y-82.677
X157.683Y-83.947
X157.683Y-85.547
X157.683Y-86.817
X157.785Y-99.771
X158.162Y-69.469
X158.162Y-71.145
X158.318Y-83.312
X158.318Y-86.182
X158.369Y-88.265
X158.496Y-81.178
X158.644Y-70.307
X159.004Y-88.9
X159.127Y-69.469
X159.127Y-71.145
X159.512Y-58.725
X159.61Y-70.307
X159.614Y-84.785
X160.092Y-69.469
X160.092Y-71.145
X160.147Y-58.09
X160.147Y-59.36
X160.249Y-84.15
X160.249Y-85.42
X160.477Y-81.178
X160.579Y-89.002
X160.782Y-58.725
X160.884Y-84.785
X161.163Y-62.865
X161.798Y-62.23
X161.798Y-63.5
X162.433Y-62.865
X162.458Y-81.178
X162.458Y-83.16
X162.458Y-85.141
X162.458Y-87.122
X162.458Y-89.002
X163.093Y-64.999
X163.271Y-92.71
X164.592Y-99.771
X164.998Y-65.126
X165.202Y-62.941
X165.862Y-82.651
X166.37Y-92.304
X166.878Y-65.151
X166.878Y-82.931
X167.005Y-91.669
X167.005Y-92.939
X167.64Y-92.304
X167.767Y-80.772
X168.148Y-76.962
X168.656Y-77.978
X168.656Y-81.788
X168.783Y-98.806
X168.783Y-101.219
X169.291Y-78.994
X169.799Y-62.103
X170.434Y-61.468
X170.434Y-62.738
X171.069Y-62.103
X171.196Y-89.662
X171.577Y-77.724
X171.831Y-89.027
X171.831Y-90.297
X172.466Y-89.662
X177.673Y-82.042
X178.308Y-81.407
X178.308Y-82.677
X178.943Y-82.042
X179.959Y-87.757
X180.848Y-80.137
X180.849Y-76.073
X181.229Y-71.374
X183.728Y-71.798
X184.785Y-87.757
X185.42Y-82.423
X185.42Y-92.71
X185.801Y-78.105
X186.055Y-92.075
X186.055Y-93.345
X186.69Y-92.71
X187.605Y-81.028
X187.709Y-89.154
X187.96Y-76.2
X187.96Y-83.947
X188.722Y-87.757
X188.976Y-79.121
X189.179Y-65.532
X189.179Y-66.497
X189.179Y-67.462
X190.017Y-65.049
X190.017Y-66.015
X190.017Y-66.98
X190.246Y-72.771
X190.856Y-65.532
X190.856Y-66.497
X190.856Y-67.462
X192.278Y-58.547
X192.634Y-82.804
X192.913Y-57.912
X192.913Y-59.182
X193.269Y-82.169
X193.269Y-83.439
X193.548Y-58.547
X193.777Y-86.868
X193.904Y-82.804
X194.412Y-86.233
X194.412Y-87.503
X195.047Y-86.868
X196.088Y-58.547
X196.571Y-78.867
X196.723Y-57.912
X196.723Y-59.182
X197.206Y-78.232
X197.206Y-79.502
X197.358Y-58.547
X197.485Y-74.422
X197.714Y-82.931
X197.841Y-78.867
X198.349Y-82.296
X198.349Y-83.566
X198.984Y-82.931
X199.898Y-58.547
X200.127Y-75.311
X200.127Y-87.503
X200.533Y-57.912
X200.533Y-59.182
X200.762Y-74.676
X200.762Y-75.946
X200.762Y-86.868
X200.762Y-88.138
X201.168Y-58.547
X201.27Y-79.375
X201.27Y-92.964
X201.397Y-75.311
X201.397Y-87.503
X201.905Y-78.74
X201.905Y-80.01
X201.905Y-92.329
X201.905Y-93.599
X202.54Y-79.375
X202.54Y-92.964
X203.175Y-84.328
X203.81Y-83.693
X203.81Y-84.963
X204.191Y-88.773
X204.445Y-84.328
X204.47Y-97.942
X204.673Y-62.027
X204.826Y-88.138
X204.826Y-89.408
X204.851Y-80.645
X205.105Y-97.307
X205.105Y-98.577
X205.308Y-61.392
X205.308Y-62.662
X205.461Y-88.773
X205.74Y-97.942
X205.943Y-62.027
X206.451Y-73.558
X207.264Y-73.558
X208.077Y-73.558
X208.077Y-78.994
X208.89Y-73.558
X208.89Y-78.994
X209.393Y-74.524
X209.393Y-77.927
X209.702Y-73.558
X209.702Y-78.994
X209.804Y-64.008
X210.439Y-63.373
X210.439Y-64.643
X210.515Y-73.558
X210.515Y-78.994
X210.693Y-81.534
X211.074Y-64.008
X211.328Y-73.558
X211.328Y-78.994
X211.328Y-80.899
X211.328Y-82.169
X211.963Y-81.534
X212.141Y-73.558
X212.141Y-78.994
T2
X123.698Y-92.583
X126.492Y-91.237
X136.525Y-90.805
X137.211Y-95.707
X137.541Y-79.756
X138.024Y-72.898
X138.049Y-64.77
X138.049Y-68.834
X140.335Y-59.309
X140.335Y-81.026
X143.764Y-80.62
X145.593Y-78.994
X148.844Y-105.308
X162.306Y-75.692
X163.119Y-102.565
X164.49Y-80.213
X165.989Y-105.283
X173.228Y-82.423
X174.244Y-67.31
X175.006Y-96.012
X175.006Y-98.679
X175.006Y-101.219
X178.055Y-77.497
X188.849Y-96.012
X188.849Y-98.679
X188.849Y-101.219
X193.142Y-75.184
X195.834Y-69.723
X196.393Y-73.914
X199.644Y-68.936
X199.644Y-70.307
X208.153Y-66.548
X208.153Y-69.647
T3
X146.456Y-85.7
X153.365Y-98.298
T4
X132.969Y-97.79
X135.509Y-97.79
X138.049Y-97.79
X138.224Y-103.988
X140.589Y-97.79
X140.764Y-103.988
X143.129Y-97.79
X143.304Y-103.988
X145.844Y-103.988
X154.936Y-67.564
X154.936Y-70.104
X154.936Y-72.644
X159.771Y-96.266
X162.311Y-96.266
X173.609Y-58.674
X176.149Y-58.674
X178.689Y-58.674
X181.229Y-58.674
X183.769Y-58.674
X186.309Y-58.674
X186.69Y-104.775
X188.849Y-58.674
X189.23Y-104.775
X191.77Y-104.775
X194.31Y-104.775
X197.993Y-104.775
X200.533Y-104.775
X203.073Y-104.775
X205.613Y-104.775
X211.074Y-90.932
X211.074Y-93.472
X211.074Y-96.012
X211.074Y-98.552
T5
X125.603Y-65.405
X125.603Y-70.405
T4
G00X134.004Y-61.316
M15
G01X133.204Y-61.316
M16
G05
G00X134.004Y-66.016
M15
G01X133.204Y-66.016
M16
G05
G00X134.004Y-70.716
M15
G01X133.204Y-70.716
M16
G05
T0
M30
