%FSLAX45Y45*%
G04 Gerber Fmt 4.5, Leading zero omitted, Abs format (unit mm)*
G04 Created by KiCad (PCBNEW (6.0.0)) date 2023-11-18 00:08:48*
%MOMM*%
%LPD*%
G01*
G04 APERTURE LIST*
%TA.AperFunction,Profile*%
%ADD10C,0.100000*%
%TD*%
%ADD11C,0.200000*%
%ADD12C,0.045000*%
%ADD13C,0.115200*%
%ADD14C,0.220000*%
G04 APERTURE END LIST*
D10*
X12115800Y-5651500D02*
X21313140Y-5651500D01*
X21313140Y-5651500D02*
X21313140Y-10688320D01*
X21313140Y-10688320D02*
X12115800Y-10688320D01*
X12115800Y-10688320D02*
X12115800Y-5651500D01*
D11*
D12*
X16227860Y-5845220D02*
X16272860Y-5890220D01*
X16272860Y-5845220D02*
X16227860Y-5890220D01*
D11*
X16262860Y-5912720D02*
X16262860Y-5822720D01*
X16237860Y-5912720D02*
X16237860Y-5822720D01*
X16262860Y-5822720D02*
G75*
G03*
X16237860Y-5822720I-12500J0D01*
G01*
X16237860Y-5912720D02*
G75*
G03*
X16262860Y-5912720I12500J0D01*
G01*
D12*
X16792860Y-5845220D02*
X16837860Y-5890220D01*
X16837860Y-5845220D02*
X16792860Y-5890220D01*
D11*
X16827860Y-5912720D02*
X16827860Y-5822720D01*
X16802860Y-5912720D02*
X16802860Y-5822720D01*
X16827860Y-5822720D02*
G75*
G03*
X16802860Y-5822720I-12500J0D01*
G01*
X16802860Y-5912720D02*
G75*
G03*
X16827860Y-5912720I12500J0D01*
G01*
D13*
X12724580Y-10137140D02*
G75*
G03*
X12724580Y-10137140I-57600J0D01*
G01*
X17136560Y-5867400D02*
G75*
G03*
X17136560Y-5867400I-57600J0D01*
G01*
X20819560Y-10137140D02*
G75*
G03*
X20819560Y-10137140I-57600J0D01*
G01*
D14*
X12415520Y-5854174D02*
X12415520Y-6074174D01*
X12305520Y-5964174D02*
X12525520Y-5964174D01*
X12415520Y-10278346D02*
X12415520Y-10498346D01*
X12305520Y-10388346D02*
X12525520Y-10388346D01*
X21013166Y-5854174D02*
X21013166Y-6074174D01*
X20903166Y-5964174D02*
X21123166Y-5964174D01*
X21013166Y-10278346D02*
X21013166Y-10498346D01*
X20903166Y-10388346D02*
X21123166Y-10388346D01*
D11*
X12368419Y-11003796D02*
X12368419Y-10803796D01*
X12416038Y-10803796D01*
X12444609Y-10813320D01*
X12463657Y-10832368D01*
X12473181Y-10851415D01*
X12482705Y-10889510D01*
X12482705Y-10918082D01*
X12473181Y-10956177D01*
X12463657Y-10975225D01*
X12444609Y-10994272D01*
X12416038Y-11003796D01*
X12368419Y-11003796D01*
X12568419Y-11003796D02*
X12568419Y-10870463D01*
X12568419Y-10908558D02*
X12577943Y-10889510D01*
X12587467Y-10879987D01*
X12606514Y-10870463D01*
X12625562Y-10870463D01*
X12692228Y-11003796D02*
X12692228Y-10870463D01*
X12692228Y-10803796D02*
X12682705Y-10813320D01*
X12692228Y-10822844D01*
X12701752Y-10813320D01*
X12692228Y-10803796D01*
X12692228Y-10822844D01*
X12816038Y-11003796D02*
X12796990Y-10994272D01*
X12787467Y-10975225D01*
X12787467Y-10803796D01*
X12920800Y-11003796D02*
X12901752Y-10994272D01*
X12892228Y-10975225D01*
X12892228Y-10803796D01*
X13149371Y-11003796D02*
X13149371Y-10803796D01*
X13216038Y-10946653D01*
X13282705Y-10803796D01*
X13282705Y-11003796D01*
X13463657Y-11003796D02*
X13463657Y-10899034D01*
X13454133Y-10879987D01*
X13435086Y-10870463D01*
X13396990Y-10870463D01*
X13377943Y-10879987D01*
X13463657Y-10994272D02*
X13444609Y-11003796D01*
X13396990Y-11003796D01*
X13377943Y-10994272D01*
X13368419Y-10975225D01*
X13368419Y-10956177D01*
X13377943Y-10937130D01*
X13396990Y-10927606D01*
X13444609Y-10927606D01*
X13463657Y-10918082D01*
X13558895Y-10870463D02*
X13558895Y-11070463D01*
X13558895Y-10879987D02*
X13577943Y-10870463D01*
X13616038Y-10870463D01*
X13635086Y-10879987D01*
X13644609Y-10889510D01*
X13654133Y-10908558D01*
X13654133Y-10965701D01*
X13644609Y-10984749D01*
X13635086Y-10994272D01*
X13616038Y-11003796D01*
X13577943Y-11003796D01*
X13558895Y-10994272D01*
X13739848Y-10984749D02*
X13749371Y-10994272D01*
X13739848Y-11003796D01*
X13730324Y-10994272D01*
X13739848Y-10984749D01*
X13739848Y-11003796D01*
X13739848Y-10879987D02*
X13749371Y-10889510D01*
X13739848Y-10899034D01*
X13730324Y-10889510D01*
X13739848Y-10879987D01*
X13739848Y-10899034D01*
D12*
X12065800Y-11310820D02*
X12110800Y-11355820D01*
X12110800Y-11310820D02*
X12065800Y-11355820D01*
D11*
X12406514Y-11223796D02*
X12425562Y-11223796D01*
X12444609Y-11233320D01*
X12454133Y-11242844D01*
X12463657Y-11261891D01*
X12473181Y-11299987D01*
X12473181Y-11347606D01*
X12463657Y-11385701D01*
X12454133Y-11404748D01*
X12444609Y-11414272D01*
X12425562Y-11423796D01*
X12406514Y-11423796D01*
X12387467Y-11414272D01*
X12377943Y-11404748D01*
X12368419Y-11385701D01*
X12358895Y-11347606D01*
X12358895Y-11299987D01*
X12368419Y-11261891D01*
X12377943Y-11242844D01*
X12387467Y-11233320D01*
X12406514Y-11223796D01*
X12558895Y-11404748D02*
X12568419Y-11414272D01*
X12558895Y-11423796D01*
X12549371Y-11414272D01*
X12558895Y-11404748D01*
X12558895Y-11423796D01*
X12739848Y-11290463D02*
X12739848Y-11423796D01*
X12692228Y-11214272D02*
X12644609Y-11357129D01*
X12768419Y-11357129D01*
X12939848Y-11223796D02*
X12844609Y-11223796D01*
X12835086Y-11319034D01*
X12844609Y-11309510D01*
X12863657Y-11299987D01*
X12911276Y-11299987D01*
X12930324Y-11309510D01*
X12939848Y-11319034D01*
X12949371Y-11338082D01*
X12949371Y-11385701D01*
X12939848Y-11404748D01*
X12930324Y-11414272D01*
X12911276Y-11423796D01*
X12863657Y-11423796D01*
X12844609Y-11414272D01*
X12835086Y-11404748D01*
X13073181Y-11223796D02*
X13092228Y-11223796D01*
X13111276Y-11233320D01*
X13120800Y-11242844D01*
X13130324Y-11261891D01*
X13139848Y-11299987D01*
X13139848Y-11347606D01*
X13130324Y-11385701D01*
X13120800Y-11404748D01*
X13111276Y-11414272D01*
X13092228Y-11423796D01*
X13073181Y-11423796D01*
X13054133Y-11414272D01*
X13044609Y-11404748D01*
X13035086Y-11385701D01*
X13025562Y-11347606D01*
X13025562Y-11299987D01*
X13035086Y-11261891D01*
X13044609Y-11242844D01*
X13054133Y-11233320D01*
X13073181Y-11223796D01*
X13225562Y-11423796D02*
X13225562Y-11290463D01*
X13225562Y-11309510D02*
X13235086Y-11299987D01*
X13254133Y-11290463D01*
X13282705Y-11290463D01*
X13301752Y-11299987D01*
X13311276Y-11319034D01*
X13311276Y-11423796D01*
X13311276Y-11319034D02*
X13320800Y-11299987D01*
X13339848Y-11290463D01*
X13368419Y-11290463D01*
X13387467Y-11299987D01*
X13396990Y-11319034D01*
X13396990Y-11423796D01*
X13492228Y-11423796D02*
X13492228Y-11290463D01*
X13492228Y-11309510D02*
X13501752Y-11299987D01*
X13520800Y-11290463D01*
X13549371Y-11290463D01*
X13568419Y-11299987D01*
X13577943Y-11319034D01*
X13577943Y-11423796D01*
X13577943Y-11319034D02*
X13587467Y-11299987D01*
X13606514Y-11290463D01*
X13635086Y-11290463D01*
X13654133Y-11299987D01*
X13663657Y-11319034D01*
X13663657Y-11423796D01*
X14054133Y-11214272D02*
X13882705Y-11471415D01*
X14311276Y-11223796D02*
X14330324Y-11223796D01*
X14349371Y-11233320D01*
X14358895Y-11242844D01*
X14368419Y-11261891D01*
X14377943Y-11299987D01*
X14377943Y-11347606D01*
X14368419Y-11385701D01*
X14358895Y-11404748D01*
X14349371Y-11414272D01*
X14330324Y-11423796D01*
X14311276Y-11423796D01*
X14292228Y-11414272D01*
X14282705Y-11404748D01*
X14273181Y-11385701D01*
X14263657Y-11347606D01*
X14263657Y-11299987D01*
X14273181Y-11261891D01*
X14282705Y-11242844D01*
X14292228Y-11233320D01*
X14311276Y-11223796D01*
X14463657Y-11404748D02*
X14473181Y-11414272D01*
X14463657Y-11423796D01*
X14454133Y-11414272D01*
X14463657Y-11404748D01*
X14463657Y-11423796D01*
X14596990Y-11223796D02*
X14616038Y-11223796D01*
X14635086Y-11233320D01*
X14644609Y-11242844D01*
X14654133Y-11261891D01*
X14663657Y-11299987D01*
X14663657Y-11347606D01*
X14654133Y-11385701D01*
X14644609Y-11404748D01*
X14635086Y-11414272D01*
X14616038Y-11423796D01*
X14596990Y-11423796D01*
X14577943Y-11414272D01*
X14568419Y-11404748D01*
X14558895Y-11385701D01*
X14549371Y-11347606D01*
X14549371Y-11299987D01*
X14558895Y-11261891D01*
X14568419Y-11242844D01*
X14577943Y-11233320D01*
X14596990Y-11223796D01*
X14854133Y-11423796D02*
X14739848Y-11423796D01*
X14796990Y-11423796D02*
X14796990Y-11223796D01*
X14777943Y-11252368D01*
X14758895Y-11271415D01*
X14739848Y-11280939D01*
X14920800Y-11223796D02*
X15054133Y-11223796D01*
X14968419Y-11423796D01*
X15111276Y-11223796D02*
X15244609Y-11223796D01*
X15158895Y-11423796D01*
X15311276Y-11223796D02*
X15311276Y-11261891D01*
X15387467Y-11223796D02*
X15387467Y-11261891D01*
X15682705Y-11499987D02*
X15673181Y-11490463D01*
X15654133Y-11461891D01*
X15644609Y-11442844D01*
X15635086Y-11414272D01*
X15625562Y-11366653D01*
X15625562Y-11328558D01*
X15635086Y-11280939D01*
X15644609Y-11252368D01*
X15654133Y-11233320D01*
X15673181Y-11204748D01*
X15682705Y-11195225D01*
X15796990Y-11223796D02*
X15816038Y-11223796D01*
X15835086Y-11233320D01*
X15844609Y-11242844D01*
X15854133Y-11261891D01*
X15863657Y-11299987D01*
X15863657Y-11347606D01*
X15854133Y-11385701D01*
X15844609Y-11404748D01*
X15835086Y-11414272D01*
X15816038Y-11423796D01*
X15796990Y-11423796D01*
X15777943Y-11414272D01*
X15768419Y-11404748D01*
X15758895Y-11385701D01*
X15749371Y-11347606D01*
X15749371Y-11299987D01*
X15758895Y-11261891D01*
X15768419Y-11242844D01*
X15777943Y-11233320D01*
X15796990Y-11223796D01*
X16101752Y-11423796D02*
X16101752Y-11223796D01*
X16187467Y-11423796D02*
X16187467Y-11319034D01*
X16177943Y-11299987D01*
X16158895Y-11290463D01*
X16130324Y-11290463D01*
X16111276Y-11299987D01*
X16101752Y-11309510D01*
X16311276Y-11423796D02*
X16292228Y-11414272D01*
X16282705Y-11404748D01*
X16273181Y-11385701D01*
X16273181Y-11328558D01*
X16282705Y-11309510D01*
X16292228Y-11299987D01*
X16311276Y-11290463D01*
X16339848Y-11290463D01*
X16358895Y-11299987D01*
X16368419Y-11309510D01*
X16377943Y-11328558D01*
X16377943Y-11385701D01*
X16368419Y-11404748D01*
X16358895Y-11414272D01*
X16339848Y-11423796D01*
X16311276Y-11423796D01*
X16492228Y-11423796D02*
X16473181Y-11414272D01*
X16463657Y-11395225D01*
X16463657Y-11223796D01*
X16644609Y-11414272D02*
X16625562Y-11423796D01*
X16587467Y-11423796D01*
X16568419Y-11414272D01*
X16558895Y-11395225D01*
X16558895Y-11319034D01*
X16568419Y-11299987D01*
X16587467Y-11290463D01*
X16625562Y-11290463D01*
X16644609Y-11299987D01*
X16654133Y-11319034D01*
X16654133Y-11338082D01*
X16558895Y-11357129D01*
X16730324Y-11414272D02*
X16749371Y-11423796D01*
X16787467Y-11423796D01*
X16806514Y-11414272D01*
X16816038Y-11395225D01*
X16816038Y-11385701D01*
X16806514Y-11366653D01*
X16787467Y-11357129D01*
X16758895Y-11357129D01*
X16739848Y-11347606D01*
X16730324Y-11328558D01*
X16730324Y-11319034D01*
X16739848Y-11299987D01*
X16758895Y-11290463D01*
X16787467Y-11290463D01*
X16806514Y-11299987D01*
X17054133Y-11347606D02*
X17206514Y-11347606D01*
X17130324Y-11423796D02*
X17130324Y-11271415D01*
X17444610Y-11242844D02*
X17454133Y-11233320D01*
X17473181Y-11223796D01*
X17520800Y-11223796D01*
X17539848Y-11233320D01*
X17549371Y-11242844D01*
X17558895Y-11261891D01*
X17558895Y-11280939D01*
X17549371Y-11309510D01*
X17435086Y-11423796D01*
X17558895Y-11423796D01*
X17787467Y-11414272D02*
X17806514Y-11423796D01*
X17844610Y-11423796D01*
X17863657Y-11414272D01*
X17873181Y-11395225D01*
X17873181Y-11385701D01*
X17863657Y-11366653D01*
X17844610Y-11357129D01*
X17816038Y-11357129D01*
X17796990Y-11347606D01*
X17787467Y-11328558D01*
X17787467Y-11319034D01*
X17796990Y-11299987D01*
X17816038Y-11290463D01*
X17844610Y-11290463D01*
X17863657Y-11299987D01*
X17987467Y-11423796D02*
X17968419Y-11414272D01*
X17958895Y-11395225D01*
X17958895Y-11223796D01*
X18092229Y-11423796D02*
X18073181Y-11414272D01*
X18063657Y-11404748D01*
X18054133Y-11385701D01*
X18054133Y-11328558D01*
X18063657Y-11309510D01*
X18073181Y-11299987D01*
X18092229Y-11290463D01*
X18120800Y-11290463D01*
X18139848Y-11299987D01*
X18149371Y-11309510D01*
X18158895Y-11328558D01*
X18158895Y-11385701D01*
X18149371Y-11404748D01*
X18139848Y-11414272D01*
X18120800Y-11423796D01*
X18092229Y-11423796D01*
X18216038Y-11290463D02*
X18292229Y-11290463D01*
X18244610Y-11223796D02*
X18244610Y-11395225D01*
X18254133Y-11414272D01*
X18273181Y-11423796D01*
X18292229Y-11423796D01*
X18349371Y-11414272D02*
X18368419Y-11423796D01*
X18406514Y-11423796D01*
X18425562Y-11414272D01*
X18435086Y-11395225D01*
X18435086Y-11385701D01*
X18425562Y-11366653D01*
X18406514Y-11357129D01*
X18377943Y-11357129D01*
X18358895Y-11347606D01*
X18349371Y-11328558D01*
X18349371Y-11319034D01*
X18358895Y-11299987D01*
X18377943Y-11290463D01*
X18406514Y-11290463D01*
X18425562Y-11299987D01*
X18501752Y-11499987D02*
X18511276Y-11490463D01*
X18530324Y-11461891D01*
X18539848Y-11442844D01*
X18549371Y-11414272D01*
X18558895Y-11366653D01*
X18558895Y-11328558D01*
X18549371Y-11280939D01*
X18539848Y-11252368D01*
X18530324Y-11233320D01*
X18511276Y-11204748D01*
X18501752Y-11195225D01*
X18863657Y-11499987D02*
X18854133Y-11490463D01*
X18835086Y-11461891D01*
X18825562Y-11442844D01*
X18816038Y-11414272D01*
X18806514Y-11366653D01*
X18806514Y-11328558D01*
X18816038Y-11280939D01*
X18825562Y-11252368D01*
X18835086Y-11233320D01*
X18854133Y-11204748D01*
X18863657Y-11195225D01*
X18939848Y-11290463D02*
X18939848Y-11423796D01*
X18939848Y-11309510D02*
X18949371Y-11299987D01*
X18968419Y-11290463D01*
X18996990Y-11290463D01*
X19016038Y-11299987D01*
X19025562Y-11319034D01*
X19025562Y-11423796D01*
X19149371Y-11423796D02*
X19130324Y-11414272D01*
X19120800Y-11404748D01*
X19111276Y-11385701D01*
X19111276Y-11328558D01*
X19120800Y-11309510D01*
X19130324Y-11299987D01*
X19149371Y-11290463D01*
X19177943Y-11290463D01*
X19196990Y-11299987D01*
X19206514Y-11309510D01*
X19216038Y-11328558D01*
X19216038Y-11385701D01*
X19206514Y-11404748D01*
X19196990Y-11414272D01*
X19177943Y-11423796D01*
X19149371Y-11423796D01*
X19273181Y-11290463D02*
X19349371Y-11290463D01*
X19301752Y-11223796D02*
X19301752Y-11395225D01*
X19311276Y-11414272D01*
X19330324Y-11423796D01*
X19349371Y-11423796D01*
X19568419Y-11290463D02*
X19568419Y-11490463D01*
X19568419Y-11299987D02*
X19587467Y-11290463D01*
X19625562Y-11290463D01*
X19644610Y-11299987D01*
X19654133Y-11309510D01*
X19663657Y-11328558D01*
X19663657Y-11385701D01*
X19654133Y-11404748D01*
X19644610Y-11414272D01*
X19625562Y-11423796D01*
X19587467Y-11423796D01*
X19568419Y-11414272D01*
X19777943Y-11423796D02*
X19758895Y-11414272D01*
X19749371Y-11395225D01*
X19749371Y-11223796D01*
X19939848Y-11423796D02*
X19939848Y-11319034D01*
X19930324Y-11299987D01*
X19911276Y-11290463D01*
X19873181Y-11290463D01*
X19854133Y-11299987D01*
X19939848Y-11414272D02*
X19920800Y-11423796D01*
X19873181Y-11423796D01*
X19854133Y-11414272D01*
X19844610Y-11395225D01*
X19844610Y-11376177D01*
X19854133Y-11357129D01*
X19873181Y-11347606D01*
X19920800Y-11347606D01*
X19939848Y-11338082D01*
X20006514Y-11290463D02*
X20082705Y-11290463D01*
X20035086Y-11223796D02*
X20035086Y-11395225D01*
X20044610Y-11414272D01*
X20063657Y-11423796D01*
X20082705Y-11423796D01*
X20225562Y-11414272D02*
X20206514Y-11423796D01*
X20168419Y-11423796D01*
X20149371Y-11414272D01*
X20139848Y-11395225D01*
X20139848Y-11319034D01*
X20149371Y-11299987D01*
X20168419Y-11290463D01*
X20206514Y-11290463D01*
X20225562Y-11299987D01*
X20235086Y-11319034D01*
X20235086Y-11338082D01*
X20139848Y-11357129D01*
X20406514Y-11423796D02*
X20406514Y-11223796D01*
X20406514Y-11414272D02*
X20387467Y-11423796D01*
X20349371Y-11423796D01*
X20330324Y-11414272D01*
X20320800Y-11404748D01*
X20311276Y-11385701D01*
X20311276Y-11328558D01*
X20320800Y-11309510D01*
X20330324Y-11299987D01*
X20349371Y-11290463D01*
X20387467Y-11290463D01*
X20406514Y-11299987D01*
X20482705Y-11499987D02*
X20492229Y-11490463D01*
X20511276Y-11461891D01*
X20520800Y-11442844D01*
X20530324Y-11414272D01*
X20539848Y-11366653D01*
X20539848Y-11328558D01*
X20530324Y-11280939D01*
X20520800Y-11252368D01*
X20511276Y-11233320D01*
X20492229Y-11204748D01*
X20482705Y-11195225D01*
D13*
X12110800Y-11597320D02*
G75*
G03*
X12110800Y-11597320I-57600J0D01*
G01*
D11*
X12473181Y-11687796D02*
X12358895Y-11687796D01*
X12416038Y-11687796D02*
X12416038Y-11487796D01*
X12396990Y-11516368D01*
X12377943Y-11535415D01*
X12358895Y-11544939D01*
X12558895Y-11668748D02*
X12568419Y-11678272D01*
X12558895Y-11687796D01*
X12549371Y-11678272D01*
X12558895Y-11668748D01*
X12558895Y-11687796D01*
X12758895Y-11687796D02*
X12644609Y-11687796D01*
X12701752Y-11687796D02*
X12701752Y-11487796D01*
X12682705Y-11516368D01*
X12663657Y-11535415D01*
X12644609Y-11544939D01*
X12939848Y-11487796D02*
X12844609Y-11487796D01*
X12835086Y-11583034D01*
X12844609Y-11573510D01*
X12863657Y-11563987D01*
X12911276Y-11563987D01*
X12930324Y-11573510D01*
X12939848Y-11583034D01*
X12949371Y-11602082D01*
X12949371Y-11649701D01*
X12939848Y-11668748D01*
X12930324Y-11678272D01*
X12911276Y-11687796D01*
X12863657Y-11687796D01*
X12844609Y-11678272D01*
X12835086Y-11668748D01*
X13025562Y-11506844D02*
X13035086Y-11497320D01*
X13054133Y-11487796D01*
X13101752Y-11487796D01*
X13120800Y-11497320D01*
X13130324Y-11506844D01*
X13139848Y-11525891D01*
X13139848Y-11544939D01*
X13130324Y-11573510D01*
X13016038Y-11687796D01*
X13139848Y-11687796D01*
X13225562Y-11687796D02*
X13225562Y-11554463D01*
X13225562Y-11573510D02*
X13235086Y-11563987D01*
X13254133Y-11554463D01*
X13282705Y-11554463D01*
X13301752Y-11563987D01*
X13311276Y-11583034D01*
X13311276Y-11687796D01*
X13311276Y-11583034D02*
X13320800Y-11563987D01*
X13339848Y-11554463D01*
X13368419Y-11554463D01*
X13387467Y-11563987D01*
X13396990Y-11583034D01*
X13396990Y-11687796D01*
X13492228Y-11687796D02*
X13492228Y-11554463D01*
X13492228Y-11573510D02*
X13501752Y-11563987D01*
X13520800Y-11554463D01*
X13549371Y-11554463D01*
X13568419Y-11563987D01*
X13577943Y-11583034D01*
X13577943Y-11687796D01*
X13577943Y-11583034D02*
X13587467Y-11563987D01*
X13606514Y-11554463D01*
X13635086Y-11554463D01*
X13654133Y-11563987D01*
X13663657Y-11583034D01*
X13663657Y-11687796D01*
X14054133Y-11478272D02*
X13882705Y-11735415D01*
X14311276Y-11487796D02*
X14330324Y-11487796D01*
X14349371Y-11497320D01*
X14358895Y-11506844D01*
X14368419Y-11525891D01*
X14377943Y-11563987D01*
X14377943Y-11611606D01*
X14368419Y-11649701D01*
X14358895Y-11668748D01*
X14349371Y-11678272D01*
X14330324Y-11687796D01*
X14311276Y-11687796D01*
X14292228Y-11678272D01*
X14282705Y-11668748D01*
X14273181Y-11649701D01*
X14263657Y-11611606D01*
X14263657Y-11563987D01*
X14273181Y-11525891D01*
X14282705Y-11506844D01*
X14292228Y-11497320D01*
X14311276Y-11487796D01*
X14463657Y-11668748D02*
X14473181Y-11678272D01*
X14463657Y-11687796D01*
X14454133Y-11678272D01*
X14463657Y-11668748D01*
X14463657Y-11687796D01*
X14596990Y-11487796D02*
X14616038Y-11487796D01*
X14635086Y-11497320D01*
X14644609Y-11506844D01*
X14654133Y-11525891D01*
X14663657Y-11563987D01*
X14663657Y-11611606D01*
X14654133Y-11649701D01*
X14644609Y-11668748D01*
X14635086Y-11678272D01*
X14616038Y-11687796D01*
X14596990Y-11687796D01*
X14577943Y-11678272D01*
X14568419Y-11668748D01*
X14558895Y-11649701D01*
X14549371Y-11611606D01*
X14549371Y-11563987D01*
X14558895Y-11525891D01*
X14568419Y-11506844D01*
X14577943Y-11497320D01*
X14596990Y-11487796D01*
X14835086Y-11554463D02*
X14835086Y-11687796D01*
X14787467Y-11478272D02*
X14739848Y-11621129D01*
X14863657Y-11621129D01*
X15035086Y-11487796D02*
X14939848Y-11487796D01*
X14930324Y-11583034D01*
X14939848Y-11573510D01*
X14958895Y-11563987D01*
X15006514Y-11563987D01*
X15025562Y-11573510D01*
X15035086Y-11583034D01*
X15044609Y-11602082D01*
X15044609Y-11649701D01*
X15035086Y-11668748D01*
X15025562Y-11678272D01*
X15006514Y-11687796D01*
X14958895Y-11687796D01*
X14939848Y-11678272D01*
X14930324Y-11668748D01*
X15216038Y-11554463D02*
X15216038Y-11687796D01*
X15168419Y-11478272D02*
X15120800Y-11621129D01*
X15244609Y-11621129D01*
X15311276Y-11487796D02*
X15311276Y-11525891D01*
X15387467Y-11487796D02*
X15387467Y-11525891D01*
X15682705Y-11763987D02*
X15673181Y-11754463D01*
X15654133Y-11725891D01*
X15644609Y-11706844D01*
X15635086Y-11678272D01*
X15625562Y-11630653D01*
X15625562Y-11592558D01*
X15635086Y-11544939D01*
X15644609Y-11516368D01*
X15654133Y-11497320D01*
X15673181Y-11468748D01*
X15682705Y-11459225D01*
X15739848Y-11487796D02*
X15863657Y-11487796D01*
X15796990Y-11563987D01*
X15825562Y-11563987D01*
X15844609Y-11573510D01*
X15854133Y-11583034D01*
X15863657Y-11602082D01*
X15863657Y-11649701D01*
X15854133Y-11668748D01*
X15844609Y-11678272D01*
X15825562Y-11687796D01*
X15768419Y-11687796D01*
X15749371Y-11678272D01*
X15739848Y-11668748D01*
X16101752Y-11687796D02*
X16101752Y-11487796D01*
X16187467Y-11687796D02*
X16187467Y-11583034D01*
X16177943Y-11563987D01*
X16158895Y-11554463D01*
X16130324Y-11554463D01*
X16111276Y-11563987D01*
X16101752Y-11573510D01*
X16311276Y-11687796D02*
X16292228Y-11678272D01*
X16282705Y-11668748D01*
X16273181Y-11649701D01*
X16273181Y-11592558D01*
X16282705Y-11573510D01*
X16292228Y-11563987D01*
X16311276Y-11554463D01*
X16339848Y-11554463D01*
X16358895Y-11563987D01*
X16368419Y-11573510D01*
X16377943Y-11592558D01*
X16377943Y-11649701D01*
X16368419Y-11668748D01*
X16358895Y-11678272D01*
X16339848Y-11687796D01*
X16311276Y-11687796D01*
X16492228Y-11687796D02*
X16473181Y-11678272D01*
X16463657Y-11659225D01*
X16463657Y-11487796D01*
X16644609Y-11678272D02*
X16625562Y-11687796D01*
X16587467Y-11687796D01*
X16568419Y-11678272D01*
X16558895Y-11659225D01*
X16558895Y-11583034D01*
X16568419Y-11563987D01*
X16587467Y-11554463D01*
X16625562Y-11554463D01*
X16644609Y-11563987D01*
X16654133Y-11583034D01*
X16654133Y-11602082D01*
X16558895Y-11621129D01*
X16730324Y-11678272D02*
X16749371Y-11687796D01*
X16787467Y-11687796D01*
X16806514Y-11678272D01*
X16816038Y-11659225D01*
X16816038Y-11649701D01*
X16806514Y-11630653D01*
X16787467Y-11621129D01*
X16758895Y-11621129D01*
X16739848Y-11611606D01*
X16730324Y-11592558D01*
X16730324Y-11583034D01*
X16739848Y-11563987D01*
X16758895Y-11554463D01*
X16787467Y-11554463D01*
X16806514Y-11563987D01*
X16882705Y-11763987D02*
X16892229Y-11754463D01*
X16911276Y-11725891D01*
X16920800Y-11706844D01*
X16930324Y-11678272D01*
X16939848Y-11630653D01*
X16939848Y-11592558D01*
X16930324Y-11544939D01*
X16920800Y-11516368D01*
X16911276Y-11497320D01*
X16892229Y-11468748D01*
X16882705Y-11459225D01*
X17244610Y-11763987D02*
X17235086Y-11754463D01*
X17216038Y-11725891D01*
X17206514Y-11706844D01*
X17196990Y-11678272D01*
X17187467Y-11630653D01*
X17187467Y-11592558D01*
X17196990Y-11544939D01*
X17206514Y-11516368D01*
X17216038Y-11497320D01*
X17235086Y-11468748D01*
X17244610Y-11459225D01*
X17320800Y-11554463D02*
X17320800Y-11687796D01*
X17320800Y-11573510D02*
X17330324Y-11563987D01*
X17349371Y-11554463D01*
X17377943Y-11554463D01*
X17396990Y-11563987D01*
X17406514Y-11583034D01*
X17406514Y-11687796D01*
X17530324Y-11687796D02*
X17511276Y-11678272D01*
X17501752Y-11668748D01*
X17492229Y-11649701D01*
X17492229Y-11592558D01*
X17501752Y-11573510D01*
X17511276Y-11563987D01*
X17530324Y-11554463D01*
X17558895Y-11554463D01*
X17577943Y-11563987D01*
X17587467Y-11573510D01*
X17596990Y-11592558D01*
X17596990Y-11649701D01*
X17587467Y-11668748D01*
X17577943Y-11678272D01*
X17558895Y-11687796D01*
X17530324Y-11687796D01*
X17654133Y-11554463D02*
X17730324Y-11554463D01*
X17682705Y-11487796D02*
X17682705Y-11659225D01*
X17692229Y-11678272D01*
X17711276Y-11687796D01*
X17730324Y-11687796D01*
X17949371Y-11554463D02*
X17949371Y-11754463D01*
X17949371Y-11563987D02*
X17968419Y-11554463D01*
X18006514Y-11554463D01*
X18025562Y-11563987D01*
X18035086Y-11573510D01*
X18044610Y-11592558D01*
X18044610Y-11649701D01*
X18035086Y-11668748D01*
X18025562Y-11678272D01*
X18006514Y-11687796D01*
X17968419Y-11687796D01*
X17949371Y-11678272D01*
X18158895Y-11687796D02*
X18139848Y-11678272D01*
X18130324Y-11659225D01*
X18130324Y-11487796D01*
X18320800Y-11687796D02*
X18320800Y-11583034D01*
X18311276Y-11563987D01*
X18292229Y-11554463D01*
X18254133Y-11554463D01*
X18235086Y-11563987D01*
X18320800Y-11678272D02*
X18301752Y-11687796D01*
X18254133Y-11687796D01*
X18235086Y-11678272D01*
X18225562Y-11659225D01*
X18225562Y-11640177D01*
X18235086Y-11621129D01*
X18254133Y-11611606D01*
X18301752Y-11611606D01*
X18320800Y-11602082D01*
X18387467Y-11554463D02*
X18463657Y-11554463D01*
X18416038Y-11487796D02*
X18416038Y-11659225D01*
X18425562Y-11678272D01*
X18444610Y-11687796D01*
X18463657Y-11687796D01*
X18606514Y-11678272D02*
X18587467Y-11687796D01*
X18549371Y-11687796D01*
X18530324Y-11678272D01*
X18520800Y-11659225D01*
X18520800Y-11583034D01*
X18530324Y-11563987D01*
X18549371Y-11554463D01*
X18587467Y-11554463D01*
X18606514Y-11563987D01*
X18616038Y-11583034D01*
X18616038Y-11602082D01*
X18520800Y-11621129D01*
X18787467Y-11687796D02*
X18787467Y-11487796D01*
X18787467Y-11678272D02*
X18768419Y-11687796D01*
X18730324Y-11687796D01*
X18711276Y-11678272D01*
X18701752Y-11668748D01*
X18692229Y-11649701D01*
X18692229Y-11592558D01*
X18701752Y-11573510D01*
X18711276Y-11563987D01*
X18730324Y-11554463D01*
X18768419Y-11554463D01*
X18787467Y-11563987D01*
X18863657Y-11763987D02*
X18873181Y-11754463D01*
X18892229Y-11725891D01*
X18901752Y-11706844D01*
X18911276Y-11678272D01*
X18920800Y-11630653D01*
X18920800Y-11592558D01*
X18911276Y-11544939D01*
X18901752Y-11516368D01*
X18892229Y-11497320D01*
X18873181Y-11468748D01*
X18863657Y-11459225D01*
X12010800Y-11761320D02*
X12010800Y-11961320D01*
X11910800Y-11861320D02*
X12110800Y-11861320D01*
X12358895Y-11770844D02*
X12368419Y-11761320D01*
X12387467Y-11751796D01*
X12435086Y-11751796D01*
X12454133Y-11761320D01*
X12463657Y-11770844D01*
X12473181Y-11789891D01*
X12473181Y-11808939D01*
X12463657Y-11837510D01*
X12349371Y-11951796D01*
X12473181Y-11951796D01*
X12558895Y-11932748D02*
X12568419Y-11942272D01*
X12558895Y-11951796D01*
X12549371Y-11942272D01*
X12558895Y-11932748D01*
X12558895Y-11951796D01*
X12644609Y-11770844D02*
X12654133Y-11761320D01*
X12673181Y-11751796D01*
X12720800Y-11751796D01*
X12739848Y-11761320D01*
X12749371Y-11770844D01*
X12758895Y-11789891D01*
X12758895Y-11808939D01*
X12749371Y-11837510D01*
X12635086Y-11951796D01*
X12758895Y-11951796D01*
X12882705Y-11751796D02*
X12901752Y-11751796D01*
X12920800Y-11761320D01*
X12930324Y-11770844D01*
X12939848Y-11789891D01*
X12949371Y-11827987D01*
X12949371Y-11875606D01*
X12939848Y-11913701D01*
X12930324Y-11932748D01*
X12920800Y-11942272D01*
X12901752Y-11951796D01*
X12882705Y-11951796D01*
X12863657Y-11942272D01*
X12854133Y-11932748D01*
X12844609Y-11913701D01*
X12835086Y-11875606D01*
X12835086Y-11827987D01*
X12844609Y-11789891D01*
X12854133Y-11770844D01*
X12863657Y-11761320D01*
X12882705Y-11751796D01*
X13073181Y-11751796D02*
X13092228Y-11751796D01*
X13111276Y-11761320D01*
X13120800Y-11770844D01*
X13130324Y-11789891D01*
X13139848Y-11827987D01*
X13139848Y-11875606D01*
X13130324Y-11913701D01*
X13120800Y-11932748D01*
X13111276Y-11942272D01*
X13092228Y-11951796D01*
X13073181Y-11951796D01*
X13054133Y-11942272D01*
X13044609Y-11932748D01*
X13035086Y-11913701D01*
X13025562Y-11875606D01*
X13025562Y-11827987D01*
X13035086Y-11789891D01*
X13044609Y-11770844D01*
X13054133Y-11761320D01*
X13073181Y-11751796D01*
X13225562Y-11951796D02*
X13225562Y-11818463D01*
X13225562Y-11837510D02*
X13235086Y-11827987D01*
X13254133Y-11818463D01*
X13282705Y-11818463D01*
X13301752Y-11827987D01*
X13311276Y-11847034D01*
X13311276Y-11951796D01*
X13311276Y-11847034D02*
X13320800Y-11827987D01*
X13339848Y-11818463D01*
X13368419Y-11818463D01*
X13387467Y-11827987D01*
X13396990Y-11847034D01*
X13396990Y-11951796D01*
X13492228Y-11951796D02*
X13492228Y-11818463D01*
X13492228Y-11837510D02*
X13501752Y-11827987D01*
X13520800Y-11818463D01*
X13549371Y-11818463D01*
X13568419Y-11827987D01*
X13577943Y-11847034D01*
X13577943Y-11951796D01*
X13577943Y-11847034D02*
X13587467Y-11827987D01*
X13606514Y-11818463D01*
X13635086Y-11818463D01*
X13654133Y-11827987D01*
X13663657Y-11847034D01*
X13663657Y-11951796D01*
X14054133Y-11742272D02*
X13882705Y-11999415D01*
X14311276Y-11751796D02*
X14330324Y-11751796D01*
X14349371Y-11761320D01*
X14358895Y-11770844D01*
X14368419Y-11789891D01*
X14377943Y-11827987D01*
X14377943Y-11875606D01*
X14368419Y-11913701D01*
X14358895Y-11932748D01*
X14349371Y-11942272D01*
X14330324Y-11951796D01*
X14311276Y-11951796D01*
X14292228Y-11942272D01*
X14282705Y-11932748D01*
X14273181Y-11913701D01*
X14263657Y-11875606D01*
X14263657Y-11827987D01*
X14273181Y-11789891D01*
X14282705Y-11770844D01*
X14292228Y-11761320D01*
X14311276Y-11751796D01*
X14463657Y-11932748D02*
X14473181Y-11942272D01*
X14463657Y-11951796D01*
X14454133Y-11942272D01*
X14463657Y-11932748D01*
X14463657Y-11951796D01*
X14596990Y-11751796D02*
X14616038Y-11751796D01*
X14635086Y-11761320D01*
X14644609Y-11770844D01*
X14654133Y-11789891D01*
X14663657Y-11827987D01*
X14663657Y-11875606D01*
X14654133Y-11913701D01*
X14644609Y-11932748D01*
X14635086Y-11942272D01*
X14616038Y-11951796D01*
X14596990Y-11951796D01*
X14577943Y-11942272D01*
X14568419Y-11932748D01*
X14558895Y-11913701D01*
X14549371Y-11875606D01*
X14549371Y-11827987D01*
X14558895Y-11789891D01*
X14568419Y-11770844D01*
X14577943Y-11761320D01*
X14596990Y-11751796D01*
X14777943Y-11837510D02*
X14758895Y-11827987D01*
X14749371Y-11818463D01*
X14739848Y-11799415D01*
X14739848Y-11789891D01*
X14749371Y-11770844D01*
X14758895Y-11761320D01*
X14777943Y-11751796D01*
X14816038Y-11751796D01*
X14835086Y-11761320D01*
X14844609Y-11770844D01*
X14854133Y-11789891D01*
X14854133Y-11799415D01*
X14844609Y-11818463D01*
X14835086Y-11827987D01*
X14816038Y-11837510D01*
X14777943Y-11837510D01*
X14758895Y-11847034D01*
X14749371Y-11856558D01*
X14739848Y-11875606D01*
X14739848Y-11913701D01*
X14749371Y-11932748D01*
X14758895Y-11942272D01*
X14777943Y-11951796D01*
X14816038Y-11951796D01*
X14835086Y-11942272D01*
X14844609Y-11932748D01*
X14854133Y-11913701D01*
X14854133Y-11875606D01*
X14844609Y-11856558D01*
X14835086Y-11847034D01*
X14816038Y-11837510D01*
X15025562Y-11751796D02*
X14987467Y-11751796D01*
X14968419Y-11761320D01*
X14958895Y-11770844D01*
X14939848Y-11799415D01*
X14930324Y-11837510D01*
X14930324Y-11913701D01*
X14939848Y-11932748D01*
X14949371Y-11942272D01*
X14968419Y-11951796D01*
X15006514Y-11951796D01*
X15025562Y-11942272D01*
X15035086Y-11932748D01*
X15044609Y-11913701D01*
X15044609Y-11866082D01*
X15035086Y-11847034D01*
X15025562Y-11837510D01*
X15006514Y-11827987D01*
X14968419Y-11827987D01*
X14949371Y-11837510D01*
X14939848Y-11847034D01*
X14930324Y-11866082D01*
X15216038Y-11751796D02*
X15177943Y-11751796D01*
X15158895Y-11761320D01*
X15149371Y-11770844D01*
X15130324Y-11799415D01*
X15120800Y-11837510D01*
X15120800Y-11913701D01*
X15130324Y-11932748D01*
X15139848Y-11942272D01*
X15158895Y-11951796D01*
X15196990Y-11951796D01*
X15216038Y-11942272D01*
X15225562Y-11932748D01*
X15235086Y-11913701D01*
X15235086Y-11866082D01*
X15225562Y-11847034D01*
X15216038Y-11837510D01*
X15196990Y-11827987D01*
X15158895Y-11827987D01*
X15139848Y-11837510D01*
X15130324Y-11847034D01*
X15120800Y-11866082D01*
X15311276Y-11751796D02*
X15311276Y-11789891D01*
X15387467Y-11751796D02*
X15387467Y-11789891D01*
X15682705Y-12027987D02*
X15673181Y-12018463D01*
X15654133Y-11989891D01*
X15644609Y-11970844D01*
X15635086Y-11942272D01*
X15625562Y-11894653D01*
X15625562Y-11856558D01*
X15635086Y-11808939D01*
X15644609Y-11780368D01*
X15654133Y-11761320D01*
X15673181Y-11732748D01*
X15682705Y-11723225D01*
X15844609Y-11818463D02*
X15844609Y-11951796D01*
X15796990Y-11742272D02*
X15749371Y-11885129D01*
X15873181Y-11885129D01*
X16101752Y-11951796D02*
X16101752Y-11751796D01*
X16187467Y-11951796D02*
X16187467Y-11847034D01*
X16177943Y-11827987D01*
X16158895Y-11818463D01*
X16130324Y-11818463D01*
X16111276Y-11827987D01*
X16101752Y-11837510D01*
X16311276Y-11951796D02*
X16292228Y-11942272D01*
X16282705Y-11932748D01*
X16273181Y-11913701D01*
X16273181Y-11856558D01*
X16282705Y-11837510D01*
X16292228Y-11827987D01*
X16311276Y-11818463D01*
X16339848Y-11818463D01*
X16358895Y-11827987D01*
X16368419Y-11837510D01*
X16377943Y-11856558D01*
X16377943Y-11913701D01*
X16368419Y-11932748D01*
X16358895Y-11942272D01*
X16339848Y-11951796D01*
X16311276Y-11951796D01*
X16492228Y-11951796D02*
X16473181Y-11942272D01*
X16463657Y-11923225D01*
X16463657Y-11751796D01*
X16644609Y-11942272D02*
X16625562Y-11951796D01*
X16587467Y-11951796D01*
X16568419Y-11942272D01*
X16558895Y-11923225D01*
X16558895Y-11847034D01*
X16568419Y-11827987D01*
X16587467Y-11818463D01*
X16625562Y-11818463D01*
X16644609Y-11827987D01*
X16654133Y-11847034D01*
X16654133Y-11866082D01*
X16558895Y-11885129D01*
X16730324Y-11942272D02*
X16749371Y-11951796D01*
X16787467Y-11951796D01*
X16806514Y-11942272D01*
X16816038Y-11923225D01*
X16816038Y-11913701D01*
X16806514Y-11894653D01*
X16787467Y-11885129D01*
X16758895Y-11885129D01*
X16739848Y-11875606D01*
X16730324Y-11856558D01*
X16730324Y-11847034D01*
X16739848Y-11827987D01*
X16758895Y-11818463D01*
X16787467Y-11818463D01*
X16806514Y-11827987D01*
X16882705Y-12027987D02*
X16892229Y-12018463D01*
X16911276Y-11989891D01*
X16920800Y-11970844D01*
X16930324Y-11942272D01*
X16939848Y-11894653D01*
X16939848Y-11856558D01*
X16930324Y-11808939D01*
X16920800Y-11780368D01*
X16911276Y-11761320D01*
X16892229Y-11732748D01*
X16882705Y-11723225D01*
X17244610Y-12027987D02*
X17235086Y-12018463D01*
X17216038Y-11989891D01*
X17206514Y-11970844D01*
X17196990Y-11942272D01*
X17187467Y-11894653D01*
X17187467Y-11856558D01*
X17196990Y-11808939D01*
X17206514Y-11780368D01*
X17216038Y-11761320D01*
X17235086Y-11732748D01*
X17244610Y-11723225D01*
X17320800Y-11818463D02*
X17320800Y-11951796D01*
X17320800Y-11837510D02*
X17330324Y-11827987D01*
X17349371Y-11818463D01*
X17377943Y-11818463D01*
X17396990Y-11827987D01*
X17406514Y-11847034D01*
X17406514Y-11951796D01*
X17530324Y-11951796D02*
X17511276Y-11942272D01*
X17501752Y-11932748D01*
X17492229Y-11913701D01*
X17492229Y-11856558D01*
X17501752Y-11837510D01*
X17511276Y-11827987D01*
X17530324Y-11818463D01*
X17558895Y-11818463D01*
X17577943Y-11827987D01*
X17587467Y-11837510D01*
X17596990Y-11856558D01*
X17596990Y-11913701D01*
X17587467Y-11932748D01*
X17577943Y-11942272D01*
X17558895Y-11951796D01*
X17530324Y-11951796D01*
X17654133Y-11818463D02*
X17730324Y-11818463D01*
X17682705Y-11751796D02*
X17682705Y-11923225D01*
X17692229Y-11942272D01*
X17711276Y-11951796D01*
X17730324Y-11951796D01*
X17949371Y-11818463D02*
X17949371Y-12018463D01*
X17949371Y-11827987D02*
X17968419Y-11818463D01*
X18006514Y-11818463D01*
X18025562Y-11827987D01*
X18035086Y-11837510D01*
X18044610Y-11856558D01*
X18044610Y-11913701D01*
X18035086Y-11932748D01*
X18025562Y-11942272D01*
X18006514Y-11951796D01*
X17968419Y-11951796D01*
X17949371Y-11942272D01*
X18158895Y-11951796D02*
X18139848Y-11942272D01*
X18130324Y-11923225D01*
X18130324Y-11751796D01*
X18320800Y-11951796D02*
X18320800Y-11847034D01*
X18311276Y-11827987D01*
X18292229Y-11818463D01*
X18254133Y-11818463D01*
X18235086Y-11827987D01*
X18320800Y-11942272D02*
X18301752Y-11951796D01*
X18254133Y-11951796D01*
X18235086Y-11942272D01*
X18225562Y-11923225D01*
X18225562Y-11904177D01*
X18235086Y-11885129D01*
X18254133Y-11875606D01*
X18301752Y-11875606D01*
X18320800Y-11866082D01*
X18387467Y-11818463D02*
X18463657Y-11818463D01*
X18416038Y-11751796D02*
X18416038Y-11923225D01*
X18425562Y-11942272D01*
X18444610Y-11951796D01*
X18463657Y-11951796D01*
X18606514Y-11942272D02*
X18587467Y-11951796D01*
X18549371Y-11951796D01*
X18530324Y-11942272D01*
X18520800Y-11923225D01*
X18520800Y-11847034D01*
X18530324Y-11827987D01*
X18549371Y-11818463D01*
X18587467Y-11818463D01*
X18606514Y-11827987D01*
X18616038Y-11847034D01*
X18616038Y-11866082D01*
X18520800Y-11885129D01*
X18787467Y-11951796D02*
X18787467Y-11751796D01*
X18787467Y-11942272D02*
X18768419Y-11951796D01*
X18730324Y-11951796D01*
X18711276Y-11942272D01*
X18701752Y-11932748D01*
X18692229Y-11913701D01*
X18692229Y-11856558D01*
X18701752Y-11837510D01*
X18711276Y-11827987D01*
X18730324Y-11818463D01*
X18768419Y-11818463D01*
X18787467Y-11827987D01*
X18863657Y-12027987D02*
X18873181Y-12018463D01*
X18892229Y-11989891D01*
X18901752Y-11970844D01*
X18911276Y-11942272D01*
X18920800Y-11894653D01*
X18920800Y-11856558D01*
X18911276Y-11808939D01*
X18901752Y-11780368D01*
X18892229Y-11761320D01*
X18873181Y-11732748D01*
X18863657Y-11723225D01*
M02*
