%TF.GenerationSoftware,KiCad,Pcbnew,(6.0.0)*%
%TF.CreationDate,2023-11-18T00:08:50-03:00*%
%TF.ProjectId,LevelSensor_v2.0,4c657665-6c53-4656-9e73-6f725f76322e,rev?*%
%TF.SameCoordinates,Original*%
%TF.FileFunction,Soldermask,Bot*%
%TF.FilePolarity,Negative*%
%FSLAX46Y46*%
G04 Gerber Fmt 4.6, Leading zero omitted, Abs format (unit mm)*
G04 Created by KiCad (PCBNEW (6.0.0)) date 2023-11-18 00:08:50*
%MOMM*%
%LPD*%
G01*
G04 APERTURE LIST*
%ADD10C,1.300000*%
%ADD11C,2.200000*%
%ADD12C,2.300000*%
%ADD13R,1.700000X1.700000*%
%ADD14O,1.700000X1.700000*%
%ADD15O,0.900000X1.800000*%
%ADD16O,2.400000X1.600000*%
G04 APERTURE END LIST*
D10*
%TO.C,H7*%
X170789600Y-58674000D03*
%TD*%
%TO.C,H6*%
X207619600Y-101371400D03*
%TD*%
%TO.C,H5*%
X126669800Y-101371400D03*
%TD*%
D11*
%TO.C,H2*%
X210131660Y-59641740D03*
%TD*%
D12*
%TO.C,J2*%
X125603000Y-65405000D03*
X125603000Y-70405000D03*
%TD*%
D13*
%TO.C,J4*%
X186690000Y-104775000D03*
D14*
X189230000Y-104775000D03*
X191770000Y-104775000D03*
X194310000Y-104775000D03*
%TD*%
D13*
%TO.C,J13*%
X211074000Y-98552000D03*
D14*
X211074000Y-96012000D03*
X211074000Y-93472000D03*
X211074000Y-90932000D03*
%TD*%
D13*
%TO.C,J10*%
X138224260Y-103987600D03*
D14*
X140764260Y-103987600D03*
X143304260Y-103987600D03*
X145844260Y-103987600D03*
%TD*%
D15*
%TO.C,J3*%
X162503600Y-58677200D03*
X168153600Y-58677200D03*
%TD*%
D13*
%TO.C,J7*%
X154936000Y-72644000D03*
D14*
X154936000Y-70104000D03*
X154936000Y-67564000D03*
%TD*%
D16*
%TO.C,SW1*%
X133604000Y-61315600D03*
X133604000Y-66015600D03*
X133604000Y-70715600D03*
%TD*%
D11*
%TO.C,H4*%
X124155200Y-103883460D03*
%TD*%
%TO.C,H1*%
X124155200Y-59641740D03*
%TD*%
%TO.C,H3*%
X210131660Y-103883460D03*
%TD*%
D13*
%TO.C,J15*%
X143129000Y-97790000D03*
D14*
X140589000Y-97790000D03*
X138049000Y-97790000D03*
X135509000Y-97790000D03*
X132969000Y-97790000D03*
%TD*%
D13*
%TO.C,J1*%
X197993000Y-104775000D03*
D14*
X200533000Y-104775000D03*
X203073000Y-104775000D03*
X205613000Y-104775000D03*
%TD*%
D13*
%TO.C,J9*%
X188849000Y-58674000D03*
D14*
X186309000Y-58674000D03*
X183769000Y-58674000D03*
X181229000Y-58674000D03*
X178689000Y-58674000D03*
X176149000Y-58674000D03*
X173609000Y-58674000D03*
%TD*%
D13*
%TO.C,J11*%
X162311000Y-96266000D03*
D14*
X159771000Y-96266000D03*
%TD*%
M02*
