%TF.GenerationSoftware,KiCad,Pcbnew,(6.0.0)*%
%TF.CreationDate,2023-11-18T00:08:50-03:00*%
%TF.ProjectId,LevelSensor_v2.0,4c657665-6c53-4656-9e73-6f725f76322e,rev?*%
%TF.SameCoordinates,Original*%
%TF.FileFunction,Legend,Bot*%
%TF.FilePolarity,Positive*%
%FSLAX46Y46*%
G04 Gerber Fmt 4.6, Leading zero omitted, Abs format (unit mm)*
G04 Created by KiCad (PCBNEW (6.0.0)) date 2023-11-18 00:08:50*
%MOMM*%
%LPD*%
G01*
G04 APERTURE LIST*
%ADD10C,0.200000*%
%ADD11C,0.150000*%
G04 APERTURE END LIST*
D10*
X204413571Y-81605285D02*
X204413571Y-80891000D01*
X202913571Y-80891000D01*
X203413571Y-82748142D02*
X204413571Y-82748142D01*
X203413571Y-82105285D02*
X204199285Y-82105285D01*
X204342142Y-82176714D01*
X204413571Y-82319571D01*
X204413571Y-82533857D01*
X204342142Y-82676714D01*
X204270714Y-82748142D01*
X204342142Y-84105285D02*
X204413571Y-83962428D01*
X204413571Y-83676714D01*
X204342142Y-83533857D01*
X204270714Y-83462428D01*
X204127857Y-83391000D01*
X203699285Y-83391000D01*
X203556428Y-83462428D01*
X203485000Y-83533857D01*
X203413571Y-83676714D01*
X203413571Y-83962428D01*
X203485000Y-84105285D01*
X204413571Y-85391000D02*
X203627857Y-85391000D01*
X203485000Y-85319571D01*
X203413571Y-85176714D01*
X203413571Y-84891000D01*
X203485000Y-84748142D01*
X204342142Y-85391000D02*
X204413571Y-85248142D01*
X204413571Y-84891000D01*
X204342142Y-84748142D01*
X204199285Y-84676714D01*
X204056428Y-84676714D01*
X203913571Y-84748142D01*
X203842142Y-84891000D01*
X203842142Y-85248142D01*
X203770714Y-85391000D01*
X204342142Y-86033857D02*
X204413571Y-86176714D01*
X204413571Y-86462428D01*
X204342142Y-86605285D01*
X204199285Y-86676714D01*
X204127857Y-86676714D01*
X203985000Y-86605285D01*
X203913571Y-86462428D01*
X203913571Y-86248142D01*
X203842142Y-86105285D01*
X203699285Y-86033857D01*
X203627857Y-86033857D01*
X203485000Y-86105285D01*
X203413571Y-86248142D01*
X203413571Y-86462428D01*
X203485000Y-86605285D01*
X203985000Y-88391000D02*
X203985000Y-89105285D01*
X204413571Y-88248142D02*
X202913571Y-88748142D01*
X204413571Y-89248142D01*
X204270714Y-89748142D02*
X204342142Y-89819571D01*
X204413571Y-89748142D01*
X204342142Y-89676714D01*
X204270714Y-89748142D01*
X204413571Y-89748142D01*
X204413571Y-91605285D02*
X202913571Y-91605285D01*
X204413571Y-92462428D01*
X202913571Y-92462428D01*
X204413571Y-93391000D02*
X204342142Y-93248142D01*
X204270714Y-93176714D01*
X204127857Y-93105285D01*
X203699285Y-93105285D01*
X203556428Y-93176714D01*
X203485000Y-93248142D01*
X203413571Y-93391000D01*
X203413571Y-93605285D01*
X203485000Y-93748142D01*
X203556428Y-93819571D01*
X203699285Y-93891000D01*
X204127857Y-93891000D01*
X204270714Y-93819571D01*
X204342142Y-93748142D01*
X204413571Y-93605285D01*
X204413571Y-93391000D01*
X204342142Y-95176714D02*
X204413571Y-95033857D01*
X204413571Y-94748142D01*
X204342142Y-94605285D01*
X204270714Y-94533857D01*
X204127857Y-94462428D01*
X203699285Y-94462428D01*
X203556428Y-94533857D01*
X203485000Y-94605285D01*
X203413571Y-94748142D01*
X203413571Y-95033857D01*
X203485000Y-95176714D01*
X204342142Y-96391000D02*
X204413571Y-96248142D01*
X204413571Y-95962428D01*
X204342142Y-95819571D01*
X204199285Y-95748142D01*
X203627857Y-95748142D01*
X203485000Y-95819571D01*
X203413571Y-95962428D01*
X203413571Y-96248142D01*
X203485000Y-96391000D01*
X203627857Y-96462428D01*
X203770714Y-96462428D01*
X203913571Y-95748142D01*
D11*
X206112380Y-74355285D02*
X205112380Y-74355285D01*
X205826666Y-74688619D01*
X205112380Y-75021952D01*
X206112380Y-75021952D01*
X206064761Y-75879095D02*
X206112380Y-75783857D01*
X206112380Y-75593380D01*
X206064761Y-75498142D01*
X205969523Y-75450523D01*
X205588571Y-75450523D01*
X205493333Y-75498142D01*
X205445714Y-75593380D01*
X205445714Y-75783857D01*
X205493333Y-75879095D01*
X205588571Y-75926714D01*
X205683809Y-75926714D01*
X205779047Y-75450523D01*
X206112380Y-76783857D02*
X205112380Y-76783857D01*
X206064761Y-76783857D02*
X206112380Y-76688619D01*
X206112380Y-76498142D01*
X206064761Y-76402904D01*
X206017142Y-76355285D01*
X205921904Y-76307666D01*
X205636190Y-76307666D01*
X205540952Y-76355285D01*
X205493333Y-76402904D01*
X205445714Y-76498142D01*
X205445714Y-76688619D01*
X205493333Y-76783857D01*
X206112380Y-77260047D02*
X205445714Y-77260047D01*
X205112380Y-77260047D02*
X205160000Y-77212428D01*
X205207619Y-77260047D01*
X205160000Y-77307666D01*
X205112380Y-77260047D01*
X205207619Y-77260047D01*
X206112380Y-78164809D02*
X205112380Y-78164809D01*
X206064761Y-78164809D02*
X206112380Y-78069571D01*
X206112380Y-77879095D01*
X206064761Y-77783857D01*
X206017142Y-77736238D01*
X205921904Y-77688619D01*
X205636190Y-77688619D01*
X205540952Y-77736238D01*
X205493333Y-77783857D01*
X205445714Y-77879095D01*
X205445714Y-78069571D01*
X205493333Y-78164809D01*
X206112380Y-78783857D02*
X206064761Y-78688619D01*
X206017142Y-78641000D01*
X205921904Y-78593380D01*
X205636190Y-78593380D01*
X205540952Y-78641000D01*
X205493333Y-78688619D01*
X205445714Y-78783857D01*
X205445714Y-78926714D01*
X205493333Y-79021952D01*
X205540952Y-79069571D01*
X205636190Y-79117190D01*
X205921904Y-79117190D01*
X206017142Y-79069571D01*
X206064761Y-79021952D01*
X206112380Y-78926714D01*
X206112380Y-78783857D01*
X206112380Y-79545761D02*
X205445714Y-79545761D01*
X205636190Y-79545761D02*
X205540952Y-79593380D01*
X205493333Y-79641000D01*
X205445714Y-79736238D01*
X205445714Y-79831476D01*
X206112380Y-81355285D02*
X205112380Y-81355285D01*
X206064761Y-81355285D02*
X206112380Y-81260047D01*
X206112380Y-81069571D01*
X206064761Y-80974333D01*
X206017142Y-80926714D01*
X205921904Y-80879095D01*
X205636190Y-80879095D01*
X205540952Y-80926714D01*
X205493333Y-80974333D01*
X205445714Y-81069571D01*
X205445714Y-81260047D01*
X205493333Y-81355285D01*
X206064761Y-82212428D02*
X206112380Y-82117190D01*
X206112380Y-81926714D01*
X206064761Y-81831476D01*
X205969523Y-81783857D01*
X205588571Y-81783857D01*
X205493333Y-81831476D01*
X205445714Y-81926714D01*
X205445714Y-82117190D01*
X205493333Y-82212428D01*
X205588571Y-82260047D01*
X205683809Y-82260047D01*
X205779047Y-81783857D01*
X206112380Y-83450523D02*
X205112380Y-83450523D01*
X206112380Y-84021952D01*
X205112380Y-84021952D01*
X206112380Y-84498142D02*
X205445714Y-84498142D01*
X205064761Y-84593380D02*
X205207619Y-84450523D01*
X205445714Y-84879095D02*
X206112380Y-85117190D01*
X205445714Y-85355285D01*
X206064761Y-86117190D02*
X206112380Y-86021952D01*
X206112380Y-85831476D01*
X206064761Y-85736238D01*
X205969523Y-85688619D01*
X205588571Y-85688619D01*
X205493333Y-85736238D01*
X205445714Y-85831476D01*
X205445714Y-86021952D01*
X205493333Y-86117190D01*
X205588571Y-86164809D01*
X205683809Y-86164809D01*
X205779047Y-85688619D01*
X206112380Y-86736238D02*
X206064761Y-86641000D01*
X205969523Y-86593380D01*
X205112380Y-86593380D01*
X205112380Y-87879095D02*
X205921904Y-87879095D01*
X206017142Y-87926714D01*
X206064761Y-87974333D01*
X206112380Y-88069571D01*
X206112380Y-88260047D01*
X206064761Y-88355285D01*
X206017142Y-88402904D01*
X205921904Y-88450523D01*
X205112380Y-88450523D01*
X206112380Y-89069571D02*
X206064761Y-88974333D01*
X205969523Y-88926714D01*
X205112380Y-88926714D01*
X205445714Y-89307666D02*
X205445714Y-89688619D01*
X205112380Y-89450523D02*
X205969523Y-89450523D01*
X206064761Y-89498142D01*
X206112380Y-89593380D01*
X206112380Y-89688619D01*
X206112380Y-90021952D02*
X205445714Y-90021952D01*
X205636190Y-90021952D02*
X205540952Y-90069571D01*
X205493333Y-90117190D01*
X205445714Y-90212428D01*
X205445714Y-90307666D01*
X206112380Y-91069571D02*
X205588571Y-91069571D01*
X205493333Y-91021952D01*
X205445714Y-90926714D01*
X205445714Y-90736238D01*
X205493333Y-90641000D01*
X206064761Y-91069571D02*
X206112380Y-90974333D01*
X206112380Y-90736238D01*
X206064761Y-90641000D01*
X205969523Y-90593380D01*
X205874285Y-90593380D01*
X205779047Y-90641000D01*
X205731428Y-90736238D01*
X205731428Y-90974333D01*
X205683809Y-91069571D01*
X206064761Y-91498142D02*
X206112380Y-91593380D01*
X206112380Y-91783857D01*
X206064761Y-91879095D01*
X205969523Y-91926714D01*
X205921904Y-91926714D01*
X205826666Y-91879095D01*
X205779047Y-91783857D01*
X205779047Y-91641000D01*
X205731428Y-91545761D01*
X205636190Y-91498142D01*
X205588571Y-91498142D01*
X205493333Y-91545761D01*
X205445714Y-91641000D01*
X205445714Y-91783857D01*
X205493333Y-91879095D01*
X206064761Y-92307666D02*
X206112380Y-92402904D01*
X206112380Y-92593380D01*
X206064761Y-92688619D01*
X205969523Y-92736238D01*
X205921904Y-92736238D01*
X205826666Y-92688619D01*
X205779047Y-92593380D01*
X205779047Y-92450523D01*
X205731428Y-92355285D01*
X205636190Y-92307666D01*
X205588571Y-92307666D01*
X205493333Y-92355285D01*
X205445714Y-92450523D01*
X205445714Y-92593380D01*
X205493333Y-92688619D01*
X206112380Y-93307666D02*
X206064761Y-93212428D01*
X206017142Y-93164809D01*
X205921904Y-93117190D01*
X205636190Y-93117190D01*
X205540952Y-93164809D01*
X205493333Y-93212428D01*
X205445714Y-93307666D01*
X205445714Y-93450523D01*
X205493333Y-93545761D01*
X205540952Y-93593380D01*
X205636190Y-93641000D01*
X205921904Y-93641000D01*
X206017142Y-93593380D01*
X206064761Y-93545761D01*
X206112380Y-93450523D01*
X206112380Y-93307666D01*
X205207619Y-93212428D02*
X205064761Y-93402904D01*
X205207619Y-93593380D01*
X205445714Y-94069571D02*
X206112380Y-94069571D01*
X205540952Y-94069571D02*
X205493333Y-94117190D01*
X205445714Y-94212428D01*
X205445714Y-94355285D01*
X205493333Y-94450523D01*
X205588571Y-94498142D01*
X206112380Y-94498142D01*
X206112380Y-94974333D02*
X205445714Y-94974333D01*
X205112380Y-94974333D02*
X205160000Y-94926714D01*
X205207619Y-94974333D01*
X205160000Y-95021952D01*
X205112380Y-94974333D01*
X205207619Y-94974333D01*
X206064761Y-95879095D02*
X206112380Y-95783857D01*
X206112380Y-95593380D01*
X206064761Y-95498142D01*
X206017142Y-95450523D01*
X205921904Y-95402904D01*
X205636190Y-95402904D01*
X205540952Y-95450523D01*
X205493333Y-95498142D01*
X205445714Y-95593380D01*
X205445714Y-95783857D01*
X205493333Y-95879095D01*
X206112380Y-96450523D02*
X206064761Y-96355285D01*
X206017142Y-96307666D01*
X205921904Y-96260047D01*
X205636190Y-96260047D01*
X205540952Y-96307666D01*
X205493333Y-96355285D01*
X205445714Y-96450523D01*
X205445714Y-96593380D01*
X205493333Y-96688619D01*
X205540952Y-96736238D01*
X205636190Y-96783857D01*
X205921904Y-96783857D01*
X206017142Y-96736238D01*
X206064761Y-96688619D01*
X206112380Y-96593380D01*
X206112380Y-96450523D01*
X206112380Y-97974333D02*
X205112380Y-97974333D01*
X206112380Y-98545761D01*
X205112380Y-98545761D01*
X205588571Y-99355285D02*
X205636190Y-99498142D01*
X205683809Y-99545761D01*
X205779047Y-99593380D01*
X205921904Y-99593380D01*
X206017142Y-99545761D01*
X206064761Y-99498142D01*
X206112380Y-99402904D01*
X206112380Y-99021952D01*
X205112380Y-99021952D01*
X205112380Y-99355285D01*
X205160000Y-99450523D01*
X205207619Y-99498142D01*
X205302857Y-99545761D01*
X205398095Y-99545761D01*
X205493333Y-99498142D01*
X205540952Y-99450523D01*
X205588571Y-99355285D01*
X205588571Y-99021952D01*
X205731428Y-100021952D02*
X205731428Y-100783857D01*
X206112380Y-101260047D02*
X205112380Y-101260047D01*
X206112380Y-101879095D02*
X206064761Y-101783857D01*
X206017142Y-101736238D01*
X205921904Y-101688619D01*
X205636190Y-101688619D01*
X205540952Y-101736238D01*
X205493333Y-101783857D01*
X205445714Y-101879095D01*
X205445714Y-102021952D01*
X205493333Y-102117190D01*
X205540952Y-102164809D01*
X205636190Y-102212428D01*
X205921904Y-102212428D01*
X206017142Y-102164809D01*
X206064761Y-102117190D01*
X206112380Y-102021952D01*
X206112380Y-101879095D01*
X205112380Y-102498142D02*
X205112380Y-103069571D01*
X206112380Y-102783857D02*
X205112380Y-102783857D01*
X206957619Y-86926714D02*
X206910000Y-86974333D01*
X206862380Y-87069571D01*
X206862380Y-87307666D01*
X206910000Y-87402904D01*
X206957619Y-87450523D01*
X207052857Y-87498142D01*
X207148095Y-87498142D01*
X207290952Y-87450523D01*
X207862380Y-86879095D01*
X207862380Y-87498142D01*
X206862380Y-88117190D02*
X206862380Y-88212428D01*
X206910000Y-88307666D01*
X206957619Y-88355285D01*
X207052857Y-88402904D01*
X207243333Y-88450523D01*
X207481428Y-88450523D01*
X207671904Y-88402904D01*
X207767142Y-88355285D01*
X207814761Y-88307666D01*
X207862380Y-88212428D01*
X207862380Y-88117190D01*
X207814761Y-88021952D01*
X207767142Y-87974333D01*
X207671904Y-87926714D01*
X207481428Y-87879095D01*
X207243333Y-87879095D01*
X207052857Y-87926714D01*
X206957619Y-87974333D01*
X206910000Y-88021952D01*
X206862380Y-88117190D01*
X206957619Y-88831476D02*
X206910000Y-88879095D01*
X206862380Y-88974333D01*
X206862380Y-89212428D01*
X206910000Y-89307666D01*
X206957619Y-89355285D01*
X207052857Y-89402904D01*
X207148095Y-89402904D01*
X207290952Y-89355285D01*
X207862380Y-88783857D01*
X207862380Y-89402904D01*
X206862380Y-89736238D02*
X206862380Y-90355285D01*
X207243333Y-90021952D01*
X207243333Y-90164809D01*
X207290952Y-90260047D01*
X207338571Y-90307666D01*
X207433809Y-90355285D01*
X207671904Y-90355285D01*
X207767142Y-90307666D01*
X207814761Y-90260047D01*
X207862380Y-90164809D01*
X207862380Y-89879095D01*
X207814761Y-89783857D01*
X207767142Y-89736238D01*
%TO.C,G\u002A\u002A\u002A*%
G36*
X200962148Y-77191549D02*
G01*
X201120933Y-77192192D01*
X201270811Y-77193199D01*
X201408264Y-77194571D01*
X201529774Y-77196312D01*
X201631824Y-77198422D01*
X201710897Y-77200903D01*
X201763476Y-77203759D01*
X201786043Y-77206989D01*
X201787184Y-77207611D01*
X201799155Y-77216922D01*
X201807327Y-77232857D01*
X201812254Y-77260795D01*
X201814488Y-77306114D01*
X201814580Y-77374193D01*
X201813083Y-77470408D01*
X201808448Y-77716874D01*
X201074950Y-77721242D01*
X200968972Y-77722005D01*
X200822848Y-77723512D01*
X200689895Y-77725417D01*
X200573505Y-77727641D01*
X200477072Y-77730106D01*
X200403990Y-77732735D01*
X200357652Y-77735447D01*
X200341452Y-77738166D01*
X200351043Y-77752468D01*
X200379175Y-77774160D01*
X200395630Y-77785061D01*
X200439682Y-77815789D01*
X200504274Y-77861775D01*
X200586225Y-77920690D01*
X200682357Y-77990206D01*
X200789489Y-78067994D01*
X200904443Y-78151725D01*
X201024038Y-78239071D01*
X201145095Y-78327702D01*
X201264436Y-78415289D01*
X201378879Y-78499505D01*
X201485246Y-78578020D01*
X201580357Y-78648505D01*
X201661033Y-78708632D01*
X201724094Y-78756072D01*
X201766360Y-78788496D01*
X201784653Y-78803575D01*
X201786994Y-78806153D01*
X201798510Y-78822650D01*
X201806641Y-78845418D01*
X201811963Y-78879910D01*
X201815051Y-78931575D01*
X201816482Y-79005866D01*
X201816831Y-79108234D01*
X201816782Y-79136506D01*
X201815256Y-79246618D01*
X201811493Y-79325667D01*
X201805358Y-79375626D01*
X201796712Y-79398472D01*
X201793584Y-79399889D01*
X201762915Y-79404021D01*
X201703296Y-79407686D01*
X201618199Y-79410884D01*
X201511094Y-79413614D01*
X201385453Y-79415876D01*
X201244746Y-79417671D01*
X201092445Y-79418999D01*
X200932019Y-79419859D01*
X200766942Y-79420252D01*
X200600682Y-79420178D01*
X200436712Y-79419636D01*
X200278502Y-79418626D01*
X200129523Y-79417149D01*
X199993246Y-79415205D01*
X199873143Y-79412793D01*
X199772684Y-79409914D01*
X199695340Y-79406567D01*
X199644582Y-79402753D01*
X199623881Y-79398472D01*
X199617663Y-79385064D01*
X199610204Y-79342039D01*
X199605254Y-79278643D01*
X199602777Y-79202566D01*
X199602737Y-79121496D01*
X199605097Y-79043125D01*
X199609821Y-78975140D01*
X199616873Y-78925232D01*
X199626218Y-78901089D01*
X199642946Y-78896389D01*
X199687955Y-78891764D01*
X199761633Y-78887809D01*
X199864950Y-78884493D01*
X199998880Y-78881787D01*
X200164394Y-78879659D01*
X200362463Y-78878079D01*
X201076253Y-78873706D01*
X200371938Y-78362353D01*
X200327673Y-78330182D01*
X200192966Y-78231867D01*
X200066661Y-78139078D01*
X199951445Y-78053826D01*
X199850002Y-77978122D01*
X199765020Y-77913978D01*
X199699184Y-77863405D01*
X199655180Y-77828414D01*
X199635692Y-77811016D01*
X199633921Y-77808757D01*
X199622370Y-77790148D01*
X199614176Y-77765562D01*
X199608779Y-77729489D01*
X199605618Y-77676419D01*
X199604132Y-77600843D01*
X199603762Y-77497249D01*
X199603769Y-77478725D01*
X199604236Y-77380840D01*
X199605798Y-77310708D01*
X199608960Y-77263353D01*
X199614228Y-77233795D01*
X199622107Y-77217056D01*
X199633102Y-77208158D01*
X199633554Y-77207954D01*
X199658180Y-77204719D01*
X199712590Y-77201827D01*
X199793265Y-77199280D01*
X199896688Y-77197080D01*
X200019342Y-77195229D01*
X200157710Y-77193728D01*
X200308275Y-77192580D01*
X200467518Y-77191786D01*
X200631923Y-77191348D01*
X200797972Y-77191268D01*
X200962148Y-77191549D01*
G37*
G36*
X200430256Y-74459996D02*
G01*
X200601320Y-74460536D01*
X200661922Y-74460824D01*
X200849909Y-74461831D01*
X201008010Y-74462941D01*
X201139050Y-74464250D01*
X201245853Y-74465859D01*
X201331245Y-74467866D01*
X201398050Y-74470370D01*
X201449094Y-74473470D01*
X201487201Y-74477265D01*
X201515195Y-74481853D01*
X201535903Y-74487334D01*
X201552148Y-74493805D01*
X201631189Y-74541210D01*
X201716353Y-74621190D01*
X201777410Y-74715696D01*
X201816504Y-74799647D01*
X201816667Y-75581527D01*
X201816831Y-76363408D01*
X201770009Y-76453036D01*
X201752372Y-76483421D01*
X201686084Y-76564841D01*
X201605089Y-76629145D01*
X201518817Y-76668255D01*
X201500476Y-76671174D01*
X201449034Y-76674974D01*
X201371635Y-76678233D01*
X201271996Y-76680956D01*
X201153836Y-76683149D01*
X201020871Y-76684815D01*
X200876820Y-76685962D01*
X200725400Y-76686593D01*
X200570331Y-76686713D01*
X200415328Y-76686328D01*
X200264111Y-76685443D01*
X200120398Y-76684063D01*
X199987905Y-76682192D01*
X199870351Y-76679837D01*
X199771453Y-76677001D01*
X199694931Y-76673691D01*
X199644501Y-76669911D01*
X199623881Y-76665666D01*
X199616736Y-76650170D01*
X199609462Y-76603037D01*
X199605170Y-76524987D01*
X199603762Y-76414771D01*
X199603999Y-76335860D01*
X199605324Y-76266569D01*
X199608476Y-76220591D01*
X199614183Y-76192337D01*
X199623178Y-76176217D01*
X199636191Y-76166639D01*
X199636400Y-76166532D01*
X199662783Y-76162046D01*
X199721940Y-76158209D01*
X199813136Y-76155036D01*
X199935637Y-76152542D01*
X200088708Y-76150742D01*
X200271614Y-76149651D01*
X200483620Y-76149284D01*
X201298619Y-76149284D01*
X201380924Y-76066979D01*
X201380924Y-75091522D01*
X201339772Y-75050370D01*
X201337375Y-75048018D01*
X201300520Y-75019888D01*
X201268517Y-75007144D01*
X201246387Y-75006681D01*
X201194070Y-75006150D01*
X201115025Y-75005573D01*
X201012666Y-75004969D01*
X200890408Y-75004354D01*
X200751665Y-75003750D01*
X200599852Y-75003173D01*
X200438382Y-75002642D01*
X200232057Y-75001687D01*
X200048442Y-75000077D01*
X199897850Y-74997836D01*
X199780025Y-74994959D01*
X199694709Y-74991438D01*
X199641645Y-74987268D01*
X199620578Y-74982442D01*
X199614070Y-74963243D01*
X199608941Y-74911694D01*
X199606702Y-74831167D01*
X199607476Y-74724070D01*
X199612145Y-74483469D01*
X199662442Y-74469936D01*
X199669165Y-74468882D01*
X199707901Y-74466488D01*
X199775500Y-74464413D01*
X199868643Y-74462691D01*
X199984011Y-74461355D01*
X200118282Y-74460438D01*
X200268137Y-74459974D01*
X200430256Y-74459996D01*
G37*
G36*
X200819911Y-85838257D02*
G01*
X200983882Y-85838799D01*
X201142092Y-85839809D01*
X201291070Y-85841286D01*
X201427347Y-85843230D01*
X201547450Y-85845642D01*
X201647910Y-85848521D01*
X201725254Y-85851868D01*
X201776012Y-85855682D01*
X201796712Y-85859963D01*
X201803578Y-85874416D01*
X201811004Y-85920847D01*
X201815390Y-85998351D01*
X201816831Y-86108095D01*
X201816162Y-86186573D01*
X201812720Y-86274178D01*
X201806269Y-86330340D01*
X201796712Y-86356227D01*
X201793584Y-86357644D01*
X201762915Y-86361777D01*
X201703296Y-86365442D01*
X201618199Y-86368639D01*
X201511094Y-86371369D01*
X201385453Y-86373632D01*
X201244746Y-86375427D01*
X201092445Y-86376755D01*
X200932019Y-86377615D01*
X200766942Y-86378008D01*
X200600682Y-86377933D01*
X200436712Y-86377391D01*
X200278502Y-86376382D01*
X200129523Y-86374905D01*
X199993246Y-86372961D01*
X199873143Y-86370549D01*
X199772684Y-86367670D01*
X199695340Y-86364323D01*
X199644582Y-86360509D01*
X199623881Y-86356227D01*
X199618438Y-86344650D01*
X199611171Y-86303138D01*
X199606174Y-86240614D01*
X199603448Y-86164860D01*
X199602993Y-86083657D01*
X199604809Y-86004785D01*
X199608895Y-85936025D01*
X199615253Y-85885157D01*
X199623881Y-85859963D01*
X199627010Y-85858546D01*
X199657679Y-85854414D01*
X199717297Y-85850749D01*
X199802394Y-85847552D01*
X199909499Y-85844821D01*
X200035140Y-85842559D01*
X200175847Y-85840764D01*
X200328149Y-85839436D01*
X200488574Y-85838576D01*
X200653652Y-85838183D01*
X200819911Y-85838257D01*
G37*
G36*
X200833306Y-80977833D02*
G01*
X201043517Y-80978103D01*
X201223259Y-80978676D01*
X201374545Y-80979590D01*
X201499386Y-80980882D01*
X201599793Y-80982592D01*
X201677779Y-80984759D01*
X201735353Y-80987420D01*
X201774528Y-80990614D01*
X201797316Y-80994380D01*
X201805728Y-80998755D01*
X201806573Y-81001965D01*
X201809699Y-81033289D01*
X201812407Y-81089558D01*
X201814432Y-81163951D01*
X201815508Y-81249651D01*
X201815727Y-81329304D01*
X201814798Y-81398058D01*
X201811906Y-81443594D01*
X201806346Y-81471517D01*
X201797413Y-81487432D01*
X201784402Y-81496944D01*
X201784257Y-81497021D01*
X201756131Y-81502817D01*
X201698397Y-81507670D01*
X201614922Y-81511407D01*
X201509573Y-81513852D01*
X201386217Y-81514833D01*
X201362246Y-81514885D01*
X201232007Y-81515976D01*
X201132467Y-81518483D01*
X201061209Y-81522535D01*
X201015813Y-81528261D01*
X200993860Y-81535790D01*
X200990101Y-81538725D01*
X200972737Y-81554699D01*
X200958955Y-81574423D01*
X200948343Y-81601620D01*
X200940492Y-81640010D01*
X200934989Y-81693319D01*
X200931425Y-81765266D01*
X200929387Y-81859577D01*
X200928466Y-81979972D01*
X200928250Y-82130175D01*
X200928190Y-82194802D01*
X200927447Y-82338382D01*
X200925788Y-82451759D01*
X200923119Y-82537321D01*
X200919348Y-82597459D01*
X200914383Y-82634560D01*
X200908132Y-82651013D01*
X200905587Y-82653041D01*
X200871353Y-82662980D01*
X200805708Y-82669066D01*
X200710297Y-82671132D01*
X200692324Y-82671073D01*
X200601780Y-82668323D01*
X200541277Y-82661580D01*
X200512462Y-82651013D01*
X200507496Y-82639435D01*
X200502529Y-82607427D01*
X200498646Y-82553538D01*
X200495767Y-82475439D01*
X200493811Y-82370802D01*
X200492696Y-82237297D01*
X200492343Y-82072597D01*
X200492343Y-81514300D01*
X200039670Y-81514300D01*
X200039670Y-82233171D01*
X200039638Y-82324580D01*
X200039346Y-82486481D01*
X200038666Y-82619164D01*
X200037503Y-82725519D01*
X200035760Y-82808435D01*
X200033341Y-82870800D01*
X200030149Y-82915504D01*
X200026087Y-82945437D01*
X200021060Y-82963486D01*
X200014970Y-82972542D01*
X200007411Y-82976182D01*
X199969884Y-82983451D01*
X199911624Y-82988919D01*
X199841549Y-82992374D01*
X199768574Y-82993606D01*
X199701618Y-82992404D01*
X199649596Y-82988556D01*
X199621427Y-82981852D01*
X199620016Y-82977447D01*
X199617122Y-82945087D01*
X199614456Y-82884454D01*
X199612031Y-82799147D01*
X199609862Y-82692761D01*
X199607962Y-82568893D01*
X199606345Y-82431140D01*
X199605024Y-82283099D01*
X199604013Y-82128367D01*
X199603325Y-81970541D01*
X199602974Y-81813216D01*
X199602974Y-81659991D01*
X199603339Y-81514462D01*
X199604081Y-81380225D01*
X199605215Y-81260877D01*
X199606754Y-81160016D01*
X199608712Y-81081238D01*
X199611102Y-81028140D01*
X199613939Y-81004318D01*
X199615278Y-81001937D01*
X199622319Y-80996923D01*
X199636758Y-80992646D01*
X199660970Y-80989050D01*
X199697332Y-80986075D01*
X199748219Y-80983666D01*
X199816007Y-80981765D01*
X199903071Y-80980314D01*
X200011788Y-80979255D01*
X200144532Y-80978532D01*
X200303681Y-80978086D01*
X200491609Y-80977861D01*
X200710693Y-80977798D01*
X200833306Y-80977833D01*
G37*
G36*
X200953867Y-79920350D02*
G01*
X201112884Y-79921014D01*
X201263164Y-79922148D01*
X201401199Y-79923759D01*
X201523479Y-79925852D01*
X201626493Y-79928432D01*
X201706732Y-79931505D01*
X201760686Y-79935077D01*
X201784846Y-79939154D01*
X201787352Y-79940538D01*
X201799377Y-79950075D01*
X201807536Y-79966101D01*
X201812408Y-79994023D01*
X201814571Y-80039245D01*
X201814604Y-80107173D01*
X201813083Y-80203213D01*
X201808448Y-80449680D01*
X199612145Y-80449680D01*
X199607468Y-80206707D01*
X199606288Y-80135037D01*
X199606074Y-80059058D01*
X199608003Y-80007273D01*
X199612574Y-79974240D01*
X199620283Y-79954512D01*
X199631630Y-79942648D01*
X199631910Y-79942465D01*
X199655377Y-79938330D01*
X199708715Y-79934603D01*
X199788415Y-79931289D01*
X199890967Y-79928395D01*
X200012861Y-79925926D01*
X200150588Y-79923887D01*
X200300638Y-79922284D01*
X200459500Y-79921123D01*
X200623666Y-79920410D01*
X200789625Y-79920151D01*
X200953867Y-79920350D01*
G37*
G36*
X200819911Y-83306640D02*
G01*
X200983882Y-83307182D01*
X201142092Y-83308192D01*
X201291070Y-83309669D01*
X201427347Y-83311613D01*
X201547450Y-83314025D01*
X201647910Y-83316904D01*
X201725254Y-83320251D01*
X201776012Y-83324065D01*
X201796712Y-83328346D01*
X201798566Y-83331476D01*
X201802810Y-83351087D01*
X201806411Y-83388944D01*
X201809407Y-83446958D01*
X201811836Y-83527039D01*
X201813737Y-83631097D01*
X201815149Y-83761043D01*
X201816109Y-83918788D01*
X201816657Y-84106241D01*
X201816831Y-84325314D01*
X201817091Y-84533537D01*
X201817530Y-84713314D01*
X201817616Y-84864446D01*
X201816816Y-84989387D01*
X201814598Y-85090591D01*
X201810427Y-85170510D01*
X201803771Y-85231599D01*
X201794097Y-85276312D01*
X201780873Y-85307102D01*
X201763564Y-85326423D01*
X201741639Y-85336729D01*
X201714563Y-85340473D01*
X201681805Y-85340110D01*
X201642831Y-85338092D01*
X201597108Y-85336874D01*
X201532232Y-85336013D01*
X201473221Y-85331824D01*
X201435317Y-85323208D01*
X201411584Y-85309127D01*
X201406874Y-85304319D01*
X201400244Y-85293789D01*
X201394847Y-85277294D01*
X201390556Y-85251772D01*
X201387245Y-85214159D01*
X201384789Y-85161393D01*
X201383062Y-85090410D01*
X201381938Y-84998148D01*
X201381290Y-84881543D01*
X201380994Y-84737533D01*
X201380924Y-84563055D01*
X201380924Y-83844729D01*
X201203594Y-83844729D01*
X201160403Y-83844788D01*
X201094989Y-83845886D01*
X201051628Y-83849670D01*
X201022660Y-83857801D01*
X201000424Y-83871937D01*
X200977258Y-83893736D01*
X200928250Y-83942744D01*
X200928250Y-84445633D01*
X200928214Y-84488072D01*
X200927680Y-84612806D01*
X200926570Y-84725967D01*
X200924970Y-84823162D01*
X200922965Y-84900000D01*
X200920638Y-84952090D01*
X200918074Y-84975041D01*
X200912571Y-84983489D01*
X200894858Y-84992538D01*
X200860688Y-84998059D01*
X200804376Y-85000812D01*
X200720239Y-85001561D01*
X200695419Y-85001463D01*
X200602598Y-84998623D01*
X200541314Y-84991920D01*
X200512462Y-84981442D01*
X200507496Y-84969864D01*
X200502529Y-84937856D01*
X200498646Y-84883967D01*
X200495767Y-84805868D01*
X200493811Y-84701231D01*
X200492696Y-84567726D01*
X200492343Y-84403026D01*
X200492343Y-83844729D01*
X200039670Y-83844729D01*
X200039670Y-84560142D01*
X200039669Y-84571933D01*
X200039552Y-84745165D01*
X200039146Y-84888099D01*
X200038339Y-85003780D01*
X200037016Y-85095252D01*
X200035065Y-85165561D01*
X200032373Y-85217751D01*
X200028825Y-85254866D01*
X200024310Y-85279952D01*
X200018714Y-85296053D01*
X200011923Y-85306214D01*
X200007769Y-85310490D01*
X199987176Y-85323838D01*
X199954937Y-85331882D01*
X199903771Y-85335827D01*
X199826398Y-85336874D01*
X199790570Y-85336441D01*
X199721352Y-85333097D01*
X199666740Y-85327169D01*
X199636191Y-85319519D01*
X199630456Y-85315854D01*
X199624495Y-85308949D01*
X199619495Y-85296891D01*
X199615369Y-85277099D01*
X199612036Y-85246995D01*
X199609409Y-85203997D01*
X199607406Y-85145528D01*
X199605942Y-85069005D01*
X199604933Y-84971851D01*
X199604294Y-84851484D01*
X199603942Y-84705326D01*
X199603793Y-84530796D01*
X199603762Y-84325314D01*
X199603788Y-84235306D01*
X199604105Y-84028890D01*
X199604810Y-83853343D01*
X199605943Y-83706753D01*
X199607543Y-83587211D01*
X199609647Y-83492806D01*
X199612294Y-83421627D01*
X199615523Y-83371765D01*
X199619372Y-83341308D01*
X199623881Y-83328346D01*
X199627010Y-83326929D01*
X199657679Y-83322797D01*
X199717297Y-83319132D01*
X199802394Y-83315934D01*
X199909499Y-83313204D01*
X200035140Y-83310942D01*
X200175847Y-83309147D01*
X200328149Y-83307819D01*
X200488574Y-83306958D01*
X200653652Y-83306566D01*
X200819911Y-83306640D01*
G37*
G36*
X199266539Y-90833072D02*
G01*
X199168664Y-90863241D01*
X199154341Y-90867676D01*
X199100880Y-90884411D01*
X199034410Y-90905406D01*
X198962020Y-90928417D01*
X198890799Y-90951200D01*
X198862764Y-90960179D01*
X198802779Y-90979025D01*
X198760717Y-90991263D01*
X198733245Y-90997537D01*
X198717031Y-90998487D01*
X198708745Y-90994756D01*
X198705054Y-90986986D01*
X198704464Y-90983452D01*
X198708613Y-90970877D01*
X198724845Y-90956019D01*
X198756363Y-90936435D01*
X198806370Y-90909682D01*
X198810703Y-90907429D01*
X198900858Y-90853270D01*
X198978606Y-90792554D01*
X199040250Y-90728566D01*
X199082094Y-90664592D01*
X199083895Y-90660844D01*
X199102450Y-90612545D01*
X199116566Y-90554188D01*
X199126525Y-90483078D01*
X199132610Y-90396521D01*
X199135103Y-90291821D01*
X199134285Y-90166282D01*
X199132888Y-90098028D01*
X199130245Y-90022540D01*
X199126068Y-89965418D01*
X199119590Y-89923559D01*
X199110044Y-89893860D01*
X199096665Y-89873220D01*
X199078685Y-89858535D01*
X199055339Y-89846703D01*
X199037675Y-89843883D01*
X198998590Y-89841175D01*
X198940699Y-89838656D01*
X198866488Y-89836344D01*
X198778441Y-89834257D01*
X198679044Y-89832412D01*
X198570783Y-89830827D01*
X198456141Y-89829521D01*
X198337606Y-89828510D01*
X198217661Y-89827812D01*
X198098792Y-89827446D01*
X197983485Y-89827428D01*
X197874224Y-89827777D01*
X197773494Y-89828510D01*
X197683782Y-89829646D01*
X197607572Y-89831201D01*
X197547349Y-89833194D01*
X197505599Y-89835642D01*
X197466803Y-89839001D01*
X197422015Y-89843769D01*
X197392064Y-89849420D01*
X197371567Y-89857649D01*
X197355143Y-89870153D01*
X197337409Y-89888626D01*
X197321324Y-89908030D01*
X197293714Y-89957942D01*
X197278330Y-90019065D01*
X197273517Y-90096786D01*
X197273487Y-90112511D01*
X197272506Y-90146476D01*
X197268371Y-90163590D01*
X197258734Y-90169029D01*
X197241251Y-90167968D01*
X197209051Y-90164214D01*
X197211082Y-90039646D01*
X197211603Y-89998121D01*
X197212148Y-89934563D01*
X197212648Y-89856228D01*
X197213078Y-89767770D01*
X197213412Y-89673844D01*
X197213623Y-89579105D01*
X197214133Y-89243133D01*
X197240826Y-89246924D01*
X197245562Y-89247731D01*
X197257662Y-89253252D01*
X197265194Y-89267035D01*
X197269987Y-89294228D01*
X197273870Y-89339982D01*
X197278731Y-89386257D01*
X197290956Y-89436345D01*
X197311605Y-89472796D01*
X197343126Y-89501317D01*
X197345603Y-89502966D01*
X197361705Y-89510822D01*
X197384464Y-89517598D01*
X197415431Y-89523354D01*
X197456159Y-89528150D01*
X197508199Y-89532048D01*
X197573102Y-89535105D01*
X197652420Y-89537384D01*
X197747704Y-89538944D01*
X197860505Y-89539846D01*
X197992376Y-89540149D01*
X198144867Y-89539914D01*
X198319530Y-89539201D01*
X198368423Y-89538955D01*
X198513751Y-89538187D01*
X198637721Y-89537428D01*
X198742150Y-89536617D01*
X198828852Y-89535690D01*
X198899644Y-89534583D01*
X198956341Y-89533234D01*
X199000759Y-89531580D01*
X199034712Y-89529558D01*
X199060018Y-89527104D01*
X199078491Y-89524156D01*
X199091948Y-89520650D01*
X199102203Y-89516524D01*
X199111072Y-89511715D01*
X199148940Y-89485060D01*
X199179166Y-89448785D01*
X199197251Y-89401382D01*
X199206448Y-89336891D01*
X199207255Y-89326746D01*
X199211463Y-89285810D01*
X199217001Y-89262352D01*
X199225814Y-89251136D01*
X199239846Y-89246924D01*
X199266539Y-89243133D01*
X199266539Y-90833072D01*
G37*
G36*
X201271666Y-92377794D02*
G01*
X201374588Y-92332751D01*
X201464369Y-92293209D01*
X201539273Y-92259931D01*
X201597563Y-92233676D01*
X201637501Y-92215207D01*
X201657351Y-92205285D01*
X201706766Y-92173456D01*
X201750481Y-92134606D01*
X201780444Y-92090233D01*
X201801790Y-92034258D01*
X201809967Y-92007821D01*
X201821808Y-91978802D01*
X201834058Y-91965050D01*
X201850032Y-91961568D01*
X201876915Y-91961551D01*
X201873759Y-92284835D01*
X201873033Y-92356290D01*
X201872021Y-92436699D01*
X201870810Y-92497890D01*
X201869184Y-92542483D01*
X201866931Y-92573095D01*
X201863835Y-92592346D01*
X201859685Y-92602854D01*
X201854264Y-92607239D01*
X201847361Y-92608118D01*
X201843395Y-92607896D01*
X201830095Y-92600844D01*
X201820092Y-92580177D01*
X201810652Y-92540889D01*
X201810034Y-92537821D01*
X201796232Y-92479265D01*
X201779831Y-92434465D01*
X201758517Y-92403053D01*
X201729972Y-92384658D01*
X201691881Y-92378912D01*
X201641927Y-92385446D01*
X201577796Y-92403889D01*
X201497171Y-92433873D01*
X201397736Y-92475028D01*
X201194376Y-92561514D01*
X201188132Y-93358572D01*
X201333618Y-93421031D01*
X201365728Y-93434729D01*
X201470149Y-93477505D01*
X201556186Y-93508987D01*
X201625815Y-93529125D01*
X201681012Y-93537869D01*
X201723753Y-93535168D01*
X201756014Y-93520972D01*
X201779771Y-93495231D01*
X201796999Y-93457895D01*
X201809674Y-93408912D01*
X201814789Y-93384987D01*
X201824219Y-93352301D01*
X201834483Y-93336140D01*
X201847915Y-93331799D01*
X201852594Y-93332233D01*
X201857789Y-93335354D01*
X201861926Y-93343521D01*
X201865153Y-93359069D01*
X201867620Y-93384333D01*
X201869473Y-93421649D01*
X201870862Y-93473351D01*
X201871934Y-93541775D01*
X201872839Y-93629255D01*
X201873724Y-93738128D01*
X201876845Y-94144457D01*
X201847031Y-94144457D01*
X201845733Y-94144449D01*
X201823407Y-94138740D01*
X201817216Y-94119140D01*
X201809352Y-94067903D01*
X201785380Y-94008478D01*
X201749241Y-93954671D01*
X201742282Y-93946820D01*
X201719063Y-93924273D01*
X201690161Y-93901876D01*
X201653222Y-93878398D01*
X201605890Y-93852607D01*
X201545813Y-93823272D01*
X201470634Y-93789161D01*
X201378001Y-93749043D01*
X201265558Y-93701687D01*
X201258519Y-93698749D01*
X201177460Y-93664900D01*
X201079497Y-93623962D01*
X200969151Y-93577829D01*
X200850948Y-93528391D01*
X200729409Y-93477541D01*
X200609060Y-93427170D01*
X200494423Y-93379170D01*
X200449800Y-93360482D01*
X200344828Y-93316520D01*
X200243241Y-93273977D01*
X200148123Y-93234144D01*
X200062557Y-93198311D01*
X199989627Y-93167771D01*
X199932415Y-93143815D01*
X199894005Y-93127734D01*
X199844300Y-93106453D01*
X199805740Y-93088187D01*
X199782763Y-93074039D01*
X199771839Y-93061783D01*
X199769437Y-93049192D01*
X199770738Y-93045135D01*
X199776537Y-93038543D01*
X199788203Y-93029975D01*
X199807068Y-93018824D01*
X199834463Y-93004482D01*
X199871719Y-92986342D01*
X199920168Y-92963796D01*
X199922471Y-92962755D01*
X200271410Y-92962755D01*
X200274189Y-92965192D01*
X200294657Y-92976016D01*
X200332527Y-92993933D01*
X200384838Y-93017677D01*
X200448629Y-93045986D01*
X200520941Y-93077597D01*
X200598811Y-93111244D01*
X200679280Y-93145666D01*
X200759386Y-93179598D01*
X200836169Y-93211776D01*
X200906668Y-93240937D01*
X200967922Y-93265818D01*
X201016971Y-93285154D01*
X201050853Y-93297683D01*
X201066609Y-93302140D01*
X201066883Y-93302126D01*
X201071356Y-93296765D01*
X201074890Y-93280267D01*
X201077576Y-93250534D01*
X201079505Y-93205468D01*
X201080770Y-93142972D01*
X201081462Y-93060947D01*
X201081672Y-92957296D01*
X201081634Y-92882086D01*
X201081385Y-92798421D01*
X201080770Y-92734204D01*
X201079637Y-92686966D01*
X201077836Y-92654239D01*
X201075214Y-92633556D01*
X201071620Y-92622447D01*
X201066903Y-92618445D01*
X201060910Y-92619082D01*
X201060304Y-92619278D01*
X201035630Y-92628467D01*
X200994211Y-92645185D01*
X200939012Y-92668140D01*
X200873004Y-92696041D01*
X200799154Y-92727594D01*
X200720430Y-92761508D01*
X200639802Y-92796491D01*
X200560237Y-92831251D01*
X200484704Y-92864495D01*
X200416172Y-92894931D01*
X200357608Y-92921267D01*
X200311980Y-92942211D01*
X200282258Y-92956471D01*
X200271410Y-92962755D01*
X199922471Y-92962755D01*
X199981141Y-92936236D01*
X200055969Y-92903056D01*
X200145984Y-92863647D01*
X200252517Y-92817401D01*
X200376898Y-92763712D01*
X200520460Y-92701972D01*
X200684534Y-92631573D01*
X200763313Y-92597764D01*
X200901427Y-92538324D01*
X201033349Y-92481342D01*
X201066903Y-92466793D01*
X201157341Y-92427578D01*
X201271666Y-92377794D01*
G37*
G36*
X201876534Y-90044877D02*
G01*
X201876503Y-90107890D01*
X201876230Y-90239431D01*
X201875696Y-90362993D01*
X201874926Y-90476609D01*
X201873944Y-90578310D01*
X201872775Y-90666126D01*
X201871442Y-90738090D01*
X201869971Y-90792233D01*
X201868385Y-90826586D01*
X201866708Y-90839180D01*
X201861048Y-90841494D01*
X201835435Y-90850458D01*
X201792455Y-90864859D01*
X201735395Y-90883611D01*
X201667541Y-90905629D01*
X201592179Y-90929829D01*
X201554531Y-90941810D01*
X201475254Y-90966547D01*
X201415065Y-90984380D01*
X201371577Y-90995904D01*
X201342404Y-91001718D01*
X201325160Y-91002419D01*
X201317460Y-90998604D01*
X201312951Y-90990866D01*
X201307374Y-90976871D01*
X201309006Y-90974959D01*
X201326069Y-90964237D01*
X201357750Y-90947210D01*
X201399135Y-90926569D01*
X201444789Y-90903208D01*
X201545189Y-90839500D01*
X201623660Y-90768996D01*
X201680998Y-90690892D01*
X201717997Y-90604383D01*
X201718275Y-90603443D01*
X201725141Y-90576968D01*
X201730402Y-90547569D01*
X201734264Y-90511782D01*
X201736933Y-90466137D01*
X201738614Y-90407169D01*
X201739511Y-90331411D01*
X201739830Y-90235395D01*
X201739809Y-90156580D01*
X201739235Y-90075959D01*
X201737595Y-90013812D01*
X201734397Y-89967207D01*
X201729153Y-89933210D01*
X201721373Y-89908889D01*
X201710568Y-89891311D01*
X201696247Y-89877545D01*
X201677920Y-89864657D01*
X201676621Y-89863831D01*
X201668708Y-89859863D01*
X201657670Y-89856456D01*
X201641790Y-89853568D01*
X201619352Y-89851157D01*
X201588638Y-89849180D01*
X201547932Y-89847594D01*
X201495516Y-89846358D01*
X201429675Y-89845429D01*
X201348690Y-89844764D01*
X201250846Y-89844320D01*
X201134426Y-89844056D01*
X200997711Y-89843929D01*
X200838987Y-89843896D01*
X200831585Y-89843896D01*
X200667992Y-89843985D01*
X200526518Y-89844258D01*
X200405621Y-89844745D01*
X200303757Y-89845474D01*
X200219383Y-89846475D01*
X200150958Y-89847776D01*
X200096937Y-89849407D01*
X200055779Y-89851396D01*
X200025940Y-89853773D01*
X200005878Y-89856567D01*
X199994049Y-89859807D01*
X199954132Y-89884794D01*
X199919333Y-89929197D01*
X199894790Y-89992330D01*
X199879590Y-90075919D01*
X199874622Y-90117086D01*
X199868994Y-90152397D01*
X199862824Y-90171718D01*
X199854583Y-90179348D01*
X199842743Y-90179587D01*
X199838534Y-90178838D01*
X199833068Y-90176255D01*
X199828681Y-90169968D01*
X199825255Y-90157750D01*
X199822671Y-90137379D01*
X199820809Y-90106629D01*
X199819552Y-90063275D01*
X199818781Y-90005092D01*
X199818377Y-89929857D01*
X199818222Y-89835344D01*
X199818197Y-89719328D01*
X199818205Y-89633604D01*
X199818304Y-89533289D01*
X199818615Y-89452876D01*
X199819257Y-89390138D01*
X199820353Y-89342853D01*
X199822023Y-89308793D01*
X199824388Y-89285734D01*
X199827569Y-89271451D01*
X199831687Y-89263719D01*
X199836862Y-89260313D01*
X199843217Y-89259007D01*
X199856547Y-89259142D01*
X199865078Y-89267800D01*
X199870277Y-89290111D01*
X199874311Y-89331101D01*
X199876342Y-89351771D01*
X199891524Y-89423605D01*
X199918394Y-89476489D01*
X199957786Y-89512236D01*
X199959407Y-89513205D01*
X199967562Y-89517504D01*
X199977500Y-89521211D01*
X199990911Y-89524369D01*
X200009482Y-89527022D01*
X200034900Y-89529214D01*
X200068855Y-89530990D01*
X200113033Y-89532391D01*
X200169123Y-89533464D01*
X200238812Y-89534251D01*
X200323789Y-89534797D01*
X200425742Y-89535145D01*
X200546358Y-89535339D01*
X200687325Y-89535424D01*
X200850331Y-89535442D01*
X200865181Y-89535442D01*
X201026304Y-89535417D01*
X201165520Y-89535318D01*
X201284506Y-89535103D01*
X201384939Y-89534730D01*
X201468497Y-89534154D01*
X201536856Y-89533335D01*
X201591693Y-89532228D01*
X201634686Y-89530792D01*
X201667511Y-89528984D01*
X201691846Y-89526761D01*
X201709367Y-89524081D01*
X201721752Y-89520901D01*
X201730677Y-89517177D01*
X201737820Y-89512868D01*
X201744842Y-89507794D01*
X201784169Y-89463099D01*
X201808734Y-89402245D01*
X201817216Y-89328301D01*
X201817217Y-89324978D01*
X201817949Y-89286753D01*
X201821603Y-89266325D01*
X201830479Y-89258141D01*
X201846875Y-89256647D01*
X201876534Y-89256647D01*
X201876534Y-90044877D01*
G37*
G36*
X189575221Y-98695001D02*
G01*
X189586573Y-98701755D01*
X189597286Y-98711538D01*
X189608390Y-98726946D01*
X189621232Y-98750734D01*
X189637159Y-98785658D01*
X189657520Y-98834475D01*
X189683663Y-98899941D01*
X189716935Y-98984811D01*
X189731354Y-99020705D01*
X189774288Y-99119978D01*
X189825816Y-99231029D01*
X189883076Y-99348207D01*
X189943205Y-99465862D01*
X190003343Y-99578344D01*
X190060627Y-99680004D01*
X190112196Y-99765191D01*
X190176977Y-99864458D01*
X190377919Y-100143846D01*
X190595841Y-100407398D01*
X190829797Y-100654483D01*
X191078840Y-100884467D01*
X191342025Y-101096716D01*
X191618405Y-101290598D01*
X191907036Y-101465480D01*
X192206970Y-101620729D01*
X192517261Y-101755711D01*
X192836964Y-101869794D01*
X193165133Y-101962345D01*
X193500822Y-102032730D01*
X193577434Y-102045794D01*
X193673423Y-102060962D01*
X193761595Y-102073013D01*
X193846455Y-102082287D01*
X193932507Y-102089123D01*
X194024255Y-102093860D01*
X194126205Y-102096837D01*
X194242862Y-102098395D01*
X194378729Y-102098872D01*
X194409890Y-102098871D01*
X194529277Y-102098539D01*
X194630333Y-102097454D01*
X194717427Y-102095319D01*
X194794927Y-102091841D01*
X194867200Y-102086725D01*
X194938614Y-102079674D01*
X195013538Y-102070394D01*
X195096340Y-102058589D01*
X195191387Y-102043966D01*
X195217341Y-102039787D01*
X195403118Y-102004767D01*
X195597800Y-101959961D01*
X195794861Y-101907219D01*
X195987778Y-101848390D01*
X196170024Y-101785323D01*
X196335074Y-101719868D01*
X196354634Y-101711671D01*
X196399083Y-101694361D01*
X196434507Y-101682349D01*
X196454599Y-101677852D01*
X196460512Y-101678191D01*
X196494366Y-101693459D01*
X196524969Y-101729778D01*
X196550286Y-101784872D01*
X196550501Y-101785498D01*
X196563374Y-101840721D01*
X196571086Y-101910795D01*
X196573387Y-101987474D01*
X196570023Y-102062509D01*
X196560744Y-102127652D01*
X196553883Y-102156444D01*
X196540712Y-102194951D01*
X196522101Y-102227190D01*
X196495189Y-102255402D01*
X196457111Y-102281824D01*
X196405004Y-102308694D01*
X196336004Y-102338253D01*
X196247249Y-102372738D01*
X196198949Y-102390781D01*
X195934133Y-102481024D01*
X195667873Y-102556624D01*
X195396210Y-102618393D01*
X195115187Y-102667140D01*
X194820846Y-102703677D01*
X194509229Y-102728816D01*
X194432121Y-102731342D01*
X194327901Y-102730453D01*
X194209167Y-102726000D01*
X194080578Y-102718351D01*
X193946792Y-102707876D01*
X193812470Y-102694945D01*
X193682270Y-102679926D01*
X193560852Y-102663188D01*
X193452875Y-102645102D01*
X193422619Y-102639360D01*
X193079836Y-102561849D01*
X192747393Y-102463224D01*
X192424328Y-102343092D01*
X192109682Y-102201063D01*
X191802493Y-102036745D01*
X191501803Y-101849746D01*
X191220449Y-101648624D01*
X190949344Y-101426251D01*
X190694581Y-101186917D01*
X190456643Y-100931179D01*
X190236014Y-100659594D01*
X190033180Y-100372722D01*
X189848625Y-100071119D01*
X189682833Y-99755344D01*
X189640530Y-99665670D01*
X189595928Y-99566463D01*
X189553332Y-99467263D01*
X189514472Y-99372307D01*
X189481080Y-99285834D01*
X189454889Y-99212081D01*
X189437629Y-99155286D01*
X189436222Y-99149730D01*
X189422214Y-99055898D01*
X189422881Y-98955596D01*
X189438199Y-98860244D01*
X189446492Y-98826869D01*
X189454750Y-98791790D01*
X189458999Y-98771266D01*
X189473992Y-98728757D01*
X189501719Y-98699291D01*
X189537111Y-98686958D01*
X189575221Y-98695001D01*
G37*
G36*
X194626833Y-89816995D02*
G01*
X194890021Y-89850025D01*
X195089534Y-89891070D01*
X195342513Y-89963623D01*
X195588459Y-90057278D01*
X195825253Y-90170995D01*
X196050783Y-90303734D01*
X196262931Y-90454453D01*
X196459582Y-90622112D01*
X196488320Y-90649929D01*
X196525411Y-90688921D01*
X196553767Y-90722439D01*
X196568856Y-90745375D01*
X196576489Y-90768169D01*
X196583903Y-90818560D01*
X196583497Y-90874218D01*
X196575999Y-90928023D01*
X196562138Y-90972855D01*
X196542641Y-91001592D01*
X196538159Y-91005387D01*
X196530980Y-91010180D01*
X196522664Y-91010669D01*
X196510423Y-91004970D01*
X196491464Y-90991201D01*
X196463000Y-90967480D01*
X196422238Y-90931922D01*
X196366391Y-90882645D01*
X196239217Y-90776081D01*
X196029077Y-90623328D01*
X195809098Y-90491352D01*
X195578247Y-90379675D01*
X195335495Y-90287818D01*
X195079810Y-90215306D01*
X194810160Y-90161659D01*
X194754769Y-90154580D01*
X194667209Y-90147582D01*
X194565429Y-90142837D01*
X194454694Y-90140344D01*
X194340268Y-90140105D01*
X194227416Y-90142118D01*
X194121402Y-90146384D01*
X194027491Y-90152902D01*
X193950946Y-90161673D01*
X193928391Y-90165125D01*
X193798728Y-90188202D01*
X193671107Y-90216977D01*
X193539873Y-90252977D01*
X193399370Y-90297731D01*
X193243944Y-90352769D01*
X193242860Y-90353172D01*
X193209967Y-90366933D01*
X193162013Y-90388780D01*
X193104696Y-90415939D01*
X193043716Y-90445636D01*
X192984770Y-90475098D01*
X192933558Y-90501552D01*
X192895777Y-90522223D01*
X192864821Y-90540248D01*
X192758737Y-90604738D01*
X192663645Y-90667821D01*
X192570860Y-90735465D01*
X192471696Y-90813638D01*
X192450623Y-90830200D01*
X192414563Y-90855856D01*
X192387065Y-90871921D01*
X192372840Y-90875450D01*
X192362854Y-90864731D01*
X192346571Y-90835310D01*
X192330905Y-90796833D01*
X192319115Y-90757641D01*
X192314460Y-90726073D01*
X192316848Y-90681918D01*
X192331692Y-90623634D01*
X192362975Y-90572920D01*
X192413979Y-90523083D01*
X192419243Y-90518706D01*
X192632632Y-90356718D01*
X192857414Y-90214807D01*
X193092124Y-90093369D01*
X193335296Y-89992803D01*
X193585467Y-89913508D01*
X193841171Y-89855882D01*
X194100943Y-89820322D01*
X194363319Y-89807227D01*
X194626833Y-89816995D01*
G37*
G36*
X194543421Y-87552243D02*
G01*
X194751401Y-87566335D01*
X194969611Y-87589919D01*
X195192195Y-87622128D01*
X195413297Y-87662098D01*
X195627059Y-87708965D01*
X195827627Y-87761863D01*
X195865597Y-87773108D01*
X195952108Y-87800248D01*
X196042479Y-87830380D01*
X196133397Y-87862244D01*
X196221549Y-87894582D01*
X196303621Y-87926132D01*
X196376302Y-87955637D01*
X196436276Y-87981837D01*
X196480232Y-88003471D01*
X196504856Y-88019282D01*
X196521269Y-88040264D01*
X196542304Y-88083949D01*
X196560593Y-88140152D01*
X196573755Y-88202537D01*
X196579429Y-88288246D01*
X196572929Y-88381475D01*
X196555113Y-88469894D01*
X196550503Y-88484447D01*
X196531241Y-88528246D01*
X196507278Y-88566605D01*
X196482609Y-88593810D01*
X196461230Y-88604148D01*
X196457631Y-88603545D01*
X196434609Y-88596388D01*
X196395628Y-88582427D01*
X196345065Y-88563264D01*
X196287296Y-88540499D01*
X196086902Y-88465196D01*
X195771215Y-88365549D01*
X195447872Y-88285379D01*
X195121588Y-88225802D01*
X194797076Y-88187932D01*
X194763685Y-88185487D01*
X194665125Y-88180835D01*
X194550911Y-88178343D01*
X194425960Y-88177900D01*
X194295192Y-88179395D01*
X194163524Y-88182717D01*
X194035876Y-88187755D01*
X193917165Y-88194399D01*
X193812310Y-88202538D01*
X193726230Y-88212061D01*
X193626280Y-88226443D01*
X193336275Y-88278522D01*
X193057381Y-88345167D01*
X192782646Y-88428187D01*
X192505115Y-88529387D01*
X192417421Y-88564920D01*
X192106834Y-88706740D01*
X191808379Y-88868304D01*
X191522885Y-89048773D01*
X191251184Y-89247311D01*
X190994105Y-89463081D01*
X190752477Y-89695246D01*
X190527130Y-89942968D01*
X190318895Y-90205411D01*
X190128600Y-90481737D01*
X189957076Y-90771109D01*
X189805153Y-91072691D01*
X189673659Y-91385646D01*
X189642895Y-91462721D01*
X189613631Y-91525232D01*
X189587211Y-91567088D01*
X189562199Y-91589537D01*
X189537158Y-91593830D01*
X189510652Y-91581214D01*
X189481246Y-91552938D01*
X189461956Y-91524760D01*
X189437956Y-91468536D01*
X189420315Y-91400540D01*
X189410684Y-91327700D01*
X189410713Y-91256945D01*
X189418882Y-91202529D01*
X189439486Y-91121036D01*
X189470773Y-91024342D01*
X189511582Y-90915048D01*
X189560747Y-90795756D01*
X189617106Y-90669065D01*
X189679494Y-90537576D01*
X189746749Y-90403889D01*
X189817707Y-90270606D01*
X189891204Y-90140327D01*
X189966077Y-90015653D01*
X189982442Y-89989486D01*
X190177112Y-89702369D01*
X190390073Y-89429747D01*
X190620302Y-89172391D01*
X190866776Y-88931074D01*
X191128472Y-88706567D01*
X191404367Y-88499642D01*
X191693438Y-88311071D01*
X191994663Y-88141626D01*
X192307018Y-87992079D01*
X192629480Y-87863202D01*
X192961027Y-87755766D01*
X193149104Y-87706491D01*
X193354305Y-87661640D01*
X193567364Y-87623054D01*
X193782455Y-87591584D01*
X193993752Y-87568080D01*
X194195431Y-87553393D01*
X194381667Y-87548372D01*
X194543421Y-87552243D01*
G37*
G36*
X194643782Y-91402056D02*
G01*
X194860958Y-91454724D01*
X195072131Y-91527810D01*
X195275573Y-91620765D01*
X195469555Y-91733038D01*
X195652348Y-91864081D01*
X195822225Y-92013343D01*
X195977456Y-92180275D01*
X195999676Y-92207157D01*
X196138207Y-92395830D01*
X196256229Y-92595957D01*
X196353229Y-92806291D01*
X196428696Y-93025580D01*
X196482116Y-93252575D01*
X196512977Y-93486026D01*
X196515020Y-93511396D01*
X196520824Y-93594847D01*
X196523600Y-93664153D01*
X196523368Y-93726739D01*
X196520148Y-93790026D01*
X196513958Y-93861439D01*
X196500590Y-93973095D01*
X196456047Y-94207849D01*
X196390329Y-94432580D01*
X196303643Y-94646744D01*
X196196193Y-94849798D01*
X196068184Y-95041201D01*
X195992172Y-95143157D01*
X196064491Y-95239953D01*
X196147816Y-95359148D01*
X196263597Y-95558105D01*
X196358193Y-95767709D01*
X196431572Y-95987875D01*
X196483703Y-96218517D01*
X196514555Y-96459552D01*
X196520103Y-96552730D01*
X196516796Y-96775069D01*
X196490769Y-96997030D01*
X196442637Y-97216574D01*
X196373014Y-97431661D01*
X196282515Y-97640253D01*
X196171755Y-97840309D01*
X196041349Y-98029790D01*
X196035144Y-98037822D01*
X195981335Y-98102099D01*
X195914657Y-98174750D01*
X195840389Y-98250521D01*
X195763810Y-98324162D01*
X195690201Y-98390421D01*
X195624843Y-98444047D01*
X195586164Y-98473111D01*
X195400791Y-98597101D01*
X195207672Y-98701081D01*
X195004292Y-98786134D01*
X194788134Y-98853342D01*
X194556683Y-98903788D01*
X194549551Y-98904962D01*
X194496405Y-98910764D01*
X194425627Y-98915071D01*
X194342361Y-98917885D01*
X194251752Y-98919207D01*
X194158943Y-98919040D01*
X194069079Y-98917386D01*
X193987303Y-98914246D01*
X193918760Y-98909624D01*
X193868594Y-98903520D01*
X193732247Y-98876604D01*
X193552702Y-98829524D01*
X193381394Y-98769548D01*
X193210163Y-98694081D01*
X193014561Y-98587535D01*
X192826303Y-98459789D01*
X192652358Y-98315115D01*
X192493945Y-98155013D01*
X192352282Y-97980984D01*
X192228587Y-97794528D01*
X192124078Y-97597147D01*
X192039974Y-97390341D01*
X191977493Y-97175610D01*
X191937451Y-96965938D01*
X191914346Y-96732050D01*
X191914131Y-96612949D01*
X192461338Y-96612949D01*
X192462602Y-96713060D01*
X192466840Y-96807582D01*
X192474056Y-96890583D01*
X192484257Y-96956133D01*
X192528302Y-97124599D01*
X192599551Y-97316574D01*
X192690321Y-97497895D01*
X192799445Y-97666279D01*
X192925756Y-97819442D01*
X192973132Y-97868570D01*
X193125242Y-98004030D01*
X193290478Y-98119799D01*
X193468389Y-98215621D01*
X193658523Y-98291242D01*
X193860427Y-98346407D01*
X193903637Y-98355107D01*
X193950014Y-98362429D01*
X193998768Y-98367435D01*
X194055233Y-98370522D01*
X194124745Y-98372083D01*
X194212639Y-98372516D01*
X194291260Y-98372185D01*
X194362656Y-98370776D01*
X194420378Y-98367890D01*
X194469761Y-98363130D01*
X194516140Y-98356100D01*
X194564850Y-98346407D01*
X194719661Y-98306258D01*
X194912439Y-98235582D01*
X195093127Y-98144714D01*
X195261157Y-98033948D01*
X195415962Y-97903581D01*
X195469288Y-97851383D01*
X195599894Y-97705034D01*
X195709503Y-97551372D01*
X195799916Y-97387670D01*
X195872931Y-97211201D01*
X195890178Y-97160283D01*
X195938193Y-96982073D01*
X195967561Y-96799408D01*
X195968592Y-96789818D01*
X195976502Y-96679220D01*
X195977834Y-96568762D01*
X195972422Y-96469725D01*
X195955987Y-96351713D01*
X195925840Y-96210439D01*
X195885671Y-96069169D01*
X195837741Y-95935735D01*
X195784311Y-95817973D01*
X195769796Y-95790670D01*
X195737324Y-95733757D01*
X195702600Y-95677282D01*
X195668359Y-95625319D01*
X195637334Y-95581939D01*
X195612259Y-95551214D01*
X195595866Y-95537218D01*
X195595519Y-95537113D01*
X195579305Y-95541560D01*
X195547939Y-95556731D01*
X195505795Y-95580326D01*
X195457250Y-95610047D01*
X195305925Y-95699284D01*
X195100213Y-95798332D01*
X194889185Y-95874673D01*
X194671459Y-95928707D01*
X194445655Y-95960833D01*
X194210392Y-95971453D01*
X194039411Y-95965556D01*
X193810799Y-95938102D01*
X193589010Y-95888074D01*
X193373387Y-95815275D01*
X193163274Y-95719513D01*
X192958013Y-95600592D01*
X192920054Y-95577174D01*
X192878926Y-95554265D01*
X192847927Y-95539833D01*
X192831810Y-95536298D01*
X192828747Y-95537981D01*
X192810327Y-95556703D01*
X192784086Y-95591569D01*
X192752503Y-95638630D01*
X192718058Y-95693939D01*
X192683229Y-95753548D01*
X192650498Y-95813508D01*
X192622341Y-95869871D01*
X192580160Y-95966155D01*
X192526822Y-96117150D01*
X192484864Y-96279907D01*
X192475336Y-96338390D01*
X192467710Y-96419683D01*
X192463043Y-96513180D01*
X192461338Y-96612949D01*
X191914131Y-96612949D01*
X191913927Y-96500309D01*
X191935924Y-96272038D01*
X191980068Y-96048560D01*
X192046091Y-95831199D01*
X192133725Y-95621276D01*
X192242700Y-95420117D01*
X192372748Y-95229044D01*
X192383443Y-95214609D01*
X192408263Y-95178222D01*
X192424439Y-95150060D01*
X192428073Y-95137978D01*
X193265663Y-95137978D01*
X193267660Y-95148643D01*
X193287277Y-95165293D01*
X193307328Y-95178850D01*
X193350737Y-95203539D01*
X193406876Y-95232377D01*
X193470251Y-95262756D01*
X193535372Y-95292066D01*
X193596746Y-95317700D01*
X193648882Y-95337048D01*
X193739887Y-95365574D01*
X193832861Y-95389046D01*
X193925470Y-95405359D01*
X194025680Y-95415889D01*
X194141457Y-95422009D01*
X194189117Y-95423326D01*
X194288029Y-95423756D01*
X194374041Y-95420886D01*
X194441837Y-95414844D01*
X194463437Y-95411808D01*
X194622070Y-95380585D01*
X194780473Y-95334718D01*
X194931194Y-95276661D01*
X195066782Y-95208872D01*
X195081514Y-95200281D01*
X195119512Y-95176472D01*
X195146949Y-95156825D01*
X195158680Y-95144921D01*
X195152886Y-95133346D01*
X195128457Y-95113967D01*
X195088447Y-95089437D01*
X195036350Y-95061461D01*
X194975659Y-95031741D01*
X194909870Y-95001981D01*
X194842474Y-94973884D01*
X194776967Y-94949155D01*
X194716842Y-94929496D01*
X194694054Y-94922893D01*
X194600421Y-94898539D01*
X194512856Y-94881336D01*
X194423966Y-94870307D01*
X194326358Y-94864475D01*
X194212639Y-94862863D01*
X194146409Y-94863471D01*
X194043590Y-94867488D01*
X193952807Y-94876188D01*
X193866714Y-94890649D01*
X193777963Y-94911949D01*
X193679206Y-94941166D01*
X193671359Y-94943701D01*
X193617119Y-94963312D01*
X193553659Y-94988973D01*
X193486216Y-95018278D01*
X193420027Y-95048825D01*
X193360328Y-95078207D01*
X193312355Y-95104020D01*
X193281345Y-95123861D01*
X193280073Y-95124843D01*
X193265663Y-95137978D01*
X192428073Y-95137978D01*
X192428886Y-95135276D01*
X192424903Y-95128230D01*
X192408872Y-95104369D01*
X192383930Y-95069308D01*
X192353431Y-95027825D01*
X192344571Y-95015854D01*
X192231646Y-94844788D01*
X192132805Y-94659852D01*
X192051084Y-94467341D01*
X191989520Y-94273546D01*
X191978555Y-94231291D01*
X191958550Y-94149658D01*
X191943447Y-94078199D01*
X191932568Y-94011267D01*
X191925234Y-93943213D01*
X191920766Y-93868390D01*
X191918487Y-93781149D01*
X191917718Y-93675844D01*
X191917909Y-93638985D01*
X192459317Y-93638985D01*
X192460505Y-93744106D01*
X192465554Y-93846183D01*
X192474316Y-93938404D01*
X192486643Y-94013957D01*
X192503398Y-94083920D01*
X192549201Y-94233598D01*
X192606886Y-94380743D01*
X192673550Y-94518364D01*
X192746289Y-94639464D01*
X192778654Y-94688040D01*
X192804246Y-94724465D01*
X192824671Y-94744636D01*
X192831810Y-94746395D01*
X192845066Y-94749661D01*
X192870572Y-94740645D01*
X192906326Y-94718694D01*
X192957468Y-94684914D01*
X193098757Y-94600048D01*
X193307495Y-94498021D01*
X193525563Y-94417807D01*
X193752971Y-94359404D01*
X193989728Y-94322807D01*
X194006642Y-94321081D01*
X194212639Y-94311950D01*
X194222644Y-94311506D01*
X194441810Y-94323988D01*
X194661157Y-94357790D01*
X194877703Y-94412175D01*
X195088467Y-94486406D01*
X195290468Y-94579746D01*
X195480723Y-94691457D01*
X195592105Y-94764735D01*
X195614326Y-94736357D01*
X195697185Y-94619789D01*
X195791924Y-94452134D01*
X195868571Y-94271796D01*
X195926038Y-94081437D01*
X195963233Y-93883719D01*
X195969830Y-93826161D01*
X195976959Y-93631780D01*
X195961570Y-93436094D01*
X195924169Y-93241998D01*
X195865265Y-93052387D01*
X195785367Y-92870157D01*
X195693358Y-92709347D01*
X195574851Y-92545925D01*
X195440001Y-92399392D01*
X195289424Y-92270209D01*
X195123733Y-92158840D01*
X194943545Y-92065744D01*
X194749473Y-91991386D01*
X194542132Y-91936225D01*
X194450615Y-91921449D01*
X194337444Y-91911762D01*
X194216197Y-91908444D01*
X194094519Y-91911490D01*
X193980057Y-91920896D01*
X193880457Y-91936655D01*
X193701032Y-91983557D01*
X193509482Y-92055206D01*
X193330365Y-92145664D01*
X193164754Y-92253808D01*
X193013718Y-92378516D01*
X192878330Y-92518664D01*
X192759660Y-92673129D01*
X192658779Y-92840789D01*
X192576758Y-93020520D01*
X192514670Y-93211199D01*
X192473583Y-93411703D01*
X192469113Y-93446855D01*
X192462137Y-93537631D01*
X192459317Y-93638985D01*
X191917909Y-93638985D01*
X191918305Y-93562621D01*
X191921050Y-93466013D01*
X191926618Y-93381942D01*
X191935666Y-93304803D01*
X191948855Y-93228993D01*
X191966843Y-93148905D01*
X191990291Y-93058936D01*
X192030828Y-92926119D01*
X192115371Y-92712044D01*
X192219793Y-92509323D01*
X192342932Y-92319104D01*
X192483625Y-92142541D01*
X192640710Y-91980783D01*
X192813024Y-91834981D01*
X192999404Y-91706286D01*
X193198689Y-91595849D01*
X193409716Y-91504821D01*
X193631321Y-91434352D01*
X193749623Y-91406553D01*
X193973524Y-91372054D01*
X194198337Y-91360171D01*
X194216197Y-91360983D01*
X194422332Y-91370355D01*
X194643782Y-91402056D01*
G37*
G36*
X194763865Y-88697586D02*
G01*
X195065710Y-88737268D01*
X195364407Y-88799505D01*
X195658740Y-88884242D01*
X195947495Y-88991424D01*
X196229453Y-89120996D01*
X196233043Y-89122812D01*
X196317263Y-89165790D01*
X196382829Y-89200379D01*
X196432350Y-89228443D01*
X196468435Y-89251845D01*
X196493694Y-89272450D01*
X196510738Y-89292123D01*
X196522175Y-89312727D01*
X196530615Y-89336127D01*
X196541696Y-89388826D01*
X196547658Y-89454922D01*
X196547994Y-89524160D01*
X196542672Y-89587816D01*
X196531663Y-89637168D01*
X196518348Y-89670700D01*
X196493966Y-89710268D01*
X196465426Y-89727978D01*
X196430084Y-89725012D01*
X196385293Y-89702551D01*
X196346136Y-89679766D01*
X196289960Y-89649710D01*
X196221892Y-89614940D01*
X196146858Y-89577889D01*
X196069787Y-89540991D01*
X195995605Y-89506679D01*
X195929241Y-89477384D01*
X195894300Y-89462735D01*
X195692527Y-89387418D01*
X195476330Y-89320887D01*
X195252765Y-89264944D01*
X195028887Y-89221389D01*
X194811751Y-89192025D01*
X194786365Y-89189712D01*
X194714356Y-89185048D01*
X194627598Y-89181363D01*
X194530896Y-89178694D01*
X194429055Y-89177076D01*
X194326881Y-89176546D01*
X194229179Y-89177139D01*
X194140754Y-89178892D01*
X194066411Y-89181841D01*
X194010957Y-89186021D01*
X193965231Y-89191016D01*
X193893078Y-89199238D01*
X193833706Y-89206674D01*
X193780028Y-89214297D01*
X193724955Y-89223081D01*
X193661400Y-89233998D01*
X193638310Y-89238125D01*
X193351702Y-89302068D01*
X193068002Y-89388598D01*
X192789674Y-89496662D01*
X192519182Y-89625206D01*
X192258992Y-89773176D01*
X192011566Y-89939519D01*
X191865168Y-90052460D01*
X191679120Y-90213326D01*
X191499712Y-90387432D01*
X191332563Y-90569259D01*
X191183290Y-90753286D01*
X191154787Y-90790651D01*
X191120515Y-90833524D01*
X191095610Y-90860683D01*
X191077520Y-90874401D01*
X191063695Y-90876948D01*
X191051585Y-90870597D01*
X191043177Y-90861717D01*
X191023469Y-90834967D01*
X191002022Y-90800744D01*
X190995331Y-90788857D01*
X190982057Y-90760387D01*
X190974426Y-90730926D01*
X190970948Y-90692907D01*
X190970134Y-90638758D01*
X190970978Y-90594864D01*
X190975689Y-90544402D01*
X190986302Y-90498939D01*
X191004787Y-90453928D01*
X191033114Y-90404820D01*
X191073253Y-90347065D01*
X191127173Y-90276114D01*
X191162059Y-90231890D01*
X191362683Y-89999866D01*
X191580639Y-89782909D01*
X191814259Y-89582270D01*
X192061877Y-89399198D01*
X192321826Y-89234944D01*
X192592440Y-89090756D01*
X192872050Y-88967886D01*
X192954817Y-88936265D01*
X193250004Y-88839449D01*
X193549341Y-88765522D01*
X193851612Y-88714427D01*
X194155600Y-88686110D01*
X194460090Y-88680515D01*
X194763865Y-88697586D01*
G37*
G36*
X200298673Y-99368555D02*
G01*
X200297796Y-99382909D01*
X200288647Y-99396853D01*
X200263497Y-99400038D01*
X200234917Y-99402720D01*
X200178551Y-99417445D01*
X200118645Y-99442093D01*
X200064290Y-99473317D01*
X200051545Y-99482659D01*
X200015095Y-99518491D01*
X199987035Y-99563852D01*
X199966574Y-99621498D01*
X199952918Y-99694185D01*
X199945276Y-99784670D01*
X199942854Y-99895709D01*
X199942765Y-100041404D01*
X200817706Y-100038073D01*
X200905888Y-100037724D01*
X201062592Y-100037012D01*
X201197966Y-100036238D01*
X201313599Y-100035365D01*
X201411080Y-100034355D01*
X201491999Y-100033172D01*
X201557946Y-100031779D01*
X201610511Y-100030140D01*
X201651283Y-100028216D01*
X201681852Y-100025972D01*
X201703808Y-100023370D01*
X201718741Y-100020374D01*
X201728239Y-100016946D01*
X201758895Y-99993477D01*
X201789524Y-99948224D01*
X201809850Y-99890262D01*
X201817216Y-99825315D01*
X201818070Y-99796247D01*
X201824299Y-99761528D01*
X201837627Y-99746404D01*
X201859307Y-99748591D01*
X201862736Y-99751425D01*
X201866663Y-99760986D01*
X201869792Y-99779091D01*
X201872206Y-99807908D01*
X201873990Y-99849607D01*
X201875231Y-99906356D01*
X201876011Y-99980324D01*
X201876417Y-100073682D01*
X201876534Y-100188596D01*
X201876534Y-100621990D01*
X201846875Y-100621990D01*
X201830929Y-100620620D01*
X201821629Y-100612585D01*
X201817802Y-100592198D01*
X201816955Y-100553775D01*
X201815016Y-100518118D01*
X201800088Y-100451838D01*
X201771883Y-100399423D01*
X201732137Y-100364744D01*
X201724598Y-100361099D01*
X201714030Y-100357496D01*
X201699670Y-100354388D01*
X201679858Y-100351728D01*
X201652930Y-100349471D01*
X201617228Y-100347572D01*
X201571088Y-100345987D01*
X201512850Y-100344669D01*
X201440853Y-100343574D01*
X201353435Y-100342657D01*
X201248935Y-100341872D01*
X201125691Y-100341175D01*
X200982043Y-100340520D01*
X200816329Y-100339862D01*
X199940010Y-100336529D01*
X199945622Y-100535612D01*
X199947781Y-100598326D01*
X199952461Y-100675924D01*
X199959745Y-100736423D01*
X199970649Y-100783799D01*
X199986186Y-100822029D01*
X200007370Y-100855091D01*
X200035216Y-100886961D01*
X200060250Y-100910761D01*
X200131771Y-100958649D01*
X200210248Y-100983876D01*
X200221907Y-100985883D01*
X200262751Y-100994092D01*
X200285933Y-101002428D01*
X200296295Y-101013386D01*
X200298673Y-101029459D01*
X200298628Y-101033701D01*
X200296903Y-101042849D01*
X200289918Y-101048859D01*
X200273982Y-101052227D01*
X200245403Y-101053451D01*
X200200489Y-101053031D01*
X200135548Y-101051464D01*
X200130503Y-101051330D01*
X200062191Y-101049038D01*
X199995256Y-101046010D01*
X199937146Y-101042624D01*
X199895310Y-101039260D01*
X199818197Y-101031285D01*
X199815150Y-100201507D01*
X199814852Y-100103341D01*
X199814658Y-99969815D01*
X199814717Y-99844603D01*
X199815017Y-99729631D01*
X199815543Y-99626826D01*
X199816282Y-99538114D01*
X199817220Y-99465423D01*
X199818344Y-99410678D01*
X199819640Y-99375807D01*
X199821094Y-99362736D01*
X199821743Y-99362319D01*
X199838931Y-99359085D01*
X199875546Y-99355509D01*
X199927831Y-99351859D01*
X199992028Y-99348403D01*
X200064379Y-99345408D01*
X200298673Y-99337072D01*
X200298673Y-99368555D01*
G37*
G36*
X197992952Y-93839146D02*
G01*
X198042044Y-93841395D01*
X198110608Y-93843267D01*
X198195058Y-93844723D01*
X198291806Y-93845724D01*
X198397266Y-93846232D01*
X198507850Y-93846206D01*
X198619972Y-93845608D01*
X198682244Y-93845101D01*
X198797666Y-93844022D01*
X198892656Y-93842715D01*
X198969454Y-93840912D01*
X199030297Y-93838347D01*
X199077424Y-93834749D01*
X199113073Y-93829853D01*
X199139482Y-93823390D01*
X199158691Y-93815178D01*
X199158889Y-93815093D01*
X199173533Y-93804693D01*
X199185652Y-93791924D01*
X199197484Y-93776516D01*
X199204975Y-93763597D01*
X199218354Y-93726738D01*
X199226896Y-93684573D01*
X199229851Y-93663957D01*
X199238822Y-93632565D01*
X199251308Y-93622457D01*
X199253386Y-93623009D01*
X199257215Y-93628598D01*
X199260258Y-93641848D01*
X199262567Y-93664767D01*
X199264192Y-93699362D01*
X199265185Y-93747641D01*
X199265595Y-93811613D01*
X199265474Y-93893286D01*
X199264873Y-93994666D01*
X199263843Y-94117763D01*
X199263182Y-94188626D01*
X199262041Y-94298577D01*
X199260844Y-94388655D01*
X199259460Y-94461333D01*
X199257758Y-94519085D01*
X199255608Y-94564385D01*
X199252879Y-94599707D01*
X199249440Y-94627524D01*
X199245160Y-94650310D01*
X199239909Y-94670540D01*
X199233556Y-94690686D01*
X199214294Y-94740980D01*
X199164564Y-94829921D01*
X199101543Y-94901518D01*
X199026941Y-94954399D01*
X198942469Y-94987191D01*
X198849838Y-94998521D01*
X198837975Y-94998394D01*
X198744366Y-94985884D01*
X198663178Y-94953274D01*
X198595093Y-94901068D01*
X198540788Y-94829770D01*
X198500946Y-94739884D01*
X198492140Y-94715077D01*
X198480532Y-94688599D01*
X198472694Y-94678319D01*
X198471411Y-94678717D01*
X198461621Y-94692072D01*
X198450054Y-94718488D01*
X198447695Y-94724558D01*
X198419297Y-94773501D01*
X198376749Y-94823671D01*
X198326845Y-94867993D01*
X198276379Y-94899391D01*
X198229705Y-94916655D01*
X198145337Y-94929119D01*
X198058967Y-94920621D01*
X197976041Y-94891309D01*
X197973526Y-94890044D01*
X197903087Y-94845404D01*
X197847493Y-94788475D01*
X197801275Y-94713699D01*
X197794439Y-94700025D01*
X197779047Y-94666841D01*
X197766398Y-94634053D01*
X197756190Y-94598981D01*
X197748117Y-94558946D01*
X197741875Y-94511265D01*
X197737158Y-94453259D01*
X197733662Y-94382248D01*
X197731082Y-94295551D01*
X197730023Y-94239018D01*
X197798442Y-94239018D01*
X197803330Y-94351170D01*
X197823684Y-94449518D01*
X197858653Y-94532804D01*
X197907384Y-94599771D01*
X197969026Y-94649162D01*
X198042725Y-94679718D01*
X198127632Y-94690183D01*
X198194349Y-94683842D01*
X198270251Y-94658231D01*
X198333366Y-94614655D01*
X198381242Y-94554922D01*
X198411426Y-94480840D01*
X198412407Y-94476839D01*
X198421481Y-94422047D01*
X198427468Y-94352263D01*
X198430243Y-94275172D01*
X198430043Y-94247974D01*
X198508082Y-94247974D01*
X198511886Y-94324365D01*
X198519925Y-94393592D01*
X198544345Y-94491596D01*
X198584549Y-94577977D01*
X198638580Y-94647539D01*
X198705091Y-94698944D01*
X198782734Y-94730852D01*
X198870163Y-94741923D01*
X198947472Y-94731286D01*
X199019135Y-94699442D01*
X199081017Y-94648425D01*
X199130655Y-94580276D01*
X199165587Y-94497037D01*
X199167178Y-94490958D01*
X199173090Y-94454552D01*
X199177902Y-94404198D01*
X199181389Y-94346155D01*
X199183326Y-94286681D01*
X199183489Y-94232034D01*
X199181654Y-94188472D01*
X199177597Y-94162252D01*
X199176938Y-94160074D01*
X199172009Y-94138024D01*
X199166132Y-94105900D01*
X199158691Y-94061411D01*
X198522235Y-94061411D01*
X198514882Y-94105900D01*
X198513856Y-94112547D01*
X198508682Y-94174131D01*
X198508082Y-94247974D01*
X198430043Y-94247974D01*
X198429680Y-94198460D01*
X198425653Y-94129811D01*
X198418036Y-94076912D01*
X198416963Y-94072455D01*
X198413704Y-94065365D01*
X198406500Y-94060013D01*
X198392527Y-94056141D01*
X198368956Y-94053492D01*
X198332963Y-94051808D01*
X198281722Y-94050833D01*
X198212405Y-94050310D01*
X198122187Y-94049980D01*
X198058578Y-94049654D01*
X197978244Y-94049316D01*
X197917146Y-94050341D01*
X197872568Y-94054049D01*
X197841794Y-94061759D01*
X197822105Y-94074791D01*
X197810787Y-94094465D01*
X197805122Y-94122099D01*
X197802393Y-94159014D01*
X197799885Y-94206528D01*
X197798442Y-94239018D01*
X197730023Y-94239018D01*
X197729113Y-94190487D01*
X197727451Y-94064377D01*
X197726671Y-93997368D01*
X197725559Y-93895837D01*
X197724882Y-93814522D01*
X197724738Y-93751179D01*
X197725226Y-93703562D01*
X197726446Y-93669429D01*
X197728498Y-93646535D01*
X197731480Y-93632634D01*
X197735491Y-93625484D01*
X197740632Y-93622840D01*
X197747000Y-93622457D01*
X197756413Y-93623231D01*
X197766359Y-93630440D01*
X197770742Y-93649975D01*
X197771723Y-93687520D01*
X197771751Y-93694036D01*
X197774637Y-93734247D01*
X197784692Y-93762808D01*
X197805356Y-93790225D01*
X197820114Y-93805860D01*
X197834716Y-93816837D01*
X197853848Y-93824327D01*
X197882295Y-93829611D01*
X197924843Y-93833972D01*
X197978244Y-93838074D01*
X197986276Y-93838691D01*
X197992952Y-93839146D01*
G37*
G36*
X197688678Y-95608894D02*
G01*
X197685143Y-95627529D01*
X197670423Y-95638128D01*
X197638257Y-95645220D01*
X197624048Y-95647946D01*
X197571379Y-95663494D01*
X197515516Y-95686270D01*
X197465288Y-95712355D01*
X197429525Y-95737832D01*
X197423452Y-95743978D01*
X197398843Y-95775161D01*
X197376395Y-95811294D01*
X197371966Y-95819995D01*
X197363917Y-95839761D01*
X197358003Y-95863324D01*
X197353778Y-95894669D01*
X197350794Y-95937782D01*
X197348604Y-95996651D01*
X197346759Y-96075260D01*
X197342370Y-96291771D01*
X198129466Y-96291681D01*
X198175227Y-96291656D01*
X198311609Y-96291357D01*
X198442609Y-96290743D01*
X198565935Y-96289843D01*
X198679294Y-96288688D01*
X198780393Y-96287307D01*
X198866937Y-96285730D01*
X198936634Y-96283987D01*
X198987190Y-96282108D01*
X199016313Y-96280123D01*
X199037362Y-96277441D01*
X199102213Y-96263542D01*
X199148106Y-96240816D01*
X199178485Y-96205710D01*
X199196798Y-96154675D01*
X199206492Y-96084158D01*
X199206868Y-96079506D01*
X199211148Y-96037426D01*
X199216705Y-96013258D01*
X199225588Y-96001668D01*
X199239846Y-95997321D01*
X199266539Y-95993530D01*
X199266539Y-96874738D01*
X199239846Y-96870947D01*
X199238077Y-96870680D01*
X199224503Y-96865906D01*
X199216174Y-96853449D01*
X199211082Y-96827965D01*
X199207221Y-96784111D01*
X199199958Y-96727212D01*
X199181611Y-96671335D01*
X199151280Y-96631295D01*
X199106993Y-96603538D01*
X199101875Y-96601426D01*
X199090253Y-96597654D01*
X199075243Y-96594391D01*
X199055150Y-96591590D01*
X199028280Y-96589205D01*
X198992937Y-96587190D01*
X198947426Y-96585498D01*
X198890052Y-96584083D01*
X198819121Y-96582899D01*
X198732937Y-96581899D01*
X198629806Y-96581038D01*
X198508033Y-96580269D01*
X198365922Y-96579545D01*
X198201779Y-96578821D01*
X197344633Y-96575212D01*
X197344633Y-96769451D01*
X197344697Y-96794838D01*
X197346456Y-96883740D01*
X197351207Y-96953861D01*
X197359728Y-97009096D01*
X197372800Y-97053340D01*
X197391203Y-97090488D01*
X197415716Y-97124436D01*
X197442437Y-97150948D01*
X197498625Y-97188937D01*
X197564728Y-97218597D01*
X197632326Y-97235607D01*
X197645654Y-97237598D01*
X197673610Y-97244240D01*
X197685924Y-97254693D01*
X197688678Y-97272990D01*
X197688678Y-97302426D01*
X197454371Y-97293918D01*
X197442556Y-97293486D01*
X197371848Y-97290785D01*
X197310352Y-97288242D01*
X197261694Y-97286021D01*
X197229497Y-97284284D01*
X197217389Y-97283197D01*
X197217022Y-97276087D01*
X197216485Y-97247268D01*
X197215897Y-97198069D01*
X197215271Y-97130387D01*
X197214620Y-97046118D01*
X197213957Y-96947157D01*
X197213296Y-96835401D01*
X197212650Y-96712744D01*
X197212033Y-96581082D01*
X197211457Y-96442312D01*
X197208201Y-95603638D01*
X197243792Y-95598358D01*
X197258930Y-95596857D01*
X197296756Y-95594428D01*
X197350056Y-95591771D01*
X197414067Y-95589119D01*
X197484031Y-95586701D01*
X197688678Y-95580323D01*
X197688678Y-95608894D01*
G37*
G36*
X199253925Y-97908182D02*
G01*
X199257088Y-97918910D01*
X199259697Y-97939190D01*
X199261802Y-97970792D01*
X199263451Y-98015489D01*
X199264691Y-98075054D01*
X199265572Y-98151257D01*
X199266141Y-98245871D01*
X199266447Y-98360667D01*
X199266539Y-98497419D01*
X199266539Y-99089615D01*
X199085607Y-99149917D01*
X199046311Y-99162898D01*
X198988083Y-99181676D01*
X198939820Y-99196678D01*
X198905688Y-99206621D01*
X198889857Y-99210220D01*
X198881061Y-99209289D01*
X198873643Y-99199998D01*
X198884557Y-99182508D01*
X198912006Y-99159013D01*
X198954193Y-99131704D01*
X198998942Y-99102989D01*
X199049142Y-99065881D01*
X199089656Y-99031014D01*
X199109767Y-99010506D01*
X199134173Y-98980377D01*
X199152608Y-98947662D01*
X199165880Y-98908843D01*
X199174798Y-98860399D01*
X199180167Y-98798812D01*
X199182796Y-98720563D01*
X199183493Y-98622132D01*
X199183379Y-98556521D01*
X199182747Y-98493058D01*
X199181280Y-98446988D01*
X199178665Y-98414792D01*
X199174592Y-98392950D01*
X199168749Y-98377943D01*
X199160824Y-98366252D01*
X199138154Y-98338244D01*
X198501335Y-98338244D01*
X198498047Y-98521663D01*
X198497454Y-98606963D01*
X198500273Y-98692888D01*
X198508050Y-98760011D01*
X198521889Y-98810952D01*
X198542895Y-98848327D01*
X198572175Y-98874755D01*
X198610832Y-98892854D01*
X198659972Y-98905242D01*
X198669801Y-98907163D01*
X198707677Y-98916636D01*
X198727163Y-98926900D01*
X198732676Y-98940071D01*
X198732030Y-98944945D01*
X198727497Y-98950527D01*
X198716176Y-98954656D01*
X198695244Y-98957548D01*
X198661878Y-98959420D01*
X198613255Y-98960489D01*
X198546551Y-98960972D01*
X198458943Y-98961084D01*
X198398659Y-98961039D01*
X198325218Y-98960703D01*
X198270902Y-98959857D01*
X198232938Y-98958292D01*
X198208553Y-98955798D01*
X198194975Y-98952163D01*
X198189431Y-98947178D01*
X198189148Y-98940634D01*
X198189321Y-98939834D01*
X198205150Y-98922841D01*
X198243498Y-98911577D01*
X198292375Y-98900046D01*
X198343857Y-98875551D01*
X198381632Y-98838650D01*
X198382241Y-98837825D01*
X198390629Y-98824681D01*
X198396928Y-98808975D01*
X198401509Y-98787179D01*
X198404743Y-98755765D01*
X198407004Y-98711207D01*
X198408660Y-98649977D01*
X198410086Y-98568548D01*
X198413745Y-98331902D01*
X198113495Y-98335073D01*
X197813246Y-98338244D01*
X197813246Y-98617039D01*
X197813248Y-98628493D01*
X197813493Y-98716689D01*
X197814290Y-98784702D01*
X197815844Y-98835713D01*
X197818363Y-98872902D01*
X197822053Y-98899450D01*
X197827120Y-98918537D01*
X197833770Y-98933344D01*
X197868086Y-98979093D01*
X197918452Y-99014685D01*
X197987645Y-99040754D01*
X197996911Y-99043385D01*
X198033101Y-99055913D01*
X198051391Y-99068294D01*
X198056450Y-99083424D01*
X198055825Y-99091891D01*
X198050465Y-99099746D01*
X198035610Y-99103096D01*
X198006550Y-99102707D01*
X197958575Y-99099345D01*
X197954629Y-99099042D01*
X197896957Y-99095334D01*
X197838908Y-99092687D01*
X197792484Y-99091655D01*
X197724269Y-99091584D01*
X197724269Y-98486417D01*
X197724293Y-98354529D01*
X197724414Y-98244271D01*
X197724709Y-98153705D01*
X197725256Y-98080895D01*
X197726132Y-98023905D01*
X197727416Y-97980797D01*
X197729183Y-97949635D01*
X197731512Y-97928482D01*
X197734481Y-97915401D01*
X197738166Y-97908455D01*
X197742645Y-97905708D01*
X197747996Y-97905223D01*
X197753802Y-97905512D01*
X197765292Y-97911399D01*
X197770499Y-97929335D01*
X197771723Y-97965130D01*
X197771847Y-97974359D01*
X197781249Y-98036315D01*
X197805470Y-98080195D01*
X197844315Y-98105618D01*
X197846661Y-98106275D01*
X197871946Y-98109407D01*
X197917321Y-98112109D01*
X197980050Y-98114385D01*
X198057393Y-98116240D01*
X198146612Y-98117677D01*
X198244968Y-98118701D01*
X198349724Y-98119314D01*
X198458140Y-98119522D01*
X198567479Y-98119327D01*
X198675000Y-98118735D01*
X198777967Y-98117747D01*
X198873641Y-98116370D01*
X198959282Y-98114606D01*
X199032153Y-98112459D01*
X199089515Y-98109934D01*
X199128630Y-98107034D01*
X199146759Y-98103763D01*
X199178634Y-98080708D01*
X199210383Y-98032870D01*
X199226896Y-97967338D01*
X199229119Y-97951307D01*
X199238178Y-97916871D01*
X199250396Y-97905223D01*
X199253925Y-97908182D01*
G37*
G36*
X191091335Y-99413524D02*
G01*
X191114722Y-99434226D01*
X191145348Y-99469929D01*
X191186216Y-99522975D01*
X191303614Y-99671283D01*
X191503976Y-99893771D01*
X191720907Y-100100442D01*
X191952985Y-100290405D01*
X192198786Y-100462764D01*
X192456890Y-100616627D01*
X192725872Y-100751100D01*
X193004310Y-100865288D01*
X193290783Y-100958299D01*
X193583867Y-101029238D01*
X193619829Y-101036397D01*
X193730434Y-101056997D01*
X193831313Y-101073020D01*
X193928032Y-101084972D01*
X194026158Y-101093363D01*
X194131261Y-101098698D01*
X194248906Y-101101485D01*
X194384661Y-101102233D01*
X194494809Y-101101814D01*
X194592538Y-101100389D01*
X194676763Y-101097553D01*
X194752724Y-101092893D01*
X194825658Y-101086000D01*
X194900803Y-101076463D01*
X194983399Y-101063870D01*
X195078683Y-101047811D01*
X195280285Y-101006585D01*
X195512868Y-100944718D01*
X195744995Y-100868615D01*
X195971048Y-100780314D01*
X196185406Y-100681850D01*
X196382452Y-100575260D01*
X196427001Y-100552371D01*
X196460682Y-100545493D01*
X196487138Y-100556617D01*
X196510451Y-100587471D01*
X196534702Y-100639786D01*
X196534885Y-100640239D01*
X196542157Y-100673184D01*
X196546087Y-100724253D01*
X196546263Y-100788132D01*
X196543739Y-100844345D01*
X196538403Y-100889102D01*
X196528934Y-100925033D01*
X196513878Y-100959844D01*
X196509003Y-100969464D01*
X196496692Y-100990669D01*
X196481956Y-101008627D01*
X196461075Y-101026189D01*
X196430329Y-101046202D01*
X196385998Y-101071516D01*
X196324362Y-101104979D01*
X196222840Y-101157679D01*
X195952653Y-101280868D01*
X195671616Y-101385803D01*
X195384601Y-101470780D01*
X195096478Y-101534098D01*
X195083290Y-101536461D01*
X194779748Y-101578464D01*
X194476027Y-101597178D01*
X194173314Y-101592983D01*
X193872795Y-101566256D01*
X193575660Y-101517377D01*
X193283096Y-101446726D01*
X192996290Y-101354681D01*
X192716431Y-101241621D01*
X192444706Y-101107927D01*
X192182303Y-100953975D01*
X191930410Y-100780147D01*
X191690214Y-100586821D01*
X191462904Y-100374375D01*
X191402405Y-100311921D01*
X191330238Y-100233771D01*
X191259188Y-100153289D01*
X191191872Y-100073652D01*
X191130907Y-99998040D01*
X191078909Y-99929630D01*
X191038497Y-99871600D01*
X191012287Y-99827128D01*
X191010427Y-99823376D01*
X190996505Y-99792842D01*
X190987645Y-99764969D01*
X190982788Y-99733163D01*
X190980874Y-99690830D01*
X190980845Y-99631379D01*
X190982097Y-99580937D01*
X190988134Y-99514502D01*
X190999908Y-99466350D01*
X191018332Y-99433331D01*
X191044317Y-99412296D01*
X191054261Y-99407754D01*
X191072182Y-99405481D01*
X191091335Y-99413524D01*
G37*
G36*
X196553281Y-99283127D02*
G01*
X196567675Y-99308095D01*
X196576365Y-99335648D01*
X196583718Y-99391090D01*
X196582929Y-99451697D01*
X196573679Y-99506862D01*
X196566358Y-99524772D01*
X196537983Y-99566840D01*
X196492719Y-99617743D01*
X196432995Y-99675549D01*
X196361240Y-99738325D01*
X196279883Y-99804139D01*
X196191354Y-99871058D01*
X196098081Y-99937150D01*
X196002494Y-100000482D01*
X195907023Y-100059122D01*
X195814095Y-100111137D01*
X195629175Y-100201995D01*
X195388940Y-100299073D01*
X195145430Y-100373614D01*
X194896401Y-100426172D01*
X194639605Y-100457304D01*
X194372797Y-100467566D01*
X194252415Y-100465672D01*
X194043381Y-100451878D01*
X193843017Y-100423731D01*
X193643900Y-100380054D01*
X193438604Y-100319673D01*
X193419669Y-100313413D01*
X193229398Y-100243862D01*
X193051856Y-100165586D01*
X192881139Y-100075493D01*
X192711346Y-99970494D01*
X192536574Y-99847501D01*
X192520865Y-99835805D01*
X192454677Y-99785024D01*
X192405357Y-99743001D01*
X192370467Y-99706153D01*
X192347565Y-99670897D01*
X192334211Y-99633649D01*
X192327966Y-99590827D01*
X192326390Y-99538846D01*
X192327424Y-99511700D01*
X192336153Y-99461303D01*
X192352060Y-99424234D01*
X192373075Y-99403087D01*
X192397126Y-99400455D01*
X192422144Y-99418932D01*
X192425856Y-99422747D01*
X192447031Y-99441078D01*
X192481912Y-99469262D01*
X192526646Y-99504221D01*
X192577381Y-99542880D01*
X192723548Y-99646509D01*
X192951351Y-99784410D01*
X193187938Y-99900468D01*
X193432481Y-99994421D01*
X193684152Y-100066005D01*
X193942121Y-100114958D01*
X194205559Y-100141017D01*
X194473638Y-100143920D01*
X194574519Y-100139440D01*
X194743643Y-100125340D01*
X194902998Y-100102619D01*
X195060887Y-100070235D01*
X195062116Y-100069946D01*
X195310677Y-100000040D01*
X195551936Y-99909465D01*
X195783629Y-99799417D01*
X196003488Y-99671094D01*
X196209246Y-99525690D01*
X196398636Y-99364402D01*
X196437627Y-99328837D01*
X196480550Y-99293808D01*
X196512367Y-99275101D01*
X196535728Y-99271835D01*
X196553281Y-99283127D01*
G37*
G36*
X201150450Y-97010423D02*
G01*
X201235317Y-97014216D01*
X201306999Y-97023207D01*
X201372078Y-97038738D01*
X201437135Y-97062154D01*
X201508753Y-97094795D01*
X201530515Y-97105920D01*
X201583218Y-97138200D01*
X201634849Y-97179090D01*
X201692648Y-97234072D01*
X201699726Y-97241258D01*
X201765711Y-97314748D01*
X201815466Y-97385634D01*
X201853509Y-97461346D01*
X201884357Y-97549314D01*
X201899932Y-97613800D01*
X201911939Y-97736545D01*
X201903187Y-97861826D01*
X201874184Y-97984865D01*
X201825442Y-98100888D01*
X201781441Y-98168629D01*
X201721212Y-98239272D01*
X201650737Y-98307035D01*
X201575961Y-98366202D01*
X201502830Y-98411055D01*
X201490622Y-98417216D01*
X201413140Y-98452985D01*
X201342954Y-98477724D01*
X201272394Y-98493189D01*
X201193788Y-98501134D01*
X201099467Y-98503312D01*
X201091445Y-98503291D01*
X200996280Y-98500405D01*
X200916663Y-98491547D01*
X200845339Y-98475075D01*
X200775053Y-98449353D01*
X200698549Y-98412741D01*
X200630852Y-98372246D01*
X200534565Y-98294764D01*
X200450034Y-98202261D01*
X200381238Y-98099320D01*
X200332157Y-97990527D01*
X200327032Y-97974281D01*
X200311057Y-97895941D01*
X200303436Y-97805521D01*
X200304081Y-97724985D01*
X200375743Y-97724985D01*
X200381901Y-97831075D01*
X200384027Y-97843762D01*
X200411413Y-97940265D01*
X200456856Y-98023084D01*
X200520938Y-98092732D01*
X200604238Y-98149722D01*
X200707338Y-98194568D01*
X200830819Y-98227782D01*
X200871159Y-98235511D01*
X200915055Y-98241952D01*
X200960931Y-98245951D01*
X201014213Y-98247809D01*
X201080332Y-98247826D01*
X201164717Y-98246305D01*
X201205480Y-98245313D01*
X201276345Y-98243044D01*
X201330635Y-98240074D01*
X201373204Y-98235841D01*
X201408903Y-98229785D01*
X201442585Y-98221345D01*
X201479103Y-98209959D01*
X201483851Y-98208367D01*
X201538906Y-98186947D01*
X201593334Y-98161336D01*
X201635998Y-98136734D01*
X201677251Y-98104260D01*
X201732776Y-98046046D01*
X201778667Y-97981036D01*
X201808745Y-97917086D01*
X201817134Y-97887620D01*
X201830187Y-97812278D01*
X201834479Y-97733969D01*
X201829039Y-97664765D01*
X201810909Y-97596609D01*
X201767808Y-97512177D01*
X201704061Y-97438459D01*
X201620192Y-97375913D01*
X201516723Y-97324992D01*
X201394178Y-97286152D01*
X201341439Y-97275632D01*
X201253240Y-97265108D01*
X201154670Y-97259559D01*
X201052448Y-97258977D01*
X200953287Y-97263353D01*
X200863903Y-97272678D01*
X200791013Y-97286943D01*
X200747584Y-97299419D01*
X200656153Y-97333345D01*
X200579715Y-97374854D01*
X200512248Y-97426973D01*
X200481729Y-97457438D01*
X200426357Y-97535996D01*
X200390795Y-97625902D01*
X200375743Y-97724985D01*
X200304081Y-97724985D01*
X200304191Y-97711180D01*
X200313344Y-97621081D01*
X200330918Y-97543382D01*
X200351847Y-97485756D01*
X200411899Y-97369595D01*
X200490869Y-97265429D01*
X200586642Y-97175405D01*
X200697107Y-97101671D01*
X200820148Y-97046374D01*
X200861462Y-97032347D01*
X200896954Y-97022379D01*
X200931819Y-97015976D01*
X200972146Y-97012329D01*
X201024022Y-97010631D01*
X201052448Y-97010402D01*
X201093535Y-97010072D01*
X201150450Y-97010423D01*
G37*
G36*
X199598720Y-101037217D02*
G01*
X199480084Y-101037217D01*
X199480084Y-89232920D01*
X199598720Y-89232920D01*
X199598720Y-101037217D01*
G37*
G36*
X198816237Y-91874233D02*
G01*
X198904293Y-91835373D01*
X198978886Y-91802093D01*
X199037917Y-91775306D01*
X199079286Y-91755921D01*
X199100893Y-91744850D01*
X199135088Y-91721561D01*
X199179260Y-91680487D01*
X199208505Y-91637977D01*
X199219084Y-91598657D01*
X199221980Y-91579204D01*
X199235159Y-91562151D01*
X199254675Y-91564120D01*
X199257983Y-91573195D01*
X199261567Y-91604322D01*
X199264258Y-91655293D01*
X199265951Y-91723922D01*
X199266539Y-91808024D01*
X199266493Y-91849200D01*
X199266017Y-91920903D01*
X199264848Y-91973111D01*
X199262773Y-92008705D01*
X199259577Y-92030565D01*
X199255047Y-92041569D01*
X199248969Y-92044597D01*
X199235056Y-92035643D01*
X199224647Y-92011972D01*
X199223592Y-92006902D01*
X199212159Y-91957521D01*
X199201169Y-91925137D01*
X199187989Y-91903749D01*
X199169988Y-91887356D01*
X199152978Y-91875763D01*
X199135529Y-91870205D01*
X199112416Y-91872711D01*
X199075176Y-91882880D01*
X199050145Y-91891018D01*
X199001585Y-91908701D01*
X198944585Y-91930951D01*
X198886903Y-91954802D01*
X198762335Y-92007977D01*
X198756011Y-92609911D01*
X198910865Y-92672114D01*
X198925293Y-92677868D01*
X198984585Y-92700684D01*
X199038161Y-92720068D01*
X199080625Y-92734122D01*
X199106581Y-92740949D01*
X199114700Y-92741998D01*
X199160191Y-92736400D01*
X199194277Y-92711801D01*
X199213007Y-92670804D01*
X199220902Y-92634184D01*
X199229194Y-92606565D01*
X199238003Y-92593571D01*
X199249543Y-92590323D01*
X199250886Y-92590476D01*
X199255888Y-92595277D01*
X199259733Y-92608673D01*
X199262561Y-92633186D01*
X199264514Y-92671338D01*
X199265733Y-92725651D01*
X199266361Y-92798646D01*
X199266539Y-92892845D01*
X199266516Y-92932217D01*
X199266205Y-93017436D01*
X199265410Y-93082501D01*
X199263983Y-93129979D01*
X199261775Y-93162437D01*
X199258636Y-93182443D01*
X199254417Y-93192564D01*
X199248969Y-93195367D01*
X199234948Y-93186405D01*
X199224278Y-93162742D01*
X199210797Y-93115406D01*
X199186654Y-93068182D01*
X199150423Y-93028305D01*
X199098365Y-92991840D01*
X199026742Y-92954852D01*
X199011719Y-92948079D01*
X198971773Y-92930703D01*
X198913704Y-92905868D01*
X198839830Y-92874548D01*
X198752468Y-92837720D01*
X198653936Y-92796360D01*
X198546549Y-92751444D01*
X198432626Y-92703948D01*
X198314484Y-92654848D01*
X198295437Y-92646942D01*
X198155802Y-92588770D01*
X198036909Y-92538807D01*
X197937608Y-92496539D01*
X197856745Y-92461453D01*
X197793168Y-92433035D01*
X197745725Y-92410770D01*
X197713264Y-92394145D01*
X197694632Y-92382646D01*
X197688678Y-92375759D01*
X197696687Y-92362587D01*
X197727164Y-92342650D01*
X197780621Y-92317923D01*
X197794607Y-92312060D01*
X198072091Y-92312060D01*
X198074567Y-92314508D01*
X198094247Y-92325291D01*
X198130682Y-92342837D01*
X198180454Y-92365675D01*
X198240143Y-92392336D01*
X198306332Y-92421350D01*
X198375601Y-92451245D01*
X198444533Y-92480552D01*
X198509707Y-92507801D01*
X198567705Y-92531522D01*
X198615110Y-92550243D01*
X198648501Y-92562496D01*
X198664460Y-92566809D01*
X198665500Y-92565040D01*
X198668010Y-92545419D01*
X198670171Y-92506829D01*
X198671862Y-92452697D01*
X198672964Y-92386454D01*
X198673358Y-92311528D01*
X198673103Y-92230946D01*
X198672141Y-92162016D01*
X198670337Y-92112436D01*
X198667556Y-92079905D01*
X198663664Y-92062126D01*
X198658528Y-92056799D01*
X198655719Y-92057264D01*
X198633861Y-92064518D01*
X198595494Y-92079381D01*
X198544108Y-92100333D01*
X198483197Y-92125853D01*
X198416252Y-92154422D01*
X198346767Y-92184519D01*
X198278235Y-92214623D01*
X198214146Y-92243216D01*
X198157995Y-92268776D01*
X198113274Y-92289784D01*
X198083475Y-92304718D01*
X198072091Y-92312060D01*
X197794607Y-92312060D01*
X197879031Y-92276668D01*
X197999217Y-92225968D01*
X198122735Y-92173558D01*
X198247485Y-92120350D01*
X198371367Y-92067255D01*
X198492283Y-92015185D01*
X198608133Y-91965050D01*
X198658528Y-91943124D01*
X198716817Y-91917763D01*
X198816237Y-91874233D01*
G37*
G36*
X199258630Y-99680810D02*
G01*
X199258909Y-99681455D01*
X199260449Y-99698467D01*
X199261882Y-99736507D01*
X199263178Y-99793283D01*
X199264307Y-99866500D01*
X199265238Y-99953863D01*
X199265940Y-100053077D01*
X199266384Y-100161850D01*
X199266539Y-100277886D01*
X199266539Y-100867053D01*
X199064074Y-100929997D01*
X198986302Y-100953614D01*
X198927063Y-100970189D01*
X198885790Y-100979722D01*
X198860286Y-100982719D01*
X198848353Y-100979686D01*
X198842542Y-100972811D01*
X198840239Y-100963267D01*
X198840917Y-100962881D01*
X198856108Y-100955041D01*
X198886012Y-100939963D01*
X198924974Y-100920504D01*
X198938428Y-100913652D01*
X199027122Y-100858124D01*
X199093278Y-100795717D01*
X199137101Y-100726244D01*
X199141148Y-100717064D01*
X199149632Y-100695486D01*
X199155857Y-100673255D01*
X199160175Y-100646525D01*
X199162939Y-100611451D01*
X199164504Y-100564186D01*
X199165222Y-100500886D01*
X199165447Y-100417705D01*
X199165474Y-100358619D01*
X199165220Y-100290633D01*
X199164322Y-100240715D01*
X199162452Y-100205513D01*
X199159283Y-100181676D01*
X199154484Y-100165852D01*
X199147727Y-100154691D01*
X199138684Y-100144842D01*
X199111671Y-100117787D01*
X198515072Y-100114408D01*
X198435524Y-100113973D01*
X198304946Y-100113409D01*
X198195081Y-100113298D01*
X198103970Y-100113799D01*
X198029655Y-100115071D01*
X197970176Y-100117272D01*
X197923574Y-100120563D01*
X197887892Y-100125102D01*
X197861169Y-100131048D01*
X197841447Y-100138560D01*
X197826768Y-100147797D01*
X197815172Y-100158918D01*
X197804700Y-100172083D01*
X197797926Y-100183302D01*
X197783367Y-100226023D01*
X197773908Y-100284643D01*
X197771476Y-100306989D01*
X197765279Y-100343634D01*
X197756990Y-100363278D01*
X197745030Y-100370614D01*
X197740214Y-100370767D01*
X197735276Y-100367208D01*
X197731473Y-100357169D01*
X197728659Y-100338187D01*
X197726686Y-100307796D01*
X197725408Y-100263533D01*
X197724677Y-100202935D01*
X197724346Y-100123538D01*
X197724269Y-100022878D01*
X197724314Y-99941330D01*
X197724580Y-99857710D01*
X197725216Y-99793402D01*
X197726368Y-99745942D01*
X197728184Y-99712865D01*
X197730812Y-99691708D01*
X197734397Y-99680007D01*
X197739087Y-99675297D01*
X197745030Y-99675114D01*
X197757483Y-99682662D01*
X197766152Y-99704302D01*
X197771723Y-99744737D01*
X197773042Y-99757031D01*
X197787913Y-99818310D01*
X197814479Y-99860851D01*
X197851953Y-99883292D01*
X197853114Y-99883559D01*
X197874766Y-99885469D01*
X197917010Y-99887141D01*
X197977077Y-99888574D01*
X198052196Y-99889770D01*
X198139598Y-99890727D01*
X198236512Y-99891444D01*
X198340169Y-99891922D01*
X198447799Y-99892160D01*
X198556632Y-99892158D01*
X198663898Y-99891915D01*
X198766827Y-99891432D01*
X198862650Y-99890707D01*
X198948596Y-99889740D01*
X199021896Y-99888532D01*
X199079779Y-99887081D01*
X199119476Y-99885388D01*
X199138217Y-99883452D01*
X199153606Y-99877353D01*
X199188487Y-99847185D01*
X199213926Y-99799465D01*
X199227541Y-99738070D01*
X199230486Y-99713475D01*
X199237013Y-99683600D01*
X199245933Y-99673560D01*
X199258630Y-99680810D01*
G37*
G36*
X201859307Y-95109918D02*
G01*
X201862989Y-95113135D01*
X201866844Y-95123136D01*
X201869914Y-95141783D01*
X201872284Y-95171229D01*
X201874036Y-95213628D01*
X201875254Y-95271136D01*
X201876020Y-95345907D01*
X201876419Y-95440095D01*
X201876534Y-95555854D01*
X201876534Y-95995180D01*
X201846875Y-95995180D01*
X201830709Y-95993756D01*
X201821581Y-95985616D01*
X201817899Y-95965091D01*
X201817216Y-95926513D01*
X201815998Y-95900361D01*
X201801159Y-95831894D01*
X201771675Y-95772634D01*
X201730345Y-95728944D01*
X201724085Y-95724641D01*
X201716016Y-95720411D01*
X201705220Y-95716800D01*
X201689945Y-95713750D01*
X201668443Y-95711202D01*
X201638963Y-95709096D01*
X201599755Y-95707373D01*
X201549070Y-95705974D01*
X201485157Y-95704840D01*
X201406267Y-95703912D01*
X201310649Y-95703130D01*
X201196554Y-95702436D01*
X201062232Y-95701770D01*
X200905933Y-95701073D01*
X200810145Y-95700719D01*
X200654894Y-95700445D01*
X200513712Y-95700585D01*
X200387981Y-95701128D01*
X200279079Y-95702059D01*
X200188385Y-95703365D01*
X200117278Y-95705033D01*
X200067138Y-95707051D01*
X200039344Y-95709403D01*
X200037397Y-95709710D01*
X199978205Y-95724229D01*
X199935205Y-95748301D01*
X199905654Y-95785324D01*
X199886808Y-95838696D01*
X199875924Y-95911816D01*
X199874875Y-95922893D01*
X199870228Y-95962403D01*
X199864682Y-95984031D01*
X199856296Y-95992570D01*
X199843131Y-95992809D01*
X199839821Y-95992280D01*
X199833986Y-95990147D01*
X199829307Y-95984721D01*
X199825659Y-95973731D01*
X199822911Y-95954906D01*
X199820938Y-95925977D01*
X199819610Y-95884673D01*
X199818800Y-95828723D01*
X199818379Y-95755857D01*
X199818221Y-95663804D01*
X199818197Y-95550295D01*
X199818200Y-95492216D01*
X199818274Y-95389435D01*
X199818544Y-95307006D01*
X199819138Y-95242658D01*
X199820185Y-95194121D01*
X199821811Y-95159124D01*
X199824146Y-95135397D01*
X199827316Y-95120670D01*
X199831449Y-95112672D01*
X199836675Y-95109133D01*
X199843119Y-95107782D01*
X199855936Y-95107834D01*
X199864830Y-95116239D01*
X199870452Y-95138271D01*
X199875062Y-95178964D01*
X199888311Y-95258192D01*
X199912433Y-95319920D01*
X199948616Y-95366409D01*
X199980267Y-95396068D01*
X200836458Y-95396068D01*
X200915011Y-95396062D01*
X201068624Y-95395990D01*
X201200954Y-95395809D01*
X201313671Y-95395480D01*
X201408449Y-95394965D01*
X201486958Y-95394225D01*
X201550871Y-95393222D01*
X201601859Y-95391918D01*
X201641594Y-95390274D01*
X201671748Y-95388254D01*
X201693993Y-95385817D01*
X201710000Y-95382926D01*
X201721442Y-95379544D01*
X201729990Y-95375630D01*
X201755319Y-95356647D01*
X201788042Y-95311485D01*
X201809506Y-95252591D01*
X201817216Y-95185409D01*
X201817987Y-95158155D01*
X201824145Y-95123104D01*
X201837504Y-95107769D01*
X201859307Y-95109918D01*
G37*
G36*
X195553035Y-75864921D02*
G01*
X195688446Y-75914715D01*
X195751522Y-75939835D01*
X195825297Y-75968818D01*
X195889923Y-75993836D01*
X195945182Y-76015494D01*
X196002032Y-76038670D01*
X196045479Y-76057309D01*
X196062744Y-76064847D01*
X196096945Y-76078251D01*
X196116213Y-76083560D01*
X196119492Y-76084233D01*
X196144073Y-76094298D01*
X196186663Y-76114490D01*
X196242476Y-76142311D01*
X196306722Y-76175258D01*
X196374612Y-76210830D01*
X196441359Y-76246528D01*
X196502174Y-76279850D01*
X196552268Y-76308294D01*
X196586854Y-76329361D01*
X196587074Y-76329506D01*
X196637875Y-76364526D01*
X196669479Y-76391767D01*
X196687074Y-76416727D01*
X196695846Y-76444906D01*
X196696001Y-76473216D01*
X196689709Y-76520120D01*
X196678727Y-76573875D01*
X196665162Y-76624300D01*
X196651118Y-76661212D01*
X196650174Y-76663193D01*
X196639947Y-76692178D01*
X196626780Y-76738185D01*
X196613277Y-76792203D01*
X196598378Y-76852279D01*
X196579519Y-76921691D01*
X196562132Y-76979785D01*
X196549932Y-77019258D01*
X196536464Y-77067173D01*
X196528618Y-77100652D01*
X196521614Y-77131418D01*
X196508177Y-77174505D01*
X196496923Y-77211152D01*
X196496616Y-77252528D01*
X196516599Y-77289527D01*
X196559441Y-77329942D01*
X196567562Y-77336575D01*
X196612842Y-77374468D01*
X196666588Y-77420478D01*
X196718851Y-77466109D01*
X196728154Y-77474321D01*
X196783562Y-77522905D01*
X196840009Y-77571959D01*
X196886600Y-77612006D01*
X196899971Y-77623609D01*
X196954375Y-77674923D01*
X197015650Y-77739130D01*
X197086021Y-77818726D01*
X197167715Y-77916208D01*
X197262958Y-78034073D01*
X197279934Y-78054147D01*
X197311383Y-78081039D01*
X197346038Y-78091990D01*
X197391249Y-78088452D01*
X197454369Y-78071877D01*
X197504246Y-78056910D01*
X197578048Y-78035145D01*
X197644163Y-78016019D01*
X197651387Y-78013956D01*
X197714168Y-77995819D01*
X197787178Y-77974465D01*
X197856061Y-77954089D01*
X197881544Y-77946575D01*
X197974302Y-77921207D01*
X198046280Y-77905674D01*
X198101487Y-77899463D01*
X198143935Y-77902061D01*
X198177634Y-77912955D01*
X198177937Y-77913103D01*
X198207303Y-77933534D01*
X198239720Y-77968591D01*
X198276639Y-78020512D01*
X198319515Y-78091531D01*
X198369798Y-78183884D01*
X198428942Y-78299807D01*
X198495894Y-78438157D01*
X198573084Y-78612241D01*
X198640247Y-78784139D01*
X198701217Y-78963831D01*
X198759824Y-79161295D01*
X198772049Y-79205868D01*
X198788282Y-79275355D01*
X198793066Y-79326737D01*
X198784614Y-79365479D01*
X198761138Y-79397044D01*
X198720852Y-79426897D01*
X198661969Y-79460501D01*
X198624092Y-79481148D01*
X198558187Y-79517927D01*
X198498369Y-79552874D01*
X198432058Y-79593254D01*
X198334449Y-79652893D01*
X198244465Y-79706259D01*
X198172904Y-79746587D01*
X198117367Y-79775263D01*
X198077813Y-79798209D01*
X198047929Y-79831409D01*
X198037916Y-79875384D01*
X198044787Y-79936779D01*
X198046319Y-79947652D01*
X198049250Y-79989643D01*
X198051612Y-80053064D01*
X198053407Y-80133554D01*
X198054635Y-80226752D01*
X198055300Y-80328298D01*
X198055403Y-80433831D01*
X198054946Y-80538991D01*
X198053932Y-80639418D01*
X198052362Y-80730752D01*
X198050239Y-80808630D01*
X198047563Y-80868695D01*
X198044339Y-80906584D01*
X198039466Y-80947497D01*
X198040467Y-80977176D01*
X198050910Y-80998459D01*
X198073352Y-81021472D01*
X198086515Y-81031991D01*
X198124543Y-81057882D01*
X198178669Y-81091866D01*
X198243737Y-81130741D01*
X198314595Y-81171306D01*
X198424613Y-81233182D01*
X198528783Y-81292528D01*
X198612231Y-81341149D01*
X198676980Y-81380305D01*
X198725049Y-81411257D01*
X198758459Y-81435265D01*
X198779230Y-81453588D01*
X198789383Y-81467489D01*
X198794091Y-81486040D01*
X198793006Y-81518324D01*
X198784061Y-81566646D01*
X198766567Y-81636093D01*
X198748885Y-81700383D01*
X198709214Y-81835761D01*
X198668782Y-81962704D01*
X198629189Y-82076518D01*
X198592032Y-82172507D01*
X198558910Y-82245978D01*
X198545015Y-82274945D01*
X198529618Y-82311685D01*
X198523454Y-82333384D01*
X198520760Y-82342638D01*
X198507177Y-82374231D01*
X198484295Y-82422525D01*
X198454538Y-82482803D01*
X198420328Y-82550348D01*
X198384089Y-82620443D01*
X198348243Y-82688373D01*
X198315214Y-82749421D01*
X198287424Y-82798871D01*
X198267297Y-82832005D01*
X198253089Y-82851653D01*
X198204053Y-82899358D01*
X198150526Y-82926486D01*
X198098059Y-82929829D01*
X198084779Y-82927002D01*
X198043115Y-82917088D01*
X197987263Y-82903028D01*
X197925536Y-82886894D01*
X197883479Y-82875694D01*
X197801870Y-82853965D01*
X197714324Y-82830658D01*
X197633741Y-82809208D01*
X197575979Y-82793593D01*
X197507801Y-82774592D01*
X197449713Y-82757805D01*
X197410117Y-82745619D01*
X197404747Y-82743871D01*
X197357593Y-82732590D01*
X197322192Y-82736588D01*
X197290180Y-82758898D01*
X197253197Y-82802556D01*
X197221325Y-82842761D01*
X197179179Y-82893753D01*
X197136873Y-82943223D01*
X197129225Y-82951993D01*
X197083122Y-83005305D01*
X197031021Y-83066102D01*
X196982791Y-83122876D01*
X196973393Y-83133775D01*
X196920813Y-83189246D01*
X196863224Y-83243132D01*
X196811499Y-83285132D01*
X196760494Y-83324289D01*
X196709900Y-83367003D01*
X196671333Y-83403531D01*
X196653052Y-83421896D01*
X196609936Y-83460944D01*
X196571359Y-83491130D01*
X196563188Y-83497040D01*
X196529922Y-83527349D01*
X196508948Y-83556120D01*
X196505904Y-83562981D01*
X196501429Y-83576392D01*
X196499938Y-83592298D01*
X196502179Y-83614745D01*
X196508898Y-83647778D01*
X196520844Y-83695442D01*
X196538765Y-83761783D01*
X196563406Y-83850847D01*
X196579723Y-83909674D01*
X196613297Y-84031217D01*
X196640216Y-84129722D01*
X196661117Y-84207796D01*
X196676634Y-84268044D01*
X196687403Y-84313071D01*
X196694061Y-84345483D01*
X196697244Y-84367886D01*
X196697586Y-84382885D01*
X196695725Y-84393085D01*
X196681883Y-84417294D01*
X196645855Y-84452690D01*
X196587869Y-84495025D01*
X196506896Y-84544971D01*
X196401908Y-84603201D01*
X196271879Y-84670385D01*
X196242562Y-84685089D01*
X196159480Y-84726273D01*
X196082695Y-84763663D01*
X196016823Y-84795050D01*
X195966477Y-84818226D01*
X195936272Y-84830983D01*
X195906314Y-84841675D01*
X195845364Y-84862708D01*
X195769831Y-84888247D01*
X195686739Y-84915956D01*
X195603114Y-84943495D01*
X195525980Y-84968527D01*
X195462361Y-84988714D01*
X195456205Y-84990600D01*
X195372952Y-85010077D01*
X195297320Y-85017088D01*
X195234998Y-85011534D01*
X195191675Y-84993319D01*
X195187808Y-84990131D01*
X195177530Y-84979494D01*
X195164997Y-84962931D01*
X195148880Y-84938105D01*
X195127850Y-84902678D01*
X195100578Y-84854314D01*
X195065736Y-84790676D01*
X195021994Y-84709427D01*
X194968024Y-84608230D01*
X194902497Y-84484748D01*
X194895334Y-84471272D01*
X194862407Y-84410435D01*
X194833680Y-84359068D01*
X194812030Y-84322232D01*
X194800332Y-84304986D01*
X194800327Y-84304981D01*
X194780044Y-84298542D01*
X194738887Y-84294317D01*
X194683677Y-84292290D01*
X194621236Y-84292445D01*
X194558385Y-84294765D01*
X194501947Y-84299232D01*
X194458741Y-84305829D01*
X194429811Y-84309645D01*
X194378966Y-84312816D01*
X194313213Y-84314968D01*
X194237885Y-84316124D01*
X194158319Y-84316307D01*
X194079851Y-84315539D01*
X194007817Y-84313843D01*
X193947553Y-84311240D01*
X193904394Y-84307754D01*
X193883677Y-84303407D01*
X193873221Y-84300310D01*
X193838180Y-84296302D01*
X193786678Y-84293836D01*
X193725676Y-84293358D01*
X193683596Y-84294117D01*
X193622324Y-84298260D01*
X193579710Y-84308497D01*
X193549814Y-84327855D01*
X193526692Y-84359359D01*
X193504401Y-84406036D01*
X193489009Y-84438808D01*
X193460431Y-84493415D01*
X193430042Y-84546372D01*
X193422911Y-84558292D01*
X193391594Y-84613167D01*
X193356174Y-84678116D01*
X193323029Y-84741511D01*
X193309353Y-84767993D01*
X193259988Y-84856744D01*
X193214551Y-84927773D01*
X193174939Y-84978296D01*
X193143050Y-85005530D01*
X193138292Y-85007935D01*
X193108206Y-85017582D01*
X193069929Y-85020454D01*
X193020510Y-85016000D01*
X192956998Y-85003670D01*
X192876442Y-84982911D01*
X192775892Y-84953172D01*
X192652396Y-84913904D01*
X192591884Y-84893627D01*
X192500203Y-84859906D01*
X192410059Y-84822309D01*
X192313062Y-84777254D01*
X192200821Y-84721160D01*
X192137802Y-84688913D01*
X192058071Y-84648148D01*
X191973808Y-84605092D01*
X191895303Y-84565005D01*
X191877856Y-84556005D01*
X191814073Y-84521462D01*
X191759193Y-84489278D01*
X191718583Y-84462712D01*
X191697609Y-84445020D01*
X191681914Y-84412790D01*
X191673930Y-84352532D01*
X191680474Y-84276200D01*
X191701483Y-84188091D01*
X191716251Y-84139763D01*
X191737443Y-84070674D01*
X191755938Y-84010639D01*
X191769623Y-83964144D01*
X191788525Y-83895081D01*
X191805033Y-83830004D01*
X191818249Y-83778836D01*
X191838158Y-83709793D01*
X191857235Y-83650835D01*
X191886115Y-83568931D01*
X191824617Y-83514750D01*
X191799492Y-83493283D01*
X191753443Y-83456376D01*
X191714485Y-83427846D01*
X191694474Y-83411576D01*
X191656862Y-83377106D01*
X191606382Y-83328691D01*
X191546310Y-83269651D01*
X191479919Y-83203306D01*
X191410486Y-83132975D01*
X191341286Y-83061979D01*
X191275594Y-82993636D01*
X191216684Y-82931268D01*
X191167833Y-82878194D01*
X191132315Y-82837734D01*
X191106410Y-82807262D01*
X191067396Y-82765579D01*
X191035207Y-82741861D01*
X191003164Y-82733516D01*
X190964591Y-82737954D01*
X190912812Y-82752586D01*
X190880270Y-82762664D01*
X190760552Y-82798887D01*
X190644572Y-82832727D01*
X190536115Y-82863162D01*
X190438967Y-82889172D01*
X190356916Y-82909736D01*
X190293747Y-82923832D01*
X190253247Y-82930439D01*
X190218851Y-82932363D01*
X190191110Y-82927470D01*
X190165484Y-82910764D01*
X190131666Y-82877783D01*
X190107053Y-82851347D01*
X190083843Y-82823510D01*
X190074879Y-82808469D01*
X190074746Y-82807486D01*
X190066292Y-82788462D01*
X190047277Y-82753519D01*
X190021347Y-82709406D01*
X189992552Y-82659937D01*
X189958805Y-82597959D01*
X189932077Y-82544720D01*
X189895019Y-82464490D01*
X189849350Y-82362360D01*
X189811913Y-82274522D01*
X189784181Y-82204461D01*
X189767625Y-82155661D01*
X189762632Y-82139019D01*
X189747314Y-82095774D01*
X189733326Y-82065343D01*
X189732059Y-82063081D01*
X189719613Y-82033521D01*
X189703692Y-81987283D01*
X189687417Y-81933341D01*
X189669456Y-81871728D01*
X189645690Y-81794053D01*
X189623332Y-81724366D01*
X189598822Y-81633933D01*
X189588612Y-81548856D01*
X189595624Y-81480325D01*
X189619888Y-81430947D01*
X189643847Y-81408745D01*
X189686136Y-81378191D01*
X189734453Y-81349211D01*
X189777554Y-81325660D01*
X189813020Y-81305562D01*
X189831717Y-81294056D01*
X189845321Y-81285834D01*
X189879348Y-81266876D01*
X189927623Y-81240729D01*
X189984562Y-81210448D01*
X190033026Y-81184462D01*
X190085164Y-81155454D01*
X190124646Y-81132288D01*
X190145448Y-81118408D01*
X190160153Y-81107849D01*
X190180922Y-81099643D01*
X190190653Y-81096283D01*
X190218502Y-81080235D01*
X190254602Y-81055413D01*
X190314745Y-81011184D01*
X190305497Y-80850463D01*
X190305118Y-80843777D01*
X190300791Y-80752529D01*
X190297387Y-80652580D01*
X190294931Y-80548491D01*
X190293447Y-80444818D01*
X190292960Y-80346122D01*
X190293493Y-80256959D01*
X190295072Y-80181888D01*
X190297719Y-80125469D01*
X190301460Y-80092258D01*
X190307197Y-80053652D01*
X190311318Y-80000339D01*
X190313246Y-79942520D01*
X190312880Y-79888239D01*
X190310119Y-79845539D01*
X190304862Y-79822464D01*
X190293313Y-79812470D01*
X190261825Y-79790877D01*
X190215979Y-79761880D01*
X190161049Y-79728912D01*
X190119394Y-79704411D01*
X190055857Y-79666719D01*
X189998969Y-79632620D01*
X189957416Y-79607304D01*
X189925320Y-79587532D01*
X189859809Y-79548295D01*
X189797781Y-79513268D01*
X189725443Y-79474558D01*
X189707638Y-79464945D01*
X189649224Y-79426937D01*
X189612712Y-79387580D01*
X189593892Y-79340919D01*
X189588553Y-79281002D01*
X189588618Y-79270227D01*
X189589851Y-79241570D01*
X189592399Y-79221005D01*
X189868413Y-79221005D01*
X189871197Y-79243739D01*
X189887820Y-79260449D01*
X189923908Y-79280118D01*
X189940618Y-79288811D01*
X189985436Y-79313978D01*
X190020097Y-79335837D01*
X190023016Y-79337837D01*
X190055486Y-79357501D01*
X190102533Y-79383491D01*
X190155033Y-79410739D01*
X190213992Y-79442051D01*
X190281020Y-79480577D01*
X190337909Y-79516071D01*
X190383350Y-79545280D01*
X190440108Y-79579801D01*
X190487588Y-79606717D01*
X190510905Y-79619841D01*
X190554704Y-79647916D01*
X190586413Y-79672558D01*
X190599133Y-79684741D01*
X190607898Y-79696735D01*
X190612307Y-79712832D01*
X190612357Y-79737701D01*
X190608049Y-79776011D01*
X190599379Y-79832429D01*
X190586348Y-79911623D01*
X190583811Y-79930606D01*
X190579119Y-79989274D01*
X190575418Y-80068639D01*
X190572708Y-80163881D01*
X190570988Y-80270180D01*
X190570256Y-80382717D01*
X190570513Y-80496671D01*
X190571755Y-80607223D01*
X190573984Y-80709552D01*
X190577197Y-80798840D01*
X190581393Y-80870265D01*
X190586572Y-80919008D01*
X190586728Y-80919994D01*
X190596148Y-80979377D01*
X190605038Y-81035267D01*
X190611493Y-81075687D01*
X190612954Y-81085479D01*
X190613499Y-81117152D01*
X190601507Y-81142406D01*
X190572257Y-81172951D01*
X190571864Y-81173319D01*
X190534593Y-81202330D01*
X190483051Y-81235289D01*
X190428271Y-81265133D01*
X190421174Y-81268643D01*
X190372616Y-81293664D01*
X190333274Y-81315563D01*
X190311094Y-81329944D01*
X190306901Y-81332971D01*
X190280042Y-81349104D01*
X190235245Y-81374041D01*
X190177597Y-81404989D01*
X190112185Y-81439153D01*
X190111098Y-81439713D01*
X190026967Y-81483138D01*
X189964391Y-81516173D01*
X189920329Y-81541274D01*
X189891741Y-81560898D01*
X189875587Y-81577499D01*
X189868829Y-81593534D01*
X189868425Y-81611458D01*
X189871337Y-81633727D01*
X189879116Y-81670052D01*
X189893957Y-81724167D01*
X189913757Y-81789663D01*
X189936420Y-81860190D01*
X189959851Y-81929395D01*
X189981954Y-81990928D01*
X190000635Y-82038437D01*
X190013798Y-82065571D01*
X190019088Y-82074558D01*
X190036549Y-82111211D01*
X190053817Y-82155036D01*
X190064774Y-82182691D01*
X190088367Y-82235569D01*
X190119234Y-82300688D01*
X190154236Y-82371796D01*
X190190234Y-82442641D01*
X190224087Y-82506971D01*
X190252656Y-82558535D01*
X190272801Y-82591081D01*
X190294615Y-82616327D01*
X190318957Y-82625811D01*
X190358055Y-82624206D01*
X190383938Y-82620341D01*
X190445607Y-82607469D01*
X190523618Y-82588209D01*
X190611710Y-82564288D01*
X190703619Y-82537435D01*
X190793083Y-82509379D01*
X190873840Y-82481848D01*
X190874738Y-82481526D01*
X190965975Y-82451738D01*
X191037977Y-82435354D01*
X191095395Y-82431649D01*
X191142877Y-82439900D01*
X191145870Y-82441035D01*
X191159319Y-82449696D01*
X191177831Y-82467075D01*
X191203301Y-82495454D01*
X191237626Y-82537112D01*
X191282703Y-82594333D01*
X191340425Y-82669397D01*
X191412691Y-82764586D01*
X191437081Y-82794449D01*
X191480767Y-82843301D01*
X191533717Y-82899402D01*
X191590398Y-82957139D01*
X191645277Y-83010896D01*
X191692820Y-83055060D01*
X191727493Y-83084014D01*
X191762552Y-83112070D01*
X191807955Y-83151400D01*
X191853435Y-83193152D01*
X191962079Y-83289256D01*
X192086684Y-83380299D01*
X192090676Y-83382955D01*
X192126876Y-83414662D01*
X192152987Y-83449459D01*
X192160150Y-83464648D01*
X192166437Y-83490062D01*
X192164209Y-83521571D01*
X192153511Y-83569368D01*
X192150730Y-83580352D01*
X192130977Y-83655779D01*
X192105662Y-83749339D01*
X192076806Y-83853820D01*
X192046433Y-83962011D01*
X192016563Y-84066699D01*
X191989219Y-84160672D01*
X191966422Y-84236718D01*
X191963603Y-84247483D01*
X191964905Y-84285770D01*
X191988768Y-84317827D01*
X192037778Y-84347673D01*
X192129762Y-84391807D01*
X192250733Y-84449044D01*
X192354169Y-84496693D01*
X192444402Y-84536605D01*
X192525764Y-84570627D01*
X192602587Y-84600607D01*
X192679202Y-84628395D01*
X192759941Y-84655838D01*
X192800243Y-84669634D01*
X192851077Y-84688544D01*
X192887389Y-84703947D01*
X192903184Y-84713433D01*
X192920536Y-84722358D01*
X192952621Y-84726229D01*
X192954935Y-84726207D01*
X192974758Y-84723623D01*
X192994544Y-84715285D01*
X193015750Y-84699109D01*
X193039832Y-84673007D01*
X193068248Y-84634896D01*
X193102453Y-84582689D01*
X193143905Y-84514301D01*
X193194059Y-84427646D01*
X193254372Y-84320639D01*
X193326302Y-84191194D01*
X193355030Y-84139621D01*
X193390126Y-84079261D01*
X193417959Y-84037462D01*
X193442007Y-84010612D01*
X193465750Y-83995100D01*
X193492665Y-83987316D01*
X193526230Y-83983648D01*
X193557418Y-83985636D01*
X193597254Y-83994353D01*
X193621836Y-84001087D01*
X193689154Y-84013717D01*
X193775973Y-84023347D01*
X193884339Y-84030124D01*
X194016297Y-84034194D01*
X194173895Y-84035704D01*
X194199773Y-84035723D01*
X194327224Y-84034869D01*
X194433933Y-84032090D01*
X194525832Y-84026965D01*
X194608853Y-84019074D01*
X194688928Y-84007995D01*
X194771989Y-83993310D01*
X194787667Y-83990789D01*
X194836109Y-83987810D01*
X194874543Y-83991718D01*
X194904319Y-84004133D01*
X194940476Y-84028418D01*
X194968527Y-84056002D01*
X194979803Y-84079645D01*
X194983045Y-84089916D01*
X194997672Y-84121046D01*
X195021381Y-84166232D01*
X195051200Y-84219646D01*
X195067124Y-84247523D01*
X195104588Y-84313828D01*
X195140005Y-84377361D01*
X195167428Y-84427488D01*
X195188826Y-84466744D01*
X195243333Y-84561224D01*
X195290624Y-84634661D01*
X195329636Y-84685481D01*
X195359307Y-84712108D01*
X195377681Y-84721271D01*
X195405422Y-84725234D01*
X195441278Y-84714375D01*
X195462267Y-84706192D01*
X195509210Y-84688377D01*
X195571699Y-84664962D01*
X195643638Y-84638212D01*
X195718930Y-84610391D01*
X195791478Y-84583765D01*
X195855186Y-84560600D01*
X195874646Y-84553389D01*
X195911175Y-84538797D01*
X195932182Y-84528882D01*
X195932190Y-84528877D01*
X195951856Y-84519619D01*
X195989467Y-84504138D01*
X196036887Y-84485784D01*
X196093882Y-84463134D01*
X196222358Y-84403797D01*
X196338011Y-84339157D01*
X196363528Y-84321849D01*
X196389407Y-84295322D01*
X196396756Y-84267696D01*
X196395340Y-84255862D01*
X196387340Y-84217814D01*
X196373481Y-84161799D01*
X196355130Y-84093247D01*
X196333659Y-84017586D01*
X196322782Y-83980109D01*
X196299705Y-83899472D01*
X196278612Y-83824354D01*
X196261470Y-83761797D01*
X196250246Y-83718844D01*
X196240658Y-83681104D01*
X196226951Y-83630038D01*
X196216103Y-83592803D01*
X196206779Y-83552494D01*
X196208779Y-83496191D01*
X196231846Y-83442493D01*
X196277799Y-83387767D01*
X196348457Y-83328381D01*
X196377692Y-83305681D01*
X196429537Y-83263022D01*
X196473512Y-83224214D01*
X196500149Y-83200013D01*
X196550028Y-83156593D01*
X196598566Y-83116132D01*
X196621204Y-83096953D01*
X196671117Y-83051341D01*
X196730071Y-82994568D01*
X196793158Y-82931637D01*
X196855471Y-82867553D01*
X196912100Y-82807320D01*
X196958137Y-82755940D01*
X196988675Y-82718419D01*
X197007439Y-82692764D01*
X197023868Y-82670388D01*
X197039249Y-82649657D01*
X197058029Y-82624615D01*
X197084656Y-82589305D01*
X197123579Y-82537772D01*
X197158919Y-82491833D01*
X197184926Y-82462530D01*
X197207024Y-82446536D01*
X197231579Y-82439275D01*
X197264958Y-82436174D01*
X197303499Y-82436878D01*
X197354654Y-82444970D01*
X197420961Y-82461756D01*
X197507620Y-82488352D01*
X197631257Y-82527945D01*
X197732516Y-82559400D01*
X197813806Y-82583319D01*
X197878261Y-82600539D01*
X197929015Y-82611898D01*
X197969203Y-82618231D01*
X198001958Y-82620377D01*
X198071433Y-82621142D01*
X198118021Y-82530825D01*
X198147715Y-82474477D01*
X198184876Y-82405877D01*
X198219707Y-82343243D01*
X198226095Y-82331923D01*
X198245394Y-82296775D01*
X198262805Y-82262717D01*
X198280287Y-82225238D01*
X198299799Y-82179826D01*
X198323301Y-82121970D01*
X198352752Y-82047157D01*
X198390112Y-81950877D01*
X198393636Y-81941698D01*
X198421713Y-81863876D01*
X198446909Y-81786234D01*
X198467821Y-81713931D01*
X198483045Y-81652124D01*
X198491180Y-81605970D01*
X198490821Y-81580627D01*
X198490302Y-81579627D01*
X198473154Y-81564780D01*
X198436750Y-81540835D01*
X198386051Y-81510878D01*
X198326016Y-81477998D01*
X198283472Y-81455515D01*
X198168462Y-81394606D01*
X198074790Y-81344647D01*
X197999984Y-81304162D01*
X197941577Y-81271677D01*
X197897097Y-81245717D01*
X197864076Y-81224807D01*
X197840045Y-81207472D01*
X197822533Y-81192238D01*
X197809071Y-81177629D01*
X197797191Y-81162170D01*
X197779283Y-81136096D01*
X197765378Y-81106271D01*
X197761246Y-81072582D01*
X197764073Y-81023221D01*
X197766889Y-80990485D01*
X197772158Y-80927616D01*
X197778204Y-80854142D01*
X197784200Y-80780059D01*
X197789300Y-80723328D01*
X197796328Y-80659917D01*
X197803415Y-80609155D01*
X197809609Y-80578582D01*
X197812028Y-80568294D01*
X197816860Y-80526332D01*
X197819345Y-80470053D01*
X197819551Y-80407863D01*
X197817543Y-80348170D01*
X197813389Y-80299380D01*
X197807156Y-80269900D01*
X197804043Y-80257611D01*
X197798422Y-80219288D01*
X197792200Y-80162327D01*
X197785830Y-80092257D01*
X197779765Y-80014608D01*
X197774459Y-79934909D01*
X197770365Y-79858689D01*
X197767936Y-79791477D01*
X197768378Y-79745197D01*
X197776209Y-79700328D01*
X197796287Y-79665272D01*
X197833015Y-79633046D01*
X197890798Y-79596665D01*
X197935779Y-79569903D01*
X197994291Y-79534350D01*
X198050590Y-79499520D01*
X198071438Y-79486743D01*
X198132583Y-79450980D01*
X198202288Y-79411920D01*
X198269181Y-79375990D01*
X198303487Y-79357683D01*
X198362348Y-79324609D01*
X198412689Y-79294348D01*
X198446342Y-79271707D01*
X198459477Y-79261053D01*
X198484396Y-79235997D01*
X198493474Y-79218700D01*
X198493437Y-79218378D01*
X198485145Y-79176525D01*
X198468431Y-79115005D01*
X198445243Y-79039858D01*
X198417527Y-78957127D01*
X198387231Y-78872853D01*
X198356302Y-78793078D01*
X198344256Y-78762791D01*
X198321865Y-78704275D01*
X198303653Y-78654129D01*
X198288498Y-78616908D01*
X198261891Y-78561892D01*
X198232281Y-78508208D01*
X198229187Y-78502987D01*
X198197011Y-78446549D01*
X198160695Y-78380006D01*
X198127522Y-78316673D01*
X198096052Y-78259423D01*
X198065822Y-78219240D01*
X198035897Y-78200373D01*
X198001850Y-78200173D01*
X197959252Y-78215990D01*
X197954190Y-78218339D01*
X197910534Y-78235522D01*
X197872515Y-78246195D01*
X197846019Y-78251914D01*
X197794088Y-78264746D01*
X197727437Y-78282209D01*
X197652692Y-78302499D01*
X197576480Y-78323812D01*
X197505427Y-78344343D01*
X197446159Y-78362288D01*
X197399461Y-78376595D01*
X197328418Y-78394927D01*
X197273904Y-78400612D01*
X197229759Y-78391862D01*
X197189825Y-78366887D01*
X197147945Y-78323896D01*
X197097960Y-78261101D01*
X197065625Y-78218958D01*
X197002865Y-78138223D01*
X196949968Y-78072318D01*
X196902417Y-78015976D01*
X196855695Y-77963935D01*
X196805284Y-77910929D01*
X196746668Y-77851694D01*
X196724918Y-77830064D01*
X196676416Y-77782433D01*
X196636531Y-77744106D01*
X196608913Y-77718559D01*
X196597210Y-77709271D01*
X196595784Y-77709158D01*
X196587479Y-77705395D01*
X196571919Y-77693657D01*
X196544672Y-77670367D01*
X196501302Y-77631951D01*
X196493580Y-77625173D01*
X196451649Y-77590133D01*
X196399226Y-77548179D01*
X196345823Y-77506960D01*
X196306205Y-77476319D01*
X196255813Y-77433065D01*
X196223984Y-77397497D01*
X196207355Y-77365530D01*
X196202560Y-77333081D01*
X196203550Y-77320152D01*
X196211308Y-77275700D01*
X196226125Y-77209285D01*
X196247230Y-77123975D01*
X196273849Y-77022837D01*
X196305210Y-76908937D01*
X196340540Y-76785343D01*
X196348248Y-76758569D01*
X196367477Y-76689174D01*
X196382978Y-76629472D01*
X196393324Y-76585102D01*
X196397089Y-76561704D01*
X196394889Y-76545454D01*
X196377540Y-76516793D01*
X196340037Y-76487897D01*
X196278937Y-76455676D01*
X196252699Y-76443090D01*
X196207561Y-76420561D01*
X196174770Y-76403113D01*
X196148964Y-76389168D01*
X196133085Y-76382166D01*
X196128818Y-76380661D01*
X196105457Y-76369843D01*
X196070558Y-76352290D01*
X196061726Y-76347844D01*
X196009462Y-76324536D01*
X195959398Y-76305949D01*
X195947288Y-76301983D01*
X195911224Y-76288536D01*
X195889923Y-76278089D01*
X195885687Y-76275492D01*
X195858623Y-76263549D01*
X195820448Y-76250003D01*
X195810678Y-76246750D01*
X195768365Y-76230289D01*
X195737078Y-76214717D01*
X195728078Y-76210104D01*
X195691899Y-76196192D01*
X195639090Y-76178801D01*
X195576804Y-76159979D01*
X195512196Y-76141776D01*
X195452419Y-76126238D01*
X195404628Y-76115413D01*
X195375978Y-76111350D01*
X195360986Y-76112801D01*
X195342940Y-76120861D01*
X195323715Y-76139217D01*
X195300405Y-76171461D01*
X195270106Y-76221186D01*
X195229911Y-76291984D01*
X195210804Y-76326085D01*
X195171713Y-76395384D01*
X195134029Y-76461671D01*
X195103789Y-76514304D01*
X195075748Y-76564225D01*
X195038086Y-76634599D01*
X195005547Y-76698680D01*
X194987366Y-76734353D01*
X194962059Y-76774552D01*
X194935672Y-76800841D01*
X194901801Y-76820758D01*
X194848393Y-76839719D01*
X194790282Y-76840988D01*
X194773717Y-76838812D01*
X194725548Y-76833399D01*
X194663779Y-76827185D01*
X194597691Y-76821125D01*
X194562344Y-76817734D01*
X194499479Y-76810203D01*
X194446931Y-76802073D01*
X194413403Y-76794597D01*
X194393547Y-76790035D01*
X194340936Y-76783982D01*
X194271866Y-76780393D01*
X194193484Y-76779222D01*
X194112937Y-76780421D01*
X194037375Y-76783944D01*
X193973944Y-76789744D01*
X193929792Y-76797773D01*
X193897521Y-76805245D01*
X193835296Y-76814626D01*
X193774401Y-76819041D01*
X193736036Y-76820653D01*
X193674547Y-76825753D01*
X193624044Y-76832701D01*
X193618245Y-76833750D01*
X193540945Y-76840619D01*
X193478005Y-76832576D01*
X193434320Y-76810203D01*
X193433094Y-76809064D01*
X193408011Y-76778360D01*
X193373541Y-76726091D01*
X193331753Y-76655728D01*
X193284714Y-76570745D01*
X193234492Y-76474615D01*
X193191800Y-76393915D01*
X193145713Y-76312868D01*
X193101278Y-76240262D01*
X193061904Y-76181656D01*
X193030999Y-76142613D01*
X193002861Y-76121102D01*
X192972538Y-76111350D01*
X192962815Y-76112707D01*
X192927099Y-76122019D01*
X192872667Y-76138758D01*
X192804246Y-76161267D01*
X192726560Y-76187888D01*
X192644334Y-76216964D01*
X192562292Y-76246837D01*
X192485160Y-76275849D01*
X192417661Y-76302343D01*
X192364521Y-76324661D01*
X192353938Y-76329228D01*
X192319576Y-76342307D01*
X192298739Y-76347564D01*
X192297463Y-76347668D01*
X192274932Y-76355651D01*
X192235133Y-76374085D01*
X192184043Y-76399764D01*
X192127642Y-76429482D01*
X192071909Y-76460033D01*
X192022824Y-76488211D01*
X191986366Y-76510810D01*
X191968514Y-76524624D01*
X191960161Y-76538595D01*
X191958215Y-76556907D01*
X191958876Y-76558289D01*
X191965900Y-76579826D01*
X191978037Y-76621845D01*
X191993775Y-76678993D01*
X192011602Y-76745916D01*
X192037594Y-76844923D01*
X192067894Y-76959957D01*
X192092425Y-77052456D01*
X192111881Y-77124951D01*
X192126961Y-77179973D01*
X192138359Y-77220053D01*
X192146773Y-77247721D01*
X192152898Y-77265507D01*
X192157431Y-77275943D01*
X192160785Y-77283427D01*
X192165666Y-77329429D01*
X192151763Y-77379751D01*
X192122850Y-77425257D01*
X192082702Y-77456813D01*
X192072314Y-77462896D01*
X192037987Y-77487448D01*
X191988739Y-77525864D01*
X191928363Y-77574958D01*
X191860649Y-77631543D01*
X191789388Y-77692433D01*
X191718371Y-77754440D01*
X191651390Y-77814379D01*
X191592236Y-77869063D01*
X191588207Y-77872876D01*
X191528719Y-77931374D01*
X191473993Y-77990278D01*
X191419144Y-78055368D01*
X191359285Y-78132426D01*
X191289530Y-78227235D01*
X191283265Y-78235845D01*
X191220633Y-78314300D01*
X191165216Y-78367867D01*
X191115092Y-78397729D01*
X191068335Y-78405070D01*
X191023022Y-78391072D01*
X191017234Y-78388470D01*
X190985487Y-78377803D01*
X190937360Y-78364118D01*
X190880787Y-78349720D01*
X190872771Y-78347783D01*
X190802759Y-78330247D01*
X190731182Y-78311450D01*
X190672363Y-78295142D01*
X190619151Y-78279747D01*
X190523844Y-78252413D01*
X190450567Y-78231882D01*
X190396187Y-78217379D01*
X190357573Y-78208128D01*
X190331594Y-78203354D01*
X190315119Y-78202280D01*
X190305016Y-78204131D01*
X190287109Y-78219338D01*
X190259268Y-78258226D01*
X190225038Y-78316662D01*
X190185967Y-78391103D01*
X190143602Y-78478007D01*
X190099489Y-78573830D01*
X190055174Y-78675030D01*
X190012205Y-78778063D01*
X189972128Y-78879387D01*
X189936491Y-78975458D01*
X189906839Y-79062734D01*
X189884719Y-79137672D01*
X189871679Y-79196729D01*
X189868413Y-79221005D01*
X189592399Y-79221005D01*
X189593500Y-79212115D01*
X189600671Y-79177613D01*
X189612469Y-79133821D01*
X189630000Y-79076492D01*
X189654371Y-79001379D01*
X189686688Y-78904238D01*
X189710471Y-78833682D01*
X189745639Y-78732577D01*
X189777687Y-78646187D01*
X189809683Y-78567067D01*
X189844691Y-78487775D01*
X189885778Y-78400868D01*
X189936010Y-78298900D01*
X189986779Y-78197872D01*
X190032329Y-78109722D01*
X190069483Y-78041646D01*
X190099982Y-77990975D01*
X190125563Y-77955044D01*
X190147965Y-77931185D01*
X190168928Y-77916731D01*
X190190189Y-77909014D01*
X190192734Y-77908408D01*
X190217435Y-77902776D01*
X190238314Y-77899860D01*
X190261608Y-77900082D01*
X190293555Y-77903867D01*
X190340392Y-77911638D01*
X190408359Y-77923817D01*
X190411394Y-77924729D01*
X190430235Y-77934589D01*
X190432957Y-77935910D01*
X190457986Y-77944410D01*
X190503038Y-77957758D01*
X190562738Y-77974402D01*
X190631712Y-77992788D01*
X190640193Y-77995009D01*
X190716916Y-78015727D01*
X190790781Y-78036666D01*
X190853757Y-78055499D01*
X190897809Y-78069898D01*
X190934399Y-78082050D01*
X190976997Y-78093791D01*
X191004202Y-78098330D01*
X191004346Y-78098329D01*
X191027072Y-78087921D01*
X191060442Y-78060463D01*
X191098340Y-78020980D01*
X191131654Y-77983952D01*
X191181456Y-77930741D01*
X191241778Y-77867742D01*
X191309318Y-77798276D01*
X191380771Y-77725660D01*
X191452835Y-77653214D01*
X191522207Y-77584257D01*
X191585583Y-77522108D01*
X191639661Y-77470085D01*
X191681137Y-77431507D01*
X191706708Y-77409694D01*
X191735942Y-77386758D01*
X191786523Y-77341601D01*
X191828349Y-77297444D01*
X191856818Y-77259362D01*
X191867330Y-77232434D01*
X191866420Y-77221799D01*
X191859050Y-77185327D01*
X191846694Y-77141442D01*
X191837405Y-77111357D01*
X191820176Y-77052096D01*
X191804201Y-76993680D01*
X191784349Y-76919871D01*
X191744897Y-76780921D01*
X191701544Y-76636453D01*
X191688131Y-76587347D01*
X191674894Y-76505503D01*
X191676991Y-76439207D01*
X191694529Y-76392201D01*
X191711253Y-76374088D01*
X191746894Y-76344286D01*
X191789960Y-76314033D01*
X191806551Y-76303784D01*
X191853976Y-76276509D01*
X191912790Y-76244495D01*
X191977882Y-76210323D01*
X192044142Y-76176575D01*
X192106460Y-76145832D01*
X192159726Y-76120677D01*
X192198829Y-76103691D01*
X192218660Y-76097455D01*
X192223150Y-76096907D01*
X192250346Y-76087618D01*
X192286284Y-76070482D01*
X192304688Y-76061426D01*
X192351140Y-76040983D01*
X192410264Y-76016768D01*
X192473660Y-75992286D01*
X192514337Y-75977030D01*
X192571840Y-75955279D01*
X192617994Y-75937604D01*
X192645448Y-75926807D01*
X192671552Y-75916699D01*
X192694081Y-75909321D01*
X192708703Y-75904919D01*
X192745017Y-75893209D01*
X192796600Y-75876219D01*
X192857554Y-75855876D01*
X192957544Y-75825739D01*
X193039273Y-75809264D01*
X193101391Y-75807310D01*
X193145817Y-75819636D01*
X193157485Y-75830196D01*
X193182192Y-75861687D01*
X193213208Y-75907567D01*
X193246450Y-75962059D01*
X193295547Y-76046939D01*
X193367185Y-76172000D01*
X193425018Y-76274743D01*
X193469522Y-76356015D01*
X193501172Y-76416664D01*
X193528068Y-76466696D01*
X193557678Y-76506188D01*
X193592112Y-76528747D01*
X193638970Y-76539015D01*
X193705853Y-76541632D01*
X193714697Y-76541621D01*
X193769791Y-76539448D01*
X193815343Y-76534327D01*
X193842239Y-76527223D01*
X193859432Y-76522912D01*
X193901900Y-76518480D01*
X193962976Y-76515093D01*
X194037580Y-76512756D01*
X194120630Y-76511477D01*
X194207045Y-76511261D01*
X194291744Y-76512116D01*
X194369646Y-76514048D01*
X194435669Y-76517063D01*
X194484731Y-76521168D01*
X194511752Y-76526369D01*
X194512358Y-76526609D01*
X194549179Y-76535143D01*
X194600828Y-76540023D01*
X194658820Y-76541312D01*
X194714673Y-76539075D01*
X194759904Y-76533378D01*
X194786028Y-76524283D01*
X194789926Y-76520870D01*
X194805828Y-76501784D01*
X194827693Y-76468567D01*
X194857124Y-76418531D01*
X194895722Y-76348987D01*
X194945088Y-76257247D01*
X194948685Y-76250522D01*
X194976962Y-76199152D01*
X195002855Y-76154381D01*
X195021158Y-76125245D01*
X195024047Y-76120907D01*
X195043290Y-76087643D01*
X195068364Y-76039758D01*
X195094613Y-75986070D01*
X195099290Y-75976329D01*
X195128368Y-75921796D01*
X195158154Y-75874090D01*
X195182875Y-75842592D01*
X195203354Y-75823791D01*
X195226593Y-75811157D01*
X195257408Y-75807206D01*
X195305811Y-75809220D01*
X195330510Y-75811482D01*
X195375978Y-75819823D01*
X195432714Y-75830232D01*
X195553035Y-75864921D01*
G37*
G36*
X196980029Y-79167487D02*
G01*
X197015638Y-79141609D01*
X197070100Y-79107425D01*
X197139509Y-79066945D01*
X197144018Y-79064436D01*
X197492515Y-79064436D01*
X197494690Y-79079052D01*
X197514469Y-79079348D01*
X197547409Y-79061388D01*
X197547817Y-79061083D01*
X197574570Y-79037418D01*
X197588865Y-79018026D01*
X197589804Y-79007957D01*
X197577342Y-79002484D01*
X197551442Y-79011931D01*
X197517602Y-79034989D01*
X197512389Y-79039436D01*
X197492515Y-79064436D01*
X197144018Y-79064436D01*
X197185430Y-79041395D01*
X197219960Y-79022183D01*
X197307548Y-78975151D01*
X197385080Y-78934779D01*
X197398368Y-78927860D01*
X197488514Y-78882325D01*
X197574082Y-78840556D01*
X197577342Y-78839034D01*
X197651165Y-78804566D01*
X197715860Y-78776367D01*
X197764259Y-78757972D01*
X197792459Y-78751394D01*
X197841583Y-78761193D01*
X197893035Y-78792849D01*
X197930064Y-78840329D01*
X197946583Y-78882372D01*
X197950371Y-78933561D01*
X197931475Y-78981157D01*
X197888413Y-79028358D01*
X197819700Y-79078364D01*
X197782557Y-79101519D01*
X197751494Y-79119623D01*
X197736714Y-79126558D01*
X197729220Y-79129711D01*
X197703830Y-79144834D01*
X197668479Y-79168243D01*
X197644831Y-79184186D01*
X197615653Y-79202710D01*
X197601679Y-79209927D01*
X197601284Y-79210005D01*
X197585345Y-79217904D01*
X197550701Y-79236904D01*
X197502124Y-79264344D01*
X197444391Y-79297564D01*
X197366087Y-79343113D01*
X197278088Y-79394941D01*
X197209952Y-79436315D01*
X197159174Y-79469093D01*
X197123249Y-79495128D01*
X197099672Y-79516277D01*
X197085938Y-79534394D01*
X197079542Y-79551336D01*
X197077978Y-79568958D01*
X197078964Y-79581281D01*
X197085796Y-79621264D01*
X197097701Y-79675697D01*
X197112988Y-79736484D01*
X197119386Y-79761342D01*
X197135119Y-79831052D01*
X197147328Y-79897233D01*
X197153790Y-79948338D01*
X197157217Y-79983969D01*
X197163542Y-80024327D01*
X197170307Y-80046937D01*
X197173360Y-80062701D01*
X197176272Y-80102662D01*
X197178624Y-80161766D01*
X197180402Y-80235443D01*
X197181595Y-80319120D01*
X197182190Y-80408226D01*
X197182172Y-80498191D01*
X197181529Y-80584443D01*
X197180249Y-80662412D01*
X197178317Y-80727525D01*
X197175722Y-80775212D01*
X197172450Y-80800901D01*
X197171316Y-80805176D01*
X197161822Y-80849801D01*
X197154311Y-80898166D01*
X197145357Y-80953185D01*
X197127720Y-81034971D01*
X197103951Y-81130437D01*
X197075876Y-81232952D01*
X197045320Y-81335886D01*
X197014108Y-81432609D01*
X196984066Y-81516492D01*
X196922836Y-81656964D01*
X196842566Y-81810234D01*
X196746132Y-81971426D01*
X196636336Y-82135859D01*
X196515980Y-82298848D01*
X196507532Y-82309600D01*
X196455781Y-82371568D01*
X196394020Y-82440597D01*
X196326885Y-82511954D01*
X196259014Y-82580909D01*
X196195045Y-82642729D01*
X196139613Y-82692682D01*
X196097356Y-82726037D01*
X196075769Y-82741422D01*
X196046873Y-82764171D01*
X196033560Y-82777850D01*
X196033358Y-82778291D01*
X196021001Y-82791285D01*
X195991460Y-82813926D01*
X195943390Y-82847116D01*
X195875445Y-82891760D01*
X195786280Y-82948761D01*
X195674551Y-83019022D01*
X195645952Y-83036104D01*
X195595765Y-83064039D01*
X195539319Y-83093853D01*
X195482727Y-83122474D01*
X195432100Y-83146831D01*
X195393551Y-83163851D01*
X195373192Y-83170465D01*
X195368168Y-83171565D01*
X195342562Y-83181322D01*
X195306334Y-83197783D01*
X195291186Y-83204907D01*
X195257641Y-83219199D01*
X195238597Y-83225102D01*
X195224712Y-83228930D01*
X195191548Y-83241295D01*
X195148280Y-83259162D01*
X195072070Y-83289182D01*
X194986823Y-83318229D01*
X194901770Y-83343456D01*
X194825313Y-83362373D01*
X194765850Y-83372492D01*
X194740927Y-83375374D01*
X194699539Y-83381764D01*
X194674113Y-83387873D01*
X194669110Y-83389620D01*
X194628974Y-83398196D01*
X194567672Y-83406292D01*
X194490626Y-83413646D01*
X194403260Y-83419995D01*
X194310997Y-83425074D01*
X194219261Y-83428622D01*
X194133475Y-83430375D01*
X194059062Y-83430069D01*
X194001446Y-83427442D01*
X193966050Y-83422231D01*
X193931285Y-83415098D01*
X193877319Y-83408584D01*
X193819573Y-83405030D01*
X193819572Y-83405030D01*
X193767724Y-83402216D01*
X193725293Y-83397501D01*
X193701466Y-83391905D01*
X193695240Y-83389366D01*
X193662785Y-83380761D01*
X193620589Y-83373307D01*
X193620186Y-83373252D01*
X193566391Y-83362748D01*
X193493321Y-83344271D01*
X193407537Y-83319898D01*
X193315601Y-83291709D01*
X193224076Y-83261781D01*
X193139523Y-83232191D01*
X193068505Y-83205019D01*
X193017584Y-83182343D01*
X193007298Y-83177215D01*
X192955501Y-83153643D01*
X192907177Y-83134453D01*
X192891399Y-83128266D01*
X192842123Y-83104393D01*
X192794667Y-83076381D01*
X192777503Y-83065329D01*
X192729218Y-83036839D01*
X192687133Y-83015096D01*
X192671194Y-83006827D01*
X192629217Y-82981850D01*
X192572555Y-82945879D01*
X192506138Y-82902218D01*
X192434900Y-82854169D01*
X192363770Y-82805034D01*
X192297683Y-82758116D01*
X192241568Y-82716719D01*
X192201703Y-82684308D01*
X192123830Y-82611918D01*
X192037520Y-82522322D01*
X191946378Y-82419775D01*
X191854005Y-82308533D01*
X191764004Y-82192854D01*
X191679977Y-82076994D01*
X191605527Y-81965209D01*
X191592412Y-81945539D01*
X191568739Y-81915001D01*
X191552188Y-81900016D01*
X191551950Y-81899926D01*
X191532360Y-81903999D01*
X191497560Y-81920439D01*
X191454923Y-81945779D01*
X191443165Y-81953394D01*
X191388133Y-81988747D01*
X191324193Y-82029497D01*
X191262899Y-82068275D01*
X191229075Y-82089615D01*
X191159625Y-82133595D01*
X191084644Y-82181232D01*
X191015365Y-82225395D01*
X191000912Y-82234606D01*
X190944109Y-82269771D01*
X190902428Y-82292525D01*
X190869392Y-82305550D01*
X190838522Y-82311525D01*
X190803339Y-82313133D01*
X190772828Y-82312266D01*
X190720791Y-82301669D01*
X190680439Y-82275807D01*
X190646654Y-82230584D01*
X190614321Y-82161908D01*
X190587829Y-82096851D01*
X190540030Y-81979080D01*
X190501413Y-81882960D01*
X190471047Y-81805749D01*
X190448001Y-81744710D01*
X190431344Y-81697101D01*
X190420144Y-81660185D01*
X190413470Y-81631222D01*
X190410392Y-81607471D01*
X190410119Y-81593452D01*
X190598523Y-81593452D01*
X190602516Y-81617983D01*
X190616248Y-81660041D01*
X190625670Y-81685871D01*
X190645793Y-81735551D01*
X190663622Y-81773549D01*
X190672002Y-81790771D01*
X190690878Y-81834067D01*
X190714038Y-81890654D01*
X190738242Y-81952755D01*
X190755284Y-81995422D01*
X190778744Y-82047721D01*
X190799141Y-82086200D01*
X190813406Y-82104658D01*
X190817474Y-82106855D01*
X190827814Y-82108996D01*
X190842417Y-82106285D01*
X190863971Y-82097204D01*
X190895162Y-82080233D01*
X190938678Y-82053854D01*
X190997208Y-82016547D01*
X191073439Y-81966793D01*
X191170058Y-81903074D01*
X191173572Y-81900752D01*
X191229024Y-81864759D01*
X191276027Y-81835367D01*
X191309714Y-81815552D01*
X191325218Y-81808286D01*
X191325861Y-81808271D01*
X191341637Y-81797865D01*
X191342454Y-81796994D01*
X191742275Y-81796994D01*
X191744132Y-81805089D01*
X191758799Y-81836258D01*
X191785582Y-81883019D01*
X191821477Y-81940826D01*
X191863484Y-82005136D01*
X191908602Y-82071406D01*
X191953828Y-82135090D01*
X191996162Y-82191646D01*
X192032602Y-82236530D01*
X192037455Y-82242134D01*
X192102804Y-82317113D01*
X192154154Y-82374744D01*
X192195082Y-82418765D01*
X192229168Y-82452913D01*
X192259990Y-82480927D01*
X192291127Y-82506543D01*
X192321544Y-82531101D01*
X192372791Y-82574160D01*
X192416181Y-82612432D01*
X192450426Y-82641460D01*
X192525261Y-82696236D01*
X192617953Y-82756546D01*
X192723479Y-82819544D01*
X192836815Y-82882385D01*
X192952939Y-82942222D01*
X193066827Y-82996210D01*
X193173457Y-83041502D01*
X193182704Y-83045110D01*
X193287104Y-83081620D01*
X193408506Y-83117960D01*
X193537226Y-83151582D01*
X193663581Y-83179939D01*
X193777888Y-83200485D01*
X193812373Y-83204383D01*
X193877290Y-83208835D01*
X193958798Y-83212389D01*
X194051352Y-83214992D01*
X194149409Y-83216592D01*
X194247426Y-83217134D01*
X194339859Y-83216567D01*
X194421164Y-83214836D01*
X194485797Y-83211890D01*
X194528216Y-83207674D01*
X194551598Y-83203666D01*
X194632676Y-83188470D01*
X194740692Y-83166766D01*
X194875590Y-83138566D01*
X194882854Y-83136982D01*
X194952811Y-83118895D01*
X195036826Y-83093528D01*
X195124736Y-83064244D01*
X195206380Y-83034410D01*
X195271597Y-83007392D01*
X195302033Y-82993754D01*
X195363195Y-82967384D01*
X195417494Y-82945087D01*
X195443554Y-82934181D01*
X195483280Y-82915045D01*
X195507812Y-82899882D01*
X195508856Y-82899016D01*
X195532538Y-82882650D01*
X195571892Y-82858176D01*
X195618971Y-82830549D01*
X195676858Y-82797330D01*
X195735484Y-82762669D01*
X195782887Y-82732640D01*
X195826453Y-82702286D01*
X195873566Y-82666656D01*
X195931608Y-82620793D01*
X195986300Y-82575137D01*
X196066323Y-82503203D01*
X196150223Y-82423119D01*
X196231573Y-82341223D01*
X196303950Y-82263852D01*
X196360926Y-82197345D01*
X196368165Y-82188220D01*
X196424736Y-82113316D01*
X196488343Y-82023869D01*
X196553029Y-81928223D01*
X196557366Y-81921412D01*
X196578919Y-81884609D01*
X196608483Y-81831338D01*
X196643387Y-81766702D01*
X196680963Y-81695809D01*
X196718542Y-81623763D01*
X196753453Y-81555671D01*
X196783029Y-81496639D01*
X196804599Y-81451771D01*
X196815494Y-81426175D01*
X196832004Y-81375021D01*
X196862248Y-81277607D01*
X196889916Y-81183905D01*
X196913409Y-81099560D01*
X196931127Y-81030221D01*
X196941470Y-80981536D01*
X196947115Y-80948476D01*
X196958942Y-80881439D01*
X196969884Y-80821744D01*
X196971865Y-80808832D01*
X196976164Y-80764164D01*
X196980122Y-80701800D01*
X196983646Y-80626283D01*
X196986642Y-80542161D01*
X196989016Y-80453980D01*
X196990674Y-80366284D01*
X196991521Y-80283619D01*
X196991464Y-80210532D01*
X196990409Y-80151568D01*
X196988262Y-80111273D01*
X196984929Y-80094193D01*
X196984451Y-80093628D01*
X196977820Y-80073481D01*
X196970609Y-80034204D01*
X196964295Y-79983715D01*
X196957748Y-79929256D01*
X196948361Y-79868458D01*
X196938911Y-79821306D01*
X196935646Y-79807847D01*
X196923564Y-79755944D01*
X196913909Y-79711658D01*
X196900164Y-79669441D01*
X196877306Y-79647876D01*
X196843834Y-79650834D01*
X196797346Y-79677614D01*
X196792523Y-79681012D01*
X196752228Y-79707770D01*
X196693967Y-79744770D01*
X196622913Y-79788871D01*
X196544239Y-79836931D01*
X196463116Y-79885809D01*
X196384719Y-79932363D01*
X196314218Y-79973450D01*
X196256788Y-80005931D01*
X196252280Y-80008433D01*
X196205226Y-80036326D01*
X196167043Y-80061929D01*
X196145628Y-80079984D01*
X196144174Y-80082252D01*
X196140631Y-80093392D01*
X196137491Y-80113363D01*
X196134715Y-80143887D01*
X196132259Y-80186689D01*
X196130083Y-80243493D01*
X196128145Y-80316021D01*
X196126403Y-80405998D01*
X196124817Y-80515146D01*
X196123344Y-80645190D01*
X196121942Y-80797854D01*
X196120572Y-80974860D01*
X196119190Y-81177932D01*
X196112243Y-82252404D01*
X196066839Y-82297823D01*
X196021436Y-82343243D01*
X195649990Y-82347022D01*
X195605580Y-82347463D01*
X195503093Y-82348283D01*
X195423607Y-82348406D01*
X195363632Y-82347633D01*
X195319673Y-82345765D01*
X195288237Y-82342603D01*
X195265832Y-82337949D01*
X195248964Y-82331604D01*
X195234141Y-82323370D01*
X195217472Y-82313298D01*
X195200057Y-82302257D01*
X195185450Y-82290369D01*
X195173404Y-82275389D01*
X195163673Y-82255073D01*
X195156010Y-82227173D01*
X195150170Y-82189447D01*
X195145906Y-82139647D01*
X195142972Y-82075529D01*
X195141122Y-81994848D01*
X195140110Y-81895358D01*
X195139688Y-81774814D01*
X195139612Y-81630972D01*
X195139635Y-81461585D01*
X195139631Y-81420613D01*
X195444755Y-81420613D01*
X195444933Y-81544554D01*
X195445328Y-81662156D01*
X195445941Y-81770354D01*
X195446777Y-81866086D01*
X195447840Y-81946285D01*
X195449131Y-82007888D01*
X195450656Y-82047831D01*
X195452416Y-82063049D01*
X195455890Y-82065723D01*
X195468104Y-82070032D01*
X195490614Y-82072782D01*
X195527793Y-82074200D01*
X195584012Y-82074509D01*
X195663641Y-82073937D01*
X195665856Y-82073914D01*
X195736037Y-82072671D01*
X195783418Y-82070181D01*
X195812855Y-82065719D01*
X195829207Y-82058559D01*
X195837328Y-82047975D01*
X195837738Y-82046429D01*
X195839551Y-82022998D01*
X195841148Y-81974720D01*
X195842511Y-81904019D01*
X195843620Y-81813321D01*
X195844455Y-81705054D01*
X195844996Y-81581642D01*
X195845224Y-81445512D01*
X195845119Y-81299090D01*
X195844661Y-81144802D01*
X195844639Y-81139358D01*
X195843847Y-80960519D01*
X195843009Y-80807465D01*
X195842070Y-80678244D01*
X195840974Y-80570907D01*
X195839667Y-80483502D01*
X195838095Y-80414080D01*
X195836202Y-80360689D01*
X195833934Y-80321380D01*
X195831237Y-80294201D01*
X195828055Y-80277203D01*
X195824334Y-80268434D01*
X195820019Y-80265945D01*
X195814638Y-80267033D01*
X195787306Y-80279470D01*
X195746394Y-80302854D01*
X195698542Y-80333491D01*
X195689009Y-80339874D01*
X195631814Y-80377167D01*
X195575638Y-80412407D01*
X195531399Y-80438717D01*
X195505591Y-80455073D01*
X195471772Y-80482980D01*
X195454124Y-80506646D01*
X195454110Y-80506688D01*
X195452314Y-80525486D01*
X195450700Y-80568587D01*
X195449271Y-80632928D01*
X195448032Y-80715443D01*
X195446985Y-80813070D01*
X195446134Y-80922742D01*
X195445482Y-81041397D01*
X195445033Y-81165970D01*
X195444790Y-81293397D01*
X195444755Y-81420613D01*
X195139631Y-81420613D01*
X195139622Y-81334497D01*
X195139542Y-81189914D01*
X195139315Y-81069278D01*
X195138860Y-80970406D01*
X195138092Y-80891114D01*
X195136930Y-80829216D01*
X195135292Y-80782529D01*
X195133094Y-80748869D01*
X195130254Y-80726052D01*
X195126689Y-80711893D01*
X195122317Y-80704207D01*
X195117055Y-80700812D01*
X195110821Y-80699523D01*
X195090256Y-80702945D01*
X195052829Y-80719173D01*
X195010417Y-80744681D01*
X194976040Y-80767668D01*
X194945444Y-80786661D01*
X194930535Y-80793954D01*
X194922839Y-80797093D01*
X194897176Y-80812215D01*
X194861696Y-80835639D01*
X194838143Y-80851198D01*
X194806149Y-80869990D01*
X194788200Y-80877324D01*
X194775121Y-80883642D01*
X194746699Y-80904204D01*
X194710807Y-80934084D01*
X194646324Y-80990845D01*
X194646324Y-81268254D01*
X194646037Y-81350689D01*
X194644316Y-81440048D01*
X194640282Y-81507878D01*
X194633081Y-81557765D01*
X194621858Y-81593294D01*
X194605761Y-81618050D01*
X194583937Y-81635620D01*
X194555530Y-81649589D01*
X194548217Y-81651856D01*
X194511128Y-81657503D01*
X194453192Y-81662170D01*
X194379270Y-81665824D01*
X194294222Y-81668432D01*
X194202909Y-81669962D01*
X194110191Y-81670382D01*
X194020929Y-81669658D01*
X193939984Y-81667758D01*
X193872217Y-81664650D01*
X193822487Y-81660301D01*
X193795656Y-81654678D01*
X193789694Y-81651480D01*
X193759573Y-81626602D01*
X193730684Y-81592151D01*
X193722919Y-81581648D01*
X193696549Y-81554970D01*
X193674605Y-81544282D01*
X193658568Y-81548340D01*
X193623835Y-81564378D01*
X193582605Y-81588437D01*
X193554925Y-81606018D01*
X193505131Y-81636893D01*
X193464255Y-81661385D01*
X193426859Y-81683041D01*
X193351503Y-81727192D01*
X193295721Y-81762846D01*
X193256618Y-81794304D01*
X193231298Y-81825871D01*
X193216864Y-81861848D01*
X193210421Y-81906539D01*
X193209073Y-81964246D01*
X193209924Y-82039272D01*
X193209972Y-82043532D01*
X193209763Y-82129683D01*
X193206005Y-82193296D01*
X193197223Y-82239338D01*
X193181938Y-82272775D01*
X193158675Y-82298574D01*
X193125956Y-82321701D01*
X193115277Y-82328049D01*
X193099669Y-82335507D01*
X193080759Y-82341100D01*
X193055049Y-82345040D01*
X193019040Y-82347539D01*
X192969236Y-82348809D01*
X192902137Y-82349061D01*
X192814247Y-82348507D01*
X192702067Y-82347358D01*
X192326353Y-82343243D01*
X192235547Y-82252433D01*
X192233592Y-82062985D01*
X192797815Y-82062985D01*
X192805671Y-82079412D01*
X192837919Y-82084568D01*
X192893821Y-82077501D01*
X192905493Y-82074800D01*
X192930515Y-82061358D01*
X192937243Y-82036305D01*
X192933692Y-82012598D01*
X192914615Y-81990516D01*
X192882844Y-81989857D01*
X192842717Y-82011748D01*
X192815093Y-82036240D01*
X192797815Y-82062985D01*
X192233592Y-82062985D01*
X192232075Y-81915991D01*
X192734626Y-81915991D01*
X192738321Y-81917157D01*
X192756885Y-81907281D01*
X192781993Y-81882507D01*
X192794590Y-81868919D01*
X192835394Y-81832194D01*
X192879771Y-81799226D01*
X192882844Y-81797232D01*
X192951903Y-81752428D01*
X193022040Y-81707524D01*
X193080199Y-81670941D01*
X193122651Y-81645024D01*
X193145667Y-81632116D01*
X193163162Y-81622583D01*
X193198309Y-81601613D01*
X193240729Y-81575150D01*
X193275734Y-81553573D01*
X193322847Y-81526370D01*
X193358837Y-81507642D01*
X193363445Y-81505439D01*
X193399603Y-81486013D01*
X193448174Y-81457717D01*
X193499989Y-81425862D01*
X193502034Y-81424570D01*
X193561584Y-81388102D01*
X193589892Y-81371541D01*
X193996043Y-81371541D01*
X194003914Y-81385215D01*
X194037073Y-81392678D01*
X194095655Y-81395384D01*
X194179794Y-81394788D01*
X194190588Y-81394578D01*
X194257188Y-81392610D01*
X194312492Y-81389865D01*
X194351001Y-81386677D01*
X194367219Y-81383381D01*
X194370525Y-81377024D01*
X194375236Y-81347996D01*
X194376882Y-81304917D01*
X194375769Y-81256146D01*
X194372207Y-81210043D01*
X194366502Y-81174969D01*
X194358963Y-81159283D01*
X194354509Y-81159375D01*
X194328615Y-81168605D01*
X194285511Y-81188865D01*
X194229947Y-81217834D01*
X194166674Y-81253193D01*
X194122809Y-81278700D01*
X194055626Y-81319738D01*
X194013325Y-81350200D01*
X193996043Y-81371541D01*
X193589892Y-81371541D01*
X193624449Y-81351324D01*
X193677353Y-81322010D01*
X193712363Y-81302906D01*
X193776049Y-81266201D01*
X193833004Y-81231343D01*
X193870321Y-81208024D01*
X193901091Y-81189938D01*
X193915474Y-81183013D01*
X193923047Y-81179716D01*
X193948512Y-81164585D01*
X193984157Y-81141328D01*
X194008647Y-81125400D01*
X194040432Y-81106804D01*
X194057803Y-81099497D01*
X194058964Y-81099301D01*
X194077818Y-81089251D01*
X194111286Y-81067022D01*
X194152963Y-81036832D01*
X194156845Y-81033931D01*
X194201219Y-81002508D01*
X194239624Y-80978139D01*
X194264123Y-80965890D01*
X194266369Y-80965161D01*
X194297827Y-80950141D01*
X194333687Y-80927451D01*
X194338675Y-80923925D01*
X194358963Y-80910906D01*
X194381946Y-80896158D01*
X194427478Y-80870324D01*
X194440422Y-80863282D01*
X194468422Y-80845266D01*
X194479584Y-80833415D01*
X194486375Y-80825130D01*
X194510281Y-80813873D01*
X194519212Y-80810367D01*
X194552913Y-80793934D01*
X194599836Y-80768707D01*
X194652705Y-80738535D01*
X194680216Y-80722393D01*
X194750360Y-80681293D01*
X194826509Y-80636732D01*
X194896433Y-80595870D01*
X194938378Y-80571360D01*
X194994810Y-80538322D01*
X195041648Y-80510831D01*
X195071685Y-80493111D01*
X195090859Y-80481723D01*
X195135719Y-80455077D01*
X195182845Y-80427087D01*
X195205509Y-80413424D01*
X195256681Y-80381918D01*
X195317163Y-80344125D01*
X195378182Y-80305506D01*
X195421293Y-80278321D01*
X195466891Y-80250340D01*
X195499432Y-80231293D01*
X195513778Y-80224260D01*
X195520617Y-80221440D01*
X195545208Y-80206347D01*
X195579491Y-80182575D01*
X195600661Y-80167892D01*
X195632499Y-80148489D01*
X195651008Y-80140890D01*
X195655060Y-80140083D01*
X195678687Y-80128039D01*
X195710524Y-80106153D01*
X195720780Y-80098547D01*
X195750244Y-80079176D01*
X195767774Y-80071415D01*
X195771347Y-80070460D01*
X195794723Y-80058988D01*
X195820019Y-80044657D01*
X195833061Y-80037269D01*
X195880153Y-80008766D01*
X195892574Y-80001209D01*
X195946502Y-79971765D01*
X195996333Y-79949232D01*
X196032638Y-79937988D01*
X196078367Y-79922328D01*
X196123675Y-79882530D01*
X196134726Y-79869754D01*
X196159623Y-79845024D01*
X196175313Y-79835201D01*
X196176250Y-79835094D01*
X196195522Y-79826448D01*
X196230284Y-79806674D01*
X196273720Y-79779621D01*
X196279232Y-79776073D01*
X196321755Y-79749725D01*
X196354572Y-79731102D01*
X196370970Y-79724041D01*
X196379355Y-79720740D01*
X196407625Y-79705161D01*
X196449902Y-79679708D01*
X196500691Y-79647619D01*
X196534953Y-79626075D01*
X196583111Y-79597790D01*
X196620285Y-79578396D01*
X196640435Y-79571197D01*
X196654507Y-79566324D01*
X196684902Y-79546607D01*
X196720606Y-79516912D01*
X196745146Y-79496430D01*
X196800615Y-79458233D01*
X196855772Y-79428150D01*
X196877306Y-79417926D01*
X196889442Y-79412164D01*
X196931967Y-79389783D01*
X196959759Y-79372451D01*
X196968935Y-79365167D01*
X196975350Y-79356368D01*
X196962024Y-79354213D01*
X196925022Y-79356946D01*
X196909577Y-79358743D01*
X196862766Y-79372942D01*
X196825347Y-79403516D01*
X196817026Y-79411806D01*
X196775012Y-79442582D01*
X196728083Y-79465566D01*
X196725017Y-79466670D01*
X196681058Y-79484858D01*
X196625187Y-79510849D01*
X196568721Y-79539401D01*
X196562416Y-79542733D01*
X196515352Y-79567323D01*
X196450085Y-79601108D01*
X196372159Y-79641233D01*
X196287117Y-79684842D01*
X196200504Y-79729080D01*
X196193658Y-79732569D01*
X196102461Y-79779049D01*
X196009416Y-79826475D01*
X195921174Y-79871456D01*
X195844388Y-79910601D01*
X195785711Y-79940519D01*
X195729941Y-79968344D01*
X195678756Y-79992640D01*
X195641029Y-80009170D01*
X195622342Y-80015377D01*
X195608861Y-80020103D01*
X195573434Y-80035859D01*
X195520250Y-80060882D01*
X195453022Y-80093313D01*
X195375466Y-80131294D01*
X195291296Y-80172970D01*
X195204225Y-80216483D01*
X195117968Y-80259975D01*
X195036239Y-80301589D01*
X194962753Y-80339468D01*
X194901224Y-80371755D01*
X194855365Y-80396593D01*
X194828892Y-80412124D01*
X194822446Y-80416257D01*
X194772604Y-80443599D01*
X194722746Y-80465231D01*
X194704594Y-80472775D01*
X194661923Y-80492247D01*
X194600318Y-80521328D01*
X194523081Y-80558431D01*
X194433512Y-80601967D01*
X194334914Y-80650348D01*
X194230588Y-80701986D01*
X194144092Y-80744661D01*
X194046532Y-80791989D01*
X193958333Y-80833912D01*
X193882584Y-80869001D01*
X193822372Y-80895832D01*
X193780785Y-80912977D01*
X193760910Y-80919008D01*
X193758935Y-80918983D01*
X193731368Y-80909083D01*
X193713279Y-80877324D01*
X193709620Y-80867688D01*
X193691184Y-80840572D01*
X193669866Y-80841096D01*
X193645630Y-80869254D01*
X193637496Y-80881536D01*
X193608618Y-80920475D01*
X193568098Y-80971822D01*
X193520654Y-81029919D01*
X193471004Y-81089109D01*
X193423864Y-81143733D01*
X193383953Y-81188134D01*
X193355986Y-81216653D01*
X193345632Y-81226557D01*
X193305774Y-81270025D01*
X193270640Y-81315015D01*
X193261471Y-81327536D01*
X193228186Y-81368689D01*
X193185152Y-81418168D01*
X193139337Y-81467860D01*
X193122298Y-81485862D01*
X193073836Y-81538169D01*
X193028900Y-81588072D01*
X192995417Y-81626814D01*
X192976588Y-81648531D01*
X192935349Y-81693391D01*
X192885591Y-81745386D01*
X192834295Y-81797135D01*
X192796127Y-81836182D01*
X192761455Y-81874759D01*
X192739756Y-81902791D01*
X192734626Y-81915991D01*
X192232075Y-81915991D01*
X192231463Y-81856672D01*
X192230585Y-81785463D01*
X192228408Y-81671539D01*
X192225884Y-81591541D01*
X192533763Y-81591541D01*
X192533913Y-81667616D01*
X192534583Y-81736208D01*
X192535794Y-81792241D01*
X192537563Y-81830641D01*
X192539912Y-81846332D01*
X192549742Y-81842944D01*
X192572332Y-81824620D01*
X192600912Y-81797038D01*
X192629157Y-81766695D01*
X192650742Y-81740083D01*
X192659343Y-81723699D01*
X192660461Y-81720555D01*
X192674967Y-81700051D01*
X192702720Y-81666868D01*
X192739239Y-81626461D01*
X192749590Y-81615316D01*
X192788675Y-81572176D01*
X192820848Y-81535112D01*
X192839978Y-81511142D01*
X192842517Y-81507605D01*
X192868120Y-81475771D01*
X192899031Y-81441329D01*
X192903524Y-81436596D01*
X192917594Y-81420158D01*
X192927079Y-81402673D01*
X192932882Y-81378791D01*
X192935907Y-81343165D01*
X192937059Y-81290446D01*
X192937243Y-81215285D01*
X192936731Y-81138984D01*
X192934862Y-81084265D01*
X192931201Y-81049180D01*
X192925313Y-81029610D01*
X192916761Y-81021437D01*
X192914910Y-81021210D01*
X192893434Y-81028854D01*
X192855330Y-81048805D01*
X192805590Y-81077847D01*
X192749201Y-81112763D01*
X192691153Y-81150337D01*
X192636436Y-81187354D01*
X192590039Y-81220597D01*
X192556951Y-81246851D01*
X192542161Y-81262898D01*
X192540135Y-81276525D01*
X192537976Y-81313897D01*
X192536240Y-81369159D01*
X192534946Y-81437237D01*
X192534114Y-81513056D01*
X192533763Y-81591541D01*
X192225884Y-81591541D01*
X192225552Y-81581029D01*
X192222064Y-81515026D01*
X192217996Y-81474623D01*
X192213398Y-81460912D01*
X192209084Y-81462236D01*
X192184428Y-81475076D01*
X192143262Y-81499181D01*
X192090223Y-81531598D01*
X192029952Y-81569373D01*
X191967086Y-81609553D01*
X191906264Y-81649186D01*
X191852125Y-81685318D01*
X191809308Y-81714996D01*
X191782451Y-81735266D01*
X191777171Y-81739951D01*
X191752364Y-81770051D01*
X191742275Y-81796994D01*
X191342454Y-81796994D01*
X191345043Y-81794234D01*
X191367406Y-81776977D01*
X191406604Y-81749251D01*
X191458119Y-81714061D01*
X191517431Y-81674415D01*
X191580021Y-81633316D01*
X191641371Y-81593772D01*
X191696962Y-81558788D01*
X191742275Y-81531369D01*
X191778050Y-81510110D01*
X191825258Y-81481216D01*
X191860383Y-81458764D01*
X191862412Y-81457407D01*
X191919650Y-81419584D01*
X191985381Y-81376801D01*
X192054319Y-81332427D01*
X192121175Y-81289832D01*
X192180663Y-81252384D01*
X192227497Y-81223453D01*
X192256389Y-81206408D01*
X192269196Y-81198875D01*
X192306521Y-81175555D01*
X192360656Y-81140851D01*
X192427687Y-81097296D01*
X192503705Y-81047423D01*
X192566783Y-81005684D01*
X193207850Y-81005684D01*
X193208897Y-81046440D01*
X193211375Y-81067502D01*
X193215361Y-81074645D01*
X193233058Y-81077136D01*
X193259375Y-81055770D01*
X193292554Y-81011757D01*
X193296863Y-81005300D01*
X193341609Y-80945508D01*
X193406464Y-80868261D01*
X193490748Y-80774345D01*
X193593780Y-80664544D01*
X193631729Y-80624150D01*
X193667875Y-80584162D01*
X193692419Y-80555190D01*
X193701466Y-80541678D01*
X193697730Y-80529757D01*
X193682367Y-80527651D01*
X193652715Y-80539367D01*
X193606210Y-80565970D01*
X193540292Y-80608521D01*
X193491717Y-80640455D01*
X193428889Y-80680793D01*
X193372857Y-80715774D01*
X193331724Y-80740277D01*
X193282222Y-80769901D01*
X193244544Y-80800027D01*
X193222987Y-80833503D01*
X193212669Y-80878357D01*
X193208711Y-80942618D01*
X193208407Y-80953302D01*
X193207850Y-81005684D01*
X192566783Y-81005684D01*
X192584796Y-80993765D01*
X192639975Y-80957237D01*
X192713405Y-80909091D01*
X192776957Y-80867967D01*
X192827329Y-80835976D01*
X192861220Y-80815233D01*
X192875328Y-80807849D01*
X192890818Y-80800217D01*
X192914910Y-80784324D01*
X192921629Y-80779892D01*
X192960956Y-80751321D01*
X193000001Y-80723197D01*
X193042592Y-80695314D01*
X193073378Y-80678247D01*
X193078416Y-80675882D01*
X193111814Y-80657564D01*
X193157870Y-80629812D01*
X193208194Y-80597641D01*
X193243595Y-80574516D01*
X193307722Y-80533136D01*
X193378627Y-80487821D01*
X193409506Y-80468277D01*
X193975399Y-80468277D01*
X193975554Y-80500812D01*
X193977099Y-80553459D01*
X193979945Y-80591519D01*
X193983702Y-80608393D01*
X193983728Y-80608418D01*
X193998763Y-80605680D01*
X194032824Y-80592270D01*
X194080598Y-80570836D01*
X194136769Y-80544027D01*
X194196023Y-80514492D01*
X194253046Y-80484878D01*
X194302524Y-80457835D01*
X194339141Y-80436012D01*
X194357584Y-80422056D01*
X194359421Y-80418608D01*
X194365174Y-80391560D01*
X194370093Y-80346216D01*
X194373865Y-80289883D01*
X194376180Y-80229868D01*
X194376353Y-80212042D01*
X194649671Y-80212042D01*
X194657206Y-80240980D01*
X194679950Y-80252050D01*
X194692322Y-80248833D01*
X194726307Y-80234860D01*
X194774167Y-80212359D01*
X194829757Y-80184117D01*
X194865605Y-80165734D01*
X194926380Y-80136433D01*
X194979858Y-80112795D01*
X195017519Y-80098697D01*
X195029005Y-80094849D01*
X195073510Y-80073470D01*
X195106967Y-80048328D01*
X195119035Y-80033545D01*
X195129171Y-80012510D01*
X195135538Y-79982214D01*
X195139334Y-79936483D01*
X195141759Y-79869139D01*
X195142523Y-79835752D01*
X195142616Y-79779023D01*
X195140052Y-79743134D01*
X195134311Y-79723330D01*
X195124871Y-79714853D01*
X195123888Y-79714685D01*
X195106068Y-79723943D01*
X195073101Y-79749723D01*
X195028406Y-79788673D01*
X194975402Y-79837437D01*
X194917508Y-79892663D01*
X194858143Y-79950996D01*
X194800726Y-80009084D01*
X194748676Y-80063573D01*
X194705411Y-80111108D01*
X194674352Y-80148336D01*
X194658917Y-80171904D01*
X194649671Y-80212042D01*
X194376353Y-80212042D01*
X194376726Y-80173477D01*
X194375193Y-80128016D01*
X194371269Y-80100791D01*
X194361856Y-80088013D01*
X194339362Y-80089699D01*
X194301860Y-80111695D01*
X194285885Y-80122579D01*
X194246688Y-80148535D01*
X194195591Y-80181860D01*
X194139546Y-80218000D01*
X194100697Y-80243238D01*
X194051893Y-80275966D01*
X194014818Y-80302052D01*
X193995374Y-80317426D01*
X193991667Y-80322141D01*
X193982522Y-80349055D01*
X193977254Y-80396600D01*
X193975399Y-80468277D01*
X193409506Y-80468277D01*
X193446406Y-80444922D01*
X193512039Y-80403233D01*
X193589500Y-80353122D01*
X193664143Y-80303970D01*
X193682367Y-80291742D01*
X193731831Y-80258553D01*
X193788431Y-80219651D01*
X193829808Y-80190041D01*
X193851829Y-80172501D01*
X193863121Y-80163515D01*
X193884417Y-80154785D01*
X193899803Y-80147988D01*
X193935699Y-80127443D01*
X193988963Y-80094967D01*
X194056684Y-80052389D01*
X194135950Y-80001543D01*
X194223850Y-79944259D01*
X194317472Y-79882370D01*
X194361856Y-79853642D01*
X194365916Y-79851014D01*
X194420252Y-79817477D01*
X194464099Y-79792052D01*
X194483191Y-79781589D01*
X194524537Y-79758702D01*
X194554287Y-79741935D01*
X194568969Y-79735742D01*
X194603202Y-79738514D01*
X194630722Y-79763817D01*
X194646324Y-79807919D01*
X194646846Y-79811138D01*
X194656284Y-79843010D01*
X194668699Y-79858924D01*
X194682813Y-79851719D01*
X194711258Y-79827379D01*
X194749639Y-79789732D01*
X194793753Y-79742685D01*
X194801473Y-79734207D01*
X194843985Y-79688727D01*
X194901709Y-79628288D01*
X194971035Y-79556607D01*
X195048355Y-79477402D01*
X195111009Y-79413748D01*
X195366782Y-79413748D01*
X195405899Y-79460236D01*
X195406852Y-79461369D01*
X195422683Y-79481353D01*
X195433397Y-79500543D01*
X195439996Y-79524656D01*
X195443485Y-79559408D01*
X195444868Y-79610516D01*
X195445150Y-79683697D01*
X195445168Y-79692139D01*
X195446170Y-79758856D01*
X195448468Y-79814669D01*
X195451746Y-79853952D01*
X195455686Y-79871075D01*
X195468799Y-79869998D01*
X195501924Y-79858224D01*
X195549399Y-79837401D01*
X195605888Y-79809708D01*
X195655907Y-79784630D01*
X195706939Y-79760433D01*
X195744947Y-79743997D01*
X195764160Y-79737936D01*
X195783801Y-79731831D01*
X195812233Y-79713620D01*
X195816334Y-79710125D01*
X195824520Y-79701020D01*
X195830799Y-79688001D01*
X195835467Y-79667656D01*
X195838821Y-79636575D01*
X195841158Y-79591348D01*
X195842775Y-79528563D01*
X195843969Y-79444810D01*
X195845036Y-79336678D01*
X195845688Y-79247941D01*
X195845795Y-79155397D01*
X195844956Y-79085596D01*
X195843051Y-79035695D01*
X195839958Y-79002850D01*
X195835556Y-78984219D01*
X195829725Y-78976957D01*
X195827713Y-78976947D01*
X195808058Y-78988741D01*
X195772078Y-79018160D01*
X195722053Y-79063167D01*
X195660266Y-79121728D01*
X195588997Y-79191805D01*
X195366782Y-79413748D01*
X195111009Y-79413748D01*
X195123888Y-79400663D01*
X195130061Y-79394391D01*
X195212543Y-79311289D01*
X195252300Y-79271370D01*
X195324841Y-79198285D01*
X195389454Y-79132864D01*
X195443794Y-79077500D01*
X195485514Y-79034591D01*
X195512267Y-79006531D01*
X195521706Y-78995716D01*
X195521188Y-78993802D01*
X195506269Y-78993449D01*
X195474778Y-79005501D01*
X195432152Y-79027538D01*
X195383827Y-79057138D01*
X195370351Y-79065474D01*
X195327379Y-79089825D01*
X195265076Y-79123487D01*
X195187137Y-79164526D01*
X195097255Y-79211006D01*
X194999122Y-79260992D01*
X194896433Y-79312549D01*
X194848468Y-79336535D01*
X194744515Y-79389060D01*
X194645184Y-79439941D01*
X194554540Y-79487059D01*
X194476648Y-79528290D01*
X194415570Y-79561512D01*
X194375372Y-79584604D01*
X194365789Y-79590334D01*
X194318447Y-79617184D01*
X194251712Y-79653597D01*
X194169800Y-79697334D01*
X194076926Y-79746159D01*
X193977305Y-79797833D01*
X193875153Y-79850119D01*
X193833752Y-79871192D01*
X193737583Y-79920381D01*
X193648823Y-79966107D01*
X193570951Y-80006556D01*
X193507447Y-80039915D01*
X193461791Y-80064373D01*
X193437461Y-80078117D01*
X193419365Y-80088622D01*
X193376301Y-80112053D01*
X193317428Y-80143093D01*
X193248046Y-80178955D01*
X193173457Y-80216853D01*
X193118375Y-80244809D01*
X193049477Y-80280400D01*
X192990732Y-80311449D01*
X192947051Y-80335351D01*
X192923348Y-80349501D01*
X192901870Y-80362622D01*
X192859345Y-80386166D01*
X192804103Y-80415329D01*
X192742713Y-80446580D01*
X192689382Y-80473684D01*
X192632923Y-80503408D01*
X192588299Y-80528026D01*
X192562078Y-80543996D01*
X192544647Y-80554232D01*
X192504474Y-80575890D01*
X192445285Y-80606903D01*
X192370149Y-80645689D01*
X192282139Y-80690660D01*
X192184325Y-80740234D01*
X192079779Y-80792826D01*
X191981204Y-80842453D01*
X191885555Y-80891062D01*
X191800567Y-80934722D01*
X191729087Y-80971948D01*
X191673959Y-81001260D01*
X191638030Y-81021174D01*
X191624144Y-81030208D01*
X191617958Y-81036072D01*
X191591436Y-81052372D01*
X191553244Y-81071062D01*
X191538137Y-81078069D01*
X191482860Y-81107182D01*
X191432239Y-81138010D01*
X191428521Y-81140419D01*
X191396551Y-81158969D01*
X191344197Y-81187480D01*
X191275203Y-81223987D01*
X191193316Y-81266523D01*
X191102280Y-81313122D01*
X191005842Y-81361819D01*
X190979403Y-81375102D01*
X190886830Y-81421990D01*
X190802520Y-81465268D01*
X190729799Y-81503190D01*
X190671995Y-81534008D01*
X190632435Y-81555976D01*
X190614445Y-81567346D01*
X190604107Y-81578010D01*
X190598523Y-81593452D01*
X190410119Y-81593452D01*
X190409977Y-81586194D01*
X190411294Y-81564651D01*
X190413567Y-81543154D01*
X190426404Y-81490794D01*
X190450378Y-81453609D01*
X190465182Y-81442108D01*
X190503325Y-81418133D01*
X190559614Y-81385622D01*
X190630270Y-81346692D01*
X190711512Y-81303462D01*
X190799560Y-81258048D01*
X190866428Y-81223820D01*
X190952678Y-81178868D01*
X191030651Y-81137340D01*
X191096198Y-81101481D01*
X191145172Y-81073536D01*
X191173425Y-81055750D01*
X191182521Y-81049264D01*
X191202532Y-81034737D01*
X191215857Y-81021122D01*
X191222960Y-81003681D01*
X191224309Y-80977677D01*
X191220369Y-80938371D01*
X191211607Y-80881025D01*
X191198487Y-80800901D01*
X191192610Y-80756842D01*
X191185114Y-80661341D01*
X191181098Y-80548259D01*
X191180406Y-80423945D01*
X191180574Y-80415208D01*
X191353545Y-80415208D01*
X191354539Y-80482302D01*
X191357256Y-80542518D01*
X191361668Y-80588901D01*
X191367742Y-80614497D01*
X191369242Y-80617842D01*
X191376513Y-80648746D01*
X191382540Y-80696782D01*
X191386144Y-80753071D01*
X191386455Y-80762359D01*
X191388180Y-80810577D01*
X191391598Y-80847775D01*
X191399300Y-80873833D01*
X191413877Y-80888628D01*
X191437919Y-80892038D01*
X191474017Y-80883942D01*
X191524762Y-80864218D01*
X191592745Y-80832744D01*
X191680556Y-80789399D01*
X191790787Y-80734061D01*
X191801007Y-80728927D01*
X191894140Y-80681593D01*
X191980588Y-80636725D01*
X192056701Y-80596287D01*
X192118832Y-80562242D01*
X192163330Y-80536551D01*
X192186548Y-80521178D01*
X192228599Y-80485794D01*
X192228599Y-79960834D01*
X192533161Y-79960834D01*
X192533301Y-80086081D01*
X192533631Y-80201975D01*
X192534164Y-80305662D01*
X192542526Y-80315205D01*
X192567228Y-80316203D01*
X192598723Y-80307823D01*
X192627241Y-80291548D01*
X192635910Y-80285715D01*
X192666665Y-80267933D01*
X192712218Y-80243189D01*
X192766268Y-80214955D01*
X192787263Y-80204305D01*
X192835807Y-80179963D01*
X192872648Y-80159492D01*
X192899386Y-80138936D01*
X192917620Y-80114340D01*
X192928951Y-80081751D01*
X192934978Y-80037213D01*
X192937303Y-79976770D01*
X192937524Y-79896469D01*
X192937429Y-79861197D01*
X193209227Y-79861197D01*
X193210402Y-79911228D01*
X193213641Y-79949834D01*
X193214875Y-79953819D01*
X193222724Y-79958188D01*
X193240102Y-79955546D01*
X193270022Y-79944712D01*
X193315502Y-79924504D01*
X193379554Y-79893740D01*
X193465196Y-79851237D01*
X193500563Y-79833481D01*
X193584065Y-79790496D01*
X193642368Y-79757542D01*
X193675437Y-79733294D01*
X193683237Y-79716425D01*
X193665731Y-79705611D01*
X193622884Y-79699528D01*
X193554660Y-79696850D01*
X193461024Y-79696251D01*
X193394582Y-79696560D01*
X193318537Y-79698221D01*
X193265785Y-79701490D01*
X193233670Y-79706560D01*
X193219533Y-79713620D01*
X193216014Y-79725520D01*
X193212240Y-79760048D01*
X193209909Y-79808039D01*
X193209227Y-79861197D01*
X192937429Y-79861197D01*
X192937243Y-79792355D01*
X192937321Y-79705827D01*
X192938124Y-79616078D01*
X192940543Y-79548506D01*
X192945470Y-79499943D01*
X192953798Y-79467223D01*
X192966420Y-79447179D01*
X192984228Y-79436644D01*
X193008115Y-79432451D01*
X193038974Y-79431434D01*
X193122939Y-79430434D01*
X193253806Y-79429536D01*
X193381841Y-79429400D01*
X193461024Y-79429774D01*
X193503925Y-79429977D01*
X193616937Y-79431217D01*
X193717759Y-79433072D01*
X193803270Y-79435492D01*
X193870353Y-79438427D01*
X193915887Y-79441828D01*
X193936752Y-79445645D01*
X193954232Y-79460867D01*
X193965470Y-79489229D01*
X193972351Y-79533965D01*
X193993148Y-79557536D01*
X194026163Y-79556748D01*
X194069682Y-79530915D01*
X194073901Y-79527555D01*
X194085009Y-79519091D01*
X194097967Y-79510256D01*
X194115326Y-79499703D01*
X194139641Y-79486088D01*
X194173463Y-79468062D01*
X194219347Y-79444280D01*
X194279845Y-79413396D01*
X194357510Y-79374063D01*
X194454895Y-79324935D01*
X194574553Y-79264664D01*
X194640562Y-79231392D01*
X194735559Y-79183388D01*
X194821136Y-79140000D01*
X194894211Y-79102799D01*
X194951701Y-79073356D01*
X194990523Y-79053241D01*
X195007593Y-79044026D01*
X195027875Y-79034438D01*
X195063449Y-79023711D01*
X195091148Y-79013650D01*
X195126014Y-78990806D01*
X195126511Y-78990352D01*
X195150117Y-78973747D01*
X195184152Y-78953212D01*
X195579953Y-78953212D01*
X195582344Y-78968904D01*
X195608408Y-78971206D01*
X195628307Y-78963452D01*
X195644164Y-78942449D01*
X195644352Y-78941383D01*
X195638675Y-78922253D01*
X195618909Y-78919609D01*
X195593960Y-78934807D01*
X195579953Y-78953212D01*
X195184152Y-78953212D01*
X195192456Y-78948202D01*
X195247681Y-78917116D01*
X195309943Y-78883889D01*
X195333580Y-78871564D01*
X195402711Y-78834585D01*
X195449277Y-78807388D01*
X195475239Y-78788256D01*
X195482559Y-78775471D01*
X195473199Y-78767316D01*
X195449120Y-78762075D01*
X195437196Y-78761339D01*
X195398470Y-78760398D01*
X195336277Y-78759592D01*
X195252845Y-78758915D01*
X195150402Y-78758364D01*
X195031178Y-78757935D01*
X194897401Y-78757623D01*
X194751300Y-78757424D01*
X194595102Y-78757335D01*
X194431037Y-78757351D01*
X194261334Y-78757468D01*
X194088220Y-78757682D01*
X193913924Y-78757989D01*
X193740676Y-78758385D01*
X193570703Y-78758866D01*
X193406234Y-78759427D01*
X193249497Y-78760064D01*
X193102723Y-78760774D01*
X192968137Y-78761552D01*
X192847971Y-78762395D01*
X192744451Y-78763297D01*
X192659807Y-78764256D01*
X192596267Y-78765266D01*
X192556060Y-78766324D01*
X192541414Y-78767426D01*
X192541402Y-78767440D01*
X192540312Y-78782259D01*
X192539250Y-78821981D01*
X192538231Y-78883751D01*
X192537267Y-78964714D01*
X192536371Y-79062016D01*
X192535558Y-79172803D01*
X192534841Y-79294219D01*
X192534233Y-79423410D01*
X192533747Y-79557522D01*
X192533398Y-79693700D01*
X192533198Y-79829088D01*
X192533161Y-79960834D01*
X192228599Y-79960834D01*
X192228599Y-79554693D01*
X192228615Y-79448795D01*
X192228739Y-79277773D01*
X192229027Y-79131387D01*
X192229527Y-79007606D01*
X192230285Y-78904399D01*
X192231349Y-78819736D01*
X192232766Y-78751585D01*
X192232813Y-78750210D01*
X195586125Y-78750210D01*
X195599076Y-78762427D01*
X195618909Y-78761045D01*
X195624985Y-78760622D01*
X195635674Y-78754963D01*
X195646761Y-78740251D01*
X195645728Y-78731428D01*
X195630911Y-78717774D01*
X195601758Y-78725380D01*
X195591830Y-78732617D01*
X195586125Y-78750210D01*
X192232813Y-78750210D01*
X192234583Y-78697916D01*
X192236847Y-78656698D01*
X192239605Y-78625900D01*
X192242904Y-78603492D01*
X192246792Y-78587443D01*
X192251315Y-78575721D01*
X192254670Y-78568120D01*
X192259269Y-78556379D01*
X192263793Y-78545830D01*
X192269635Y-78536410D01*
X192278188Y-78528054D01*
X192290846Y-78520700D01*
X192309001Y-78514284D01*
X192334048Y-78508742D01*
X192367379Y-78504011D01*
X192410388Y-78500028D01*
X192464468Y-78496728D01*
X192531012Y-78494048D01*
X192611413Y-78491926D01*
X192707064Y-78490296D01*
X192819360Y-78489096D01*
X192949693Y-78488262D01*
X193099455Y-78487730D01*
X193270042Y-78487438D01*
X193462845Y-78487321D01*
X193679259Y-78487317D01*
X193920676Y-78487360D01*
X194188489Y-78487389D01*
X196024704Y-78487389D01*
X196119190Y-78581875D01*
X196119190Y-79049182D01*
X196119234Y-79127825D01*
X196119559Y-79240737D01*
X196120303Y-79330154D01*
X196121586Y-79398779D01*
X196123529Y-79449314D01*
X196126250Y-79484459D01*
X196129869Y-79506918D01*
X196134507Y-79519392D01*
X196140284Y-79524583D01*
X196143467Y-79524780D01*
X196168712Y-79517558D01*
X196213899Y-79499484D01*
X196275448Y-79472131D01*
X196349778Y-79437072D01*
X196433309Y-79395879D01*
X196466156Y-79379241D01*
X196543425Y-79339159D01*
X196610823Y-79302886D01*
X196626182Y-79294212D01*
X197074370Y-79294212D01*
X197075010Y-79302293D01*
X197093002Y-79310342D01*
X197118986Y-79316151D01*
X197155980Y-79314976D01*
X197176227Y-79306263D01*
X197194875Y-79282458D01*
X197190674Y-79254156D01*
X197185430Y-79249570D01*
X197162284Y-79250788D01*
X197120502Y-79268270D01*
X197093973Y-79281676D01*
X197074370Y-79294212D01*
X196626182Y-79294212D01*
X196664579Y-79272528D01*
X196700924Y-79250190D01*
X196716085Y-79237977D01*
X196716127Y-79216546D01*
X196715566Y-79214841D01*
X197236891Y-79214841D01*
X197249396Y-79220823D01*
X197274559Y-79217562D01*
X197304976Y-79199855D01*
X197334968Y-79175983D01*
X197373211Y-79149645D01*
X197374888Y-79148591D01*
X197400747Y-79128359D01*
X197411422Y-79112342D01*
X197405658Y-79101463D01*
X197385080Y-79099101D01*
X197358840Y-79108699D01*
X197336832Y-79128158D01*
X197334330Y-79131512D01*
X197306282Y-79159506D01*
X197270043Y-79186429D01*
X197244643Y-79203668D01*
X197236891Y-79214841D01*
X196715566Y-79214841D01*
X196702245Y-79174390D01*
X196675516Y-79116036D01*
X196637782Y-79044782D01*
X196590883Y-78963919D01*
X196536660Y-78876745D01*
X196476954Y-78786552D01*
X196413606Y-78696635D01*
X196408631Y-78689909D01*
X196362672Y-78633307D01*
X196301617Y-78564735D01*
X196230732Y-78489544D01*
X196155282Y-78413086D01*
X196080532Y-78340714D01*
X196011747Y-78277779D01*
X195954192Y-78229633D01*
X195948979Y-78225581D01*
X195900043Y-78187169D01*
X195854709Y-78151013D01*
X195822190Y-78124455D01*
X195777358Y-78089945D01*
X195704689Y-78040483D01*
X195620164Y-77987992D01*
X195531263Y-77937080D01*
X195445470Y-77892358D01*
X195378564Y-77861633D01*
X195282904Y-77822550D01*
X195177514Y-77783633D01*
X195067431Y-77746426D01*
X194957691Y-77712475D01*
X194853332Y-77683323D01*
X194759391Y-77660516D01*
X194680905Y-77645598D01*
X194622912Y-77640114D01*
X194614168Y-77639911D01*
X194565707Y-77634621D01*
X194525647Y-77624500D01*
X194512137Y-77621225D01*
X194470191Y-77616498D01*
X194408679Y-77612798D01*
X194332756Y-77610142D01*
X194247576Y-77608548D01*
X194158296Y-77608033D01*
X194070069Y-77608612D01*
X193988051Y-77610304D01*
X193917397Y-77613125D01*
X193863261Y-77617092D01*
X193830799Y-77622221D01*
X193827212Y-77623220D01*
X193784786Y-77632999D01*
X193727514Y-77643961D01*
X193666728Y-77653917D01*
X193572767Y-77670109D01*
X193396879Y-77711354D01*
X193225797Y-77764797D01*
X193070719Y-77827182D01*
X193031566Y-77844616D01*
X192977292Y-77867414D01*
X192934160Y-77884046D01*
X192912827Y-77892880D01*
X192865294Y-77916581D01*
X192806630Y-77948855D01*
X192742786Y-77986111D01*
X192679713Y-78024758D01*
X192623362Y-78061204D01*
X192579684Y-78091856D01*
X192554628Y-78113124D01*
X192550391Y-78117640D01*
X192517523Y-78146766D01*
X192478709Y-78175060D01*
X192471397Y-78179870D01*
X192432533Y-78207652D01*
X192402286Y-78232436D01*
X192387669Y-78245401D01*
X192352476Y-78274768D01*
X192312236Y-78306879D01*
X192246027Y-78364361D01*
X192169184Y-78441093D01*
X192087426Y-78530726D01*
X192005436Y-78627719D01*
X191927895Y-78726529D01*
X191859485Y-78821616D01*
X191804886Y-78907437D01*
X191799909Y-78915891D01*
X191781166Y-78947342D01*
X191754105Y-78992503D01*
X191722755Y-79044641D01*
X191713527Y-79060109D01*
X191675539Y-79126184D01*
X191638607Y-79193581D01*
X191609586Y-79249866D01*
X191595252Y-79280903D01*
X191564163Y-79357230D01*
X191531354Y-79447497D01*
X191498887Y-79545102D01*
X191468826Y-79643445D01*
X191443231Y-79735923D01*
X191424166Y-79815937D01*
X191413692Y-79876886D01*
X191412113Y-79890020D01*
X191404523Y-79940159D01*
X191396258Y-79981098D01*
X191391972Y-80003427D01*
X191386068Y-80051619D01*
X191382304Y-80104666D01*
X191379857Y-80139964D01*
X191373693Y-80187737D01*
X191366012Y-80220204D01*
X191361214Y-80242209D01*
X191356852Y-80288207D01*
X191354306Y-80348192D01*
X191353545Y-80415208D01*
X191180574Y-80415208D01*
X191182885Y-80294745D01*
X191188382Y-80167007D01*
X191196741Y-80047079D01*
X191207809Y-79941309D01*
X191221431Y-79856043D01*
X191224482Y-79841098D01*
X191233917Y-79795054D01*
X191244233Y-79744884D01*
X191249711Y-79720808D01*
X191266385Y-79659586D01*
X191285038Y-79601939D01*
X191295384Y-79571482D01*
X191307009Y-79531214D01*
X191311531Y-79506348D01*
X191312561Y-79499256D01*
X191322042Y-79467089D01*
X191339664Y-79417216D01*
X191363248Y-79355006D01*
X191390612Y-79285827D01*
X191419574Y-79215049D01*
X191447955Y-79148039D01*
X191473571Y-79090166D01*
X191494243Y-79046799D01*
X191507788Y-79023306D01*
X191526061Y-78997144D01*
X191533851Y-78980017D01*
X191539594Y-78965282D01*
X191559497Y-78930889D01*
X191590842Y-78882008D01*
X191630716Y-78822770D01*
X191676205Y-78757305D01*
X191724394Y-78689743D01*
X191772368Y-78624215D01*
X191817214Y-78564850D01*
X191856018Y-78515779D01*
X191885864Y-78481133D01*
X191891240Y-78475296D01*
X191921981Y-78440237D01*
X191961131Y-78393854D01*
X192001559Y-78344564D01*
X192010953Y-78333154D01*
X192054189Y-78285145D01*
X192096980Y-78243603D01*
X192131288Y-78216467D01*
X192150665Y-78203051D01*
X192196063Y-78165901D01*
X192237622Y-78125684D01*
X192258615Y-78105109D01*
X192306413Y-78064092D01*
X192366899Y-78016322D01*
X192433477Y-77966673D01*
X192499546Y-77920020D01*
X192558508Y-77881239D01*
X192603763Y-77855204D01*
X192610132Y-77851974D01*
X192647160Y-77831202D01*
X192673238Y-77813538D01*
X192692991Y-77799627D01*
X192737452Y-77773549D01*
X192795345Y-77742826D01*
X192859601Y-77711041D01*
X192923151Y-77681777D01*
X192978927Y-77658615D01*
X193047117Y-77633067D01*
X193135826Y-77601038D01*
X193224245Y-77570260D01*
X193307232Y-77542447D01*
X193379647Y-77519317D01*
X193436349Y-77502584D01*
X193472199Y-77493965D01*
X193477735Y-77493007D01*
X193527216Y-77482798D01*
X193570736Y-77471536D01*
X193573825Y-77470620D01*
X193619258Y-77460102D01*
X193668000Y-77452453D01*
X193678193Y-77451257D01*
X193731456Y-77443789D01*
X193784836Y-77434876D01*
X193813126Y-77430920D01*
X193872010Y-77426831D01*
X193930733Y-77426675D01*
X193962918Y-77426521D01*
X194031719Y-77420072D01*
X194093999Y-77407666D01*
X194130704Y-77398034D01*
X194158296Y-77393920D01*
X194169003Y-77392323D01*
X194205315Y-77395549D01*
X194253791Y-77407716D01*
X194282846Y-77414551D01*
X194354347Y-77424523D01*
X194424004Y-77426812D01*
X194466877Y-77426448D01*
X194527820Y-77429139D01*
X194576849Y-77434770D01*
X194589125Y-77436944D01*
X194642547Y-77445714D01*
X194689228Y-77452493D01*
X194703190Y-77454695D01*
X194748282Y-77463727D01*
X194806865Y-77477021D01*
X194869863Y-77492563D01*
X195030841Y-77537099D01*
X195255191Y-77611829D01*
X195461478Y-77697523D01*
X195654986Y-77796458D01*
X195841003Y-77910911D01*
X195893965Y-77946484D01*
X195959268Y-77991461D01*
X196013816Y-78031270D01*
X196063731Y-78070834D01*
X196115136Y-78115076D01*
X196174151Y-78168917D01*
X196246900Y-78237280D01*
X196285685Y-78274310D01*
X196331957Y-78319940D01*
X196374842Y-78364611D01*
X196418437Y-78412895D01*
X196466841Y-78469366D01*
X196524151Y-78538597D01*
X196594465Y-78625159D01*
X196624824Y-78665839D01*
X196663238Y-78722872D01*
X196697711Y-78779183D01*
X196698366Y-78780325D01*
X196728234Y-78830294D01*
X196756998Y-78875034D01*
X196778515Y-78904982D01*
X196783450Y-78911350D01*
X196809654Y-78952170D01*
X196839363Y-79006477D01*
X196867997Y-79065021D01*
X196890974Y-79118552D01*
X196903715Y-79157821D01*
X196918183Y-79188304D01*
X196942399Y-79193887D01*
X196962024Y-79180962D01*
X196973591Y-79173344D01*
X196980029Y-79167487D01*
G37*
%TD*%
M02*
