%FSLAX45Y45*%
G04 Gerber Fmt 4.5, Leading zero omitted, Abs format (unit mm)*
G04 Created by KiCad (PCBNEW (6.0.0)) date 2023-11-18 00:08:48*
%MOMM*%
%LPD*%
G01*
G04 APERTURE LIST*
%TA.AperFunction,Profile*%
%ADD10C,0.100000*%
%TD*%
%ADD11C,0.200000*%
%ADD12C,0.030000*%
%ADD13C,0.040000*%
%ADD14C,0.050000*%
%ADD15C,0.100000*%
%ADD16C,0.130000*%
G04 APERTURE END LIST*
D10*
X12115800Y-5651500D02*
X21313140Y-5651500D01*
X21313140Y-5651500D02*
X21313140Y-10688320D01*
X21313140Y-10688320D02*
X12115800Y-10688320D01*
X12115800Y-10688320D02*
X12115800Y-5651500D01*
D11*
D12*
X12227800Y-6817600D02*
X12257800Y-6847600D01*
X12257800Y-6817600D02*
X12227800Y-6847600D01*
X12227800Y-7160500D02*
X12257800Y-7190500D01*
X12257800Y-7160500D02*
X12227800Y-7190500D01*
X12291300Y-6754100D02*
X12321300Y-6784100D01*
X12321300Y-6754100D02*
X12291300Y-6784100D01*
X12291300Y-6881100D02*
X12321300Y-6911100D01*
X12321300Y-6881100D02*
X12291300Y-6911100D01*
X12291300Y-7097000D02*
X12321300Y-7127000D01*
X12321300Y-7097000D02*
X12291300Y-7127000D01*
X12291300Y-7224000D02*
X12321300Y-7254000D01*
X12321300Y-7224000D02*
X12291300Y-7254000D01*
X12354800Y-6817600D02*
X12384800Y-6847600D01*
X12384800Y-6817600D02*
X12354800Y-6847600D01*
X12354800Y-7160500D02*
X12384800Y-7190500D01*
X12384800Y-7160500D02*
X12354800Y-7190500D01*
X12719340Y-7447520D02*
X12749340Y-7477520D01*
X12749340Y-7447520D02*
X12719340Y-7477520D01*
X12748500Y-7160500D02*
X12778500Y-7190500D01*
X12778500Y-7160500D02*
X12748500Y-7190500D01*
X12773900Y-5915900D02*
X12803900Y-5945900D01*
X12803900Y-5915900D02*
X12773900Y-5945900D01*
X12793000Y-8819120D02*
X12823000Y-8849120D01*
X12823000Y-8819120D02*
X12793000Y-8849120D01*
X12812000Y-7097000D02*
X12842000Y-7127000D01*
X12842000Y-7097000D02*
X12812000Y-7127000D01*
X12812000Y-7224000D02*
X12842000Y-7254000D01*
X12842000Y-7224000D02*
X12812000Y-7254000D01*
X12837400Y-5852400D02*
X12867400Y-5882400D01*
X12867400Y-5852400D02*
X12837400Y-5882400D01*
X12837400Y-5979400D02*
X12867400Y-6009400D01*
X12867400Y-5979400D02*
X12837400Y-6009400D01*
X12875500Y-7160500D02*
X12905500Y-7190500D01*
X12905500Y-7160500D02*
X12875500Y-7190500D01*
X12900900Y-5915900D02*
X12930900Y-5945900D01*
X12930900Y-5915900D02*
X12900900Y-5945900D01*
X13078700Y-10259300D02*
X13108700Y-10289300D01*
X13108700Y-10259300D02*
X13078700Y-10289300D01*
X13142200Y-10195800D02*
X13172200Y-10225800D01*
X13172200Y-10195800D02*
X13142200Y-10225800D01*
X13142200Y-10322800D02*
X13172200Y-10352800D01*
X13172200Y-10322800D02*
X13142200Y-10352800D01*
X13177760Y-9433800D02*
X13207760Y-9463800D01*
X13207760Y-9433800D02*
X13177760Y-9463800D01*
X13205700Y-10259300D02*
X13235700Y-10289300D01*
X13235700Y-10259300D02*
X13205700Y-10289300D01*
X13241260Y-9370300D02*
X13271260Y-9400300D01*
X13271260Y-9370300D02*
X13241260Y-9400300D01*
X13241260Y-9497300D02*
X13271260Y-9527300D01*
X13271260Y-9497300D02*
X13241260Y-9527300D01*
X13304760Y-9433800D02*
X13334760Y-9463800D01*
X13334760Y-9433800D02*
X13304760Y-9463800D01*
X13402600Y-8113000D02*
X13432600Y-8143000D01*
X13432600Y-8113000D02*
X13402600Y-8143000D01*
X13466100Y-8049500D02*
X13496100Y-8079500D01*
X13496100Y-8049500D02*
X13466100Y-8079500D01*
X13466100Y-8176500D02*
X13496100Y-8206500D01*
X13496100Y-8176500D02*
X13466100Y-8206500D01*
X13504200Y-8819120D02*
X13534200Y-8849120D01*
X13534200Y-8819120D02*
X13504200Y-8849120D01*
X13529600Y-8113000D02*
X13559600Y-8143000D01*
X13559600Y-8113000D02*
X13529600Y-8143000D01*
X13726400Y-7668500D02*
X13756400Y-7698500D01*
X13756400Y-7668500D02*
X13726400Y-7698500D01*
X13789900Y-7605000D02*
X13819900Y-7635000D01*
X13819900Y-7605000D02*
X13789900Y-7635000D01*
X13789900Y-7732000D02*
X13819900Y-7762000D01*
X13819900Y-7732000D02*
X13789900Y-7762000D01*
X13828000Y-8582900D02*
X13858000Y-8612900D01*
X13858000Y-8582900D02*
X13828000Y-8612900D01*
X13853400Y-7668500D02*
X13883400Y-7698500D01*
X13883400Y-7668500D02*
X13853400Y-7698500D01*
X14142960Y-7175740D02*
X14172960Y-7205740D01*
X14172960Y-7175740D02*
X14142960Y-7205740D01*
X14142960Y-7343380D02*
X14172960Y-7373380D01*
X14172960Y-7343380D02*
X14142960Y-7373380D01*
X14191220Y-7259560D02*
X14221220Y-7289560D01*
X14221220Y-7259560D02*
X14191220Y-7289560D01*
X14196300Y-7706600D02*
X14226300Y-7736600D01*
X14226300Y-7706600D02*
X14196300Y-7736600D01*
X14239480Y-7175740D02*
X14269480Y-7205740D01*
X14269480Y-7175740D02*
X14239480Y-7205740D01*
X14239480Y-7343380D02*
X14269480Y-7373380D01*
X14269480Y-7343380D02*
X14239480Y-7373380D01*
X14259800Y-7643100D02*
X14289800Y-7673100D01*
X14289800Y-7643100D02*
X14259800Y-7673100D01*
X14259800Y-7770100D02*
X14289800Y-7800100D01*
X14289800Y-7770100D02*
X14259800Y-7800100D01*
X14264880Y-9205200D02*
X14294880Y-9235200D01*
X14294880Y-9205200D02*
X14264880Y-9235200D01*
X14287740Y-7259560D02*
X14317740Y-7289560D01*
X14317740Y-7259560D02*
X14287740Y-7289560D01*
X14323300Y-7706600D02*
X14353300Y-7736600D01*
X14353300Y-7706600D02*
X14323300Y-7736600D01*
X14328380Y-9141700D02*
X14358380Y-9171700D01*
X14358380Y-9141700D02*
X14328380Y-9171700D01*
X14328380Y-9268700D02*
X14358380Y-9298700D01*
X14358380Y-9268700D02*
X14328380Y-9298700D01*
X14336000Y-7175740D02*
X14366000Y-7205740D01*
X14366000Y-7175740D02*
X14336000Y-7205740D01*
X14336000Y-7343380D02*
X14366000Y-7373380D01*
X14366000Y-7343380D02*
X14336000Y-7373380D01*
X14391880Y-9205200D02*
X14421880Y-9235200D01*
X14421880Y-9205200D02*
X14391880Y-9235200D01*
X14691600Y-6081000D02*
X14721600Y-6111000D01*
X14721600Y-6081000D02*
X14691600Y-6111000D01*
X14691600Y-9880840D02*
X14721600Y-9910840D01*
X14721600Y-9880840D02*
X14691600Y-9910840D01*
X14755100Y-6017500D02*
X14785100Y-6047500D01*
X14785100Y-6017500D02*
X14755100Y-6047500D01*
X14755100Y-6144500D02*
X14785100Y-6174500D01*
X14785100Y-6144500D02*
X14755100Y-6174500D01*
X14818600Y-6081000D02*
X14848600Y-6111000D01*
X14848600Y-6081000D02*
X14818600Y-6111000D01*
X14894800Y-6776960D02*
X14924800Y-6806960D01*
X14924800Y-6776960D02*
X14894800Y-6806960D01*
X14920200Y-8529560D02*
X14950200Y-8559560D01*
X14950200Y-8529560D02*
X14920200Y-8559560D01*
X14950680Y-8245080D02*
X14980680Y-8275080D01*
X14980680Y-8245080D02*
X14950680Y-8275080D01*
X14955760Y-9982440D02*
X14985760Y-10012440D01*
X14985760Y-9982440D02*
X14955760Y-10012440D01*
X14955760Y-10078960D02*
X14985760Y-10108960D01*
X14985760Y-10078960D02*
X14955760Y-10108960D01*
X14955760Y-10175480D02*
X14985760Y-10205480D01*
X14985760Y-10175480D02*
X14955760Y-10205480D01*
X14958300Y-6713460D02*
X14988300Y-6743460D01*
X14988300Y-6713460D02*
X14958300Y-6743460D01*
X14958300Y-6840460D02*
X14988300Y-6870460D01*
X14988300Y-6840460D02*
X14958300Y-6870460D01*
X15021800Y-6776960D02*
X15051800Y-6806960D01*
X15051800Y-6776960D02*
X15021800Y-6806960D01*
X15039580Y-9934180D02*
X15069580Y-9964180D01*
X15069580Y-9934180D02*
X15039580Y-9964180D01*
X15039580Y-10030700D02*
X15069580Y-10060700D01*
X15069580Y-10030700D02*
X15039580Y-10060700D01*
X15039580Y-10127220D02*
X15069580Y-10157220D01*
X15069580Y-10127220D02*
X15039580Y-10157220D01*
X15062440Y-8529560D02*
X15092440Y-8559560D01*
X15092440Y-8529560D02*
X15062440Y-8559560D01*
X15113240Y-7615160D02*
X15143240Y-7645160D01*
X15143240Y-7615160D02*
X15113240Y-7645160D01*
X15123400Y-9982440D02*
X15153400Y-10012440D01*
X15153400Y-9982440D02*
X15123400Y-10012440D01*
X15123400Y-10078960D02*
X15153400Y-10108960D01*
X15153400Y-10078960D02*
X15123400Y-10108960D01*
X15123400Y-10175480D02*
X15153400Y-10205480D01*
X15153400Y-10175480D02*
X15123400Y-10205480D01*
X15133560Y-8438120D02*
X15163560Y-8468120D01*
X15163560Y-8438120D02*
X15133560Y-8468120D01*
X15143720Y-8001240D02*
X15173720Y-8031240D01*
X15173720Y-8001240D02*
X15143720Y-8031240D01*
X15207220Y-9934180D02*
X15237220Y-9964180D01*
X15237220Y-9934180D02*
X15207220Y-9964180D01*
X15207220Y-10030700D02*
X15237220Y-10060700D01*
X15237220Y-10030700D02*
X15207220Y-10060700D01*
X15207220Y-10127220D02*
X15237220Y-10157220D01*
X15237220Y-10127220D02*
X15207220Y-10157220D01*
X15275800Y-7632940D02*
X15305800Y-7662940D01*
X15305800Y-7632940D02*
X15275800Y-7662940D01*
X15306280Y-10480280D02*
X15336280Y-10510280D01*
X15336280Y-10480280D02*
X15306280Y-10510280D01*
X15519640Y-9535400D02*
X15549640Y-9565400D01*
X15549640Y-9535400D02*
X15519640Y-9565400D01*
X15567900Y-9319500D02*
X15597900Y-9349500D01*
X15597900Y-9319500D02*
X15567900Y-9349500D01*
X15575520Y-7732000D02*
X15605520Y-7762000D01*
X15605520Y-7732000D02*
X15575520Y-7762000D01*
X15636480Y-9997680D02*
X15666480Y-10027680D01*
X15666480Y-9997680D02*
X15636480Y-10027680D01*
X15656400Y-7015720D02*
X15686400Y-7045720D01*
X15686400Y-7015720D02*
X15656400Y-7045720D01*
X15687280Y-10099280D02*
X15717280Y-10129280D01*
X15717280Y-10099280D02*
X15687280Y-10129280D01*
X15687280Y-10205960D02*
X15717280Y-10235960D01*
X15717280Y-10205960D02*
X15687280Y-10235960D01*
X15689820Y-8316200D02*
X15719820Y-8346200D01*
X15719820Y-8316200D02*
X15689820Y-8346200D01*
X15689820Y-8603220D02*
X15719820Y-8633220D01*
X15719820Y-8603220D02*
X15689820Y-8633220D01*
X15694900Y-8824200D02*
X15724900Y-8854200D01*
X15724900Y-8824200D02*
X15694900Y-8854200D01*
X15704660Y-6931900D02*
X15734660Y-6961900D01*
X15734660Y-6931900D02*
X15704660Y-6961900D01*
X15704660Y-7099540D02*
X15734660Y-7129540D01*
X15734660Y-7099540D02*
X15704660Y-7129540D01*
X15752920Y-7015720D02*
X15782920Y-7045720D01*
X15782920Y-7015720D02*
X15752920Y-7045720D01*
X15753320Y-8252700D02*
X15783320Y-8282700D01*
X15783320Y-8252700D02*
X15753320Y-8282700D01*
X15753320Y-8379700D02*
X15783320Y-8409700D01*
X15783320Y-8379700D02*
X15753320Y-8409700D01*
X15753320Y-8539720D02*
X15783320Y-8569720D01*
X15783320Y-8539720D02*
X15753320Y-8569720D01*
X15753320Y-8666720D02*
X15783320Y-8696720D01*
X15783320Y-8666720D02*
X15753320Y-8696720D01*
X15763480Y-9962120D02*
X15793480Y-9992120D01*
X15793480Y-9962120D02*
X15763480Y-9992120D01*
X15801180Y-6931900D02*
X15831180Y-6961900D01*
X15831180Y-6931900D02*
X15801180Y-6961900D01*
X15801180Y-7099540D02*
X15831180Y-7129540D01*
X15831180Y-7099540D02*
X15801180Y-7129540D01*
X15816820Y-8316200D02*
X15846820Y-8346200D01*
X15846820Y-8316200D02*
X15816820Y-8346200D01*
X15816820Y-8603220D02*
X15846820Y-8633220D01*
X15846820Y-8603220D02*
X15816820Y-8633220D01*
X15821900Y-8811500D02*
X15851900Y-8841500D01*
X15851900Y-8811500D02*
X15821900Y-8841500D01*
X15834600Y-8102840D02*
X15864600Y-8132840D01*
X15864600Y-8102840D02*
X15834600Y-8132840D01*
X15849440Y-7015720D02*
X15879440Y-7045720D01*
X15879440Y-7015720D02*
X15849440Y-7045720D01*
X15885400Y-8875000D02*
X15915400Y-8905000D01*
X15915400Y-8875000D02*
X15885400Y-8905000D01*
X15897700Y-6931900D02*
X15927700Y-6961900D01*
X15927700Y-6931900D02*
X15897700Y-6961900D01*
X15897700Y-7099540D02*
X15927700Y-7129540D01*
X15927700Y-7099540D02*
X15897700Y-7129540D01*
X15936200Y-5857480D02*
X15966200Y-5887480D01*
X15966200Y-5857480D02*
X15936200Y-5887480D01*
X15945960Y-7015720D02*
X15975960Y-7045720D01*
X15975960Y-7015720D02*
X15945960Y-7045720D01*
X15946360Y-8463520D02*
X15976360Y-8493520D01*
X15976360Y-8463520D02*
X15946360Y-8493520D01*
X15994220Y-6931900D02*
X16024220Y-6961900D01*
X16024220Y-6931900D02*
X15994220Y-6961900D01*
X15994220Y-7099540D02*
X16024220Y-7129540D01*
X16024220Y-7099540D02*
X15994220Y-7129540D01*
X15999700Y-5793980D02*
X16029700Y-5823980D01*
X16029700Y-5793980D02*
X15999700Y-5823980D01*
X15999700Y-5920980D02*
X16029700Y-5950980D01*
X16029700Y-5920980D02*
X15999700Y-5950980D01*
X16009860Y-8400020D02*
X16039860Y-8430020D01*
X16039860Y-8400020D02*
X16009860Y-8430020D01*
X16009860Y-8527020D02*
X16039860Y-8557020D01*
X16039860Y-8527020D02*
X16009860Y-8557020D01*
X16032720Y-8102840D02*
X16062720Y-8132840D01*
X16062720Y-8102840D02*
X16032720Y-8132840D01*
X16042880Y-8885160D02*
X16072880Y-8915160D01*
X16072880Y-8885160D02*
X16042880Y-8915160D01*
X16063200Y-5857480D02*
X16093200Y-5887480D01*
X16093200Y-5857480D02*
X16063200Y-5887480D01*
X16073360Y-8463520D02*
X16103360Y-8493520D01*
X16103360Y-8463520D02*
X16073360Y-8493520D01*
X16101300Y-6271500D02*
X16131300Y-6301500D01*
X16131300Y-6271500D02*
X16101300Y-6301500D01*
X16164800Y-6208000D02*
X16194800Y-6238000D01*
X16194800Y-6208000D02*
X16164800Y-6238000D01*
X16164800Y-6335000D02*
X16194800Y-6365000D01*
X16194800Y-6335000D02*
X16164800Y-6365000D01*
X16228300Y-6271500D02*
X16258300Y-6301500D01*
X16258300Y-6271500D02*
X16228300Y-6301500D01*
X16230840Y-8102840D02*
X16260840Y-8132840D01*
X16260840Y-8102840D02*
X16230840Y-8132840D01*
X16230840Y-8300960D02*
X16260840Y-8330960D01*
X16260840Y-8300960D02*
X16230840Y-8330960D01*
X16230840Y-8499080D02*
X16260840Y-8529080D01*
X16260840Y-8499080D02*
X16230840Y-8529080D01*
X16230840Y-8697200D02*
X16260840Y-8727200D01*
X16260840Y-8697200D02*
X16230840Y-8727200D01*
X16230840Y-8885160D02*
X16260840Y-8915160D01*
X16260840Y-8885160D02*
X16230840Y-8915160D01*
X16294340Y-6484860D02*
X16324340Y-6514860D01*
X16324340Y-6484860D02*
X16294340Y-6514860D01*
X16312120Y-9256000D02*
X16342120Y-9286000D01*
X16342120Y-9256000D02*
X16312120Y-9286000D01*
X16444200Y-9962120D02*
X16474200Y-9992120D01*
X16474200Y-9962120D02*
X16444200Y-9992120D01*
X16484840Y-6497560D02*
X16514840Y-6527560D01*
X16514840Y-6497560D02*
X16484840Y-6527560D01*
X16505160Y-6279120D02*
X16535160Y-6309120D01*
X16535160Y-6279120D02*
X16505160Y-6309120D01*
X16571200Y-8250061D02*
X16601200Y-8280061D01*
X16601200Y-8250061D02*
X16571200Y-8280061D01*
X16622000Y-9215360D02*
X16652000Y-9245360D01*
X16652000Y-9215360D02*
X16622000Y-9245360D01*
X16672800Y-6500100D02*
X16702800Y-6530100D01*
X16702800Y-6500100D02*
X16672800Y-6530100D01*
X16672800Y-8278100D02*
X16702800Y-8308100D01*
X16702800Y-8278100D02*
X16672800Y-8308100D01*
X16685500Y-9151860D02*
X16715500Y-9181860D01*
X16715500Y-9151860D02*
X16685500Y-9181860D01*
X16685500Y-9278860D02*
X16715500Y-9308860D01*
X16715500Y-9278860D02*
X16685500Y-9308860D01*
X16749000Y-9215360D02*
X16779000Y-9245360D01*
X16779000Y-9215360D02*
X16749000Y-9245360D01*
X16761700Y-8062200D02*
X16791700Y-8092200D01*
X16791700Y-8062200D02*
X16761700Y-8092200D01*
X16799800Y-7681200D02*
X16829800Y-7711200D01*
X16829800Y-7681200D02*
X16799800Y-7711200D01*
X16850600Y-7782800D02*
X16880600Y-7812800D01*
X16880600Y-7782800D02*
X16850600Y-7812800D01*
X16850600Y-8163800D02*
X16880600Y-8193800D01*
X16880600Y-8163800D02*
X16850600Y-8193800D01*
X16863300Y-9865600D02*
X16893300Y-9895600D01*
X16893300Y-9865600D02*
X16863300Y-9895600D01*
X16863300Y-10106900D02*
X16893300Y-10136900D01*
X16893300Y-10106900D02*
X16863300Y-10136900D01*
X16914100Y-7884400D02*
X16944100Y-7914400D01*
X16944100Y-7884400D02*
X16914100Y-7914400D01*
X16964900Y-6195300D02*
X16994900Y-6225300D01*
X16994900Y-6195300D02*
X16964900Y-6225300D01*
X17028400Y-6131800D02*
X17058400Y-6161800D01*
X17058400Y-6131800D02*
X17028400Y-6161800D01*
X17028400Y-6258800D02*
X17058400Y-6288800D01*
X17058400Y-6258800D02*
X17028400Y-6288800D01*
X17091900Y-6195300D02*
X17121900Y-6225300D01*
X17121900Y-6195300D02*
X17091900Y-6225300D01*
X17104600Y-8951200D02*
X17134600Y-8981200D01*
X17134600Y-8951200D02*
X17104600Y-8981200D01*
X17142700Y-7757400D02*
X17172700Y-7787400D01*
X17172700Y-7757400D02*
X17142700Y-7787400D01*
X17168100Y-8887700D02*
X17198100Y-8917700D01*
X17198100Y-8887700D02*
X17168100Y-8917700D01*
X17168100Y-9014700D02*
X17198100Y-9044700D01*
X17198100Y-9014700D02*
X17168100Y-9044700D01*
X17231600Y-8951200D02*
X17261600Y-8981200D01*
X17261600Y-8951200D02*
X17231600Y-8981200D01*
X17752300Y-8189200D02*
X17782300Y-8219200D01*
X17782300Y-8189200D02*
X17752300Y-8219200D01*
X17815800Y-8125700D02*
X17845800Y-8155700D01*
X17845800Y-8125700D02*
X17815800Y-8155700D01*
X17815800Y-8252700D02*
X17845800Y-8282700D01*
X17845800Y-8252700D02*
X17815800Y-8282700D01*
X17879300Y-8189200D02*
X17909300Y-8219200D01*
X17909300Y-8189200D02*
X17879300Y-8219200D01*
X17980900Y-8760700D02*
X18010900Y-8790700D01*
X18010900Y-8760700D02*
X17980900Y-8790700D01*
X18069800Y-7998700D02*
X18099800Y-8028700D01*
X18099800Y-7998700D02*
X18069800Y-8028700D01*
X18069900Y-7592300D02*
X18099900Y-7622300D01*
X18099900Y-7592300D02*
X18069900Y-7622300D01*
X18107900Y-7122400D02*
X18137900Y-7152400D01*
X18137900Y-7122400D02*
X18107900Y-7152400D01*
X18357770Y-7164790D02*
X18387770Y-7194790D01*
X18387770Y-7164790D02*
X18357770Y-7194790D01*
X18463500Y-8760700D02*
X18493500Y-8790700D01*
X18493500Y-8760700D02*
X18463500Y-8790700D01*
X18527000Y-8227300D02*
X18557000Y-8257300D01*
X18557000Y-8227300D02*
X18527000Y-8257300D01*
X18527000Y-9256000D02*
X18557000Y-9286000D01*
X18557000Y-9256000D02*
X18527000Y-9286000D01*
X18565100Y-7795500D02*
X18595100Y-7825500D01*
X18595100Y-7795500D02*
X18565100Y-7825500D01*
X18590500Y-9192500D02*
X18620500Y-9222500D01*
X18620500Y-9192500D02*
X18590500Y-9222500D01*
X18590500Y-9319500D02*
X18620500Y-9349500D01*
X18620500Y-9319500D02*
X18590500Y-9349500D01*
X18654000Y-9256000D02*
X18684000Y-9286000D01*
X18684000Y-9256000D02*
X18654000Y-9286000D01*
X18745540Y-8087760D02*
X18775540Y-8117760D01*
X18775540Y-8087760D02*
X18745540Y-8117760D01*
X18755860Y-8900400D02*
X18785860Y-8930400D01*
X18785860Y-8900400D02*
X18755860Y-8930400D01*
X18781000Y-7605000D02*
X18811000Y-7635000D01*
X18811000Y-7605000D02*
X18781000Y-7635000D01*
X18781000Y-8379700D02*
X18811000Y-8409700D01*
X18811000Y-8379700D02*
X18781000Y-8409700D01*
X18857200Y-8760700D02*
X18887200Y-8790700D01*
X18887200Y-8760700D02*
X18857200Y-8790700D01*
X18882600Y-7897100D02*
X18912600Y-7927100D01*
X18912600Y-7897100D02*
X18882600Y-7927100D01*
X18902920Y-6538200D02*
X18932920Y-6568200D01*
X18932920Y-6538200D02*
X18902920Y-6568200D01*
X18902920Y-6634720D02*
X18932920Y-6664720D01*
X18932920Y-6634720D02*
X18902920Y-6664720D01*
X18902920Y-6731240D02*
X18932920Y-6761240D01*
X18932920Y-6731240D02*
X18902920Y-6761240D01*
X18986740Y-6489940D02*
X19016740Y-6519940D01*
X19016740Y-6489940D02*
X18986740Y-6519940D01*
X18986740Y-6586460D02*
X19016740Y-6616460D01*
X19016740Y-6586460D02*
X18986740Y-6616460D01*
X18986740Y-6682980D02*
X19016740Y-6712980D01*
X19016740Y-6682980D02*
X18986740Y-6712980D01*
X19009600Y-7262100D02*
X19039600Y-7292100D01*
X19039600Y-7262100D02*
X19009600Y-7292100D01*
X19070560Y-6538200D02*
X19100560Y-6568200D01*
X19100560Y-6538200D02*
X19070560Y-6568200D01*
X19070560Y-6634720D02*
X19100560Y-6664720D01*
X19100560Y-6634720D02*
X19070560Y-6664720D01*
X19070560Y-6731240D02*
X19100560Y-6761240D01*
X19100560Y-6731240D02*
X19070560Y-6761240D01*
X19212800Y-5839700D02*
X19242800Y-5869700D01*
X19242800Y-5839700D02*
X19212800Y-5869700D01*
X19248360Y-8265400D02*
X19278360Y-8295400D01*
X19278360Y-8265400D02*
X19248360Y-8295400D01*
X19276300Y-5776200D02*
X19306300Y-5806200D01*
X19306300Y-5776200D02*
X19276300Y-5806200D01*
X19276300Y-5903200D02*
X19306300Y-5933200D01*
X19306300Y-5903200D02*
X19276300Y-5933200D01*
X19311860Y-8201900D02*
X19341860Y-8231900D01*
X19341860Y-8201900D02*
X19311860Y-8231900D01*
X19311860Y-8328900D02*
X19341860Y-8358900D01*
X19341860Y-8328900D02*
X19311860Y-8358900D01*
X19339800Y-5839700D02*
X19369800Y-5869700D01*
X19369800Y-5839700D02*
X19339800Y-5869700D01*
X19362660Y-8671800D02*
X19392660Y-8701800D01*
X19392660Y-8671800D02*
X19362660Y-8701800D01*
X19375360Y-8265400D02*
X19405360Y-8295400D01*
X19405360Y-8265400D02*
X19375360Y-8295400D01*
X19426160Y-8608300D02*
X19456160Y-8638300D01*
X19456160Y-8608300D02*
X19426160Y-8638300D01*
X19426160Y-8735300D02*
X19456160Y-8765300D01*
X19456160Y-8735300D02*
X19426160Y-8765300D01*
X19489660Y-8671800D02*
X19519660Y-8701800D01*
X19519660Y-8671800D02*
X19489660Y-8701800D01*
X19593800Y-5839700D02*
X19623800Y-5869700D01*
X19623800Y-5839700D02*
X19593800Y-5869700D01*
X19642060Y-7871700D02*
X19672060Y-7901700D01*
X19672060Y-7871700D02*
X19642060Y-7901700D01*
X19657300Y-5776200D02*
X19687300Y-5806200D01*
X19687300Y-5776200D02*
X19657300Y-5806200D01*
X19657300Y-5903200D02*
X19687300Y-5933200D01*
X19687300Y-5903200D02*
X19657300Y-5933200D01*
X19705560Y-7808200D02*
X19735560Y-7838200D01*
X19735560Y-7808200D02*
X19705560Y-7838200D01*
X19705560Y-7935200D02*
X19735560Y-7965200D01*
X19735560Y-7935200D02*
X19705560Y-7965200D01*
X19720800Y-5839700D02*
X19750800Y-5869700D01*
X19750800Y-5839700D02*
X19720800Y-5869700D01*
X19733500Y-7427200D02*
X19763500Y-7457200D01*
X19763500Y-7427200D02*
X19733500Y-7457200D01*
X19756360Y-8278100D02*
X19786360Y-8308100D01*
X19786360Y-8278100D02*
X19756360Y-8308100D01*
X19769060Y-7871700D02*
X19799060Y-7901700D01*
X19799060Y-7871700D02*
X19769060Y-7901700D01*
X19819860Y-8214600D02*
X19849860Y-8244600D01*
X19849860Y-8214600D02*
X19819860Y-8244600D01*
X19819860Y-8341600D02*
X19849860Y-8371600D01*
X19849860Y-8341600D02*
X19819860Y-8371600D01*
X19883360Y-8278100D02*
X19913360Y-8308100D01*
X19913360Y-8278100D02*
X19883360Y-8308100D01*
X19974800Y-5839700D02*
X20004800Y-5869700D01*
X20004800Y-5839700D02*
X19974800Y-5869700D01*
X19997660Y-7516100D02*
X20027660Y-7546100D01*
X20027660Y-7516100D02*
X19997660Y-7546100D01*
X19997660Y-8735300D02*
X20027660Y-8765300D01*
X20027660Y-8735300D02*
X19997660Y-8765300D01*
X20038300Y-5776200D02*
X20068300Y-5806200D01*
X20068300Y-5776200D02*
X20038300Y-5806200D01*
X20038300Y-5903200D02*
X20068300Y-5933200D01*
X20068300Y-5903200D02*
X20038300Y-5933200D01*
X20061160Y-7452600D02*
X20091160Y-7482600D01*
X20091160Y-7452600D02*
X20061160Y-7482600D01*
X20061160Y-7579600D02*
X20091160Y-7609600D01*
X20091160Y-7579600D02*
X20061160Y-7609600D01*
X20061160Y-8671800D02*
X20091160Y-8701800D01*
X20091160Y-8671800D02*
X20061160Y-8701800D01*
X20061160Y-8798800D02*
X20091160Y-8828800D01*
X20091160Y-8798800D02*
X20061160Y-8828800D01*
X20101800Y-5839700D02*
X20131800Y-5869700D01*
X20131800Y-5839700D02*
X20101800Y-5869700D01*
X20111960Y-7922500D02*
X20141960Y-7952500D01*
X20141960Y-7922500D02*
X20111960Y-7952500D01*
X20111960Y-9281400D02*
X20141960Y-9311400D01*
X20141960Y-9281400D02*
X20111960Y-9311400D01*
X20124660Y-7516100D02*
X20154660Y-7546100D01*
X20154660Y-7516100D02*
X20124660Y-7546100D01*
X20124660Y-8735300D02*
X20154660Y-8765300D01*
X20154660Y-8735300D02*
X20124660Y-8765300D01*
X20175460Y-7859000D02*
X20205460Y-7889000D01*
X20205460Y-7859000D02*
X20175460Y-7889000D01*
X20175460Y-7986000D02*
X20205460Y-8016000D01*
X20205460Y-7986000D02*
X20175460Y-8016000D01*
X20175460Y-9217900D02*
X20205460Y-9247900D01*
X20205460Y-9217900D02*
X20175460Y-9247900D01*
X20175460Y-9344900D02*
X20205460Y-9374900D01*
X20205460Y-9344900D02*
X20175460Y-9374900D01*
X20238960Y-7922500D02*
X20268960Y-7952500D01*
X20268960Y-7922500D02*
X20238960Y-7952500D01*
X20238960Y-9281400D02*
X20268960Y-9311400D01*
X20268960Y-9281400D02*
X20238960Y-9311400D01*
X20302460Y-8417800D02*
X20332460Y-8447800D01*
X20332460Y-8417800D02*
X20302460Y-8447800D01*
X20365960Y-8354300D02*
X20395960Y-8384300D01*
X20395960Y-8354300D02*
X20365960Y-8384300D01*
X20365960Y-8481300D02*
X20395960Y-8511300D01*
X20395960Y-8481300D02*
X20365960Y-8511300D01*
X20404060Y-8862300D02*
X20434060Y-8892300D01*
X20434060Y-8862300D02*
X20404060Y-8892300D01*
X20429460Y-8417800D02*
X20459460Y-8447800D01*
X20459460Y-8417800D02*
X20429460Y-8447800D01*
X20432000Y-9779240D02*
X20462000Y-9809240D01*
X20462000Y-9779240D02*
X20432000Y-9809240D01*
X20452320Y-6187680D02*
X20482320Y-6217680D01*
X20482320Y-6187680D02*
X20452320Y-6217680D01*
X20467560Y-8798800D02*
X20497560Y-8828800D01*
X20497560Y-8798800D02*
X20467560Y-8828800D01*
X20467560Y-8925800D02*
X20497560Y-8955800D01*
X20497560Y-8925800D02*
X20467560Y-8955800D01*
X20470100Y-8049500D02*
X20500100Y-8079500D01*
X20500100Y-8049500D02*
X20470100Y-8079500D01*
X20495500Y-9715740D02*
X20525500Y-9745740D01*
X20525500Y-9715740D02*
X20495500Y-9745740D01*
X20495500Y-9842740D02*
X20525500Y-9872740D01*
X20525500Y-9842740D02*
X20495500Y-9872740D01*
X20515820Y-6124180D02*
X20545820Y-6154180D01*
X20545820Y-6124180D02*
X20515820Y-6154180D01*
X20515820Y-6251180D02*
X20545820Y-6281180D01*
X20545820Y-6251180D02*
X20515820Y-6281180D01*
X20531060Y-8862300D02*
X20561060Y-8892300D01*
X20561060Y-8862300D02*
X20531060Y-8892300D01*
X20559000Y-9779240D02*
X20589000Y-9809240D01*
X20589000Y-9779240D02*
X20559000Y-9809240D01*
X20579320Y-6187680D02*
X20609320Y-6217680D01*
X20609320Y-6187680D02*
X20579320Y-6217680D01*
X20630120Y-7340840D02*
X20660120Y-7370840D01*
X20660120Y-7340840D02*
X20630120Y-7370840D01*
X20711400Y-7340840D02*
X20741400Y-7370840D01*
X20741400Y-7340840D02*
X20711400Y-7370840D01*
X20792680Y-7340840D02*
X20822680Y-7370840D01*
X20822680Y-7340840D02*
X20792680Y-7370840D01*
X20792680Y-7884400D02*
X20822680Y-7914400D01*
X20822680Y-7884400D02*
X20792680Y-7914400D01*
X20873960Y-7340840D02*
X20903960Y-7370840D01*
X20903960Y-7340840D02*
X20873960Y-7370840D01*
X20873960Y-7884400D02*
X20903960Y-7914400D01*
X20903960Y-7884400D02*
X20873960Y-7914400D01*
X20924300Y-7437360D02*
X20954300Y-7467360D01*
X20954300Y-7437360D02*
X20924300Y-7467360D01*
X20924300Y-7777720D02*
X20954300Y-7807720D01*
X20954300Y-7777720D02*
X20924300Y-7807720D01*
X20955240Y-7340840D02*
X20985240Y-7370840D01*
X20985240Y-7340840D02*
X20955240Y-7370840D01*
X20955240Y-7884400D02*
X20985240Y-7914400D01*
X20985240Y-7884400D02*
X20955240Y-7914400D01*
X20965400Y-6385800D02*
X20995400Y-6415800D01*
X20995400Y-6385800D02*
X20965400Y-6415800D01*
X21028900Y-6322300D02*
X21058900Y-6352300D01*
X21058900Y-6322300D02*
X21028900Y-6352300D01*
X21028900Y-6449300D02*
X21058900Y-6479300D01*
X21058900Y-6449300D02*
X21028900Y-6479300D01*
X21036520Y-7340840D02*
X21066520Y-7370840D01*
X21066520Y-7340840D02*
X21036520Y-7370840D01*
X21036520Y-7884400D02*
X21066520Y-7914400D01*
X21066520Y-7884400D02*
X21036520Y-7914400D01*
X21054300Y-8138400D02*
X21084300Y-8168400D01*
X21084300Y-8138400D02*
X21054300Y-8168400D01*
X21092400Y-6385800D02*
X21122400Y-6415800D01*
X21122400Y-6385800D02*
X21092400Y-6415800D01*
X21117800Y-7340840D02*
X21147800Y-7370840D01*
X21147800Y-7340840D02*
X21117800Y-7370840D01*
X21117800Y-7884400D02*
X21147800Y-7914400D01*
X21147800Y-7884400D02*
X21117800Y-7914400D01*
X21117800Y-8074900D02*
X21147800Y-8104900D01*
X21147800Y-8074900D02*
X21117800Y-8104900D01*
X21117800Y-8201900D02*
X21147800Y-8231900D01*
X21147800Y-8201900D02*
X21117800Y-8231900D01*
X21181300Y-8138400D02*
X21211300Y-8168400D01*
X21211300Y-8138400D02*
X21181300Y-8168400D01*
X21199080Y-7340840D02*
X21229080Y-7370840D01*
X21229080Y-7340840D02*
X21199080Y-7370840D01*
X21199080Y-7884400D02*
X21229080Y-7914400D01*
X21229080Y-7884400D02*
X21199080Y-7914400D01*
D13*
X12389800Y-9258300D02*
G75*
G03*
X12389800Y-9258300I-20000J0D01*
G01*
X12669200Y-9123680D02*
G75*
G03*
X12669200Y-9123680I-20000J0D01*
G01*
X13672500Y-9080500D02*
G75*
G03*
X13672500Y-9080500I-20000J0D01*
G01*
X13741080Y-9570720D02*
G75*
G03*
X13741080Y-9570720I-20000J0D01*
G01*
X13774100Y-7975600D02*
G75*
G03*
X13774100Y-7975600I-20000J0D01*
G01*
X13822360Y-7289800D02*
G75*
G03*
X13822360Y-7289800I-20000J0D01*
G01*
X13824900Y-6477000D02*
G75*
G03*
X13824900Y-6477000I-20000J0D01*
G01*
X13824900Y-6883400D02*
G75*
G03*
X13824900Y-6883400I-20000J0D01*
G01*
X14053500Y-5930900D02*
G75*
G03*
X14053500Y-5930900I-20000J0D01*
G01*
X14053500Y-8102600D02*
G75*
G03*
X14053500Y-8102600I-20000J0D01*
G01*
X14396400Y-8061960D02*
G75*
G03*
X14396400Y-8061960I-20000J0D01*
G01*
X14579280Y-7899400D02*
G75*
G03*
X14579280Y-7899400I-20000J0D01*
G01*
X14904400Y-10530840D02*
G75*
G03*
X14904400Y-10530840I-20000J0D01*
G01*
X16250600Y-7569200D02*
G75*
G03*
X16250600Y-7569200I-20000J0D01*
G01*
X16331880Y-10256520D02*
G75*
G03*
X16331880Y-10256520I-20000J0D01*
G01*
X16469040Y-8021320D02*
G75*
G03*
X16469040Y-8021320I-20000J0D01*
G01*
X16618900Y-10528300D02*
G75*
G03*
X16618900Y-10528300I-20000J0D01*
G01*
X17342800Y-8242300D02*
G75*
G03*
X17342800Y-8242300I-20000J0D01*
G01*
X17444400Y-6731000D02*
G75*
G03*
X17444400Y-6731000I-20000J0D01*
G01*
X17520600Y-9601200D02*
G75*
G03*
X17520600Y-9601200I-20000J0D01*
G01*
X17520600Y-9867900D02*
G75*
G03*
X17520600Y-9867900I-20000J0D01*
G01*
X17520600Y-10121900D02*
G75*
G03*
X17520600Y-10121900I-20000J0D01*
G01*
X17825500Y-7749700D02*
G75*
G03*
X17825500Y-7749700I-20000J0D01*
G01*
X18904900Y-9601200D02*
G75*
G03*
X18904900Y-9601200I-20000J0D01*
G01*
X18904900Y-9867900D02*
G75*
G03*
X18904900Y-9867900I-20000J0D01*
G01*
X18904900Y-10121900D02*
G75*
G03*
X18904900Y-10121900I-20000J0D01*
G01*
X19334160Y-7518400D02*
G75*
G03*
X19334160Y-7518400I-20000J0D01*
G01*
X19603400Y-6972300D02*
G75*
G03*
X19603400Y-6972300I-20000J0D01*
G01*
X19659280Y-7391400D02*
G75*
G03*
X19659280Y-7391400I-20000J0D01*
G01*
X19984400Y-6893560D02*
G75*
G03*
X19984400Y-6893560I-20000J0D01*
G01*
X19984400Y-7030720D02*
G75*
G03*
X19984400Y-7030720I-20000J0D01*
G01*
X20835300Y-6654800D02*
G75*
G03*
X20835300Y-6654800I-20000J0D01*
G01*
X20835300Y-6964680D02*
G75*
G03*
X20835300Y-6964680I-20000J0D01*
G01*
D14*
X14645640Y-8544960D02*
X14645640Y-8594960D01*
X14620640Y-8569960D02*
X14670640Y-8569960D01*
X15336520Y-9804800D02*
X15336520Y-9854800D01*
X15311520Y-9829800D02*
X15361520Y-9829800D01*
D15*
X13332256Y-9814356D02*
X13332256Y-9743644D01*
X13261544Y-9743644D01*
X13261544Y-9814356D01*
X13332256Y-9814356D01*
X13395756Y-6166916D02*
X13395756Y-6096204D01*
X13325044Y-6096204D01*
X13325044Y-6166916D01*
X13395756Y-6166916D01*
D11*
X13400400Y-6091560D02*
X13320400Y-6091560D01*
X13400400Y-6171560D02*
X13320400Y-6171560D01*
X13320400Y-6091560D02*
G75*
G03*
X13320400Y-6171560I0J-40000D01*
G01*
X13400400Y-6171560D02*
G75*
G03*
X13400400Y-6091560I0J40000D01*
G01*
D15*
X13395756Y-6636916D02*
X13395756Y-6566204D01*
X13325044Y-6566204D01*
X13325044Y-6636916D01*
X13395756Y-6636916D01*
D11*
X13400400Y-6561560D02*
X13320400Y-6561560D01*
X13400400Y-6641560D02*
X13320400Y-6641560D01*
X13320400Y-6561560D02*
G75*
G03*
X13320400Y-6641560I0J-40000D01*
G01*
X13400400Y-6641560D02*
G75*
G03*
X13400400Y-6561560I0J40000D01*
G01*
D15*
X13395756Y-7106916D02*
X13395756Y-7036204D01*
X13325044Y-7036204D01*
X13325044Y-7106916D01*
X13395756Y-7106916D01*
D11*
X13400400Y-7031560D02*
X13320400Y-7031560D01*
X13400400Y-7111560D02*
X13320400Y-7111560D01*
X13320400Y-7031560D02*
G75*
G03*
X13320400Y-7111560I0J-40000D01*
G01*
X13400400Y-7111560D02*
G75*
G03*
X13400400Y-7031560I0J40000D01*
G01*
D15*
X13586256Y-9814356D02*
X13586256Y-9743644D01*
X13515544Y-9743644D01*
X13515544Y-9814356D01*
X13586256Y-9814356D01*
X13840256Y-9814356D02*
X13840256Y-9743644D01*
X13769544Y-9743644D01*
X13769544Y-9814356D01*
X13840256Y-9814356D01*
X13857782Y-10434116D02*
X13857782Y-10363404D01*
X13787070Y-10363404D01*
X13787070Y-10434116D01*
X13857782Y-10434116D01*
X14094256Y-9814356D02*
X14094256Y-9743644D01*
X14023544Y-9743644D01*
X14023544Y-9814356D01*
X14094256Y-9814356D01*
X14111782Y-10434116D02*
X14111782Y-10363404D01*
X14041070Y-10363404D01*
X14041070Y-10434116D01*
X14111782Y-10434116D01*
X14348256Y-9814356D02*
X14348256Y-9743644D01*
X14277544Y-9743644D01*
X14277544Y-9814356D01*
X14348256Y-9814356D01*
X14365782Y-10434116D02*
X14365782Y-10363404D01*
X14295070Y-10363404D01*
X14295070Y-10434116D01*
X14365782Y-10434116D01*
X14619782Y-10434116D02*
X14619782Y-10363404D01*
X14549070Y-10363404D01*
X14549070Y-10434116D01*
X14619782Y-10434116D01*
X15528956Y-6791756D02*
X15528956Y-6721044D01*
X15458244Y-6721044D01*
X15458244Y-6791756D01*
X15528956Y-6791756D01*
X15528956Y-7045756D02*
X15528956Y-6975044D01*
X15458244Y-6975044D01*
X15458244Y-7045756D01*
X15528956Y-7045756D01*
X15528956Y-7299756D02*
X15528956Y-7229044D01*
X15458244Y-7229044D01*
X15458244Y-7299756D01*
X15528956Y-7299756D01*
X16012456Y-9661956D02*
X16012456Y-9591244D01*
X15941744Y-9591244D01*
X15941744Y-9661956D01*
X16012456Y-9661956D01*
X16266456Y-9661956D02*
X16266456Y-9591244D01*
X16195744Y-9591244D01*
X16195744Y-9661956D01*
X16266456Y-9661956D01*
X17396256Y-5902756D02*
X17396256Y-5832044D01*
X17325544Y-5832044D01*
X17325544Y-5902756D01*
X17396256Y-5902756D01*
X17650256Y-5902756D02*
X17650256Y-5832044D01*
X17579544Y-5832044D01*
X17579544Y-5902756D01*
X17650256Y-5902756D01*
X17904256Y-5902756D02*
X17904256Y-5832044D01*
X17833544Y-5832044D01*
X17833544Y-5902756D01*
X17904256Y-5902756D01*
X18158256Y-5902756D02*
X18158256Y-5832044D01*
X18087544Y-5832044D01*
X18087544Y-5902756D01*
X18158256Y-5902756D01*
X18412256Y-5902756D02*
X18412256Y-5832044D01*
X18341544Y-5832044D01*
X18341544Y-5902756D01*
X18412256Y-5902756D01*
X18666256Y-5902756D02*
X18666256Y-5832044D01*
X18595544Y-5832044D01*
X18595544Y-5902756D01*
X18666256Y-5902756D01*
X18704356Y-10512856D02*
X18704356Y-10442144D01*
X18633644Y-10442144D01*
X18633644Y-10512856D01*
X18704356Y-10512856D01*
X18920256Y-5902756D02*
X18920256Y-5832044D01*
X18849544Y-5832044D01*
X18849544Y-5902756D01*
X18920256Y-5902756D01*
X18958356Y-10512856D02*
X18958356Y-10442144D01*
X18887644Y-10442144D01*
X18887644Y-10512856D01*
X18958356Y-10512856D01*
X19212356Y-10512856D02*
X19212356Y-10442144D01*
X19141644Y-10442144D01*
X19141644Y-10512856D01*
X19212356Y-10512856D01*
X19466356Y-10512856D02*
X19466356Y-10442144D01*
X19395644Y-10442144D01*
X19395644Y-10512856D01*
X19466356Y-10512856D01*
X19834656Y-10512856D02*
X19834656Y-10442144D01*
X19763944Y-10442144D01*
X19763944Y-10512856D01*
X19834656Y-10512856D01*
X20088656Y-10512856D02*
X20088656Y-10442144D01*
X20017944Y-10442144D01*
X20017944Y-10512856D01*
X20088656Y-10512856D01*
X20342656Y-10512856D02*
X20342656Y-10442144D01*
X20271944Y-10442144D01*
X20271944Y-10512856D01*
X20342656Y-10512856D01*
X20596656Y-10512856D02*
X20596656Y-10442144D01*
X20525944Y-10442144D01*
X20525944Y-10512856D01*
X20596656Y-10512856D01*
X21142756Y-9128556D02*
X21142756Y-9057844D01*
X21072044Y-9057844D01*
X21072044Y-9128556D01*
X21142756Y-9128556D01*
X21142756Y-9382556D02*
X21142756Y-9311844D01*
X21072044Y-9311844D01*
X21072044Y-9382556D01*
X21142756Y-9382556D01*
X21142756Y-9636556D02*
X21142756Y-9565844D01*
X21072044Y-9565844D01*
X21072044Y-9636556D01*
X21142756Y-9636556D01*
X21142756Y-9890556D02*
X21142756Y-9819844D01*
X21072044Y-9819844D01*
X21072044Y-9890556D01*
X21142756Y-9890556D01*
D16*
X12560300Y-6605500D02*
X12625300Y-6540500D01*
X12560300Y-6475500D01*
X12495300Y-6540500D01*
X12560300Y-6605500D01*
X12560300Y-7105500D02*
X12625300Y-7040500D01*
X12560300Y-6975500D01*
X12495300Y-7040500D01*
X12560300Y-7105500D01*
D11*
X12368419Y-11003796D02*
X12368419Y-10803796D01*
X12416038Y-10803796D01*
X12444609Y-10813320D01*
X12463657Y-10832368D01*
X12473181Y-10851415D01*
X12482705Y-10889510D01*
X12482705Y-10918082D01*
X12473181Y-10956177D01*
X12463657Y-10975225D01*
X12444609Y-10994272D01*
X12416038Y-11003796D01*
X12368419Y-11003796D01*
X12568419Y-11003796D02*
X12568419Y-10870463D01*
X12568419Y-10908558D02*
X12577943Y-10889510D01*
X12587467Y-10879987D01*
X12606514Y-10870463D01*
X12625562Y-10870463D01*
X12692228Y-11003796D02*
X12692228Y-10870463D01*
X12692228Y-10803796D02*
X12682705Y-10813320D01*
X12692228Y-10822844D01*
X12701752Y-10813320D01*
X12692228Y-10803796D01*
X12692228Y-10822844D01*
X12816038Y-11003796D02*
X12796990Y-10994272D01*
X12787467Y-10975225D01*
X12787467Y-10803796D01*
X12920800Y-11003796D02*
X12901752Y-10994272D01*
X12892228Y-10975225D01*
X12892228Y-10803796D01*
X13149371Y-11003796D02*
X13149371Y-10803796D01*
X13216038Y-10946653D01*
X13282705Y-10803796D01*
X13282705Y-11003796D01*
X13463657Y-11003796D02*
X13463657Y-10899034D01*
X13454133Y-10879987D01*
X13435086Y-10870463D01*
X13396990Y-10870463D01*
X13377943Y-10879987D01*
X13463657Y-10994272D02*
X13444609Y-11003796D01*
X13396990Y-11003796D01*
X13377943Y-10994272D01*
X13368419Y-10975225D01*
X13368419Y-10956177D01*
X13377943Y-10937130D01*
X13396990Y-10927606D01*
X13444609Y-10927606D01*
X13463657Y-10918082D01*
X13558895Y-10870463D02*
X13558895Y-11070463D01*
X13558895Y-10879987D02*
X13577943Y-10870463D01*
X13616038Y-10870463D01*
X13635086Y-10879987D01*
X13644609Y-10889510D01*
X13654133Y-10908558D01*
X13654133Y-10965701D01*
X13644609Y-10984749D01*
X13635086Y-10994272D01*
X13616038Y-11003796D01*
X13577943Y-11003796D01*
X13558895Y-10994272D01*
X13739848Y-10984749D02*
X13749371Y-10994272D01*
X13739848Y-11003796D01*
X13730324Y-10994272D01*
X13739848Y-10984749D01*
X13739848Y-11003796D01*
X13739848Y-10879987D02*
X13749371Y-10889510D01*
X13739848Y-10899034D01*
X13730324Y-10889510D01*
X13739848Y-10879987D01*
X13739848Y-10899034D01*
D12*
X12080800Y-11318320D02*
X12110800Y-11348320D01*
X12110800Y-11318320D02*
X12080800Y-11348320D01*
D11*
X12406514Y-11223796D02*
X12425562Y-11223796D01*
X12444609Y-11233320D01*
X12454133Y-11242844D01*
X12463657Y-11261891D01*
X12473181Y-11299987D01*
X12473181Y-11347606D01*
X12463657Y-11385701D01*
X12454133Y-11404748D01*
X12444609Y-11414272D01*
X12425562Y-11423796D01*
X12406514Y-11423796D01*
X12387467Y-11414272D01*
X12377943Y-11404748D01*
X12368419Y-11385701D01*
X12358895Y-11347606D01*
X12358895Y-11299987D01*
X12368419Y-11261891D01*
X12377943Y-11242844D01*
X12387467Y-11233320D01*
X12406514Y-11223796D01*
X12558895Y-11404748D02*
X12568419Y-11414272D01*
X12558895Y-11423796D01*
X12549371Y-11414272D01*
X12558895Y-11404748D01*
X12558895Y-11423796D01*
X12635086Y-11223796D02*
X12758895Y-11223796D01*
X12692228Y-11299987D01*
X12720800Y-11299987D01*
X12739848Y-11309510D01*
X12749371Y-11319034D01*
X12758895Y-11338082D01*
X12758895Y-11385701D01*
X12749371Y-11404748D01*
X12739848Y-11414272D01*
X12720800Y-11423796D01*
X12663657Y-11423796D01*
X12644609Y-11414272D01*
X12635086Y-11404748D01*
X12882705Y-11223796D02*
X12901752Y-11223796D01*
X12920800Y-11233320D01*
X12930324Y-11242844D01*
X12939848Y-11261891D01*
X12949371Y-11299987D01*
X12949371Y-11347606D01*
X12939848Y-11385701D01*
X12930324Y-11404748D01*
X12920800Y-11414272D01*
X12901752Y-11423796D01*
X12882705Y-11423796D01*
X12863657Y-11414272D01*
X12854133Y-11404748D01*
X12844609Y-11385701D01*
X12835086Y-11347606D01*
X12835086Y-11299987D01*
X12844609Y-11261891D01*
X12854133Y-11242844D01*
X12863657Y-11233320D01*
X12882705Y-11223796D01*
X13073181Y-11223796D02*
X13092228Y-11223796D01*
X13111276Y-11233320D01*
X13120800Y-11242844D01*
X13130324Y-11261891D01*
X13139848Y-11299987D01*
X13139848Y-11347606D01*
X13130324Y-11385701D01*
X13120800Y-11404748D01*
X13111276Y-11414272D01*
X13092228Y-11423796D01*
X13073181Y-11423796D01*
X13054133Y-11414272D01*
X13044609Y-11404748D01*
X13035086Y-11385701D01*
X13025562Y-11347606D01*
X13025562Y-11299987D01*
X13035086Y-11261891D01*
X13044609Y-11242844D01*
X13054133Y-11233320D01*
X13073181Y-11223796D01*
X13225562Y-11423796D02*
X13225562Y-11290463D01*
X13225562Y-11309510D02*
X13235086Y-11299987D01*
X13254133Y-11290463D01*
X13282705Y-11290463D01*
X13301752Y-11299987D01*
X13311276Y-11319034D01*
X13311276Y-11423796D01*
X13311276Y-11319034D02*
X13320800Y-11299987D01*
X13339848Y-11290463D01*
X13368419Y-11290463D01*
X13387467Y-11299987D01*
X13396990Y-11319034D01*
X13396990Y-11423796D01*
X13492228Y-11423796D02*
X13492228Y-11290463D01*
X13492228Y-11309510D02*
X13501752Y-11299987D01*
X13520800Y-11290463D01*
X13549371Y-11290463D01*
X13568419Y-11299987D01*
X13577943Y-11319034D01*
X13577943Y-11423796D01*
X13577943Y-11319034D02*
X13587467Y-11299987D01*
X13606514Y-11290463D01*
X13635086Y-11290463D01*
X13654133Y-11299987D01*
X13663657Y-11319034D01*
X13663657Y-11423796D01*
X14054133Y-11214272D02*
X13882705Y-11471415D01*
X14311276Y-11223796D02*
X14330324Y-11223796D01*
X14349371Y-11233320D01*
X14358895Y-11242844D01*
X14368419Y-11261891D01*
X14377943Y-11299987D01*
X14377943Y-11347606D01*
X14368419Y-11385701D01*
X14358895Y-11404748D01*
X14349371Y-11414272D01*
X14330324Y-11423796D01*
X14311276Y-11423796D01*
X14292228Y-11414272D01*
X14282705Y-11404748D01*
X14273181Y-11385701D01*
X14263657Y-11347606D01*
X14263657Y-11299987D01*
X14273181Y-11261891D01*
X14282705Y-11242844D01*
X14292228Y-11233320D01*
X14311276Y-11223796D01*
X14463657Y-11404748D02*
X14473181Y-11414272D01*
X14463657Y-11423796D01*
X14454133Y-11414272D01*
X14463657Y-11404748D01*
X14463657Y-11423796D01*
X14596990Y-11223796D02*
X14616038Y-11223796D01*
X14635086Y-11233320D01*
X14644609Y-11242844D01*
X14654133Y-11261891D01*
X14663657Y-11299987D01*
X14663657Y-11347606D01*
X14654133Y-11385701D01*
X14644609Y-11404748D01*
X14635086Y-11414272D01*
X14616038Y-11423796D01*
X14596990Y-11423796D01*
X14577943Y-11414272D01*
X14568419Y-11404748D01*
X14558895Y-11385701D01*
X14549371Y-11347606D01*
X14549371Y-11299987D01*
X14558895Y-11261891D01*
X14568419Y-11242844D01*
X14577943Y-11233320D01*
X14596990Y-11223796D01*
X14854133Y-11423796D02*
X14739848Y-11423796D01*
X14796990Y-11423796D02*
X14796990Y-11223796D01*
X14777943Y-11252368D01*
X14758895Y-11271415D01*
X14739848Y-11280939D01*
X15044609Y-11423796D02*
X14930324Y-11423796D01*
X14987467Y-11423796D02*
X14987467Y-11223796D01*
X14968419Y-11252368D01*
X14949371Y-11271415D01*
X14930324Y-11280939D01*
X15158895Y-11309510D02*
X15139848Y-11299987D01*
X15130324Y-11290463D01*
X15120800Y-11271415D01*
X15120800Y-11261891D01*
X15130324Y-11242844D01*
X15139848Y-11233320D01*
X15158895Y-11223796D01*
X15196990Y-11223796D01*
X15216038Y-11233320D01*
X15225562Y-11242844D01*
X15235086Y-11261891D01*
X15235086Y-11271415D01*
X15225562Y-11290463D01*
X15216038Y-11299987D01*
X15196990Y-11309510D01*
X15158895Y-11309510D01*
X15139848Y-11319034D01*
X15130324Y-11328558D01*
X15120800Y-11347606D01*
X15120800Y-11385701D01*
X15130324Y-11404748D01*
X15139848Y-11414272D01*
X15158895Y-11423796D01*
X15196990Y-11423796D01*
X15216038Y-11414272D01*
X15225562Y-11404748D01*
X15235086Y-11385701D01*
X15235086Y-11347606D01*
X15225562Y-11328558D01*
X15216038Y-11319034D01*
X15196990Y-11309510D01*
X15311276Y-11223796D02*
X15311276Y-11261891D01*
X15387467Y-11223796D02*
X15387467Y-11261891D01*
X15682705Y-11499987D02*
X15673181Y-11490463D01*
X15654133Y-11461891D01*
X15644609Y-11442844D01*
X15635086Y-11414272D01*
X15625562Y-11366653D01*
X15625562Y-11328558D01*
X15635086Y-11280939D01*
X15644609Y-11252368D01*
X15654133Y-11233320D01*
X15673181Y-11204748D01*
X15682705Y-11195225D01*
X15749371Y-11242844D02*
X15758895Y-11233320D01*
X15777943Y-11223796D01*
X15825562Y-11223796D01*
X15844609Y-11233320D01*
X15854133Y-11242844D01*
X15863657Y-11261891D01*
X15863657Y-11280939D01*
X15854133Y-11309510D01*
X15739848Y-11423796D01*
X15863657Y-11423796D01*
X15930324Y-11223796D02*
X16063657Y-11223796D01*
X15977943Y-11423796D01*
X16120800Y-11223796D02*
X16254133Y-11223796D01*
X16168419Y-11423796D01*
X16482705Y-11423796D02*
X16482705Y-11223796D01*
X16568419Y-11423796D02*
X16568419Y-11319034D01*
X16558895Y-11299987D01*
X16539848Y-11290463D01*
X16511276Y-11290463D01*
X16492228Y-11299987D01*
X16482705Y-11309510D01*
X16692228Y-11423796D02*
X16673181Y-11414272D01*
X16663657Y-11404748D01*
X16654133Y-11385701D01*
X16654133Y-11328558D01*
X16663657Y-11309510D01*
X16673181Y-11299987D01*
X16692228Y-11290463D01*
X16720800Y-11290463D01*
X16739848Y-11299987D01*
X16749371Y-11309510D01*
X16758895Y-11328558D01*
X16758895Y-11385701D01*
X16749371Y-11404748D01*
X16739848Y-11414272D01*
X16720800Y-11423796D01*
X16692228Y-11423796D01*
X16873181Y-11423796D02*
X16854133Y-11414272D01*
X16844610Y-11395225D01*
X16844610Y-11223796D01*
X17025562Y-11414272D02*
X17006514Y-11423796D01*
X16968419Y-11423796D01*
X16949371Y-11414272D01*
X16939848Y-11395225D01*
X16939848Y-11319034D01*
X16949371Y-11299987D01*
X16968419Y-11290463D01*
X17006514Y-11290463D01*
X17025562Y-11299987D01*
X17035086Y-11319034D01*
X17035086Y-11338082D01*
X16939848Y-11357129D01*
X17111276Y-11414272D02*
X17130324Y-11423796D01*
X17168419Y-11423796D01*
X17187467Y-11414272D01*
X17196990Y-11395225D01*
X17196990Y-11385701D01*
X17187467Y-11366653D01*
X17168419Y-11357129D01*
X17139848Y-11357129D01*
X17120800Y-11347606D01*
X17111276Y-11328558D01*
X17111276Y-11319034D01*
X17120800Y-11299987D01*
X17139848Y-11290463D01*
X17168419Y-11290463D01*
X17187467Y-11299987D01*
X17263657Y-11499987D02*
X17273181Y-11490463D01*
X17292229Y-11461891D01*
X17301752Y-11442844D01*
X17311276Y-11414272D01*
X17320800Y-11366653D01*
X17320800Y-11328558D01*
X17311276Y-11280939D01*
X17301752Y-11252368D01*
X17292229Y-11233320D01*
X17273181Y-11204748D01*
X17263657Y-11195225D01*
D13*
X12110800Y-11597320D02*
G75*
G03*
X12110800Y-11597320I-20000J0D01*
G01*
D11*
X12406514Y-11487796D02*
X12425562Y-11487796D01*
X12444609Y-11497320D01*
X12454133Y-11506844D01*
X12463657Y-11525891D01*
X12473181Y-11563987D01*
X12473181Y-11611606D01*
X12463657Y-11649701D01*
X12454133Y-11668748D01*
X12444609Y-11678272D01*
X12425562Y-11687796D01*
X12406514Y-11687796D01*
X12387467Y-11678272D01*
X12377943Y-11668748D01*
X12368419Y-11649701D01*
X12358895Y-11611606D01*
X12358895Y-11563987D01*
X12368419Y-11525891D01*
X12377943Y-11506844D01*
X12387467Y-11497320D01*
X12406514Y-11487796D01*
X12558895Y-11668748D02*
X12568419Y-11678272D01*
X12558895Y-11687796D01*
X12549371Y-11678272D01*
X12558895Y-11668748D01*
X12558895Y-11687796D01*
X12739848Y-11554463D02*
X12739848Y-11687796D01*
X12692228Y-11478272D02*
X12644609Y-11621129D01*
X12768419Y-11621129D01*
X12882705Y-11487796D02*
X12901752Y-11487796D01*
X12920800Y-11497320D01*
X12930324Y-11506844D01*
X12939848Y-11525891D01*
X12949371Y-11563987D01*
X12949371Y-11611606D01*
X12939848Y-11649701D01*
X12930324Y-11668748D01*
X12920800Y-11678272D01*
X12901752Y-11687796D01*
X12882705Y-11687796D01*
X12863657Y-11678272D01*
X12854133Y-11668748D01*
X12844609Y-11649701D01*
X12835086Y-11611606D01*
X12835086Y-11563987D01*
X12844609Y-11525891D01*
X12854133Y-11506844D01*
X12863657Y-11497320D01*
X12882705Y-11487796D01*
X13073181Y-11487796D02*
X13092228Y-11487796D01*
X13111276Y-11497320D01*
X13120800Y-11506844D01*
X13130324Y-11525891D01*
X13139848Y-11563987D01*
X13139848Y-11611606D01*
X13130324Y-11649701D01*
X13120800Y-11668748D01*
X13111276Y-11678272D01*
X13092228Y-11687796D01*
X13073181Y-11687796D01*
X13054133Y-11678272D01*
X13044609Y-11668748D01*
X13035086Y-11649701D01*
X13025562Y-11611606D01*
X13025562Y-11563987D01*
X13035086Y-11525891D01*
X13044609Y-11506844D01*
X13054133Y-11497320D01*
X13073181Y-11487796D01*
X13225562Y-11687796D02*
X13225562Y-11554463D01*
X13225562Y-11573510D02*
X13235086Y-11563987D01*
X13254133Y-11554463D01*
X13282705Y-11554463D01*
X13301752Y-11563987D01*
X13311276Y-11583034D01*
X13311276Y-11687796D01*
X13311276Y-11583034D02*
X13320800Y-11563987D01*
X13339848Y-11554463D01*
X13368419Y-11554463D01*
X13387467Y-11563987D01*
X13396990Y-11583034D01*
X13396990Y-11687796D01*
X13492228Y-11687796D02*
X13492228Y-11554463D01*
X13492228Y-11573510D02*
X13501752Y-11563987D01*
X13520800Y-11554463D01*
X13549371Y-11554463D01*
X13568419Y-11563987D01*
X13577943Y-11583034D01*
X13577943Y-11687796D01*
X13577943Y-11583034D02*
X13587467Y-11563987D01*
X13606514Y-11554463D01*
X13635086Y-11554463D01*
X13654133Y-11563987D01*
X13663657Y-11583034D01*
X13663657Y-11687796D01*
X14054133Y-11478272D02*
X13882705Y-11735415D01*
X14311276Y-11487796D02*
X14330324Y-11487796D01*
X14349371Y-11497320D01*
X14358895Y-11506844D01*
X14368419Y-11525891D01*
X14377943Y-11563987D01*
X14377943Y-11611606D01*
X14368419Y-11649701D01*
X14358895Y-11668748D01*
X14349371Y-11678272D01*
X14330324Y-11687796D01*
X14311276Y-11687796D01*
X14292228Y-11678272D01*
X14282705Y-11668748D01*
X14273181Y-11649701D01*
X14263657Y-11611606D01*
X14263657Y-11563987D01*
X14273181Y-11525891D01*
X14282705Y-11506844D01*
X14292228Y-11497320D01*
X14311276Y-11487796D01*
X14463657Y-11668748D02*
X14473181Y-11678272D01*
X14463657Y-11687796D01*
X14454133Y-11678272D01*
X14463657Y-11668748D01*
X14463657Y-11687796D01*
X14596990Y-11487796D02*
X14616038Y-11487796D01*
X14635086Y-11497320D01*
X14644609Y-11506844D01*
X14654133Y-11525891D01*
X14663657Y-11563987D01*
X14663657Y-11611606D01*
X14654133Y-11649701D01*
X14644609Y-11668748D01*
X14635086Y-11678272D01*
X14616038Y-11687796D01*
X14596990Y-11687796D01*
X14577943Y-11678272D01*
X14568419Y-11668748D01*
X14558895Y-11649701D01*
X14549371Y-11611606D01*
X14549371Y-11563987D01*
X14558895Y-11525891D01*
X14568419Y-11506844D01*
X14577943Y-11497320D01*
X14596990Y-11487796D01*
X14854133Y-11687796D02*
X14739848Y-11687796D01*
X14796990Y-11687796D02*
X14796990Y-11487796D01*
X14777943Y-11516368D01*
X14758895Y-11535415D01*
X14739848Y-11544939D01*
X15035086Y-11487796D02*
X14939848Y-11487796D01*
X14930324Y-11583034D01*
X14939848Y-11573510D01*
X14958895Y-11563987D01*
X15006514Y-11563987D01*
X15025562Y-11573510D01*
X15035086Y-11583034D01*
X15044609Y-11602082D01*
X15044609Y-11649701D01*
X15035086Y-11668748D01*
X15025562Y-11678272D01*
X15006514Y-11687796D01*
X14958895Y-11687796D01*
X14939848Y-11678272D01*
X14930324Y-11668748D01*
X15111276Y-11487796D02*
X15244609Y-11487796D01*
X15158895Y-11687796D01*
X15311276Y-11487796D02*
X15311276Y-11525891D01*
X15387467Y-11487796D02*
X15387467Y-11525891D01*
X15682705Y-11763987D02*
X15673181Y-11754463D01*
X15654133Y-11725891D01*
X15644609Y-11706844D01*
X15635086Y-11678272D01*
X15625562Y-11630653D01*
X15625562Y-11592558D01*
X15635086Y-11544939D01*
X15644609Y-11516368D01*
X15654133Y-11497320D01*
X15673181Y-11468748D01*
X15682705Y-11459225D01*
X15739848Y-11487796D02*
X15863657Y-11487796D01*
X15796990Y-11563987D01*
X15825562Y-11563987D01*
X15844609Y-11573510D01*
X15854133Y-11583034D01*
X15863657Y-11602082D01*
X15863657Y-11649701D01*
X15854133Y-11668748D01*
X15844609Y-11678272D01*
X15825562Y-11687796D01*
X15768419Y-11687796D01*
X15749371Y-11678272D01*
X15739848Y-11668748D01*
X15930324Y-11487796D02*
X16054133Y-11487796D01*
X15987467Y-11563987D01*
X16016038Y-11563987D01*
X16035086Y-11573510D01*
X16044609Y-11583034D01*
X16054133Y-11602082D01*
X16054133Y-11649701D01*
X16044609Y-11668748D01*
X16035086Y-11678272D01*
X16016038Y-11687796D01*
X15958895Y-11687796D01*
X15939848Y-11678272D01*
X15930324Y-11668748D01*
X16292228Y-11687796D02*
X16292228Y-11487796D01*
X16377943Y-11687796D02*
X16377943Y-11583034D01*
X16368419Y-11563987D01*
X16349371Y-11554463D01*
X16320800Y-11554463D01*
X16301752Y-11563987D01*
X16292228Y-11573510D01*
X16501752Y-11687796D02*
X16482705Y-11678272D01*
X16473181Y-11668748D01*
X16463657Y-11649701D01*
X16463657Y-11592558D01*
X16473181Y-11573510D01*
X16482705Y-11563987D01*
X16501752Y-11554463D01*
X16530324Y-11554463D01*
X16549371Y-11563987D01*
X16558895Y-11573510D01*
X16568419Y-11592558D01*
X16568419Y-11649701D01*
X16558895Y-11668748D01*
X16549371Y-11678272D01*
X16530324Y-11687796D01*
X16501752Y-11687796D01*
X16682705Y-11687796D02*
X16663657Y-11678272D01*
X16654133Y-11659225D01*
X16654133Y-11487796D01*
X16835086Y-11678272D02*
X16816038Y-11687796D01*
X16777943Y-11687796D01*
X16758895Y-11678272D01*
X16749371Y-11659225D01*
X16749371Y-11583034D01*
X16758895Y-11563987D01*
X16777943Y-11554463D01*
X16816038Y-11554463D01*
X16835086Y-11563987D01*
X16844610Y-11583034D01*
X16844610Y-11602082D01*
X16749371Y-11621129D01*
X16920800Y-11678272D02*
X16939848Y-11687796D01*
X16977943Y-11687796D01*
X16996990Y-11678272D01*
X17006514Y-11659225D01*
X17006514Y-11649701D01*
X16996990Y-11630653D01*
X16977943Y-11621129D01*
X16949371Y-11621129D01*
X16930324Y-11611606D01*
X16920800Y-11592558D01*
X16920800Y-11583034D01*
X16930324Y-11563987D01*
X16949371Y-11554463D01*
X16977943Y-11554463D01*
X16996990Y-11563987D01*
X17073181Y-11763987D02*
X17082705Y-11754463D01*
X17101752Y-11725891D01*
X17111276Y-11706844D01*
X17120800Y-11678272D01*
X17130324Y-11630653D01*
X17130324Y-11592558D01*
X17120800Y-11544939D01*
X17111276Y-11516368D01*
X17101752Y-11497320D01*
X17082705Y-11468748D01*
X17073181Y-11459225D01*
D14*
X12085800Y-11836320D02*
X12085800Y-11886320D01*
X12060800Y-11861320D02*
X12110800Y-11861320D01*
D11*
X12406514Y-11751796D02*
X12425562Y-11751796D01*
X12444609Y-11761320D01*
X12454133Y-11770844D01*
X12463657Y-11789891D01*
X12473181Y-11827987D01*
X12473181Y-11875606D01*
X12463657Y-11913701D01*
X12454133Y-11932748D01*
X12444609Y-11942272D01*
X12425562Y-11951796D01*
X12406514Y-11951796D01*
X12387467Y-11942272D01*
X12377943Y-11932748D01*
X12368419Y-11913701D01*
X12358895Y-11875606D01*
X12358895Y-11827987D01*
X12368419Y-11789891D01*
X12377943Y-11770844D01*
X12387467Y-11761320D01*
X12406514Y-11751796D01*
X12558895Y-11932748D02*
X12568419Y-11942272D01*
X12558895Y-11951796D01*
X12549371Y-11942272D01*
X12558895Y-11932748D01*
X12558895Y-11951796D01*
X12749371Y-11751796D02*
X12654133Y-11751796D01*
X12644609Y-11847034D01*
X12654133Y-11837510D01*
X12673181Y-11827987D01*
X12720800Y-11827987D01*
X12739848Y-11837510D01*
X12749371Y-11847034D01*
X12758895Y-11866082D01*
X12758895Y-11913701D01*
X12749371Y-11932748D01*
X12739848Y-11942272D01*
X12720800Y-11951796D01*
X12673181Y-11951796D01*
X12654133Y-11942272D01*
X12644609Y-11932748D01*
X12882705Y-11751796D02*
X12901752Y-11751796D01*
X12920800Y-11761320D01*
X12930324Y-11770844D01*
X12939848Y-11789891D01*
X12949371Y-11827987D01*
X12949371Y-11875606D01*
X12939848Y-11913701D01*
X12930324Y-11932748D01*
X12920800Y-11942272D01*
X12901752Y-11951796D01*
X12882705Y-11951796D01*
X12863657Y-11942272D01*
X12854133Y-11932748D01*
X12844609Y-11913701D01*
X12835086Y-11875606D01*
X12835086Y-11827987D01*
X12844609Y-11789891D01*
X12854133Y-11770844D01*
X12863657Y-11761320D01*
X12882705Y-11751796D01*
X13073181Y-11751796D02*
X13092228Y-11751796D01*
X13111276Y-11761320D01*
X13120800Y-11770844D01*
X13130324Y-11789891D01*
X13139848Y-11827987D01*
X13139848Y-11875606D01*
X13130324Y-11913701D01*
X13120800Y-11932748D01*
X13111276Y-11942272D01*
X13092228Y-11951796D01*
X13073181Y-11951796D01*
X13054133Y-11942272D01*
X13044609Y-11932748D01*
X13035086Y-11913701D01*
X13025562Y-11875606D01*
X13025562Y-11827987D01*
X13035086Y-11789891D01*
X13044609Y-11770844D01*
X13054133Y-11761320D01*
X13073181Y-11751796D01*
X13225562Y-11951796D02*
X13225562Y-11818463D01*
X13225562Y-11837510D02*
X13235086Y-11827987D01*
X13254133Y-11818463D01*
X13282705Y-11818463D01*
X13301752Y-11827987D01*
X13311276Y-11847034D01*
X13311276Y-11951796D01*
X13311276Y-11847034D02*
X13320800Y-11827987D01*
X13339848Y-11818463D01*
X13368419Y-11818463D01*
X13387467Y-11827987D01*
X13396990Y-11847034D01*
X13396990Y-11951796D01*
X13492228Y-11951796D02*
X13492228Y-11818463D01*
X13492228Y-11837510D02*
X13501752Y-11827987D01*
X13520800Y-11818463D01*
X13549371Y-11818463D01*
X13568419Y-11827987D01*
X13577943Y-11847034D01*
X13577943Y-11951796D01*
X13577943Y-11847034D02*
X13587467Y-11827987D01*
X13606514Y-11818463D01*
X13635086Y-11818463D01*
X13654133Y-11827987D01*
X13663657Y-11847034D01*
X13663657Y-11951796D01*
X14054133Y-11742272D02*
X13882705Y-11999415D01*
X14311276Y-11751796D02*
X14330324Y-11751796D01*
X14349371Y-11761320D01*
X14358895Y-11770844D01*
X14368419Y-11789891D01*
X14377943Y-11827987D01*
X14377943Y-11875606D01*
X14368419Y-11913701D01*
X14358895Y-11932748D01*
X14349371Y-11942272D01*
X14330324Y-11951796D01*
X14311276Y-11951796D01*
X14292228Y-11942272D01*
X14282705Y-11932748D01*
X14273181Y-11913701D01*
X14263657Y-11875606D01*
X14263657Y-11827987D01*
X14273181Y-11789891D01*
X14282705Y-11770844D01*
X14292228Y-11761320D01*
X14311276Y-11751796D01*
X14463657Y-11932748D02*
X14473181Y-11942272D01*
X14463657Y-11951796D01*
X14454133Y-11942272D01*
X14463657Y-11932748D01*
X14463657Y-11951796D01*
X14596990Y-11751796D02*
X14616038Y-11751796D01*
X14635086Y-11761320D01*
X14644609Y-11770844D01*
X14654133Y-11789891D01*
X14663657Y-11827987D01*
X14663657Y-11875606D01*
X14654133Y-11913701D01*
X14644609Y-11932748D01*
X14635086Y-11942272D01*
X14616038Y-11951796D01*
X14596990Y-11951796D01*
X14577943Y-11942272D01*
X14568419Y-11932748D01*
X14558895Y-11913701D01*
X14549371Y-11875606D01*
X14549371Y-11827987D01*
X14558895Y-11789891D01*
X14568419Y-11770844D01*
X14577943Y-11761320D01*
X14596990Y-11751796D01*
X14854133Y-11951796D02*
X14739848Y-11951796D01*
X14796990Y-11951796D02*
X14796990Y-11751796D01*
X14777943Y-11780368D01*
X14758895Y-11799415D01*
X14739848Y-11808939D01*
X14949371Y-11951796D02*
X14987467Y-11951796D01*
X15006514Y-11942272D01*
X15016038Y-11932748D01*
X15035086Y-11904177D01*
X15044609Y-11866082D01*
X15044609Y-11789891D01*
X15035086Y-11770844D01*
X15025562Y-11761320D01*
X15006514Y-11751796D01*
X14968419Y-11751796D01*
X14949371Y-11761320D01*
X14939848Y-11770844D01*
X14930324Y-11789891D01*
X14930324Y-11837510D01*
X14939848Y-11856558D01*
X14949371Y-11866082D01*
X14968419Y-11875606D01*
X15006514Y-11875606D01*
X15025562Y-11866082D01*
X15035086Y-11856558D01*
X15044609Y-11837510D01*
X15111276Y-11751796D02*
X15244609Y-11751796D01*
X15158895Y-11951796D01*
X15311276Y-11751796D02*
X15311276Y-11789891D01*
X15387467Y-11751796D02*
X15387467Y-11789891D01*
X15682705Y-12027987D02*
X15673181Y-12018463D01*
X15654133Y-11989891D01*
X15644609Y-11970844D01*
X15635086Y-11942272D01*
X15625562Y-11894653D01*
X15625562Y-11856558D01*
X15635086Y-11808939D01*
X15644609Y-11780368D01*
X15654133Y-11761320D01*
X15673181Y-11732748D01*
X15682705Y-11723225D01*
X15749371Y-11770844D02*
X15758895Y-11761320D01*
X15777943Y-11751796D01*
X15825562Y-11751796D01*
X15844609Y-11761320D01*
X15854133Y-11770844D01*
X15863657Y-11789891D01*
X15863657Y-11808939D01*
X15854133Y-11837510D01*
X15739848Y-11951796D01*
X15863657Y-11951796D01*
X16101752Y-11951796D02*
X16101752Y-11751796D01*
X16187467Y-11951796D02*
X16187467Y-11847034D01*
X16177943Y-11827987D01*
X16158895Y-11818463D01*
X16130324Y-11818463D01*
X16111276Y-11827987D01*
X16101752Y-11837510D01*
X16311276Y-11951796D02*
X16292228Y-11942272D01*
X16282705Y-11932748D01*
X16273181Y-11913701D01*
X16273181Y-11856558D01*
X16282705Y-11837510D01*
X16292228Y-11827987D01*
X16311276Y-11818463D01*
X16339848Y-11818463D01*
X16358895Y-11827987D01*
X16368419Y-11837510D01*
X16377943Y-11856558D01*
X16377943Y-11913701D01*
X16368419Y-11932748D01*
X16358895Y-11942272D01*
X16339848Y-11951796D01*
X16311276Y-11951796D01*
X16492228Y-11951796D02*
X16473181Y-11942272D01*
X16463657Y-11923225D01*
X16463657Y-11751796D01*
X16644609Y-11942272D02*
X16625562Y-11951796D01*
X16587467Y-11951796D01*
X16568419Y-11942272D01*
X16558895Y-11923225D01*
X16558895Y-11847034D01*
X16568419Y-11827987D01*
X16587467Y-11818463D01*
X16625562Y-11818463D01*
X16644609Y-11827987D01*
X16654133Y-11847034D01*
X16654133Y-11866082D01*
X16558895Y-11885129D01*
X16730324Y-11942272D02*
X16749371Y-11951796D01*
X16787467Y-11951796D01*
X16806514Y-11942272D01*
X16816038Y-11923225D01*
X16816038Y-11913701D01*
X16806514Y-11894653D01*
X16787467Y-11885129D01*
X16758895Y-11885129D01*
X16739848Y-11875606D01*
X16730324Y-11856558D01*
X16730324Y-11847034D01*
X16739848Y-11827987D01*
X16758895Y-11818463D01*
X16787467Y-11818463D01*
X16806514Y-11827987D01*
X16882705Y-12027987D02*
X16892229Y-12018463D01*
X16911276Y-11989891D01*
X16920800Y-11970844D01*
X16930324Y-11942272D01*
X16939848Y-11894653D01*
X16939848Y-11856558D01*
X16930324Y-11808939D01*
X16920800Y-11780368D01*
X16911276Y-11761320D01*
X16892229Y-11732748D01*
X16882705Y-11723225D01*
D15*
X12096156Y-12160676D02*
X12096156Y-12089964D01*
X12025444Y-12089964D01*
X12025444Y-12160676D01*
X12096156Y-12160676D01*
D11*
X12473181Y-12215796D02*
X12358895Y-12215796D01*
X12416038Y-12215796D02*
X12416038Y-12015796D01*
X12396990Y-12044368D01*
X12377943Y-12063415D01*
X12358895Y-12072939D01*
X12558895Y-12196748D02*
X12568419Y-12206272D01*
X12558895Y-12215796D01*
X12549371Y-12206272D01*
X12558895Y-12196748D01*
X12558895Y-12215796D01*
X12692228Y-12015796D02*
X12711276Y-12015796D01*
X12730324Y-12025320D01*
X12739848Y-12034844D01*
X12749371Y-12053891D01*
X12758895Y-12091987D01*
X12758895Y-12139606D01*
X12749371Y-12177701D01*
X12739848Y-12196748D01*
X12730324Y-12206272D01*
X12711276Y-12215796D01*
X12692228Y-12215796D01*
X12673181Y-12206272D01*
X12663657Y-12196748D01*
X12654133Y-12177701D01*
X12644609Y-12139606D01*
X12644609Y-12091987D01*
X12654133Y-12053891D01*
X12663657Y-12034844D01*
X12673181Y-12025320D01*
X12692228Y-12015796D01*
X12882705Y-12015796D02*
X12901752Y-12015796D01*
X12920800Y-12025320D01*
X12930324Y-12034844D01*
X12939848Y-12053891D01*
X12949371Y-12091987D01*
X12949371Y-12139606D01*
X12939848Y-12177701D01*
X12930324Y-12196748D01*
X12920800Y-12206272D01*
X12901752Y-12215796D01*
X12882705Y-12215796D01*
X12863657Y-12206272D01*
X12854133Y-12196748D01*
X12844609Y-12177701D01*
X12835086Y-12139606D01*
X12835086Y-12091987D01*
X12844609Y-12053891D01*
X12854133Y-12034844D01*
X12863657Y-12025320D01*
X12882705Y-12015796D01*
X13073181Y-12015796D02*
X13092228Y-12015796D01*
X13111276Y-12025320D01*
X13120800Y-12034844D01*
X13130324Y-12053891D01*
X13139848Y-12091987D01*
X13139848Y-12139606D01*
X13130324Y-12177701D01*
X13120800Y-12196748D01*
X13111276Y-12206272D01*
X13092228Y-12215796D01*
X13073181Y-12215796D01*
X13054133Y-12206272D01*
X13044609Y-12196748D01*
X13035086Y-12177701D01*
X13025562Y-12139606D01*
X13025562Y-12091987D01*
X13035086Y-12053891D01*
X13044609Y-12034844D01*
X13054133Y-12025320D01*
X13073181Y-12015796D01*
X13225562Y-12215796D02*
X13225562Y-12082463D01*
X13225562Y-12101510D02*
X13235086Y-12091987D01*
X13254133Y-12082463D01*
X13282705Y-12082463D01*
X13301752Y-12091987D01*
X13311276Y-12111034D01*
X13311276Y-12215796D01*
X13311276Y-12111034D02*
X13320800Y-12091987D01*
X13339848Y-12082463D01*
X13368419Y-12082463D01*
X13387467Y-12091987D01*
X13396990Y-12111034D01*
X13396990Y-12215796D01*
X13492228Y-12215796D02*
X13492228Y-12082463D01*
X13492228Y-12101510D02*
X13501752Y-12091987D01*
X13520800Y-12082463D01*
X13549371Y-12082463D01*
X13568419Y-12091987D01*
X13577943Y-12111034D01*
X13577943Y-12215796D01*
X13577943Y-12111034D02*
X13587467Y-12091987D01*
X13606514Y-12082463D01*
X13635086Y-12082463D01*
X13654133Y-12091987D01*
X13663657Y-12111034D01*
X13663657Y-12215796D01*
X14054133Y-12006272D02*
X13882705Y-12263415D01*
X14311276Y-12015796D02*
X14330324Y-12015796D01*
X14349371Y-12025320D01*
X14358895Y-12034844D01*
X14368419Y-12053891D01*
X14377943Y-12091987D01*
X14377943Y-12139606D01*
X14368419Y-12177701D01*
X14358895Y-12196748D01*
X14349371Y-12206272D01*
X14330324Y-12215796D01*
X14311276Y-12215796D01*
X14292228Y-12206272D01*
X14282705Y-12196748D01*
X14273181Y-12177701D01*
X14263657Y-12139606D01*
X14263657Y-12091987D01*
X14273181Y-12053891D01*
X14282705Y-12034844D01*
X14292228Y-12025320D01*
X14311276Y-12015796D01*
X14463657Y-12196748D02*
X14473181Y-12206272D01*
X14463657Y-12215796D01*
X14454133Y-12206272D01*
X14463657Y-12196748D01*
X14463657Y-12215796D01*
X14596990Y-12015796D02*
X14616038Y-12015796D01*
X14635086Y-12025320D01*
X14644609Y-12034844D01*
X14654133Y-12053891D01*
X14663657Y-12091987D01*
X14663657Y-12139606D01*
X14654133Y-12177701D01*
X14644609Y-12196748D01*
X14635086Y-12206272D01*
X14616038Y-12215796D01*
X14596990Y-12215796D01*
X14577943Y-12206272D01*
X14568419Y-12196748D01*
X14558895Y-12177701D01*
X14549371Y-12139606D01*
X14549371Y-12091987D01*
X14558895Y-12053891D01*
X14568419Y-12034844D01*
X14577943Y-12025320D01*
X14596990Y-12015796D01*
X14730324Y-12015796D02*
X14854133Y-12015796D01*
X14787467Y-12091987D01*
X14816038Y-12091987D01*
X14835086Y-12101510D01*
X14844609Y-12111034D01*
X14854133Y-12130082D01*
X14854133Y-12177701D01*
X14844609Y-12196748D01*
X14835086Y-12206272D01*
X14816038Y-12215796D01*
X14758895Y-12215796D01*
X14739848Y-12206272D01*
X14730324Y-12196748D01*
X14949371Y-12215796D02*
X14987467Y-12215796D01*
X15006514Y-12206272D01*
X15016038Y-12196748D01*
X15035086Y-12168177D01*
X15044609Y-12130082D01*
X15044609Y-12053891D01*
X15035086Y-12034844D01*
X15025562Y-12025320D01*
X15006514Y-12015796D01*
X14968419Y-12015796D01*
X14949371Y-12025320D01*
X14939848Y-12034844D01*
X14930324Y-12053891D01*
X14930324Y-12101510D01*
X14939848Y-12120558D01*
X14949371Y-12130082D01*
X14968419Y-12139606D01*
X15006514Y-12139606D01*
X15025562Y-12130082D01*
X15035086Y-12120558D01*
X15044609Y-12101510D01*
X15216038Y-12082463D02*
X15216038Y-12215796D01*
X15168419Y-12006272D02*
X15120800Y-12149129D01*
X15244609Y-12149129D01*
X15311276Y-12015796D02*
X15311276Y-12053891D01*
X15387467Y-12015796D02*
X15387467Y-12053891D01*
X15682705Y-12291987D02*
X15673181Y-12282463D01*
X15654133Y-12253891D01*
X15644609Y-12234844D01*
X15635086Y-12206272D01*
X15625562Y-12158653D01*
X15625562Y-12120558D01*
X15635086Y-12072939D01*
X15644609Y-12044368D01*
X15654133Y-12025320D01*
X15673181Y-11996748D01*
X15682705Y-11987225D01*
X15739848Y-12015796D02*
X15863657Y-12015796D01*
X15796990Y-12091987D01*
X15825562Y-12091987D01*
X15844609Y-12101510D01*
X15854133Y-12111034D01*
X15863657Y-12130082D01*
X15863657Y-12177701D01*
X15854133Y-12196748D01*
X15844609Y-12206272D01*
X15825562Y-12215796D01*
X15768419Y-12215796D01*
X15749371Y-12206272D01*
X15739848Y-12196748D01*
X15930324Y-12015796D02*
X16054133Y-12015796D01*
X15987467Y-12091987D01*
X16016038Y-12091987D01*
X16035086Y-12101510D01*
X16044609Y-12111034D01*
X16054133Y-12130082D01*
X16054133Y-12177701D01*
X16044609Y-12196748D01*
X16035086Y-12206272D01*
X16016038Y-12215796D01*
X15958895Y-12215796D01*
X15939848Y-12206272D01*
X15930324Y-12196748D01*
X16292228Y-12215796D02*
X16292228Y-12015796D01*
X16377943Y-12215796D02*
X16377943Y-12111034D01*
X16368419Y-12091987D01*
X16349371Y-12082463D01*
X16320800Y-12082463D01*
X16301752Y-12091987D01*
X16292228Y-12101510D01*
X16501752Y-12215796D02*
X16482705Y-12206272D01*
X16473181Y-12196748D01*
X16463657Y-12177701D01*
X16463657Y-12120558D01*
X16473181Y-12101510D01*
X16482705Y-12091987D01*
X16501752Y-12082463D01*
X16530324Y-12082463D01*
X16549371Y-12091987D01*
X16558895Y-12101510D01*
X16568419Y-12120558D01*
X16568419Y-12177701D01*
X16558895Y-12196748D01*
X16549371Y-12206272D01*
X16530324Y-12215796D01*
X16501752Y-12215796D01*
X16682705Y-12215796D02*
X16663657Y-12206272D01*
X16654133Y-12187225D01*
X16654133Y-12015796D01*
X16835086Y-12206272D02*
X16816038Y-12215796D01*
X16777943Y-12215796D01*
X16758895Y-12206272D01*
X16749371Y-12187225D01*
X16749371Y-12111034D01*
X16758895Y-12091987D01*
X16777943Y-12082463D01*
X16816038Y-12082463D01*
X16835086Y-12091987D01*
X16844610Y-12111034D01*
X16844610Y-12130082D01*
X16749371Y-12149129D01*
X16920800Y-12206272D02*
X16939848Y-12215796D01*
X16977943Y-12215796D01*
X16996990Y-12206272D01*
X17006514Y-12187225D01*
X17006514Y-12177701D01*
X16996990Y-12158653D01*
X16977943Y-12149129D01*
X16949371Y-12149129D01*
X16930324Y-12139606D01*
X16920800Y-12120558D01*
X16920800Y-12111034D01*
X16930324Y-12091987D01*
X16949371Y-12082463D01*
X16977943Y-12082463D01*
X16996990Y-12091987D01*
X17244610Y-12139606D02*
X17396990Y-12139606D01*
X17320800Y-12215796D02*
X17320800Y-12063415D01*
X17625562Y-12015796D02*
X17749371Y-12015796D01*
X17682705Y-12091987D01*
X17711276Y-12091987D01*
X17730324Y-12101510D01*
X17739848Y-12111034D01*
X17749371Y-12130082D01*
X17749371Y-12177701D01*
X17739848Y-12196748D01*
X17730324Y-12206272D01*
X17711276Y-12215796D01*
X17654133Y-12215796D01*
X17635086Y-12206272D01*
X17625562Y-12196748D01*
X17977943Y-12206272D02*
X17996990Y-12215796D01*
X18035086Y-12215796D01*
X18054133Y-12206272D01*
X18063657Y-12187225D01*
X18063657Y-12177701D01*
X18054133Y-12158653D01*
X18035086Y-12149129D01*
X18006514Y-12149129D01*
X17987467Y-12139606D01*
X17977943Y-12120558D01*
X17977943Y-12111034D01*
X17987467Y-12091987D01*
X18006514Y-12082463D01*
X18035086Y-12082463D01*
X18054133Y-12091987D01*
X18177943Y-12215796D02*
X18158895Y-12206272D01*
X18149371Y-12187225D01*
X18149371Y-12015796D01*
X18282705Y-12215796D02*
X18263657Y-12206272D01*
X18254133Y-12196748D01*
X18244610Y-12177701D01*
X18244610Y-12120558D01*
X18254133Y-12101510D01*
X18263657Y-12091987D01*
X18282705Y-12082463D01*
X18311276Y-12082463D01*
X18330324Y-12091987D01*
X18339848Y-12101510D01*
X18349371Y-12120558D01*
X18349371Y-12177701D01*
X18339848Y-12196748D01*
X18330324Y-12206272D01*
X18311276Y-12215796D01*
X18282705Y-12215796D01*
X18406514Y-12082463D02*
X18482705Y-12082463D01*
X18435086Y-12015796D02*
X18435086Y-12187225D01*
X18444610Y-12206272D01*
X18463657Y-12215796D01*
X18482705Y-12215796D01*
X18539848Y-12206272D02*
X18558895Y-12215796D01*
X18596990Y-12215796D01*
X18616038Y-12206272D01*
X18625562Y-12187225D01*
X18625562Y-12177701D01*
X18616038Y-12158653D01*
X18596990Y-12149129D01*
X18568419Y-12149129D01*
X18549371Y-12139606D01*
X18539848Y-12120558D01*
X18539848Y-12111034D01*
X18549371Y-12091987D01*
X18568419Y-12082463D01*
X18596990Y-12082463D01*
X18616038Y-12091987D01*
X18692229Y-12291987D02*
X18701752Y-12282463D01*
X18720800Y-12253891D01*
X18730324Y-12234844D01*
X18739848Y-12206272D01*
X18749371Y-12158653D01*
X18749371Y-12120558D01*
X18739848Y-12072939D01*
X18730324Y-12044368D01*
X18720800Y-12025320D01*
X18701752Y-11996748D01*
X18692229Y-11987225D01*
D16*
X12045800Y-12454320D02*
X12110800Y-12389320D01*
X12045800Y-12324320D01*
X11980800Y-12389320D01*
X12045800Y-12454320D01*
D11*
X12473181Y-12479796D02*
X12358895Y-12479796D01*
X12416038Y-12479796D02*
X12416038Y-12279796D01*
X12396990Y-12308368D01*
X12377943Y-12327415D01*
X12358895Y-12336939D01*
X12558895Y-12460748D02*
X12568419Y-12470272D01*
X12558895Y-12479796D01*
X12549371Y-12470272D01*
X12558895Y-12460748D01*
X12558895Y-12479796D01*
X12635086Y-12279796D02*
X12758895Y-12279796D01*
X12692228Y-12355987D01*
X12720800Y-12355987D01*
X12739848Y-12365510D01*
X12749371Y-12375034D01*
X12758895Y-12394082D01*
X12758895Y-12441701D01*
X12749371Y-12460748D01*
X12739848Y-12470272D01*
X12720800Y-12479796D01*
X12663657Y-12479796D01*
X12644609Y-12470272D01*
X12635086Y-12460748D01*
X12882705Y-12279796D02*
X12901752Y-12279796D01*
X12920800Y-12289320D01*
X12930324Y-12298844D01*
X12939848Y-12317891D01*
X12949371Y-12355987D01*
X12949371Y-12403606D01*
X12939848Y-12441701D01*
X12930324Y-12460748D01*
X12920800Y-12470272D01*
X12901752Y-12479796D01*
X12882705Y-12479796D01*
X12863657Y-12470272D01*
X12854133Y-12460748D01*
X12844609Y-12441701D01*
X12835086Y-12403606D01*
X12835086Y-12355987D01*
X12844609Y-12317891D01*
X12854133Y-12298844D01*
X12863657Y-12289320D01*
X12882705Y-12279796D01*
X13073181Y-12279796D02*
X13092228Y-12279796D01*
X13111276Y-12289320D01*
X13120800Y-12298844D01*
X13130324Y-12317891D01*
X13139848Y-12355987D01*
X13139848Y-12403606D01*
X13130324Y-12441701D01*
X13120800Y-12460748D01*
X13111276Y-12470272D01*
X13092228Y-12479796D01*
X13073181Y-12479796D01*
X13054133Y-12470272D01*
X13044609Y-12460748D01*
X13035086Y-12441701D01*
X13025562Y-12403606D01*
X13025562Y-12355987D01*
X13035086Y-12317891D01*
X13044609Y-12298844D01*
X13054133Y-12289320D01*
X13073181Y-12279796D01*
X13225562Y-12479796D02*
X13225562Y-12346463D01*
X13225562Y-12365510D02*
X13235086Y-12355987D01*
X13254133Y-12346463D01*
X13282705Y-12346463D01*
X13301752Y-12355987D01*
X13311276Y-12375034D01*
X13311276Y-12479796D01*
X13311276Y-12375034D02*
X13320800Y-12355987D01*
X13339848Y-12346463D01*
X13368419Y-12346463D01*
X13387467Y-12355987D01*
X13396990Y-12375034D01*
X13396990Y-12479796D01*
X13492228Y-12479796D02*
X13492228Y-12346463D01*
X13492228Y-12365510D02*
X13501752Y-12355987D01*
X13520800Y-12346463D01*
X13549371Y-12346463D01*
X13568419Y-12355987D01*
X13577943Y-12375034D01*
X13577943Y-12479796D01*
X13577943Y-12375034D02*
X13587467Y-12355987D01*
X13606514Y-12346463D01*
X13635086Y-12346463D01*
X13654133Y-12355987D01*
X13663657Y-12375034D01*
X13663657Y-12479796D01*
X14054133Y-12270272D02*
X13882705Y-12527415D01*
X14311276Y-12279796D02*
X14330324Y-12279796D01*
X14349371Y-12289320D01*
X14358895Y-12298844D01*
X14368419Y-12317891D01*
X14377943Y-12355987D01*
X14377943Y-12403606D01*
X14368419Y-12441701D01*
X14358895Y-12460748D01*
X14349371Y-12470272D01*
X14330324Y-12479796D01*
X14311276Y-12479796D01*
X14292228Y-12470272D01*
X14282705Y-12460748D01*
X14273181Y-12441701D01*
X14263657Y-12403606D01*
X14263657Y-12355987D01*
X14273181Y-12317891D01*
X14282705Y-12298844D01*
X14292228Y-12289320D01*
X14311276Y-12279796D01*
X14463657Y-12460748D02*
X14473181Y-12470272D01*
X14463657Y-12479796D01*
X14454133Y-12470272D01*
X14463657Y-12460748D01*
X14463657Y-12479796D01*
X14596990Y-12279796D02*
X14616038Y-12279796D01*
X14635086Y-12289320D01*
X14644609Y-12298844D01*
X14654133Y-12317891D01*
X14663657Y-12355987D01*
X14663657Y-12403606D01*
X14654133Y-12441701D01*
X14644609Y-12460748D01*
X14635086Y-12470272D01*
X14616038Y-12479796D01*
X14596990Y-12479796D01*
X14577943Y-12470272D01*
X14568419Y-12460748D01*
X14558895Y-12441701D01*
X14549371Y-12403606D01*
X14549371Y-12355987D01*
X14558895Y-12317891D01*
X14568419Y-12298844D01*
X14577943Y-12289320D01*
X14596990Y-12279796D01*
X14844609Y-12279796D02*
X14749371Y-12279796D01*
X14739848Y-12375034D01*
X14749371Y-12365510D01*
X14768419Y-12355987D01*
X14816038Y-12355987D01*
X14835086Y-12365510D01*
X14844609Y-12375034D01*
X14854133Y-12394082D01*
X14854133Y-12441701D01*
X14844609Y-12460748D01*
X14835086Y-12470272D01*
X14816038Y-12479796D01*
X14768419Y-12479796D01*
X14749371Y-12470272D01*
X14739848Y-12460748D01*
X15044609Y-12479796D02*
X14930324Y-12479796D01*
X14987467Y-12479796D02*
X14987467Y-12279796D01*
X14968419Y-12308368D01*
X14949371Y-12327415D01*
X14930324Y-12336939D01*
X15120800Y-12298844D02*
X15130324Y-12289320D01*
X15149371Y-12279796D01*
X15196990Y-12279796D01*
X15216038Y-12289320D01*
X15225562Y-12298844D01*
X15235086Y-12317891D01*
X15235086Y-12336939D01*
X15225562Y-12365510D01*
X15111276Y-12479796D01*
X15235086Y-12479796D01*
X15311276Y-12279796D02*
X15311276Y-12317891D01*
X15387467Y-12279796D02*
X15387467Y-12317891D01*
X15682705Y-12555987D02*
X15673181Y-12546463D01*
X15654133Y-12517891D01*
X15644609Y-12498844D01*
X15635086Y-12470272D01*
X15625562Y-12422653D01*
X15625562Y-12384558D01*
X15635086Y-12336939D01*
X15644609Y-12308368D01*
X15654133Y-12289320D01*
X15673181Y-12260748D01*
X15682705Y-12251225D01*
X15749371Y-12298844D02*
X15758895Y-12289320D01*
X15777943Y-12279796D01*
X15825562Y-12279796D01*
X15844609Y-12289320D01*
X15854133Y-12298844D01*
X15863657Y-12317891D01*
X15863657Y-12336939D01*
X15854133Y-12365510D01*
X15739848Y-12479796D01*
X15863657Y-12479796D01*
X16101752Y-12479796D02*
X16101752Y-12279796D01*
X16187467Y-12479796D02*
X16187467Y-12375034D01*
X16177943Y-12355987D01*
X16158895Y-12346463D01*
X16130324Y-12346463D01*
X16111276Y-12355987D01*
X16101752Y-12365510D01*
X16311276Y-12479796D02*
X16292228Y-12470272D01*
X16282705Y-12460748D01*
X16273181Y-12441701D01*
X16273181Y-12384558D01*
X16282705Y-12365510D01*
X16292228Y-12355987D01*
X16311276Y-12346463D01*
X16339848Y-12346463D01*
X16358895Y-12355987D01*
X16368419Y-12365510D01*
X16377943Y-12384558D01*
X16377943Y-12441701D01*
X16368419Y-12460748D01*
X16358895Y-12470272D01*
X16339848Y-12479796D01*
X16311276Y-12479796D01*
X16492228Y-12479796D02*
X16473181Y-12470272D01*
X16463657Y-12451225D01*
X16463657Y-12279796D01*
X16644609Y-12470272D02*
X16625562Y-12479796D01*
X16587467Y-12479796D01*
X16568419Y-12470272D01*
X16558895Y-12451225D01*
X16558895Y-12375034D01*
X16568419Y-12355987D01*
X16587467Y-12346463D01*
X16625562Y-12346463D01*
X16644609Y-12355987D01*
X16654133Y-12375034D01*
X16654133Y-12394082D01*
X16558895Y-12413129D01*
X16730324Y-12470272D02*
X16749371Y-12479796D01*
X16787467Y-12479796D01*
X16806514Y-12470272D01*
X16816038Y-12451225D01*
X16816038Y-12441701D01*
X16806514Y-12422653D01*
X16787467Y-12413129D01*
X16758895Y-12413129D01*
X16739848Y-12403606D01*
X16730324Y-12384558D01*
X16730324Y-12375034D01*
X16739848Y-12355987D01*
X16758895Y-12346463D01*
X16787467Y-12346463D01*
X16806514Y-12355987D01*
X16882705Y-12555987D02*
X16892229Y-12546463D01*
X16911276Y-12517891D01*
X16920800Y-12498844D01*
X16930324Y-12470272D01*
X16939848Y-12422653D01*
X16939848Y-12384558D01*
X16930324Y-12336939D01*
X16920800Y-12308368D01*
X16911276Y-12289320D01*
X16892229Y-12260748D01*
X16882705Y-12251225D01*
M02*
